<svg id="Layer_1" data-name="Layer 1" xmlns="http://www.w3.org/2000/svg" viewBox="0 0 253.01 66.42"><defs><style>.cls-1{fill:#ef4036;}.cls-2{fill:#662f8f;}</style></defs><title>logo astramaya</title><path class="cls-1" d="M147.23,46.9l.06-16.83h4.09V45.43a2.56,2.56,0,0,0,2.39,1.88c1.65,0,2-1.88,2-1.88l0-15.49H160V47h12.61v-26A12.29,12.29,0,0,0,170.13,16c-1.52-1.73-5.18-2.75-5.18-2.75H138.84A12.26,12.26,0,0,0,133.08,16c-1.53,1.49-2.56,5-2.56,5V47.61a14.21,14.21,0,0,0,2.5,5.24c1.11,1.2,4.93,2.5,4.93,2.5l34.81.13V51.32H138.27s-3.27-1.67-3.46-4.8S134.68,21,134.68,21s1.47-3.52,4.1-3.65,25.66.06,25.66.06a5.25,5.25,0,0,1,3.9,3.71l.19,21.7h-4.28l-.07-14.34a4.07,4.07,0,0,0-2.36-2.56l-15.75-.06a3.28,3.28,0,0,0-2.94,2.81l.06,15.75a3,3,0,0,0,2.24,2.43Z"/><path class="cls-2" d="M37.49,46.7H32.16L30,41.44h-9.7l-2,5.26h-5.2l9.45-23.15h5.18Zm-9-9.16L25.12,29l-3.28,8.59Z"/><path class="cls-2" d="M38.85,39.17l4.76-.44a5.49,5.49,0,0,0,1.75,3.36,5.43,5.43,0,0,0,3.55,1.07,5.63,5.63,0,0,0,3.57-.95A2.81,2.81,0,0,0,53.68,40a2,2,0,0,0-.51-1.39,4,4,0,0,0-1.76-1c-.57-.19-1.88-.52-3.92-1A13.53,13.53,0,0,1,42,34.27a5.92,5.92,0,0,1-2.24-4.66,5.77,5.77,0,0,1,1.05-3.31,6.57,6.57,0,0,1,3-2.34,12.61,12.61,0,0,1,4.78-.81c3,0,5.34.64,6.88,1.91a6.64,6.64,0,0,1,2.42,5.11l-4.9.2a3.94,3.94,0,0,0-1.35-2.57,5.11,5.11,0,0,0-3.1-.78,5.77,5.77,0,0,0-3.34.84,1.67,1.67,0,0,0-.78,1.44,1.74,1.74,0,0,0,.73,1.4,13.06,13.06,0,0,0,4.5,1.55,24.58,24.58,0,0,1,5.29,1.67,6.31,6.31,0,0,1,3.65,6,6.59,6.59,0,0,1-1.16,3.72,6.93,6.93,0,0,1-3.28,2.59,14.39,14.39,0,0,1-5.28.84c-3.07,0-5.42-.67-7.07-2A8.67,8.67,0,0,1,38.85,39.17Z"/><path class="cls-2" d="M68.16,46.7V27.46H61V23.55H80.25v3.91H73.06V46.7Z"/><path class="cls-2" d="M83.42,46.7V23.55H93.74a18.68,18.68,0,0,1,5.65.62,5.52,5.52,0,0,1,2.82,2.22A6.41,6.41,0,0,1,103.27,30a6,6,0,0,1-1.6,4.3,7.85,7.85,0,0,1-4.8,2.14,11.24,11.24,0,0,1,2.62,2,25.93,25.93,0,0,1,2.79,3.75l3,4.52H99.38l-3.54-5a33.79,33.79,0,0,0-2.58-3.4,3.76,3.76,0,0,0-1.48-1A8.17,8.17,0,0,0,89.32,37h-1V46.7Zm4.9-13.36H92a20.27,20.27,0,0,0,4.4-.28,2.64,2.64,0,0,0,1.38-1,3,3,0,0,0,.49-1.74,2.68,2.68,0,0,0-.65-1.89,3.07,3.07,0,0,0-1.85-.91c-.39-.05-1.59-.08-3.57-.08H88.32Z"/><path class="cls-2" d="M129.77,46.7h-5.33l-2.11-5.26h-9.7l-2,5.26h-5.2l9.46-23.15h5.18Zm-9-9.16L117.41,29l-3.28,8.59Z"/><path class="cls-2" d="M197.66,46.7h-5.33l-2.12-5.26h-9.7l-2,5.26h-5.2l9.45-23.15h5.18Zm-9-9.16L185.29,29,182,37.54Z"/><path class="cls-2" d="M203.52,46.7V37l-8.89-13.41h5.74l5.71,9.16,5.6-9.16h5.64L208.4,37V46.7Z"/><path class="cls-2" d="M238.53,46.7H233.2l-2.12-5.26h-9.7l-2,5.26h-5.2l9.45-23.15h5.18Zm-9-9.16L226.16,29l-3.27,8.59Z"/></svg>