<svg id="Layer_1" data-name="Layer 1" xmlns="http://www.w3.org/2000/svg" viewBox="0 0 128 128"><defs><style>.cls-1{fill:#75b546;}.cls-1,.cls-2,.cls-3{fill-rule:evenodd;}.cls-2{fill:#e18a39;}.cls-3{fill:#2e95ca;}</style></defs><path class="cls-1" d="M28.94,110h15A2.59,2.59,0,0,0,46.31,108l6.09-25.6H72.81a2.59,2.59,0,0,0,2.38-1.92L81.6,53.58a1.47,1.47,0,0,0-1.46-1.92h-15a2.59,2.59,0,0,0-2.38,1.92l-6.09,25.6H36.26a2.6,2.6,0,0,0-2.38,1.92L27.47,108A1.47,1.47,0,0,0,28.94,110Z"/><path class="cls-2" d="M81.64,76.34h15A2.59,2.59,0,0,0,99,74.42l6.41-26.93A1.47,1.47,0,0,0,104,45.57H83.53l4.35-18.3c15.69,2,27.31,8.8,29.46,16.89C121,57.84,113.59,66,101.46,76c15.83-10.49,25.35-21.43,20.78-35.44-2.86-8.76-16-15.69-33.12-17.1,1.77-2.75,5.54-4.92,9.47-5.45H73.16A2.59,2.59,0,0,0,70.78,20l-1,4.29A84.68,84.68,0,0,0,55.7,27.7,116.21,116.21,0,0,0,32.16,38.21c6.4-2.78,12.69-5.19,19.19-7.3a87.47,87.47,0,0,1,17.73-3.8L64.37,46.9a1.48,1.48,0,0,0,1.47,1.92H86.27l-6.1,25.6a1.47,1.47,0,0,0,1.47,1.92Z"/><path class="cls-3" d="M43.41,18.05h-15A2.59,2.59,0,0,0,26,20L19.63,46.9a1.47,1.47,0,0,0,1.46,1.92h3.6C11.48,58.64,3.11,69,4.84,81.2,6,89.45,15.68,95.66,29.91,97.8L31,93.27c-11.52-2.83-18.88-8.76-19.47-16-.95-11.78,5.27-19.8,15.1-28.47h14.9l-5,20.85C35.23,73,31,75.73,26.46,76.34H51.89a2.59,2.59,0,0,0,2.38-1.92l6.41-26.93a1.47,1.47,0,0,0-1.47-1.92H38.78l2.66-11.15c-3.09,1.18-6.17,2.44-9.28,3.79a91,91,0,0,1,9.58-5.05L44.88,20a1.47,1.47,0,0,0-1.47-1.92Zm5.21,80.27a108.47,108.47,0,0,0,24.77-5,129.52,129.52,0,0,0,37.66-19.22,140.58,140.58,0,0,1-32.4,15.57A102.68,102.68,0,0,1,49.41,95l-.79,3.3Z"/></svg>