<svg id="Layer_1" data-name="Layer 1" xmlns="http://www.w3.org/2000/svg" viewBox="0 0 128 128"><defs><style>.cls-1{fill:#004282;}.cls-1,.cls-2{fill-rule:evenodd;}.cls-2{fill:#00a651;}</style></defs><path class="cls-1" d="M26.57,102.12H22.09L17.47,117h3.79l.49-1.49h5.16l.48,1.49h3.8l-4.62-14.87Zm-3.68,9.7,1.44-4.69,1.44,4.69Z"/><path class="cls-1" d="M53.91,102.12H49.43L44.81,117H48.6l.49-1.49h5.16l.48,1.49h3.8l-4.62-14.87Zm-3.68,9.7,1.44-4.69,1.44,4.69Z"/><polygon class="cls-1" points="68.06 102.04 68.06 109.2 61.38 102.04 60.49 102.04 60.49 106.22 60.49 117.14 63.99 117.14 63.99 109.98 70.67 117.14 71.31 117.14 71.56 117.14 71.56 112.96 71.56 102.04 68.06 102.04"/><path class="cls-1" d="M13.44,109.6a3.66,3.66,0,0,0,2.35-3.51c0-3.65-3.94-4-3.94-4H5.72v15.24h6s4-.33,4-4.11a3.78,3.78,0,0,0-2.35-3.66Zm-2.65,4.22H9.28V111h1.54s1.38.11,1.38,1.39-1.41,1.39-1.41,1.39Zm0-5.78H9.28v-2.78h1.54s1.38.11,1.38,1.39S10.79,108,10.79,108Z"/><path class="cls-1" d="M36.75,102.12H33.12v15.24h3.53s7.54.36,7.54-7.89c0-7.48-7.44-7.36-7.44-7.36Zm-.06,11.11v-7.35a3.68,3.68,0,1,1,0,7.35Z"/><path class="cls-2" d="M120.26,102.16h-3.38l-2.62,6.52h0l-2.61-6.52h-3.38l-2,15.21h4.16s.67-6.57.7-7.05c0,.43,3,6.67,3.13,7h0s3.09-6.61,3.14-7.05c0,.48.69,7.05.69,7.05h4.17Z"/><path class="cls-2" d="M81.79,102.12h-3.5v15.24h3.56v-4.28s6.51.39,6.51-5.5-6.57-5.47-6.57-5.47Zm1.32,7H81.85v-3.91h1.29a2,2,0,0,1,0,3.91Z"/><path class="cls-2" d="M97.62,102.12a7.61,7.61,0,1,0,7.61,7.61,7.61,7.61,0,0,0-7.61-7.61Zm0,11.44a3.84,3.84,0,1,1,3.84-3.83A3.83,3.83,0,0,1,97.62,113.56Z"/><path class="cls-2" d="M87.72,18.33c-1.1,55.56-24.6,73-24.6,73C89.21,70.13,94,22.77,94.74,13.47Z"/><path class="cls-1" d="M85.72,19.69,76.51,26.1C73.42,38.57,65.23,63.55,48.63,67.46c-8.4,2-15.3-3.79-19.38-8.55.29,1.34,4.57,19.84,26.36,37.19h0c.08,0,.31-.15.69-.36a58.24,58.24,0,0,0,5-3.12C65.37,89,84.74,68.79,85.72,19.69Z"/><path class="cls-1" d="M97.15,11.74c-.74,9-5.32,56.53-33.82,79.46C97,66,98.75,10.62,98.75,10.62Z"/></svg>