<svg id="Layer_1" data-name="Layer 1" xmlns="http://www.w3.org/2000/svg" viewBox="0 0 205.63 71.23"><defs><style>.cls-1{fill:#6cb044;}.cls-2{fill:#4a9b45;}.cls-3{fill:#417f3e;}.cls-4{fill:#326c7c;}.cls-5{fill:#2a8282;}.cls-6{fill:#3992a0;}.cls-7{fill:#36a8bd;}.cls-8{fill:#3aa97a;}.cls-9{fill:#483c39;}</style></defs><path class="cls-1" d="M37.93,31V28.87s9.75,6,6,19.79c0,0,1,1.67,5.23-5.09a17.08,17.08,0,0,1-14,11.15,11.94,11.94,0,0,0,4.6-5.22C42.12,44.76,43.51,36.85,37.93,31Z"/><path class="cls-2" d="M38.34,39.6,40,38.07s2.3,10.8-9.48,17.49c0,0-.91.84,0,1.12,0,0,4.6.62,7.53-.84,0,0-9.48,5.78-18.68-1.6a16.85,16.85,0,0,0,7.46-.49c2.38-.72,4.92-2.72,7-4.32A12.48,12.48,0,0,0,38.34,39.6Z"/><path class="cls-3" d="M32.28,45.73h2.3s-3.9,8.23-19,6l-.76-.28a10.13,10.13,0,0,0,6.34,5.78S10.05,54.31,8.86,42.53C8.86,42.53,18.2,55.77,32.28,45.73Z"/><path class="cls-4" d="M25.66,47.48S21.27,48.66,14.86,45c-2.78-1.57-4.69-4.46-7-7.32,0,0-1-.63-1,.35a19.35,19.35,0,0,0,0,4.07A15.92,15.92,0,0,0,8,45.8,15.94,15.94,0,0,1,5.77,35.3c.32-2.7,1.47-5.36,4-8.7a14.73,14.73,0,0,0-.18,5.82,15.51,15.51,0,0,0,3.09,7.11c3.91,4.71,6.59,5.92,8.72,6.27.83.14,1.53-.3,2.25,0Z"/><path class="cls-5" d="M21.32,16.27s-5.56,3.84-6.69,10.33C13,35.93,17.92,40,17.92,40L18,42.25a18,18,0,0,1-5.7-7.89c-1.31-3.7-.89-9.39-.05-12.08,0,0-3.66.89-5.44,6.17C6.84,28.45,8.88,17.84,21.32,16.27Z"/><path class="cls-6" d="M16.25,33.05a16.56,16.56,0,0,1,3.06-12,23.72,23.72,0,0,1,6.35-5.66s1.2-.87-.5-1S20,14.1,17.74,15.75a12.48,12.48,0,0,1,7.92-2.51c4,0,9.24,2.43,11,3.69a17.13,17.13,0,0,0-8.6,1c-3.6,1.47-7.16,5.26-8.65,7.63A11.73,11.73,0,0,0,18,31.06Z"/><path class="cls-7" d="M21.72,25.38s3.4-8.29,18.41-5.71c0,0,1.73.31,1.08-.65S38,15.07,34.83,14.21c0,0,9.54,1.38,12.31,14.14a12.82,12.82,0,0,0-3-3.19A17.11,17.11,0,0,0,27.8,22.75a26.18,26.18,0,0,0-4,2.56Z"/><path class="cls-8" d="M30.57,23.8S40.71,21.24,48,33.05c0,0,1.18.84,1.17-.57s0-5.39-.81-6.64c0,0,5.54,7.26-1.72,18.45a17.48,17.48,0,0,0-4.48-14.17,12.81,12.81,0,0,0-9.74-4.75Z"/><path class="cls-9" d="M61.4,24.81c0-4.15,1.87-6.5,5-6.5A4.4,4.4,0,0,1,70.68,21l-1.21.73a3.12,3.12,0,0,0-3.07-2.12c-2.13,0-3.4,1.69-3.4,4.24v1.85c0,2.55,1.27,4.09,3.4,4.09a3.22,3.22,0,0,0,3.17-2.24l1.2.75a4.59,4.59,0,0,1-4.37,2.83C63.27,31.17,61.4,29,61.4,24.81Z"/><path class="cls-9" d="M74.46,31A1.39,1.39,0,0,1,73,29.48V17.78h1.42V29.71h1.36V31Z"/><path class="cls-9" d="M77.63,18.81v-.23c0-.48.27-.8.88-.8s.87.32.87.8v.23c0,.48-.27.8-.87.8S77.63,19.29,77.63,18.81Zm.16,3h1.43V31H77.79Z"/><path class="cls-9" d="M82.25,31V21.77h1.42v1.49h.08a2.47,2.47,0,0,1,2.47-1.71A2.81,2.81,0,0,1,89,23.42h0a2.76,2.76,0,0,1,2.8-1.87c1.87,0,3,1.28,3,3.51V31H93.43V25.31c0-1.62-.62-2.48-2-2.48-1.12,0-2.15.57-2.15,1.75V31H87.84V25.31c0-1.64-.62-2.48-2-2.48-1.12,0-2.19.57-2.19,1.75V31Z"/><path class="cls-9" d="M104.48,31a1.48,1.48,0,0,1-1.58-1.5h-.09a2.59,2.59,0,0,1-2.65,1.71c-1.94,0-3.08-1.07-3.08-2.78S98.32,25.7,101,25.7h1.82v-.91c0-1.3-.71-2-2.17-2a2.58,2.58,0,0,0-2.34,1.37l-.85-.8a3.49,3.49,0,0,1,3.26-1.8c2.21,0,3.53,1.16,3.53,3.1v5.06h1.05V31Zm-1.67-2.67V26.77h-1.89c-1.62,0-2.35.5-2.35,1.39v.37c0,.91.71,1.43,1.82,1.43C101.8,30,102.81,29.23,102.81,28.29Z"/><path class="cls-9" d="M109.35,31a1.4,1.4,0,0,1-1.51-1.52V23h-1.52V21.77h.86c.61,0,.8-.22.8-.84V19.22h1.28v2.55h2V23h-2v6.7h1.87V31Z"/><path class="cls-9" d="M112.83,26.36c0-2.92,1.64-4.81,4.13-4.81s4,1.89,4,4.49v.68h-6.6v.43a2.59,2.59,0,0,0,2.72,2.77,2.67,2.67,0,0,0,2.53-1.58l1,.73a3.86,3.86,0,0,1-3.64,2.1C114.47,31.17,112.83,29.28,112.83,26.36Zm1.5-.84v.13h5.07v-.2a2.44,2.44,0,0,0-2.44-2.7A2.6,2.6,0,0,0,114.33,25.52Z"/><path class="cls-9" d="M134.17,31a1.48,1.48,0,0,1-1.58-1.5h-.09a2.59,2.59,0,0,1-2.65,1.71c-1.95,0-3.08-1.07-3.08-2.78s1.24-2.69,3.91-2.69h1.82v-.91c0-1.3-.71-2-2.17-2A2.58,2.58,0,0,0,128,24.15l-.85-.8a3.49,3.49,0,0,1,3.26-1.8c2.21,0,3.53,1.16,3.53,3.1v5.06h1V31Zm-1.67-2.67V26.77h-1.89c-1.62,0-2.35.5-2.35,1.39v.37c0,.91.71,1.43,1.82,1.43C131.49,30,132.5,29.23,132.5,28.29Z"/><path class="cls-9" d="M137,31V21.77h1.43v1.49h.07a2.61,2.61,0,0,1,2.6-1.71c1.89,0,3.08,1.28,3.08,3.51V31h-1.42V25.31c0-1.64-.72-2.48-2.09-2.48-1.14,0-2.24.57-2.24,1.75V31Z"/><path class="cls-9" d="M153,29.46h-.07a2.76,2.76,0,0,1-2.69,1.71c-2.3,0-3.74-1.87-3.74-4.81s1.44-4.81,3.74-4.81a2.68,2.68,0,0,1,2.69,1.71H153V17.78h1.43V31H153ZM153,28V24.6c0-1-1.07-1.77-2.37-1.77a2.51,2.51,0,0,0-2.6,2.75v1.57a2.51,2.51,0,0,0,2.6,2.74C151.94,29.89,153,29.21,153,28Z"/><path class="cls-9" d="M62,52.34V39.91h1.5V51h5.29v1.32Z"/><path class="cls-9" d="M77.47,52.34a1.49,1.49,0,0,1-1.59-1.49H75.8a2.61,2.61,0,0,1-2.66,1.71c-1.94,0-3.08-1.07-3.08-2.78s1.25-2.69,3.92-2.69H75.8v-.91c0-1.3-.72-2-2.18-2a2.56,2.56,0,0,0-2.33,1.37l-.86-.8a3.5,3.5,0,0,1,3.26-1.8c2.21,0,3.53,1.15,3.53,3.1V51.1h1v1.24ZM75.8,49.67V48.16H73.91c-1.62,0-2.35.49-2.35,1.38v.38c0,.91.71,1.42,1.81,1.42C74.78,51.34,75.8,50.61,75.8,49.67Z"/><path class="cls-9" d="M80.31,52.34V43.15h1.42v1.5h.07a2.6,2.6,0,0,1,2.6-1.71c1.89,0,3.08,1.28,3.08,3.51v5.89H86.06V46.69c0-1.63-.71-2.47-2.08-2.47-1.14,0-2.25.57-2.25,1.75v6.37Z"/><path class="cls-9" d="M96.31,50.85h-.07a2.78,2.78,0,0,1-2.69,1.71c-2.3,0-3.75-1.88-3.75-4.81s1.45-4.81,3.75-4.81a2.69,2.69,0,0,1,2.69,1.71h.07V39.16h1.42V52.34H96.31Zm0-1.45V46c0-1-1.07-1.76-2.37-1.76A2.5,2.5,0,0,0,91.34,47v1.57a2.5,2.5,0,0,0,2.6,2.74C95.24,51.27,96.31,50.6,96.31,49.4Z"/><path class="cls-9" d="M106.52,39.91V47.6c0,2.37.77,3.62,3,3.62s3-1.25,3-3.62V39.91H114v7.34c0,3.61-1.21,5.31-4.52,5.31S105,50.86,105,47.25V39.91Z"/><path class="cls-9" d="M116.18,50.76l1-.82a3.35,3.35,0,0,0,2.73,1.4c1.21,0,1.92-.55,1.92-1.49,0-.71-.39-1.27-1.6-1.45l-.73-.1c-1.69-.25-3-.95-3-2.66s1.41-2.7,3.28-2.7A3.83,3.83,0,0,1,123,44.42l-1,.85a2.83,2.83,0,0,0-2.37-1.12c-1.17,0-1.79.55-1.79,1.42s.62,1.25,1.76,1.43l.71.11c2,.3,2.81,1.19,2.81,2.58,0,1.78-1.29,2.87-3.4,2.87A4.28,4.28,0,0,1,116.18,50.76Z"/><path class="cls-9" d="M125.05,47.75c0-2.92,1.64-4.81,4.14-4.81s4,1.89,4,4.49v.67h-6.61v.43a2.61,2.61,0,0,0,2.73,2.78,2.65,2.65,0,0,0,2.52-1.59l1,.73a3.86,3.86,0,0,1-3.63,2.11C126.69,52.56,125.05,50.67,125.05,47.75Zm1.5-.84V47h5.08v-.19a2.45,2.45,0,0,0-2.44-2.71A2.62,2.62,0,0,0,126.55,46.91Z"/><path class="cls-9" d="M147.65,52.34l-1.25-3.67h-5l-1.25,3.67h-1.51L143,39.91h1.91l4.34,12.43Zm-3.73-11h-.09l-2.1,6.05H146Z"/><path class="cls-9" d="M152.66,52.34a1.4,1.4,0,0,1-1.52-1.48V39.16h1.43V51.1h1.35v1.24Z"/><path class="cls-9" d="M157.42,52.34a1.4,1.4,0,0,1-1.52-1.48V39.16h1.43V51.1h1.35v1.24Z"/><path class="cls-9" d="M160.59,40.19V40c0-.48.27-.8.87-.8s.87.32.87.8v.23c0,.48-.26.81-.87.81A.76.76,0,0,1,160.59,40.19Zm.16,3h1.42v9.19h-1.42Z"/><path class="cls-9" d="M171.88,52.34a1.48,1.48,0,0,1-1.58-1.49h-.09a2.59,2.59,0,0,1-2.65,1.71c-1.95,0-3.09-1.07-3.09-2.78s1.25-2.69,3.92-2.69h1.82v-.91c0-1.3-.71-2-2.17-2a2.56,2.56,0,0,0-2.34,1.37l-.85-.8a3.49,3.49,0,0,1,3.26-1.8c2.21,0,3.52,1.15,3.52,3.1V51.1h1.05v1.24Zm-1.67-2.67V48.16h-1.89c-1.62,0-2.35.49-2.35,1.38v.38c0,.91.71,1.42,1.82,1.42C169.19,51.34,170.21,50.61,170.21,49.67Z"/><path class="cls-9" d="M174.72,52.34V43.15h1.43v1.5h.07a2.59,2.59,0,0,1,2.6-1.71c1.88,0,3.08,1.28,3.08,3.51v5.89h-1.43V46.69c0-1.63-.71-2.47-2.08-2.47-1.14,0-2.24.57-2.24,1.75v6.37Z"/><path class="cls-9" d="M184.17,47.75c0-2.94,1.51-4.81,4.09-4.81a3.44,3.44,0,0,1,3.44,2.15l-1.19.61a2.22,2.22,0,0,0-2.25-1.5A2.47,2.47,0,0,0,185.7,47v1.57a2.47,2.47,0,0,0,2.56,2.76,2.6,2.6,0,0,0,2.5-1.6l1,.69a3.63,3.63,0,0,1-3.53,2.18C185.68,52.56,184.17,50.68,184.17,47.75Z"/><path class="cls-9" d="M193,47.75c0-2.92,1.64-4.81,4.13-4.81s4,1.89,4,4.49v.67h-6.61v.43a2.6,2.6,0,0,0,2.72,2.78,2.66,2.66,0,0,0,2.53-1.59l1,.73a3.87,3.87,0,0,1-3.64,2.11C194.66,52.56,193,50.67,193,47.75Zm1.5-.84V47h5.07v-.19a2.44,2.44,0,0,0-2.44-2.71A2.62,2.62,0,0,0,194.52,46.91Z"/></svg>