<svg id="Layer_1" data-name="Layer 1" xmlns="http://www.w3.org/2000/svg" viewBox="0 0 128 128"><defs><style>.cls-1,.cls-4{fill:#c1272e;}.cls-1,.cls-2,.cls-3,.cls-6,.cls-7,.cls-8{fill-rule:evenodd;}.cls-2{fill:#ffd400;}.cls-3,.cls-9{fill:#231f20;}.cls-5{fill:#00aeef;}.cls-6{fill:#2e3192;}.cls-7{fill:#00a651;}.cls-8{fill:#fff;}</style></defs><path class="cls-1" d="M87,30.29a20.19,20.19,0,0,0,2.85,2.08l1.45.89-1.15,1.27c-3,3.23-5.1,8.71-3.89,13.06a22.9,22.9,0,0,0,2.15,4.95,21.87,21.87,0,0,1,2.84,7.71,18.9,18.9,0,0,1-4.4,15.61,21.23,21.23,0,0,1-8.7,5.26,45.63,45.63,0,0,1-5.31,1,22.43,22.43,0,0,0-4.45,1,9.87,9.87,0,0,0-4.51,3.45l-1.12,1.49L61.59,86.6a9.87,9.87,0,0,0-4.51-3.45,22.43,22.43,0,0,0-4.45-1,45.63,45.63,0,0,1-5.31-1h0a16.91,16.91,0,0,1-3.11-1.24,22,22,0,0,1-5-3.47l-.94-.88,0-.06a19,19,0,0,1-4-15.21,21.87,21.87,0,0,1,2.84-7.71,22.9,22.9,0,0,0,2.15-4.95c1.21-4.35-.93-9.83-3.89-13.06l-1.15-1.27,1.45-.89a17.49,17.49,0,0,0,7.79-9.46L44,21.29l1.49.85c5.58,3.21,11.07,3.18,16.49-.36l.77-.5.78.5c5.43,3.55,10.91,3.57,16.49.37l1.48-.86L82,22.91A16.89,16.89,0,0,0,87,30.29Z"/><path class="cls-2" d="M44.75,23.37a18.93,18.93,0,0,1-8.39,10.2c3.39,3.71,5.52,9.68,4.21,14.4a24,24,0,0,1-2.27,5.25,20,20,0,0,0-2.69,7.24,17.55,17.55,0,0,0,4,14.45,20,20,0,0,0,8,4.85,47.72,47.72,0,0,0,5.15,1,24,24,0,0,1,4.74,1.08,11.35,11.35,0,0,1,5.14,3.92,11.27,11.27,0,0,1,5.13-3.92,24,24,0,0,1,4.74-1.08,47.72,47.72,0,0,0,5.15-1,20,20,0,0,0,8-4.85,17.55,17.55,0,0,0,4-14.45,20,20,0,0,0-2.69-7.24A24,24,0,0,1,84.86,48c-1.31-4.72.82-10.69,4.21-14.4a18.93,18.93,0,0,1-8.39-10.2c-6,3.43-12,3.47-18-.4C56.78,26.84,50.72,26.8,44.75,23.37Z"/><path class="cls-3" d="M40.23,75.48a20.43,20.43,0,0,0,7.46,4.28,47.72,47.72,0,0,0,5.15,1,24,24,0,0,1,4.74,1.08,11.35,11.35,0,0,1,5.14,3.92,11.27,11.27,0,0,1,5.13-3.92,24,24,0,0,1,4.74-1.08,47.72,47.72,0,0,0,5.15-1,20,20,0,0,0,8-4.85,17.55,17.55,0,0,0,4-14.45,20,20,0,0,0-2.69-7.24A24,24,0,0,1,84.86,48c-1.31-4.72.82-10.69,4.21-14.4a20.88,20.88,0,0,1-4-3.17Z"/><path class="cls-1" d="M35,9.26a85,85,0,0,1,56.64,0l1.4.51L88.47,20.46,87.22,20a74.16,74.16,0,0,0-47.77,0l-1.23.43L33.53,9.77Z"/><path class="cls-3" d="M35.43,10.58,39,18.67a75.51,75.51,0,0,1,48.69,0l3.44-8.13a83.62,83.62,0,0,0-55.69,0Z"/><circle class="cls-4" cx="62.72" cy="52.63" r="21.15" transform="translate(-18.84 59.76) rotate(-45)"/><circle class="cls-5" cx="62.72" cy="52.63" r="19.73" transform="translate(-18.84 59.76) rotate(-45)"/><path class="cls-6" d="M79.11,63.61a19.74,19.74,0,0,1-32.76,0A42.87,42.87,0,0,0,56.78,48.75a1.75,1.75,0,0,1,2.9-.17c1,4.76,4.11,6.79,5.88.34.23-1.09,2.41-1.29,3,.17C70.57,56.53,75,59.5,79.11,63.61Z"/><path class="cls-7" d="M71.83,70.16a19.92,19.92,0,0,1-9.11,2.2,19.3,19.3,0,0,1-9.59-2.51,124.46,124.46,0,0,1,7.11-12.1c1.21-2.11,3.48-2.09,4.69,0A73.51,73.51,0,0,1,71.83,70.16Z"/><path class="cls-8" d="M62.72,32.89a19.59,19.59,0,0,1,5,.66c-.42,1-2.55,2.81-.51,4.61s1.45,4.1.17,4.87c-3,1.79-5,4.28-2.72,7.59.13.19-.16.41,0,.64-.94,1.83-2,2.1-3,1.34a14.65,14.65,0,0,1-.47-4.71c.26-2.39.86-3.24.09-5.21s-4.35-2-5.2-3.84a13.9,13.9,0,0,1-.84-4.49A19.68,19.68,0,0,1,62.72,32.89Z"/><path class="cls-6" d="M67.89,33.58h0a4.64,4.64,0,0,1-.48.82c-.67,1-1.56,2.33-.06,3.66a4,4,0,0,1,.89,1,3.22,3.22,0,0,1,.48,2A2.77,2.77,0,0,1,68,42.67a2.36,2.36,0,0,1-.54.46,8.16,8.16,0,0,0-3.3,3.17,4,4,0,0,0,.61,4.25.4.4,0,0,1,0,.41h0c0,.08,0,.17,0,.23l0,.06,0,.06a5.49,5.49,0,0,1-.56.89h0a2.39,2.39,0,0,1-1.12.86A1.52,1.52,0,0,1,62,52.93a2.41,2.41,0,0,1-.36-.23l0-.07a17.12,17.12,0,0,1-.45-2.55,10.79,10.79,0,0,1,0-2.2c.07-.68.17-1.24.26-1.73a5.33,5.33,0,0,0-.17-3.42c-.37-1-1.47-1.44-2.56-1.92s-2.2-1-2.63-1.92a9,9,0,0,1-.64-2.4,20.36,20.36,0,0,1-.21-2.09,19.75,19.75,0,0,1,12.75-.82Zm-2.64-.4A19.2,19.2,0,0,0,62.72,33a19.54,19.54,0,0,0-3.78.36,19.13,19.13,0,0,0-3.55,1c0,.51.08,1.25.2,2a9.26,9.26,0,0,0,.62,2.33,4.5,4.5,0,0,0,2.51,1.8c1.14.5,2.28,1,2.69,2a5.54,5.54,0,0,1,.18,3.55c-.08.49-.18,1-.25,1.72a10.2,10.2,0,0,0,0,2.14,18.89,18.89,0,0,0,.43,2.48,1.92,1.92,0,0,0,.29.18,1.23,1.23,0,0,0,1,.11,2.09,2.09,0,0,0,1-.77h0a5.27,5.27,0,0,0,.5-.8.52.52,0,0,1,0-.37h0c0-.08.06-.15,0-.19A4.23,4.23,0,0,1,64,46.2a8.45,8.45,0,0,1,3.39-3.28,2.37,2.37,0,0,0,.49-.41,2.58,2.58,0,0,0,.61-1.45A2.93,2.93,0,0,0,68,39.24a4,4,0,0,0-.84-1c-1.67-1.46-.7-2.91,0-4a6.38,6.38,0,0,0,.4-.64A18.39,18.39,0,0,0,65.25,33.18Z"/><path class="cls-2" d="M42.81,10.44l1-.26.81,3a3.48,3.48,0,0,1,.14.94,1.33,1.33,0,0,1-.33.8,1.78,1.78,0,0,1-.9.51,1.49,1.49,0,0,1-1.19-.1,1.67,1.67,0,0,1-.69-1.06l.87-.34a1.31,1.31,0,0,0,.28.54.53.53,0,0,0,.54.13.58.58,0,0,0,.41-.3,1.53,1.53,0,0,0-.08-.8l-.82-3.07Zm7.6,3.28L49.35,14l-.65-1-1.93.41-.16,1.18-1,.22.85-5.21,1-.22,2.95,4.4Zm-2.2-1.52-1-1.65-.27,1.93,1.31-.28Zm3,1.37,1.07-.13.52-3.77,1.42,3.53,1.05-.13.58-5-1,.12-.33,3.51L53.26,8.36l-1.17.14L51.61,12,50.46,8.7l-1,.13,1.77,4.74Zm9.85-.88L60,12.76l-.51-1.08-2,.13L57.19,13l-1,.07,1.57-5,1-.08,2.31,4.78Zm-2-1.82L58.3,9.1,57.77,11l1.34-.09Zm5.19,1.85.07-4.09-1.46,0,0-.83,3.91.06v.84l-1.46,0-.07,4.09Zm3.06.07.35-4.91,1,.07-.34,4.91-1-.07Zm1.93.09L69.89,8l1.48.18.47,3.44,1.29-3.23,1.48.19L74,13.46l-.92-.11.48-3.85-1.45,3.73-1-.11-.49-4L70.21,13l-.92-.12Zm6.59-4.06,1,.17-.47,2.63a6.06,6.06,0,0,0-.1.81.77.77,0,0,0,.21.53,1.07,1.07,0,0,0,.62.3,1,1,0,0,0,.66-.06.64.64,0,0,0,.32-.37,4.59,4.59,0,0,0,.19-.82l.48-2.68,1,.17-.44,2.55a7.87,7.87,0,0,1-.3,1.22,1.43,1.43,0,0,1-.4.55,1.58,1.58,0,0,1-.64.3,2.61,2.61,0,0,1-1,0,2.72,2.72,0,0,1-1-.35,1.48,1.48,0,0,1-.49-.51,1.34,1.34,0,0,1-.18-.59,6.87,6.87,0,0,1,.12-1.25l.46-2.58Zm4,5.79L81.2,9.85l2,.54a3.57,3.57,0,0,1,1.07.43,1.1,1.1,0,0,1,.43.6,1.39,1.39,0,0,1,0,.81,1.37,1.37,0,0,1-.55.8,1.62,1.62,0,0,1-1.06.18,2.75,2.75,0,0,1,.41.54,6.3,6.3,0,0,1,.34.92l.33,1.08-1.15-.31-.42-1.22a5.32,5.32,0,0,0-.32-.83.81.81,0,0,0-.23-.28,1.77,1.77,0,0,0-.47-.18l-.19,0-.54,2-1-.25Zm1.7-2.49.71.19a3.78,3.78,0,0,0,.88.17.54.54,0,0,0,.32-.13.57.57,0,0,0,.19-.33.55.55,0,0,0,0-.42.57.57,0,0,0-.31-.28l-.7-.21-.75-.2Z"/><path class="cls-9" d="M34.25,98.08a18.76,18.76,0,0,1,2.8-.19,5.91,5.91,0,0,1,3.76,1,4.07,4.07,0,0,1,1.55,3.46A4.64,4.64,0,0,1,40.83,106a6.58,6.58,0,0,1-4.23,1.18,17.88,17.88,0,0,1-2.35-.13Zm2.08,7.48a3.89,3.89,0,0,0,.72,0c1.88,0,3.1-1,3.1-3.21a2.63,2.63,0,0,0-2.88-2.91,4.45,4.45,0,0,0-.94.08Z"/><path class="cls-9" d="M45.8,98v9.17H43.72V98Z"/><path class="cls-9" d="M49.37,99.7H46.91V98h7V99.7h-2.5v7.43H49.37Z"/><path class="cls-9" d="M57.88,105a5.19,5.19,0,0,0,2.3.57c1,0,1.45-.39,1.45-1s-.43-.9-1.54-1.29c-1.52-.53-2.51-1.38-2.51-2.71,0-1.56,1.3-2.76,3.47-2.76a5.74,5.74,0,0,1,2.34.46l-.47,1.67A4.43,4.43,0,0,0,61,99.51c-.9,0-1.34.41-1.34.88s.52.85,1.7,1.3c1.62.59,2.38,1.44,2.38,2.73,0,1.54-1.18,2.84-3.7,2.84a6.14,6.14,0,0,1-2.6-.55Z"/><path class="cls-9" d="M67.24,98v9.17H65.16V98Z"/><path class="cls-9" d="M69,98.08a16.3,16.3,0,0,1,2.68-.19,5,5,0,0,1,2.71.52,2,2,0,0,1,1.1,1.79,2.07,2.07,0,0,1-1.51,2v0a2.3,2.3,0,0,1,1.82,2.26,2.43,2.43,0,0,1-1,1.94,5.8,5.8,0,0,1-3.61.83,15.86,15.86,0,0,1-2.24-.13Zm2,3.51h.68c1.09,0,1.68-.45,1.68-1.13S72.91,99.4,72,99.4a7.17,7.17,0,0,0-.89,0Zm0,4.07a6,6,0,0,0,.8,0c.94,0,1.77-.36,1.77-1.32s-.83-1.3-1.86-1.3h-.71Z"/><path class="cls-9" d="M82.71,103.25H79.34v2.18h3.77v1.7H77.26V98h5.66v1.7H79.34v1.9h3.37Z"/><path class="cls-9" d="M84.53,98.08a18,18,0,0,1,2.76-.19,4.64,4.64,0,0,1,3,.72,2.33,2.33,0,0,1,.85,1.92,2.44,2.44,0,0,1-1.62,2.26v0a2.31,2.31,0,0,1,1.22,1.71c.29,1,.57,2.23.75,2.59H89.33a11.36,11.36,0,0,1-.64-2.14c-.25-1.14-.64-1.45-1.48-1.47h-.63v3.61h-2Zm2,4h.82c1,0,1.64-.52,1.64-1.32s-.57-1.27-1.52-1.28a6.47,6.47,0,0,0-.94.06Z"/><path class="cls-9" d="M19.39,114.41a16.92,16.92,0,0,1,2.81-.19A4.4,4.4,0,0,1,25,115a2.68,2.68,0,0,1,1,2.12,2.92,2.92,0,0,1-.85,2.18,4.26,4.26,0,0,1-3,1,4.72,4.72,0,0,1-.7,0v3.28H19.39Zm2.06,4.17a3.19,3.19,0,0,0,.69,0c1.1,0,1.78-.56,1.78-1.5s-.58-1.34-1.62-1.34a3.54,3.54,0,0,0-.85.08Z"/><path class="cls-9" d="M35.7,118.78c0,3-1.83,4.83-4.51,4.83s-4.31-2-4.31-4.67,1.75-4.8,4.46-4.8S35.7,116.25,35.7,118.78Zm-6.63.12c0,1.8.84,3.06,2.23,3.06s2.21-1.33,2.21-3.11-.79-3.06-2.22-3.06S29.07,117.12,29.07,118.9Z"/><path class="cls-9" d="M37.06,114.29h2.08v7.43h3.65v1.74H37.06Z"/><path class="cls-9" d="M46.23,121.11l-.65,2.35H43.43l2.8-9.17H49l2.85,9.17H49.57l-.71-2.35Zm2.33-1.55-.57-2c-.17-.54-.33-1.22-.47-1.77h0c-.14.55-.27,1.24-.42,1.77l-.55,2Z"/><path class="cls-9" d="M53,114.41a19,19,0,0,1,2.81-.19,5.92,5.92,0,0,1,3.75,1,4,4,0,0,1,1.55,3.46,4.66,4.66,0,0,1-1.52,3.71,6.56,6.56,0,0,1-4.23,1.19,17.54,17.54,0,0,1-2.36-.14Zm2.09,7.49a3.83,3.83,0,0,0,.72,0c1.87,0,3.1-1,3.1-3.21A2.64,2.64,0,0,0,56,115.81a4.08,4.08,0,0,0-.93.09Z"/><path class="cls-9" d="M64.42,121.11l-.66,2.35H61.61l2.81-9.17h2.72L70,123.46H67.75L67,121.11Zm2.32-1.55-.57-2c-.16-.54-.33-1.22-.46-1.77h0c-.13.55-.27,1.24-.42,1.77l-.55,2Z"/><path class="cls-9" d="M75.75,114.29h2.07v5.8c0,2.61-1.25,3.52-3.26,3.52a5.2,5.2,0,0,1-1.51-.22l.23-1.67a3.53,3.53,0,0,0,1.06.16c.87,0,1.41-.39,1.41-1.82Z"/><path class="cls-9" d="M81.69,121.11,81,123.46H78.88l2.81-9.17h2.72l2.84,9.17H85l-.71-2.35ZM84,119.56l-.57-2c-.16-.54-.32-1.22-.46-1.77h0c-.13.55-.27,1.24-.42,1.77l-.54,2Z"/><path class="cls-9" d="M89.12,116H86.66v-1.74h7V116H91.2v7.43H89.12Z"/><path class="cls-9" d="M96.89,114.29v9.17H94.81v-9.17Z"/><path class="cls-9" d="M106.44,120c0-1.1-.08-2.43-.08-3.77h0c-.28,1.17-.67,2.48-1,3.55l-1.12,3.58h-1.61l-1-3.55c-.3-1.07-.62-2.38-.83-3.58h0c-.06,1.24-.1,2.65-.17,3.8l-.16,3.48H98.48l.59-9.17h2.76l.9,3.06c.28,1.06.57,2.21.77,3.28h0c.25-1.06.57-2.27.87-3.29l1-3h2.7l.51,9.17h-2Z"/></svg>