<svg id="Layer_1" data-name="Layer 1" xmlns="http://www.w3.org/2000/svg" viewBox="0 0 128 128"><defs><style>.cls-1,.cls-4{fill:#14489f;}.cls-1,.cls-2,.cls-3{fill-rule:evenodd;}.cls-2{fill:#2d6cb5;}.cls-3{fill:#36c5ee;}</style></defs><path class="cls-1" d="M95.44,17.55c-29.38-6.23-62.31,12.07-67,40.05-2.23,13.16,3.06,23,11,28.82A30.81,30.81,0,0,0,62.76,92c6-.9,10.11-4.4,10.09-8.16,0-3.22-2.69-6.11-6.86-6.24-3.14-.1-5.39,1.42-5.38,3.45,0,1.22,1.23,1.79,2.56,1.83-4.29.48-5-3.29-2.57-5.61,3.27-3.14,7.17-2.82,10.17-2.32,9,1.52,12.09,8.52,8.67,13.62-1.44,2.15-4.46,4-8.84,5.27A36.06,36.06,0,0,1,53,94.33,45.8,45.8,0,0,1,17,49.7C17,10.19,65.16-12.24,95.44,17.55Z"/><path class="cls-2" d="M100.47,23.61c1.46,1.36,7.88,12.12,8.13,26.18-1.17-3.62-7.78-5.76-13.26-6.33-21.14-2.17-31,1-41.17,9.36-14,11.45-16,28-.93,34.31,6.47,2.7,13.72,0,14.38-3.73a3.34,3.34,0,0,0-2.55-3.78c-1.66-.3-3.67,1.08-2.82,2.1-1.24.1-1.12-1.46,0-2.32,3.06-2.26,7.43-.6,9.05,2.71,1.28,2.63-.66,5.88-5.27,7.9-10.85,4.75-30.2-1.9-34.21-17.64C28.21,58.92,33.2,47.44,42.35,38.71c10.57-10.1,23.68-17.82,39.41-19C89.7,19.12,95.45,19,100.47,23.61Z"/><path class="cls-3" d="M97.76,79.48c2.31-5.22-1.73-11.21-8.08-14.1-6-2.73-14.05-2.91-20.5-1.74-4.16.75-11.35,4.17-14,8.55C52.17,77,54,83,58.76,84.35s8.89-1.66,5.17-3.93c3.18-.34,4.67,3.9,0,5.73-4.22,1.64-9.18,1.37-14.19-2.2-9.33-6.65-4.38-21.13,8.41-29.27,12.3-7.83,31.58-11.28,47.47-2.44,1.39.77,1.9,2.06,2.25,3.72C108.78,60.45,105.42,69.26,97.76,79.48Z"/><path class="cls-4" d="M33.34,115.3v-6.49c0-1.11.13-1.24,1.22-1.24,1.35,0,2.7,0,4.06,0,3.39-.07,6.44,1.51,7,6a11.58,11.58,0,0,1-.47,5.48,5.86,5.86,0,0,1-5.55,4c-1.8.13-3.61,0-5.41.06-.69,0-.87-.43-.87-1.05Q33.36,118.65,33.34,115.3ZM38,109.86H36.71a.54.54,0,0,0-.61.62c0,3.22,0,6.44,0,9.67a.87.87,0,0,0,.6.58,16.94,16.94,0,0,0,2.76-.07,3.4,3.4,0,0,0,2.85-2.19,8.12,8.12,0,0,0,0-6.43,3.55,3.55,0,0,0-3.25-2.18C38.7,109.84,38.34,109.86,38,109.86Z"/><path class="cls-4" d="M71.72,114.22c.19-.22.4-.42.57-.66,1.22-1.78,2.42-3.58,3.64-5.36a3.06,3.06,0,0,1,2.93-.56c.1.07.09.48,0,.63-1,1.43-2,2.84-3,4.26-.42.6-.82,1.22-1.28,1.8a.84.84,0,0,0,0,1.2c1.59,2.12,3.17,4.27,4.75,6.4.11.15.23.31.33.47.2.36.1.62-.32.64A9.44,9.44,0,0,1,77.3,123a1.9,1.9,0,0,1-1-.75c-1.36-1.86-2.68-3.74-4-5.61a10,10,0,0,0-.74-.82,8.51,8.51,0,0,0-.14,1c0,1.73,0,3.46,0,5.2,0,.86-.17,1-1,1.06H70c-1.18,0-1.31-.13-1.31-1.31v-13.1c0-1,.15-1.1,1.12-1.13h.72c.61,0,.89.31.88.94,0,1.59,0,3.18,0,4.77,0,.29,0,.59.07.89Z"/><path class="cls-4" d="M82.94,115.3v-6.62c0-1,.18-1.11,1.13-1.12,1.55,0,3.09,0,4.63,0a8.17,8.17,0,0,1,2,.36,3.53,3.53,0,0,1,2.7,3.36c.18,2-.2,3.85-2.19,4.91a5.35,5.35,0,0,1-1.61.53,13.09,13.09,0,0,1-2,.14c-2.09,0-1.87-.27-1.89,1.92,0,1.09,0,2.19,0,3.28,0,.65-.29.94-.93,1-1.7.09-1.82,0-1.82-1.72Zm2.75-3.13h0c0,.56,0,1.13,0,1.7s.2.7.68.69c.69,0,1.38,0,2.07,0a2.34,2.34,0,0,0,.08-4.67c-.71,0-1.43,0-2.14,0-.47,0-.7.19-.68.68S85.69,111.62,85.69,112.17Z"/><path class="cls-4" d="M55.75,114c0,1.62,0,3.23,0,4.85-.09,2.87-1.39,4.2-4.25,4.34a10.83,10.83,0,0,1-2-.15.81.81,0,0,1-.77-1c.2-1,.36-1.19,1.1-1.14,2.57.19,3.27-.45,3.27-3,0-3,0-6.08,0-9.12,0-1,.15-1.15,1.14-1.17h.64c.65,0,.94.3.93,1,0,1.83,0,3.66,0,5.48Z"/><path class="cls-4" d="M60.71,115.32v-6.68c0-.9.19-1.08,1.08-1.12h.71c.67,0,1,.3,1,1,0,4.53,0,9.06,0,13.59,0,.65-.28,1-.93,1h-.21c-1.53,0-1.63-.06-1.63-1.56Z"/></svg>