<svg id="Layer_1" data-name="Layer 1" xmlns="http://www.w3.org/2000/svg" xmlns:xlink="http://www.w3.org/1999/xlink" viewBox="0 0 176.27 52.09"><defs><style>.cls-1{fill:#214287;}.cls-2{fill:#5499cc;}.cls-3{fill:url(#linear-gradient);}.cls-4{fill:url(#linear-gradient-2);}.cls-5{fill:#282a65;}</style><linearGradient id="linear-gradient" x1="97" y1="24.87" x2="84.01" y2="8.33" gradientUnits="userSpaceOnUse"><stop offset="0" stop-color="#5498ca"/><stop offset="0.17" stop-color="#508fc2"/><stop offset="0.43" stop-color="#4578ae"/><stop offset="0.76" stop-color="#33528c"/><stop offset="0.97" stop-color="#263774"/></linearGradient><linearGradient id="linear-gradient-2" x1="72.21" y1="32.05" x2="95.15" y2="32.05" xlink:href="#linear-gradient"/></defs><path class="cls-1" d="M170.55,31l-.24,0c-.51,0-1,0-1.53,0a.3.3,0,0,1-.3-.15l-2.15-2.92a.39.39,0,0,0-.38-.2c-.26,0-.52,0-.81,0,0,.28,0,.55,0,.82V31H163.5c0-.17-.05-10,0-10.33l1.64-.14v5.91l.18,0c.23,0,.45,0,.68,0a.33.33,0,0,0,.3-.16c.6-.83,1.2-1.65,1.79-2.48a.42.42,0,0,1,.39-.21c.47,0,.95,0,1.42,0h.27c-.87,1.15-1.7,2.27-2.55,3.39l.2.27,2.7,3.68h0Z"/><path class="cls-1" d="M128,23.61l0,.56.26-.13a3.54,3.54,0,0,1,1.54-.56,3.18,3.18,0,0,1,1.59.19,1.82,1.82,0,0,1,.77.61l.14-.07a4.26,4.26,0,0,1,2.83-.74,2.39,2.39,0,0,1,.79.18,1.93,1.93,0,0,1,1.23,1.59,3.43,3.43,0,0,1,0,.56v5.14a9.82,9.82,0,0,1-1.65,0,1.94,1.94,0,0,1,0-.24V26.29a4.53,4.53,0,0,0-.07-.74.85.85,0,0,0-.76-.71,3.6,3.6,0,0,0-2.11.38l0,0v5.69a8.16,8.16,0,0,1-1.64,0v-.25c0-1.44,0-2.88,0-4.32a4.11,4.11,0,0,0-.07-.78.89.89,0,0,0-.82-.75,3.14,3.14,0,0,0-1.46.15c-.19.06-.37.14-.56.21V31h-1.62c0-.18-.06-7.12,0-7.37Z"/><path class="cls-1" d="M24.11,31H22.47l0-.54-.24.16a3,3,0,0,1-3,.26A2.44,2.44,0,0,1,18,29.58a4.34,4.34,0,0,1-.4-1.5,5.84,5.84,0,0,1,.22-2.46,4,4,0,0,1,.39-.87,2.6,2.6,0,0,1,2-1.25,3.37,3.37,0,0,1,2.16.35l.11,0a2.42,2.42,0,0,0,0-.25v-3l1.65-.14Zm-1.65-1.52V25.24c0-.21,0-.21-.2-.27a4.18,4.18,0,0,0-1.65-.13,1.33,1.33,0,0,0-1.07.76,2.55,2.55,0,0,0-.18.53,6.23,6.23,0,0,0-.08,2,2.49,2.49,0,0,0,.26.92,1.27,1.27,0,0,0,1,.67,2.84,2.84,0,0,0,.92,0A4,4,0,0,0,22.46,29.45Z"/><path class="cls-1" d="M139.28,20.64l1.64-.14c0,.59,0,1.18,0,1.76v1.79l.24-.11a3.76,3.76,0,0,1,1.07-.41,3.29,3.29,0,0,1,1.56,0A2.5,2.5,0,0,1,145.42,25a4.33,4.33,0,0,1,.37,1.32,6,6,0,0,1-.16,2.46,3.87,3.87,0,0,1-.42.95,3,3,0,0,1-2.2,1.38,6.36,6.36,0,0,1-2.3-.16c-.48-.1-1-.24-1.43-.36Zm1.65,4.49V29.4a.18.18,0,0,0,.16.22c.14,0,.28.07.42.1a3,3,0,0,0,1.08.05A1.54,1.54,0,0,0,144,28.59a5.28,5.28,0,0,0,.16-1.68,4.11,4.11,0,0,0-.15-1.1,1.34,1.34,0,0,0-1-.93,3,3,0,0,0-1.23,0A3.15,3.15,0,0,0,140.93,25.13Z"/><path class="cls-1" d="M113.2,21.11v1.46h-4.29v2.55l.27,0h3.15V26.6l-.25,0h-3.17v2.9h4.34V31c-.18,0-5.85,0-6,0V21.11Z"/><path class="cls-1" d="M152.92,29.75h1v.92c0,.09-.07.11-.14.14a3.76,3.76,0,0,1-1,.27,2.43,2.43,0,0,1-.85,0,.81.81,0,0,1-.68-.57.68.68,0,0,1-.05-.07l-.22.12a3.58,3.58,0,0,1-2.11.55,2.44,2.44,0,0,1-1.05-.27,1.84,1.84,0,0,1-1-1.56,3.61,3.61,0,0,1,0-.87,1.81,1.81,0,0,1,1.34-1.52,4,4,0,0,1,1.62-.15c.42,0,.84.12,1.27.18l.19,0a5,5,0,0,0-.07-1.34,1,1,0,0,0-1-.77,5.66,5.66,0,0,0-2.24.23l-.34.1-.21-1.26a3.09,3.09,0,0,1,.7-.25,7.09,7.09,0,0,1,2.9-.11,2.66,2.66,0,0,1,.63.17,2,2,0,0,1,1.3,1.74q0,.33,0,.66v3.63Zm-1.69-1.64-.2,0h-1.61a1.84,1.84,0,0,0-.33,0,.66.66,0,0,0-.61.48,1.6,1.6,0,0,0,0,.44.7.7,0,0,0,.67.7,3.55,3.55,0,0,0,1.3-.07c.28-.05.55-.13.82-.19Z"/><path class="cls-1" d="M66.82,29.75h1v1l-.35.15a3.59,3.59,0,0,1-1.34.22,2.44,2.44,0,0,1-.39-.06.76.76,0,0,1-.58-.62l-.25.13a3.54,3.54,0,0,1-2,.55A2.65,2.65,0,0,1,62,31a1.89,1.89,0,0,1-1.3-1.7,2.75,2.75,0,0,1,0-.86,1.82,1.82,0,0,1,1.34-1.51,4.05,4.05,0,0,1,1.62-.15c.43,0,.85.12,1.28.18h.18a4.48,4.48,0,0,0-.08-1.37,1,1,0,0,0-1-.73A5.3,5.3,0,0,0,62,25l-.47.13-.22-1.29c.27-.08.51-.17.76-.23a7.07,7.07,0,0,1,2.86-.1,3,3,0,0,1,.65.19,2,2,0,0,1,1.28,1.79c0,.14,0,.28,0,.42v3.8ZM65.15,28.1H63.38l-.37,0a.71.71,0,0,0-.66.7V29a.71.71,0,0,0,.66.73,3.65,3.65,0,0,0,1.32-.07,3.8,3.8,0,0,0,.82-.21Z"/><path class="cls-1" d="M48.32,30.6A5,5,0,0,1,47,31a6.51,6.51,0,0,1-2.41,0,2.59,2.59,0,0,1-2.2-2.09,6.24,6.24,0,0,1,.09-3.4,2.84,2.84,0,0,1,2.52-2,4.57,4.57,0,0,1,1.65.08,2.49,2.49,0,0,1,1.94,2,5.11,5.11,0,0,1,.08,1.95s0,.08-.05.15c-1.57,0-3.14,0-4.73,0a3,3,0,0,0,.13,1,1.45,1.45,0,0,0,1.38,1.13,6.21,6.21,0,0,0,2.35-.25l.26-.07Zm-1.23-4.13c0-.14,0-.27,0-.4a1.33,1.33,0,0,0-1-1.22,2,2,0,0,0-.73,0A1.59,1.59,0,0,0,44,26.47Z"/><path class="cls-1" d="M32.69,27.17a5.6,5.6,0,0,1-.23,1.77,2.77,2.77,0,0,1-1.93,2,4.61,4.61,0,0,1-.9.17A4.41,4.41,0,0,1,27.9,31a2.62,2.62,0,0,1-1.76-1.62,3.88,3.88,0,0,1-.28-1.21,6.5,6.5,0,0,1,.2-2.48,2.87,2.87,0,0,1,2.39-2.11,4.84,4.84,0,0,1,2,0,2.63,2.63,0,0,1,1.93,1.75A5,5,0,0,1,32.69,27.17ZM31,27a4.71,4.71,0,0,0-.05-.68,4.46,4.46,0,0,0-.2-.8,1.24,1.24,0,0,0-.93-.77,2.22,2.22,0,0,0-.85,0,1.41,1.41,0,0,0-1.12.74,2.88,2.88,0,0,0-.26.69,5.71,5.71,0,0,0-.08,2.06,3.37,3.37,0,0,0,.21.77,1.17,1.17,0,0,0,.94.76,3.3,3.3,0,0,0,.7,0,1.45,1.45,0,0,0,1.33-.9,2.5,2.5,0,0,0,.15-.38A5.83,5.83,0,0,0,31,27Z"/><path class="cls-1" d="M9.64,23.61h1.65l0,.56.22-.12a3.9,3.9,0,0,1,2.28-.59,2.45,2.45,0,0,1,.89.19,1.88,1.88,0,0,1,1.15,1.46,3.79,3.79,0,0,1,.06.67V31c-.55,0-1.09,0-1.65,0,0-.1,0-.19,0-.27V26.24a3.07,3.07,0,0,0-.08-.67.91.91,0,0,0-.82-.73A3,3,0,0,0,12,25c-.23.06-.46.16-.71.24v5.74a8.31,8.31,0,0,1-1.66,0Z"/><path class="cls-1" d="M161.45,31h-1.68V26.29a3.35,3.35,0,0,0-.05-.63.94.94,0,0,0-.88-.83,3.45,3.45,0,0,0-1.56.2l-.46.17v5.74a8.27,8.27,0,0,1-1.65,0V23.61c.55,0,1.08,0,1.65,0v.57a1.83,1.83,0,0,0,.2-.1,3.93,3.93,0,0,1,1.69-.59,3.25,3.25,0,0,1,1.28.08,1.91,1.91,0,0,1,1.41,1.68,3.14,3.14,0,0,1,0,.61V31Z"/><path class="cls-1" d="M36.07,31H34.43c0-.16,0-7.06,0-7.35H36l.05.56.22-.12a3.89,3.89,0,0,1,2.33-.59,2.7,2.7,0,0,1,.84.19,1.92,1.92,0,0,1,1.15,1.49,3.66,3.66,0,0,1,0,.57v5.06a1,1,0,0,1,0,.17A9,9,0,0,1,39,31V26.29a3,3,0,0,0-.09-.73.89.89,0,0,0-.8-.72,3,3,0,0,0-1.34.11c-.24.06-.47.15-.72.24Z"/><path class="cls-1" d="M50,30.71l.25-1.34.19.05a7.67,7.67,0,0,0,1.84.35,2.77,2.77,0,0,0,1.07-.13.73.73,0,0,0,.28-1.3,2.33,2.33,0,0,0-.52-.27c-.3-.1-.61-.18-.92-.27A4.07,4.07,0,0,1,51,27.3a2,2,0,0,1-.9-2,2.38,2.38,0,0,1,.06-.37,1.63,1.63,0,0,1,.89-1.12,3,3,0,0,1,1-.31,6.68,6.68,0,0,1,3.1.36,6.38,6.38,0,0,1-.25,1.34c-.24-.07-.47-.15-.71-.2s-.72-.15-1.09-.2a1.93,1.93,0,0,0-.92.13.63.63,0,0,0-.44.68.56.56,0,0,0,.29.46,2.73,2.73,0,0,0,.55.25c.39.13.78.23,1.17.35a3.57,3.57,0,0,1,.93.43,1.79,1.79,0,0,1,.86,1.55,3.42,3.42,0,0,1-.06.78,1.87,1.87,0,0,1-.91,1.2,3.35,3.35,0,0,1-1.34.43,7.54,7.54,0,0,1-3.06-.29Z"/><path class="cls-1" d="M7.52,31H5.86c-.05-.17-.06-9.57,0-9.83a9.9,9.9,0,0,1,1.66,0C7.56,21.26,7.57,30.7,7.52,31Z"/><path class="cls-1" d="M57.43,23.61H59c.05.17.06,7.06,0,7.35H57.44C57.39,30.8,57.38,23.87,57.43,23.61Z"/><path class="cls-1" d="M122.58,23.61h1.61c0,.16.07,7.06,0,7.35h-1.62l0,0h0c0-.06,0-.12,0-.18V23.69A.2.2,0,0,1,122.58,23.61Z"/><path class="cls-1" d="M58.25,20.69a1,1,0,0,1,1,1,1,1,0,0,1-1,1,1,1,0,0,1-1-1A1,1,0,0,1,58.25,20.69Z"/><path class="cls-1" d="M122.41,21.7a1,1,0,1,1,1,1A1,1,0,0,1,122.41,21.7Z"/><polygon class="cls-2" points="114 30.91 115.84 28.4 117.65 28.4 115.99 30.91 114 30.91"/><polygon class="cls-2" points="114.21 23.52 117.71 28.48 119.42 30.91 121.38 30.91 118.57 27.03 121.23 23.52 119.3 23.52 117.76 25.91 116.1 23.52 114.21 23.52"/><path class="cls-3" d="M93.65,30S95,16.07,81.07,13.26c0,0,7.8-5.63,15.47,1.8,0,0,2.61,2.07,3.35,7.73a15.43,15.43,0,0,1-3.25,2.82l-.49.26a1.3,1.3,0,0,0-.59,1.27v3.61Z"/><path class="cls-4" d="M72.21,23.23s.23,2.41,3.93,4.32A22.51,22.51,0,0,0,82,29.28l-.55-3s-.28-1.36.9-.68c0,0,5.68,3.78,8.14,4.63,0,0,3.52,1.5,4.34,1.72,0,0,1,.31-.43,1.7,0,0-4.78,5.17-9.35,7.08a.76.76,0,0,1-1.2-.35l-.43-2.49s-5.54-.66-8.16-4.56a7.23,7.23,0,0,1-.9-2c-.28-.84-.42-1.81-.74-3C73.18,26.68,72.57,24.77,72.21,23.23Z"/><path class="cls-5" d="M75.7,24.76s-1.75-1.7-1.41-3.51a6,6,0,0,1,1.35-2.75,24.91,24.91,0,0,1,2.07-1.75S75,20.72,75.7,24.76Z"/><path class="cls-5" d="M102.59,21s-.26,3.14-4.58,5.5c0,0-1.15.25-.89,2.21L97,34.63s-.15,1,.61.52,4-2.9,4.39-5.83Z"/><path class="cls-5" d="M96.54,15.06s6.82,2.24,3.35,7.73a13.47,13.47,0,0,0-.69-3.6A11,11,0,0,0,96.54,15.06Z"/></svg>