<svg id="Layer_1" data-name="Layer 1" xmlns="http://www.w3.org/2000/svg" viewBox="0 0 128 128"><defs><style>.cls-1{fill:#ee2134;}.cls-1,.cls-2{fill-rule:evenodd;}.cls-2{fill:#26225c;}</style></defs><path class="cls-1" d="M41.87,40.43a3.8,3.8,0,0,1,3.8-3.8H47v-.06a3.8,3.8,0,0,1,7.6,0v.06h1.28a3.8,3.8,0,1,1,0,7.6v2.49a3.8,3.8,0,1,1,0,7.6H54.56a3.9,3.9,0,0,1-.14,1.08,3.8,3.8,0,0,1-7.32,0A3.56,3.56,0,0,1,47,54.32H45.67a3.8,3.8,0,1,1,0-7.6V44.23a3.8,3.8,0,0,1-3.82-3.8Zm22,1.91A5,5,0,0,0,61,40.52v-.09a3.81,3.81,0,0,1,7.38-1.3,5.1,5.1,0,0,0-4.52,3.21Zm-7.34,3.13a5.1,5.1,0,0,0,4.26-3.69,3.8,3.8,0,0,1,0,7.38,5.1,5.1,0,0,0-4.26-3.69Zm8.27-1.24v0a3.8,3.8,0,0,1,3.8-3.8h0a3.81,3.81,0,0,1-3.8,3.82Zm-24-2.45A5.1,5.1,0,0,0,45,45.47a5.1,5.1,0,0,0-4.27,3.69,3.8,3.8,0,0,1,0-7.38Zm10.1,17.68a5.09,5.09,0,0,0,4-2.08,5.15,5.15,0,0,0,2.31,2.72,5,5,0,0,0-2,2,5.08,5.08,0,0,0-4.33-2.61ZM52.05,61a3.83,3.83,0,0,1,2.5,3.36A3.81,3.81,0,0,1,52.05,61Zm-1.29-.2a5.09,5.09,0,0,0,3.8,4.9v.78a3.8,3.8,0,1,1-7.6,0v-.78a5.09,5.09,0,0,0,3.8-4.9Zm4.72,7.58a5.22,5.22,0,0,0,.36-1.9v-1.9a3.81,3.81,0,1,1,3.8,3.8v1.28a5.08,5.08,0,0,0,5.09-5.1v-8.9a3.8,3.8,0,0,1,3.8-3.8h1.32v-1.3a5.09,5.09,0,0,0-4.45-5.05,5.09,5.09,0,0,0,.64-10c0-.08,0-.16,0-.24a5.08,5.08,0,0,0-5.11-5.08V22.41H59.57a3.68,3.68,0,0,1-3.64-3.19,3.87,3.87,0,0,1,0-.48V15.23A5.26,5.26,0,0,0,52,10.12V5.93L50.76,4.65,49.47,5.93v4.19a5.26,5.26,0,0,0-3.86,5.11v3.51a3.87,3.87,0,0,1,0,.48,3.67,3.67,0,0,1-3.64,3.19H40.57v7.77a5.07,5.07,0,0,0-5.1,5.08v.24a5.09,5.09,0,0,0,.64,10,5.09,5.09,0,0,0-4.44,5.05v1.3H33a3.8,3.8,0,0,1,3.8,3.8v8.9a5.09,5.09,0,0,0,5.09,5.1V68.34a3.8,3.8,0,1,1,3.8-3.8v1.9a5,5,0,0,0,.37,1.9h-2.9v1.28h3.65a5,5,0,0,0,3.32,1.87V75H51.4V71.49a5,5,0,0,0,3.32-1.87h3.66V68.34Zm9.27-21.61h0a3.8,3.8,0,0,1,3.81,3.81h0a3.8,3.8,0,0,1-3.8-3.8Zm-1.09,7.42A3.8,3.8,0,0,1,61,50.43a5.13,5.13,0,0,0,2.86-1.82,5.1,5.1,0,0,0,2.24,2.56,5.1,5.1,0,0,0-2.4,3ZM55.84,55.6A5.08,5.08,0,0,0,60.3,53a5.08,5.08,0,0,0,3.14,2.46,3.8,3.8,0,1,1-7.6.18Zm-10-20.34a3.8,3.8,0,1,1-.17-7.6,5.07,5.07,0,0,0,2.66,4.44,5.14,5.14,0,0,0-2.49,3.16Zm4.92-3.83A3.8,3.8,0,0,1,47,27.88v-.4a5,5,0,0,0,3.8-4.8,5,5,0,0,0,3.8,4.8v.4a3.8,3.8,0,0,1-3.79,3.55ZM54.54,16A3.84,3.84,0,0,1,47,16a5.24,5.24,0,0,0,3.78-4.33A5.24,5.24,0,0,0,54.54,16Zm-3.78,6.51a4.94,4.94,0,0,0-.51-2.07l.51,0,.5,0a4.79,4.79,0,0,0-.5,2.07Zm4,3.67a3.68,3.68,0,0,1-.16-7.07,5,5,0,0,0,2.63,4,5,5,0,0,0-2.47,3.1Zm3.45,9.72a5,5,0,0,0,2.06-2,5.06,5.06,0,0,0,2.06,2,5.18,5.18,0,0,0-2.06,2,5.12,5.12,0,0,0-2.06-2ZM53.18,32.1a5.07,5.07,0,0,0,2.66-4.44,3.8,3.8,0,1,1-.17,7.6,5.11,5.11,0,0,0-2.49-3.16Zm6.48-4a5.1,5.1,0,0,0-3.58-1.72,3.66,3.66,0,0,1,3.58-2.55V28.1ZM36.75,36.63a3.8,3.8,0,0,1,3.8,3.8v.09a5.08,5.08,0,0,0-2.86,1.82,5.09,5.09,0,0,0-4.51-3.21,3.8,3.8,0,0,1,3.57-2.5Zm0,7.58v0h0A3.81,3.81,0,0,1,33,40.41h0a3.8,3.8,0,0,1,3.8,3.8ZM41.21,53a5.09,5.09,0,0,0,4.46,2.64,3.8,3.8,0,1,1-7.59-.18A5.06,5.06,0,0,0,41.21,53Zm-4.45-6.24h0a3.8,3.8,0,0,1-3.8,3.8h0a3.8,3.8,0,0,1,3.81-3.81Zm6.51-10.78a5.18,5.18,0,0,0-2.06,2,5.12,5.12,0,0,0-2.06-2,5,5,0,0,0,2.06-2,5.06,5.06,0,0,0,2.06,2Zm2.17-9.56a5.13,5.13,0,0,0-3.59,1.72V23.83a3.68,3.68,0,0,1,3.59,2.55Zm1.21,31a5.11,5.11,0,0,0,4,2.08,5.08,5.08,0,0,0-4.33,2.61,5,5,0,0,0-2-2,5.07,5.07,0,0,0,2.31-2.72Zm-9-8.77a5.13,5.13,0,0,0,2.86,1.82,3.79,3.79,0,0,1-2.7,3.72,5.06,5.06,0,0,0-2.4-3,5.1,5.1,0,0,0,2.24-2.56ZM47,64.32A3.82,3.82,0,0,1,49.47,61,3.82,3.82,0,0,1,47,64.32ZM62.12,60.1A5.09,5.09,0,0,0,63.45,59v2.13a5.27,5.27,0,0,0-1.33-1.06ZM49.47,22.66a3.67,3.67,0,0,1-2.74,3.56,5,5,0,0,0-2.48-3.1,5,5,0,0,0,2.63-4,3.67,3.67,0,0,1,2.59,3.51Zm5.11-7.95A4,4,0,0,1,52,11.46a3.94,3.94,0,0,1,2.56,3.25ZM64.76,35.26a3.8,3.8,0,0,1-3.8-3.8,3.8,3.8,0,0,1,3.8,3.8ZM38.07,59a5,5,0,0,0,1.32,1.07,5.22,5.22,0,0,0-1.32,1.06V59ZM49.5,11.46a4,4,0,0,1-2.57,3.25,3.94,3.94,0,0,1,2.57-3.25Zm-9,20a3.8,3.8,0,0,1-3.8,3.8,3.8,3.8,0,0,1,3.8-3.8Z"/><polygon class="cls-1" points="50.76 35.26 49.47 36.54 50.76 37.83 52.04 36.54 50.76 35.26 50.76 35.26"/><polygon class="cls-1" points="50.76 55.68 52.04 54.4 50.76 53.12 49.47 54.4 50.76 55.68 50.76 55.68"/><polygon class="cls-1" points="39.31 45.47 40.6 46.76 41.88 45.47 40.6 44.19 39.31 45.47 39.31 45.47"/><polygon class="cls-1" points="62.2 45.47 60.92 46.76 59.63 45.47 60.92 44.19 62.2 45.47 62.2 45.47"/><polygon class="cls-1" points="31.68 46.76 32.97 45.47 31.68 44.19 30.4 45.47 31.68 46.76 31.68 46.76"/><polygon class="cls-1" points="41.87 58.19 43.15 56.91 41.87 55.63 40.59 56.91 41.87 58.19 41.87 58.19"/><polygon class="cls-1" points="41.87 65.84 43.15 64.55 41.87 63.27 40.59 64.55 41.87 65.84 41.87 65.84"/><polygon class="cls-1" points="50.76 68.33 52.04 67.05 50.76 65.77 49.47 67.05 50.76 68.33 50.76 68.33"/><polygon class="cls-1" points="38.55 28.92 39.84 27.64 38.55 26.35 37.27 27.64 38.55 28.92 38.55 28.92"/><polygon class="cls-1" points="50.76 29.4 52.04 28.12 50.76 26.83 49.47 28.12 50.76 29.4 50.76 29.4"/><polygon class="cls-1" points="44.39 32.77 45.67 31.49 44.39 30.21 43.1 31.49 44.39 32.77 44.39 32.77"/><polygon class="cls-1" points="43.13 20.28 44.41 19 43.13 17.71 41.84 19 43.13 20.28 43.13 20.28"/><polygon class="cls-1" points="50.76 17.8 52.04 16.52 50.76 15.24 49.47 16.52 50.76 17.8 50.76 17.8"/><polygon class="cls-1" points="69.83 46.76 68.55 45.47 69.83 44.19 71.11 45.47 69.83 46.76 69.83 46.76"/><polygon class="cls-1" points="59.64 58.19 58.36 56.91 59.64 55.63 60.93 56.91 59.64 58.19 59.64 58.19"/><polygon class="cls-1" points="59.64 65.84 58.36 64.55 59.64 63.27 60.93 64.55 59.64 65.84 59.64 65.84"/><polygon class="cls-1" points="62.96 28.92 61.68 27.64 62.96 26.35 64.25 27.64 62.96 28.92 62.96 28.92"/><polygon class="cls-1" points="57.13 32.77 55.84 31.49 57.13 30.21 58.41 31.49 57.13 32.77 57.13 32.77"/><polygon class="cls-1" points="58.39 20.28 57.1 19 58.39 17.71 59.67 19 58.39 20.28 58.39 20.28"/><path class="cls-1" d="M50.76,47.37Zm0-3.8a5.1,5.1,0,0,0-5-4.44h-1.3v1.26a5.09,5.09,0,0,0,4.45,5.08,5.09,5.09,0,0,0-4.45,5.05v1.3h1.25a5.09,5.09,0,0,0,5.1-4.45,5.07,5.07,0,0,0,5.09,4.45H57.1v-1.3a5.09,5.09,0,0,0-4.45-5.05,5.08,5.08,0,0,0,4.45-5.08V39.13H55.8a5.08,5.08,0,0,0-5,4.44Zm1.24.66a3.8,3.8,0,0,1,3.8-3.82h0A3.81,3.81,0,0,1,52,44.23Zm0,2.49h0a3.8,3.8,0,0,1,3.8,3.81h0A3.8,3.8,0,0,1,52,46.72Zm-2.49,0a3.8,3.8,0,0,1-3.8,3.81h0a3.79,3.79,0,0,1,3.8-3.81Zm0-2.49H52v2.49H49.51V44.23Zm-3.8-3.82a3.8,3.8,0,0,1,3.8,3.82,3.79,3.79,0,0,1-3.81-3.82Z"/><path class="cls-2" d="M61.58,98.85c2.1-2.51,4.15-4.92,6.43-7.72,1.66-2,2.46-3.29,2.53-6.07a8.27,8.27,0,0,0-7.75-7.92c-5.08,0-8,4.58-8,8.63v.59h4.37v-.49c0-2.12,1.2-4.17,3.36-4.35a3.52,3.52,0,0,1,3.33,2,3.84,3.84,0,0,1-.08,3.64C64,89.53,62.14,91.72,60.25,94c-2.59,3.07-5.2,6.14-7.75,9.07H68.79L73,98.85Z"/><path class="cls-2" d="M86,76.93A13.12,13.12,0,1,0,99.1,90,13.12,13.12,0,0,0,86,76.93ZM77.32,90A8.66,8.66,0,1,1,86,98.7,8.66,8.66,0,0,1,77.32,90Z"/><path class="cls-2" d="M51.38,90.32h-8L39.2,94.47h8v2.39a8.57,8.57,0,0,1-5.31,1.8c-4.73,0-8.56-2.81-8.56-8.56A8.68,8.68,0,0,1,42,81.38a9.51,9.51,0,0,1,7.82,4.24h1.59V76.44H50.11l-2.06,2.19A13,13,0,1,0,51.38,99V90.32Z"/><path class="cls-2" d="M48.47,122.08c.57-.68,1.12-1.33,1.74-2.09a2.36,2.36,0,0,0,.69-1.65,2.14,2.14,0,1,0-4.28.19v.16h1.19v-.13a1.08,1.08,0,0,1,.91-1.18.94.94,0,0,1,.9.54,1,1,0,0,1,0,1c-.49.64-1,1.24-1.5,1.84-.7.84-1.41,1.67-2.1,2.47h5.17v-1.14Z"/><path class="cls-2" d="M56.1,122.08c.57-.68,1.13-1.33,1.75-2.09a2.36,2.36,0,0,0,.69-1.65,2.15,2.15,0,1,0-4.29.19v.16h1.19v-.13a1.09,1.09,0,0,1,.91-1.18,1,1,0,0,1,.91.54,1,1,0,0,1,0,1c-.49.64-1,1.24-1.5,1.84-.7.84-1.41,1.67-2.1,2.47H58.8v-1.14Z"/><path class="cls-2" d="M40.06,116.18a3.59,3.59,0,1,0,3.59,3.59,3.59,3.59,0,0,0-3.59-3.59Zm-2.37,3.59a2.37,2.37,0,1,1,2.37,2.37,2.37,2.37,0,0,1-2.37-2.37Z"/><path class="cls-2" d="M31.29,122.08c.57-.68,1.13-1.33,1.75-2.09a2.36,2.36,0,0,0,.69-1.65,2.15,2.15,0,1,0-4.29.19v.16h1.19v-.13a1.09,1.09,0,0,1,.91-1.18,1,1,0,0,1,.91.54,1,1,0,0,1,0,1c-.49.64-1,1.24-1.5,1.84-.7.84-1.41,1.67-2.11,2.47H34v-1.14Z"/><path class="cls-2" d="M56.41,107.05a2.58,2.58,0,1,1-2.58,2.58,2.58,2.58,0,0,1,2.58-2.58Zm0,6.22a3.64,3.64,0,1,0-3.64-3.64,3.64,3.64,0,0,0,3.64,3.64Z"/><path class="cls-2" d="M45.49,107.14h1.1a2.38,2.38,0,0,1,2.51,2.51,2.33,2.33,0,0,1-2.36,2.51H45.49v-5Zm-1.17,6.08h2.6a3.48,3.48,0,0,0,3.35-3.57,3.57,3.57,0,0,0-3.57-3.57H43.54v.59c.42.07.78.25.78.78v5.77Z"/><path class="cls-2" d="M31,106.08v7H29.83v-5.71c0-.62-.34-.73-.78-.8v-.54Z"/><path class="cls-2" d="M34.9,107.3v5.92h1v-5l3.94,5h.84v-7.14h-1V111l-4-4.91h-1.6v.61c.53,0,.78.14.78.61Z"/><path class="cls-2" d="M63.21,107.3v5.92h.95v-5l3.94,5h.84v-7.14H68V111l-4-4.91h-1.6v.61c.53,0,.79.14.79.61Z"/><path class="cls-2" d="M89.29,106.08v7H88.11v-5.71c0-.62-.34-.73-.77-.8v-.54Z"/><path class="cls-2" d="M72.65,113.22v-5.89c0-.47-.35-.63-.79-.69v-.56h5.35v1.06H73.82v2h3v1h-3v2.1h3.39v1Z"/><path class="cls-2" d="M96.63,110.12H94.82l.91-2.06.9,2.06Zm-2.21-4v.57a.69.69,0,0,1,.59.28l-2.75,6.29h1.19l.94-2.12h2.68l.93,2.12h1.18v0l-3.11-7.11Z"/><path class="cls-2" d="M84.17,107.38V106.3a6.43,6.43,0,0,0-1.73-.22c-1.33,0-2.19.67-2.25,1.74s.77,1.79,2,2.34c1,.46,1.16.81,1.18,1.24s-.18,1-1.18,1a3.92,3.92,0,0,1-1.93-.54V113a6.77,6.77,0,0,0,1.93.26,3,3,0,0,0,1.67-.53,1.75,1.75,0,0,0,.76-1.4c0-1-.34-1.57-1.77-2.32a5.5,5.5,0,0,1-1.24-.74.81.81,0,0,1,0-1.14c.38-.37,1.24-.38,2.6.25Z"/></svg>