<svg id="Layer_1" data-name="Layer 1" xmlns="http://www.w3.org/2000/svg" viewBox="0 0 128 128"><defs><style>.cls-1,.cls-3{fill-rule:evenodd;}.cls-2,.cls-3{fill:#25b34b;}</style></defs><path class="cls-1" d="M58.58,123.22c2.13.21,5.2.19,6.74-1a3.66,3.66,0,0,0,1.4-2.63c.32-1.84.16-17,.16-19.64l-4.26,0V111.7c0,9.28.49,7.26-4,7.71v3.81ZM30.25,103.89c2.55-.66,5.29.52,5.61,2.84.41,3-.58,4.76-3.14,5.33-6.22,1.39-7.79-6.8-2.47-8.17Zm20.34-.11c5.87-1.06,7.09,7.22,2,8.36-2.75.61-4.92-.86-5.4-3-.55-2.53.59-4.8,3.4-5.31Zm-7.76,5c-1-11.07,16.54-11.8,17.23-1.47.33,5-3.23,8.47-7.92,8.73s-8.86-2.38-9.31-7.26Zm-6.74-7.06a8.59,8.59,0,0,0-9-.93c-7.58,3.94-4.86,16.27,5.23,15.11,2.45-.28,3-1.3,3.82-1.75a6.23,6.23,0,0,1-.57,3.36,3.84,3.84,0,0,1-2.4,1.64c-3.14.74-4.57-.39-6.33-1.57l-2.66,2.57a4.09,4.09,0,0,0,1.49,1.35c3.91,2.59,10.25,2.6,13.32-1.66,1.69-2.35,1.23-6.23,1.23-9.41V99.9H36.08v1.79Zm37.65,4.64c.65-4.09,7.79-3.85,8.15,0Zm12.38,3H73.65c.71,3.58,6.3,4.29,8.71,1.6a14.18,14.18,0,0,1,2.9,2c-1.83,2.72-7,4-11.15,2.24-8.52-3.69-4.83-17.29,5.72-15.08,4.76,1,6.29,4.74,6.29,9.22Zm12-2.86,7-6.49-5.56-.12-6.86,6.42,0-10.57H88.64l0,20.33h4l0-4.39,2.69-2.33,5.33,6.72,4.5,0-1.74-2.32-5-6.54Z"/><circle class="cls-2" cx="64" cy="45.89" r="15.62" transform="translate(11.17 104.28) rotate(-83.5)"/><path class="cls-3" d="M57.36,78.33h0a7.76,7.76,0,0,0-4.19-9.26A25.59,25.59,0,1,1,75,69a7.8,7.8,0,0,0-4,9.62h0a7.81,7.81,0,0,0,10.75,4.48,41.2,41.2,0,1,0-35.2.15,7.81,7.81,0,0,0,10.81-4.9Z"/></svg>