<svg id="Layer_1" data-name="Layer 1" xmlns="http://www.w3.org/2000/svg" viewBox="0 0 153.38 62.51"><defs><style>.cls-1{fill:#ef3f3e;}.cls-1,.cls-2,.cls-3{fill-rule:evenodd;}.cls-2,.cls-4{fill:#2193d1;}.cls-3{fill:#abc437;}.cls-5{fill:#ec2227;}</style></defs><path class="cls-1" d="M30.22,44.46c2.1,0,5.58,0,7.24,0,1.09,0,2.57.21,3.35-.45.95-.79.76-1.73.24-2.73L31.19,22c-1.33-2.53-1.55-3.89-3.58-3.91-2.54,0-5.1,0-7.64,0l-.25,0c1.05.7,1.47,1.93,2.17,3.25l8.89,17c.54,1,1.33,2.42,1.78,3.52.75,1.83-.8,2.35-2.34,2.6Z"/><path class="cls-2" d="M18.09,19.58c-1,2.06-2.18,4.63-3.17,6.65-1.16,2.39-2.28,4.79-3.44,7.16S9.15,38,7.9,40.38c-.6,1.16-.88,1.73-1.51,2.93-.31.61-.59,1.19-.9,1.75A5.29,5.29,0,0,1,4.33,46.4c2.32.16,5,0,7.41,0,1.4,0,2-.2,2.59-1.13.32-.52,4.11-8.41,4.11-8.41,1.07-2.15,2.13-4.3,3.18-6.47.53-1.09,1.05-2.09,1.59-3.18l.44-.88s-.36-.94-1.15-2.47L20,19.14a1,1,0,0,0-.84-.41C18.64,18.73,18.34,19.06,18.09,19.58Z"/><path class="cls-3" d="M16.4,42.5l11.83,0c-2.93-.69-3.07-.8-.87-5.25l1-2L24,27Z"/><path class="cls-3" d="M28.65,17.34a2.53,2.53,0,0,1,1.68,1.51c.7,1.29,2.85,5.39,3.24,6L36.77,18a4.22,4.22,0,0,1,2-2c-1.7-.08-3.84,0-5.66,0-.92,0-2,0-2.9,0a1.54,1.54,0,0,0-1.61,1.27Z"/><path class="cls-4" d="M53.81,44.6H50.27v-19h3.54Z"/><path class="cls-4" d="M60.36,32.81a7.58,7.58,0,0,1,.85-.76,5.63,5.63,0,0,1,1-.59,5.52,5.52,0,0,1,1.08-.38,5.59,5.59,0,0,1,1.26-.14,4.81,4.81,0,0,1,1.95.38,3.85,3.85,0,0,1,1.42,1A4.62,4.62,0,0,1,68.75,34,7,7,0,0,1,69,36V44.6H65.81V36a2.88,2.88,0,0,0-.57-1.91,2.11,2.11,0,0,0-1.71-.67,3.44,3.44,0,0,0-1.58.38,5.5,5.5,0,0,0-1.38,1V44.6H57.33V31.15h2a.79.79,0,0,1,.82.59Z"/><path class="cls-4" d="M71.79,33a8,8,0,0,1,5.58-2.12,5.4,5.4,0,0,1,2.11.38A4.4,4.4,0,0,1,82,34a6.17,6.17,0,0,1,.34,2.1V44.6H80.9a1.51,1.51,0,0,1-.71-.14,1,1,0,0,1-.39-.56l-.29-1a9.88,9.88,0,0,1-1,.81,5.91,5.91,0,0,1-1,.58,5.23,5.23,0,0,1-1.12.36,6.71,6.71,0,0,1-1.32.13,5.22,5.22,0,0,1-1.57-.23,3.7,3.7,0,0,1-1.25-.69,3.12,3.12,0,0,1-.81-1.14,4.07,4.07,0,0,1-.29-1.59,3.2,3.2,0,0,1,.17-1,2.94,2.94,0,0,1,.56-1,4.57,4.57,0,0,1,1-.87,6.63,6.63,0,0,1,1.51-.71,13.75,13.75,0,0,1,2.09-.49,23.08,23.08,0,0,1,2.73-.23v-.78a2.91,2.91,0,0,0-.58-2A2.11,2.11,0,0,0,77,33.46a4,4,0,0,0-1.3.18,5.63,5.63,0,0,0-.92.42l-.71.41a1.41,1.41,0,0,1-.71.18,1,1,0,0,1-.58-.17,1.51,1.51,0,0,1-.38-.42Zm7.42,5.83a16.94,16.94,0,0,0-2.36.24,6.42,6.42,0,0,0-1.53.45,2.12,2.12,0,0,0-.83.64,1.48,1.48,0,0,0-.25.8,1.39,1.39,0,0,0,.51,1.22,2.12,2.12,0,0,0,1.31.37,3.87,3.87,0,0,0,1.73-.36,5.15,5.15,0,0,0,1.42-1.1Z"/><path class="cls-4" d="M88.68,25.13V44.6H85.45V25.13Z"/><path class="cls-4" d="M103.5,31.15V44.6h-2a.76.76,0,0,1-.81-.59l-.22-1.08a7.26,7.26,0,0,1-1.83,1.36,5,5,0,0,1-2.34.52,4.81,4.81,0,0,1-1.95-.38,4,4,0,0,1-1.42-1,4.85,4.85,0,0,1-.87-1.62,6.71,6.71,0,0,1-.29-2.06V31.15H95V39.7a2.85,2.85,0,0,0,.57,1.9,2.12,2.12,0,0,0,1.71.68,3.4,3.4,0,0,0,1.57-.38,5.28,5.28,0,0,0,1.39-1V31.15Z"/><path class="cls-4" d="M106.7,44.6V31.15h2a.8.8,0,0,1,.83.59l.21,1a7.17,7.17,0,0,1,.74-.72,4.62,4.62,0,0,1,1.77-.94,4.19,4.19,0,0,1,1.1-.14,3.12,3.12,0,0,1,2.09.69,4.13,4.13,0,0,1,1.23,1.83,4,4,0,0,1,.79-1.15,4.58,4.58,0,0,1,1-.78,5.08,5.08,0,0,1,1.2-.44,5.53,5.53,0,0,1,1.28-.15,5.25,5.25,0,0,1,2,.35,3.65,3.65,0,0,1,1.46,1,4.54,4.54,0,0,1,.9,1.6,7.14,7.14,0,0,1,.3,2.16V44.6h-3.23V36a2.9,2.9,0,0,0-.56-1.93,2.1,2.1,0,0,0-1.66-.65,2.51,2.51,0,0,0-.92.17,2.32,2.32,0,0,0-.75.49,2.27,2.27,0,0,0-.5.81,3.15,3.15,0,0,0-.18,1.11V44.6h-3.25V36a2.87,2.87,0,0,0-.55-2,2,2,0,0,0-1.59-.62,2.66,2.66,0,0,0-1.32.35,4.5,4.5,0,0,0-1.13.95V44.6Z"/><path class="cls-5" d="M146.06,21.37a.58.58,0,1,1-.57-.57A.57.57,0,0,1,146.06,21.37Z"/><path class="cls-5" d="M146.37,33.51a.58.58,0,1,0-.57.57A.58.58,0,0,0,146.37,33.51Z"/><path class="cls-5" d="M146.58,27.57a.58.58,0,1,0-.57.58A.58.58,0,0,0,146.58,27.57Z"/><path class="cls-5" d="M147.4,22.51l-1,.72a7.35,7.35,0,0,1-.08,8.79l1,.73a8.58,8.58,0,0,0,.09-10.24Z"/><path class="cls-5" d="M140.45,35h0V33.72h0a6.17,6.17,0,0,0,6-4.56h-1.27a4.95,4.95,0,1,1,0-3.19h1.27a6.17,6.17,0,0,0-6-4.56h0V20.19h0a7.29,7.29,0,0,1,3,.65l.5-1.1a8.47,8.47,0,0,0-3.53-.76,8.6,8.6,0,0,0,0,17.19,8.5,8.5,0,0,0,4.47-1.26l-.63-1A7.37,7.37,0,0,1,140.45,35Z"/></svg>