<svg id="Layer_1" data-name="Layer 1" xmlns="http://www.w3.org/2000/svg" xmlns:xlink="http://www.w3.org/1999/xlink" viewBox="0 0 128 128"><defs><style>.cls-1{fill:#57595b;}.cls-2{fill:url(#linear-gradient);}.cls-3{fill:url(#linear-gradient-2);}.cls-4{fill:url(#linear-gradient-3);}.cls-5{fill:url(#linear-gradient-4);}</style><linearGradient id="linear-gradient" x1="78.78" y1="46.44" x2="99.13" y2="46.44" gradientUnits="userSpaceOnUse"><stop offset="0" stop-color="#3b51a3"/><stop offset="0.28" stop-color="#51a8dd"/><stop offset="0.56" stop-color="#64bae8"/><stop offset="0.79" stop-color="#3f6eb6"/></linearGradient><linearGradient id="linear-gradient-2" x1="98.23" y1="63.19" x2="118.55" y2="27.99" gradientUnits="userSpaceOnUse"><stop offset="0" stop-color="#3b51a3"/><stop offset="0.07" stop-color="#3c55a6"/><stop offset="0.14" stop-color="#3f61ad"/><stop offset="0.21" stop-color="#4474ba"/><stop offset="0.28" stop-color="#4b8fcd"/><stop offset="0.33" stop-color="#51a8dd"/><stop offset="0.64" stop-color="#64bae8"/><stop offset="0.97" stop-color="#3b53a4"/></linearGradient><linearGradient id="linear-gradient-3" x1="80.14" y1="45.2" x2="122" y2="45.2" gradientUnits="userSpaceOnUse"><stop offset="0" stop-color="#5ab8e8"/><stop offset="0.18" stop-color="#4a83c4"/><stop offset="0.36" stop-color="#3b51a3"/><stop offset="0.71" stop-color="#37499f"/><stop offset="0.75" stop-color="#36479b"/><stop offset="0.8" stop-color="#353f8f"/><stop offset="0.85" stop-color="#32337a"/><stop offset="0.88" stop-color="#2f2868"/></linearGradient><linearGradient id="linear-gradient-4" x1="100.99" y1="35.51" x2="108.78" y2="35.51" gradientUnits="userSpaceOnUse"><stop offset="0.09" stop-color="#51a8dd"/><stop offset="0.8" stop-color="#64bae8"/><stop offset="1" stop-color="#9fd0e7"/></linearGradient></defs><path class="cls-1" d="M43,87l.6-1.33.59.23a6.47,6.47,0,0,0,3.59.41A2.86,2.86,0,0,0,50.18,84a5.1,5.1,0,0,0,.1-2.21l-.59.21a6.12,6.12,0,0,1-3.2.22A4.78,4.78,0,0,1,43,79.5a7.77,7.77,0,0,1-.75-2.78,10.58,10.58,0,0,1,.53-4.67,5.59,5.59,0,0,1,5.33-3.79,8.85,8.85,0,0,1,3.87.68.7.7,0,0,1,.5.74c0,4.3,0,8.61,0,12.91a7.79,7.79,0,0,1-.26,1.92,4.36,4.36,0,0,1-3.63,3.32,8.83,8.83,0,0,1-5.26-.68A1.88,1.88,0,0,1,43,87Zm7.32-11.8V71c0-1.21,0-1.24-1.19-1.41a3.55,3.55,0,0,0-4.25,2.34,6,6,0,0,0-.28.91,11.47,11.47,0,0,0-.18,4.29,8.08,8.08,0,0,0,.57,2,2.91,2.91,0,0,0,2,1.76,4.42,4.42,0,0,0,2.78-.18.74.74,0,0,0,.53-.8C50.34,78.34,50.35,76.76,50.35,75.18Z"/><path class="cls-1" d="M58.37,82.16H56.31c-.14-.44-.17-19.18,0-19.92h2.08v6.94l.66-.27a6.32,6.32,0,0,1,4.11-.36,3.71,3.71,0,0,1,3,3.85c0,1,0,2,0,3v6.73H64v-.71c0-2.88,0-5.77,0-8.65,0-.24,0-.47,0-.71a2.4,2.4,0,0,0-2.25-2.33,5.52,5.52,0,0,0-2.72.4.9.9,0,0,0-.65,1c0,3.44,0,6.87,0,10.31Z"/><path class="cls-1" d="M14.35,82.16H12.27c0-.21,0-.4,0-.58q0-5.89,0-11.79c0-.62,0-.63.59-.83A10.92,10.92,0,0,1,19,68.49,3.6,3.6,0,0,1,22,71.26a5.62,5.62,0,0,1,.16,1.29c0,3.1,0,6.19,0,9.29a2.39,2.39,0,0,1,0,.31,17.1,17.1,0,0,1-2,0c0-.26-.07-.51-.07-.75,0-2.92,0-5.84,0-8.76a5.49,5.49,0,0,0-.19-1.4,2.07,2.07,0,0,0-1.71-1.54,6.23,6.23,0,0,0-3.09.12c-.59.19-.62.21-.62.82V82.16Z"/><path class="cls-1" d="M25.12,81.52l.57-1.27.75.29a4.9,4.9,0,0,0,2.48.39A2.38,2.38,0,0,0,31,77.61a2.3,2.3,0,0,0-1.18-1.2c-.59-.31-1.21-.57-1.81-.87a12.66,12.66,0,0,1-1.14-.63,3.61,3.61,0,0,1,0-5.86,5.1,5.1,0,0,1,3.62-.75,5.36,5.36,0,0,1,2,.6,4.66,4.66,0,0,1,.44.29l-.52,1.17-.62-.27a4.15,4.15,0,0,0-2.64-.38,2,2,0,0,0-1.61,1.62,2,2,0,0,0,.78,2.15,7.27,7.27,0,0,0,1.12.65c.62.31,1.25.58,1.86.9A3.51,3.51,0,0,1,33.4,78.3a3.77,3.77,0,0,1-2,3.5,5.8,5.8,0,0,1-3.73.58,6.31,6.31,0,0,1-2.15-.62Z"/><path class="cls-1" d="M75,82.14a3.79,3.79,0,0,1-3.16-.33,3.1,3.1,0,0,1-1.34-2.7c0-.77,0-1.54,0-2.31V69.88L69,69.8V68.51h1.51V65.33l2.15-.67a17.65,17.65,0,0,1,0,1.91c0,.61,0,1.22,0,1.89H75v1.27c-.72.21-1.5,0-2.3.16,0,.19,0,.38,0,.57v8.3c0,.11,0,.23,0,.35a1.63,1.63,0,0,0,1.81,1.73H75Z"/><path class="cls-1" d="M6.05,64.73H8.14a.12.12,0,0,1,0,0l0,0a1.13,1.13,0,0,1,0,.18V81.86c0,.08,0,.16,0,.32-.7,0-1.4,0-2.15,0,0-.19-.07-.36-.07-.53V65.27C6,65.1,6,64.93,6.05,64.73Z"/><path class="cls-1" d="M36.81,68.54h1.92c.13.45.18,12.28.06,13.54a5.28,5.28,0,0,1-2,.06C36.68,81.69,36.66,69.15,36.81,68.54Z"/><path class="cls-1" d="M89.56,88.68l.63,0,1.2,3.48c.09-.17.15-.28.2-.39.31-.89.62-1.79,1-2.67.15-.43.17-.43.73-.36a2.84,2.84,0,0,1,.1.44c.07,1.12.13,2.24.19,3.36,0,.06,0,.13,0,.17a1.58,1.58,0,0,1-.22.23c-.07-.08-.18-.14-.21-.23a1.31,1.31,0,0,1,0-.35c0-.89-.08-1.77-.13-2.66a3,3,0,0,0,0-.34,3.32,3.32,0,0,0-.23.4l-.92,2.55a1.08,1.08,0,0,1-.13.33c-.07.1-.18.24-.27.24s-.23-.14-.27-.24c-.31-.88-.59-1.76-.89-2.63a1.22,1.22,0,0,0-.29-.53c0,.14,0,.28-.06.42,0,.88-.09,1.77-.14,2.66,0,.23,0,.43-.42.34C89.3,91.49,89.45,90.12,89.56,88.68Z"/><path class="cls-1" d="M56.56,96.47h.66L58.43,100l1.26-3.47h.66l.27,4.12c-.26.11-.43.11-.46-.18s-.06-.79-.08-1.18a13.38,13.38,0,0,0-.23-2.07l-.19.46c-.3.86-.61,1.71-.91,2.56a1.64,1.64,0,0,1-.14.33.23.23,0,0,1-.44,0,5.59,5.59,0,0,1-.28-.78c-.28-.82-.55-1.64-.85-2.54a2.38,2.38,0,0,0-.19,1.17c0,.37,0,.75-.05,1.13s-.08.77-.12,1.17h-.4Z"/><path class="cls-1" d="M99.22,100.61c-.39.14-.43,0-.44-.3,0-.85-.09-1.7-.13-2.54,0-.2,0-.39,0-.73a3.07,3.07,0,0,0-.24.38L97.44,100a1.2,1.2,0,0,1-.13.33,1.72,1.72,0,0,1-.31.29c-.08-.09-.2-.17-.24-.29-.17-.44-.32-.89-.47-1.34a18.15,18.15,0,0,0-.7-1.84c0,.12,0,.24-.06.36,0,.83-.09,1.66-.13,2.48a2.42,2.42,0,0,1-.07.47c0,.21-.2.21-.42.1l.29-4.12.65,0L97.07,100l1.26-3.49H99C99.09,97.86,99.19,99.24,99.22,100.61Z"/><path class="cls-1" d="M108.46,97.28v3.33c-.27.11-.39,0-.4-.2s0-.63,0-1V97.09c0-.19,0-.38,0-.56a.52.52,0,0,1,.77.25c.55.93,1.13,1.85,1.69,2.77.06.1.13.19.25.37a8.63,8.63,0,0,0,0-1.75c0-.55,0-1.1,0-1.65.24-.08.4-.1.43.16a1.93,1.93,0,0,1,0,.24v3.43a1.6,1.6,0,0,1,0,.23c-.46.13-.47.14-.71-.24-.57-.92-1.13-1.85-1.7-2.78a3.05,3.05,0,0,0-.22-.32Z"/><path class="cls-1" d="M105.59,92.82c-.4.22-.56,0-.72-.24l-1.7-2.77c-.06-.11-.14-.22-.28-.43,0,.24,0,.37,0,.49,0,.83,0,1.66,0,2.48a1,1,0,0,1,0,.35.41.41,0,0,1-.24.19s-.11-.12-.17-.19,0,0,0-.06V88.75a.46.46,0,0,1,.71.2c.54.89,1.1,1.77,1.64,2.66l.34.55c0-.25.06-.38.06-.5,0-.81,0-1.61,0-2.42a1,1,0,0,1,0-.35c0-.09.14-.15.21-.22a2.23,2.23,0,0,1,.19.24s0,.08,0,.12Z"/><path class="cls-1" d="M60.27,88.73A.53.53,0,0,1,61,89c.56.93,1.13,1.85,1.7,2.77A.54.54,0,0,0,63,92v-3.3c.34-.13.42,0,.42.25v3.83c-.34.23-.53.08-.69-.19l-1.7-2.77-.29-.5a1.82,1.82,0,0,0-.08.4c0,.89,0,1.78,0,2.67a1,1,0,0,1,0,.29c0,.08-.14.19-.18.18s-.16-.13-.23-.2,0,0,0-.06Z"/><path class="cls-1" d="M70.65,97.26v3.06c0,.22,0,.41-.42.3,0-1.35,0-2.71,0-4.08a.5.5,0,0,1,.76.23c.55.92,1.11,1.82,1.67,2.73l.22.35A2.57,2.57,0,0,0,73,98.73c0-.38,0-.75,0-1.13V96.51c.24-.07.39-.09.42.15,0,0,0,0,0,.06v3.87a.47.47,0,0,1-.72-.23c-.57-1-1.15-1.89-1.72-2.83l-.18-.3Z"/><path class="cls-1" d="M86,96.61c0,.21-.1.27-.3.25a4.37,4.37,0,0,0-.88-.08,1.72,1.72,0,0,0-1.59,2.16,1.7,1.7,0,0,0,2.15,1.4.36.36,0,0,0,.35-.4c0-.33,0-.66,0-1a4.8,4.8,0,0,1-.64-.07c-.07,0-.13-.11-.19-.17s.13-.17.2-.17c.33,0,.66,0,1,0v2a2.56,2.56,0,0,1-3-.45,2.52,2.52,0,0,1,0-2.82A2.42,2.42,0,0,1,86,96.61Z"/><path class="cls-1" d="M73.3,92.58h1.88c-.06.15-.07.27-.11.28a9.91,9.91,0,0,1-2.25,0V88.66h2c.07,0,.13.11.2.17-.08.07-.15.19-.23.2-.27,0-.55,0-.83,0l-.67,0v1.34c.51.29,1.14-.1,1.74.31-.62.28-1.2,0-1.74.24Z"/><path class="cls-1" d="M77.92,96.47h.64L80,100.6c-.32.16-.48.07-.57-.21s-.17-.48-.25-.73a.38.38,0,0,0-.42-.32h-.06a3.7,3.7,0,0,0-1.11,0c-.37.14-.32.63-.47,1s-.12.3-.56.26Zm1,2.46L78.27,97h-.11l-.62,1.92Z"/><path class="cls-1" d="M65.05,96.47h.63l1.41,4.13c-.31.14-.48.09-.56-.18s-.17-.44-.23-.67a.49.49,0,0,0-.6-.41c-.37,0-.74,0-1.14,0-.13.37-.24.7-.37,1s-.1.26-.54.28C64.08,99.23,64.57,97.86,65.05,96.47Zm.34.53h-.11l-.61,1.92H66Z"/><path class="cls-1" d="M97.37,92.54H99.3c-.13.2-.19.36-.26.37a16.66,16.66,0,0,1-2.12,0V88.66h2c.07,0,.14.11.21.16s-.15.2-.22.21H97.41v1.39c.52.22,1.13-.06,1.62.18l0,.22c-.19,0-.37,0-.56,0h-.77c-.18,0-.31.09-.31.28C97.36,91.6,97.37,92,97.37,92.54Z"/><path class="cls-1" d="M69.85,88.73c-.48,1.33-.95,2.63-1.41,3.93a.36.36,0,0,1-.39.27c-.23,0-.31-.14-.37-.32l-1.11-3.43c0-.14-.08-.29-.12-.45.38-.18.49,0,.58.3.26.88.54,1.77.82,2.65.05.18.12.36.22.66.1-.22.16-.33.2-.44.33-1,.65-1.91,1-2.86C69.32,88.78,69.43,88.55,69.85,88.73Z"/><path class="cls-1" d="M104.73,98.66h-1.67v1.64c.35,0,.68,0,1,0s.59-.1.88.18a5.28,5.28,0,0,1-2.35.09V96.53a5.27,5.27,0,0,1,2.18,0c-.2.37-.54.19-.81.22a8.59,8.59,0,0,1-.91,0v1.4c.28,0,.57,0,.85.06S104.49,98.15,104.73,98.66Z"/><path class="cls-1" d="M89.54,100.63V96.47c.73,0,1.45,0,2.14,0,.1.24,0,.32-.16.33s-.55,0-.82,0-.43,0-.68,0v1.4l1.56.09c.07.25,0,.32-.19.32H90a5.85,5.85,0,0,0,0,1.56c.59.3,1.27,0,1.89.26A4,4,0,0,1,89.54,100.63Z"/><path class="cls-1" d="M114.27,92.65c.13-.08.22-.19.31-.19s.34.11.52.12a1.78,1.78,0,0,0,.69,0,.73.73,0,0,0,.26-1.3,3.38,3.38,0,0,0-.62-.34,3.9,3.9,0,0,1-.66-.38,1,1,0,0,1,.22-1.76,1.9,1.9,0,0,1,1.58,0c0,.25-.09.32-.29.29a3.69,3.69,0,0,0-.58-.09.8.8,0,0,0-.82.54.75.75,0,0,0,.47.86c.23.12.47.2.7.32a1.19,1.19,0,0,1,.76,1.32,1.24,1.24,0,0,1-1.25,1A1.72,1.72,0,0,1,114.27,92.65Z"/><path class="cls-1" d="M111.54,88.65c.14.3,0,.39-.2.39h-1c0,.25,0,.44,0,.63v2.6a1.4,1.4,0,0,1,0,.41c0,.09-.16.24-.2.22a.46.46,0,0,1-.26-.23,1.41,1.41,0,0,1,0-.41c0-.85,0-1.7,0-2.55,0-.19,0-.38,0-.63-.35,0-.68,0-1,0-.09,0-.17-.11-.25-.17.07-.07.15-.2.23-.2Z"/><path class="cls-1" d="M78.25,92.43a5.73,5.73,0,0,0,.56.14,2.35,2.35,0,0,0,.59,0,.74.74,0,0,0,.71-.59.76.76,0,0,0-.42-.89c-.17-.1-.36-.16-.54-.25a3.29,3.29,0,0,1-.6-.36,1,1,0,0,1,.11-1.67,1.83,1.83,0,0,1,1.53-.14c.07,0,.11.17.17.26-.09,0-.17.1-.25.09s-.43-.08-.64-.08a.77.77,0,0,0-.8.58.72.72,0,0,0,.46.8c.24.14.5.23.75.35A1.17,1.17,0,0,1,80.6,92a1.21,1.21,0,0,1-1.21.94,5.37,5.37,0,0,1-1-.12C78.11,92.8,78.11,92.63,78.25,92.43Z"/><path class="cls-1" d="M84.6,89c-.35,0-.66,0-1,0-.09,0-.17-.11-.25-.18.08-.06.16-.19.24-.19h2.59c.22,0,.25.15.13.39H85.16c0,.27,0,.48,0,.69v2.6a1.4,1.4,0,0,1,0,.41.26.26,0,0,1-.2.15.25.25,0,0,1-.2-.16,1.83,1.83,0,0,1,0-.47V89.56C84.66,89.4,84.63,89.25,84.6,89Z"/><path class="cls-1" d="M115.49,100.6V97c-.42-.35-1,0-1.34-.38a9.8,9.8,0,0,1,3.12-.06c0,.39-.33.25-.52.27s-.46,0-.75,0c0,.3,0,.53,0,.76,0,.91,0,1.81,0,2.72C115.94,100.54,115.9,100.77,115.49,100.6Z"/><path class="cls-1" d="M56.84,88.73v3.9c0,.15,0,.28-.23.28s-.22-.13-.22-.28V89C56.39,88.72,56.49,88.6,56.84,88.73Z"/><path class="cls-2" d="M98.87,30.58a30.44,30.44,0,0,0-8,5.88c-4,4.3-9.19,13.32-5,20.89a5.92,5.92,0,0,0,1.81,2.44,11.94,11.94,0,0,0,5,2.51S80.91,60.87,81,51.09c0,0,0-5.6,5-11.48A33,33,0,0,1,98.87,30.58Z"/><path class="cls-3" d="M108.31,29a11,11,0,0,1,6.58,3.45c1.92,2.26,2.82,6.74,2.22,9.66a30.07,30.07,0,0,1-1.29,4.76c-3,7.64-9.3,12.1-11.77,13.12,0,0-3.06,2-1.81-1.44,0,0,4.54-10.6,4.49-13.15,0,0,.79-4.08-5.23-3.52,0,0-4,.6-5.75,2.68,0,0,0,.92,1.35.23,0,0,4.65-1.62,4,1.67,0,0-4.11,10.33-4.53,12.23s-.93,4,.51,4.45c0,0,2.7,1.2,10.89-3S120.47,49,121.57,43.92C121.57,43.92,123.46,29.55,108.31,29Z"/><path class="cls-4" d="M92.56,63.14S80,62.31,80.14,49.5c.07-5.59,4.53-12.58,10.52-16.87a31.29,31.29,0,0,1,8.73-4.35,25.61,25.61,0,0,1,10.81-.77,23.32,23.32,0,0,1,5.66,2,11.79,11.79,0,0,1,4.65,5.1A13.42,13.42,0,0,1,122,40.53,17.82,17.82,0,0,1,121,46c-1.35,4.28-4.75,9.13-10.7,13,0,0-4.82,2.68-6,2.91,0,0,.56-1.34-.27-1.85a46,46,0,0,0,9.17-6.07,29.42,29.42,0,0,0,5.6-7,17.55,17.55,0,0,0,2-6.63c.18-5.18-2.7-10.74-12.51-11.3a17.23,17.23,0,0,0-3.43-.05c-4.15.42-12,3.34-18.86,10.66,0,0-10.65,11.81-1,19.64,0,0,2.22,2,7,2.78,0,0,1.38.34,1,.86C93.1,62.89,93,63.1,92.56,63.14Z"/><path class="cls-5" d="M101.07,37.34s-1-3.76,4.23-5.24c0,0,5-.09,3,4.26a5.24,5.24,0,0,1-5.79,2.37A2.39,2.39,0,0,1,101.07,37.34Z"/></svg>