<svg id="Layer_1" data-name="Layer 1" xmlns="http://www.w3.org/2000/svg" viewBox="0 0 128 128"><defs><style>.cls-1{fill:none;stroke:#231f20;stroke-miterlimit:2.61;stroke-width:0.45px;}.cls-2,.cls-4{fill:#231f20;}.cls-2,.cls-3,.cls-6,.cls-7,.cls-8,.cls-9{fill-rule:evenodd;}.cls-3{fill:#00a651;}.cls-5,.cls-7{fill:#fff;}.cls-6{fill:#fff200;}.cls-8{fill:#00aeef;}.cls-9{fill:#ed1c24;}</style></defs><path class="cls-1" d="M91.27,50.87a1,1,0,0,1,1.15-.47,1.15,1.15,0,0,1,1.94,0,.84.84,0,0,1,1.08.62"/><path class="cls-2" d="M90.76,50.19a2.36,2.36,0,0,1-1.4-1.12l-.29-.48.56-.06.61-.06.16,0,.12.11a1.58,1.58,0,0,0,1.28.19,1.08,1.08,0,0,1,.2-1l.06-.07.08,0,1.92-.86.1,0,.11,0a1,1,0,0,1,.72.5,2.11,2.11,0,0,0,.66-1.14V46l.06-.07.55-.72.52-.68.12.85a3.63,3.63,0,0,1-.23,1.94,3.74,3.74,0,0,1,.65.13l1.11.34-1.11.35a1.88,1.88,0,0,0-1.08.72c-.17.4-.47,1.09-1,1l-.18,0a1.18,1.18,0,0,1-1.56.61c-.12.55-.59.64-1.28.38-.43-.11-.92.23-1.3.4l-.78.36.3-.81a2.8,2.8,0,0,1,.3-.6Z"/><path class="cls-3" d="M90.28,48.82l-.61.07A2.17,2.17,0,0,0,91.5,50a1.82,1.82,0,0,0-.71.94c.51-.23,1-.57,1.56-.41s.93.32.82-.59c1,.57,1.57.28,1.81-.86.19.64.49.8,1-.33a2.25,2.25,0,0,1,1.29-.9,2.14,2.14,0,0,0-1.15-.06,3.4,3.4,0,0,0,.49-2.3l-.56.72a2.5,2.5,0,0,1-1.14,1.64c-.12-.27-.24-.64-.65-.71L92.29,48a.82.82,0,0,0,0,1,2.16,2.16,0,0,1-2-.18Z"/><path class="cls-4" d="M90,46a1.14,1.14,0,0,1,.31-.63,1.26,1.26,0,0,1,.57-.35,2,2,0,0,1,.1-.26,1.4,1.4,0,0,1,.62-.67,1.38,1.38,0,0,1,.91-.1,1.72,1.72,0,0,1,.28.08l.12-.07a1.16,1.16,0,0,1,.72-.1h0a1,1,0,0,1,.41.18l.22-.11h0a1.39,1.39,0,0,1,.35-.09h0a1,1,0,0,1,.63.14,1.23,1.23,0,0,1,.48.56,2.09,2.09,0,0,1,.13.48,1,1,0,0,1,.27.27,1.24,1.24,0,0,1,.16.75,2.14,2.14,0,0,1-.24.81A2.92,2.92,0,0,1,95,48l-.22.14-.11-.25,0-.08h0c-.09-.21-.2-.47-.49-.49l-.1,0a2.12,2.12,0,0,0-1.53.74.52.52,0,0,0-.14.37,1.13,1.13,0,0,0,.15.42l.14.26-.28.08a4.09,4.09,0,0,1-1.16.16,1.77,1.77,0,0,1-.88-.24h0a1.2,1.2,0,0,1-.54-.73,1.42,1.42,0,0,1-.06-.42,1.34,1.34,0,0,1-.44-.49,1,1,0,0,1-.1-.49h0a1,1,0,0,1,.15-.47,1.35,1.35,0,0,1,.58-.52l0,0Z"/><path class="cls-5" d="M93.65,44.42l-.15,0h0a.68.68,0,0,0-.43.07.42.42,0,0,0-.14.09l-.12.1-.13-.06a1.28,1.28,0,0,0-.31-.11.87.87,0,0,0-.6.07.88.88,0,0,0-.41.44,1.32,1.32,0,0,0-.1.3l0,.16-.16,0a.86.86,0,0,0-.47.25.64.64,0,0,0-.15.25.78.78,0,0,1,.82.61.87.87,0,0,1,0,.48.75.75,0,0,1-.28.39c-.26.19-.63.17-1-.31l.38-.28c.15.21.26.25.33.2a.28.28,0,0,0,.1-.15.41.41,0,0,0,0-.22c0-.18-.25-.32-.73-.21a1,1,0,0,0-.37.32.79.79,0,0,0-.08.26.61.61,0,0,0,.06.25.86.86,0,0,0,.37.36l.12.08v.14a1.3,1.3,0,0,0,0,.41.72.72,0,0,0,.34.45h0a1.32,1.32,0,0,0,.66.18,3.28,3.28,0,0,0,.74-.08,1,1,0,0,1-.07-.34,1,1,0,0,1,.26-.72l0,0a2.41,2.41,0,0,1,1.76-.86l.12,0h0a.87.87,0,0,1,.85.59,2.63,2.63,0,0,0,.65-.78,1.87,1.87,0,0,0,.19-.63.83.83,0,0,0-.09-.46.59.59,0,0,0-.2-.18l-.11,0,0-.14a1.36,1.36,0,0,0-.1-.44.8.8,0,0,0-.29-.35.68.68,0,0,0-.36-.08.73.73,0,0,0-.21.06c-.32.15-.43.31-.44.46a.38.38,0,0,0,.15.29h0a.22.22,0,0,0,.21.05c.06,0,.12-.14.13-.37l.47,0a.86.86,0,0,1-.4.78.67.67,0,0,1-.7-.11h0a.83.83,0,0,1-.32-.67.74.74,0,0,1,.14-.44Z"/><path class="cls-6" d="M92.71,46.45s2.56,1.45,1,2.23-1.08-2.25-1-2.23Z"/><path class="cls-4" d="M92.79,46.23a6.36,6.36,0,0,1,1.09.79,2.14,2.14,0,0,1,.49.66.79.79,0,0,1-.07.82,1.26,1.26,0,0,1-.49.39c-.65.32-1,.11-1.25-.33a2.86,2.86,0,0,1-.2-1.26,4.39,4.39,0,0,1,.11-.91h0c.06-.16.16-.22.31-.16Zm.77,1.14a4.72,4.72,0,0,0-.7-.55,3.38,3.38,0,0,0,0,.49,2.45,2.45,0,0,0,.15,1c.1.19.29.29.63.12a.75.75,0,0,0,.31-.25.32.32,0,0,0,0-.35,1.54,1.54,0,0,0-.38-.5Z"/><path class="cls-2" d="M90.13,54.58A2.39,2.39,0,0,1,89.32,53l-.06-.55.53.18.59.19.16.06.06.15a1.56,1.56,0,0,0,1.08.7,1.06,1.06,0,0,1,.6-.81l.08,0h.09l2.11,0h.11l.09.06a1,1,0,0,1,.44.76,2,2,0,0,0,1.08-.76l.06-.07.08-.05.8-.42L98,52l-.25.82a3.67,3.67,0,0,1-1,1.67,3.36,3.36,0,0,1,.54.39l.87.78L97,55.49a1.92,1.92,0,0,0-1.29.2c-.32.3-.88.8-1.33.51l-.13-.12a1.19,1.19,0,0,1-1.68-.1c-.34.45-.81.34-1.32-.19-.35-.28-.94-.18-1.35-.18H89l.62-.61a2.52,2.52,0,0,1,.52-.42Z"/><path class="cls-3" d="M90.26,53.13l-.58-.19a2.19,2.19,0,0,0,1.22,1.75,1.74,1.74,0,0,0-1,.56c.56,0,1.14-.11,1.59.28s.71.67,1-.2c.64.93,1.31.92,2,0-.1.66.11.93,1,.1A2.2,2.2,0,0,1,97,55.13a2.06,2.06,0,0,0-1-.54,3.37,3.37,0,0,0,1.41-1.89l-.81.42a2.5,2.5,0,0,1-1.72,1c0-.29,0-.68-.3-.91l-2.11,0a.85.85,0,0,0-.42.94,2.18,2.18,0,0,1-1.77-1Z"/><path class="cls-4" d="M91.15,50.44a1.27,1.27,0,0,1,.54-.45,1.38,1.38,0,0,1,.68-.08l.19-.19a1.38,1.38,0,0,1,.84-.35,1.42,1.42,0,0,1,.88.28l.22.2h.13a1.05,1.05,0,0,1,.71.21h0a1,1,0,0,1,.3.33h.24a1.09,1.09,0,0,1,.36.06h0a1,1,0,0,1,.52.39,1.25,1.25,0,0,1,.21.72,2.19,2.19,0,0,1-.08.48,1,1,0,0,1,.12.36,1.17,1.17,0,0,1-.16.76,2.33,2.33,0,0,1-.56.63,3,3,0,0,1-1.41.6l-.26,0V54h0c0-.23,0-.51-.25-.65l-.1,0a2.13,2.13,0,0,0-1.7,0,.51.51,0,0,0-.28.28,1,1,0,0,0,0,.44l0,.3L92,54.37A3.42,3.42,0,0,1,90.87,54a1.7,1.7,0,0,1-.7-.58h0a1.22,1.22,0,0,1-.18-.89,1.71,1.71,0,0,1,.12-.41,1.23,1.23,0,0,1-.19-.63A.91.91,0,0,1,90,51h0a1.16,1.16,0,0,1,.33-.37,1.47,1.47,0,0,1,.75-.22Z"/><path class="cls-5" d="M95.17,50.54l-.11-.11h0a.63.63,0,0,0-.42-.12l-.17,0-.14,0-.09-.11A1.6,1.6,0,0,0,94,50a1,1,0,0,0-.58-.2.91.91,0,0,0-.56.24,1.63,1.63,0,0,0-.22.23l-.09.13-.15,0a.88.88,0,0,0-.54,0,.7.7,0,0,0-.24.17.79.79,0,0,1,.49.9.89.89,0,0,1-.22.43.83.83,0,0,1-.41.24c-.32.06-.65-.11-.76-.7l.46-.09c0,.25.14.34.22.32a.3.3,0,0,0,.15-.09.42.42,0,0,0,.1-.2c0-.18-.09-.4-.57-.5a.85.85,0,0,0-.47.15.47.47,0,0,0-.18.19.51.51,0,0,0-.06.25.92.92,0,0,0,.19.49l.08.12-.07.12a1.43,1.43,0,0,0-.13.4.74.74,0,0,0,.11.55h0a1.45,1.45,0,0,0,.53.43,3,3,0,0,0,.71.25,1.45,1.45,0,0,1,.07-.35,1,1,0,0,1,.55-.55h0a2.46,2.46,0,0,1,2,0l.13,0h0a.88.88,0,0,1,.53.9A2.36,2.36,0,0,0,96,53.4a1.66,1.66,0,0,0,.44-.49.72.72,0,0,0,.11-.45.51.51,0,0,0-.11-.25l-.07-.1,0-.12a1.38,1.38,0,0,0,.09-.45.72.72,0,0,0-.12-.44.59.59,0,0,0-.3-.22.71.71,0,0,0-.21,0c-.35,0-.52.11-.59.24a.36.36,0,0,0,0,.32h0a.23.23,0,0,0,.17.14c.08,0,.18-.08.28-.29l.41.22c-.2.39-.45.54-.68.54a.64.64,0,0,1-.59-.39h0a.86.86,0,0,1,0-.75.89.89,0,0,1,.31-.33Z"/><path class="cls-6" d="M93.47,52s1.73,2.39,0,2.45,0-2.5,0-2.45Z"/><path class="cls-4" d="M93.63,51.82A6.3,6.3,0,0,1,94.3,53a2.18,2.18,0,0,1,.17.81.79.79,0,0,1-.41.71,1.27,1.27,0,0,1-.61.15c-.72,0-1-.33-1-.82a2.72,2.72,0,0,1,.34-1.23,4,4,0,0,1,.48-.78h0a.22.22,0,0,1,.35,0Zm.23,1.36a4.1,4.1,0,0,0-.41-.79,4,4,0,0,0-.23.43,2.46,2.46,0,0,0-.3,1c0,.22.15.38.53.37a.93.93,0,0,0,.39-.09A.34.34,0,0,0,94,53.8a1.53,1.53,0,0,0-.14-.62Z"/><path class="cls-2" d="M87.88,58.86a2.39,2.39,0,0,1-.28-1.78l.11-.55.45.33.5.37.13.1v.16a1.61,1.61,0,0,0,.83,1,1,1,0,0,1,.81-.59l.09,0,.09,0,2,.65.11,0,.06.08a.94.94,0,0,1,.19.86,2.08,2.08,0,0,0,1.27-.39l.07-.06.09,0,.89-.16.85-.15-.49.71a3.63,3.63,0,0,1-1.48,1.28,2.9,2.9,0,0,1,.39.53l.6,1-1.06-.5a1.87,1.87,0,0,0-1.29-.19c-.39.18-1.08.49-1.42.08a.35.35,0,0,1-.08-.16,1.19,1.19,0,0,1-1.58-.6c-.46.32-.87.07-1.2-.58-.24-.38-.84-.46-1.23-.58l-.83-.26.77-.4a2.71,2.71,0,0,1,.63-.24Z"/><path class="cls-3" d="M88.45,57.52c-.17-.12-.34-.24-.5-.37a2.15,2.15,0,0,0,.63,2,1.77,1.77,0,0,0-1.16.22c.53.17,1.12.24,1.43.75s.47.86,1,.12c.33,1.07,1,1.27,1.92.58-.29.61-.18.93.92.4a2.17,2.17,0,0,1,1.56.21,2,2,0,0,0-.81-.83,3.36,3.36,0,0,0,1.91-1.37l-.89.16a2.58,2.58,0,0,1-2,.44c.09-.28.25-.64,0-1l-2-.66c-.47.08-.6.4-.69.76-.76-.38-1.33-.91-1.37-1.49Z"/><path class="cls-4" d="M90.11,55.23a1.12,1.12,0,0,1,.65-.27,1.27,1.27,0,0,1,.67.13l.24-.13a1.37,1.37,0,0,1,.91-.07,1.4,1.4,0,0,1,.75.53l.15.25.13,0a1.14,1.14,0,0,1,.61.42h0a1.14,1.14,0,0,1,.18.41,1.2,1.2,0,0,1,.24.06h0a1.41,1.41,0,0,1,.32.17h0a1.09,1.09,0,0,1,.38.53,1.18,1.18,0,0,1,0,.74,1.7,1.7,0,0,1-.23.44.82.82,0,0,1,0,.38,1.2,1.2,0,0,1-.38.67A2.19,2.19,0,0,1,94,60a3.05,3.05,0,0,1-1.52.14l-.26-.05.09-.26,0-.08h0c.07-.22.16-.49,0-.7l-.09,0a2.13,2.13,0,0,0-1.63-.48.49.49,0,0,0-.35.18,1.1,1.1,0,0,0-.17.41l-.07.29-.27-.14a3.62,3.62,0,0,1-1-.66,1.74,1.74,0,0,1-.49-.77h0a1.15,1.15,0,0,1,.09-.9,1.88,1.88,0,0,1,.24-.36,1.18,1.18,0,0,1,0-.65.88.88,0,0,1,.25-.44h0a1.09,1.09,0,0,1,.43-.25,1.38,1.38,0,0,1,.78,0l0,0Z"/><path class="cls-5" d="M93.91,56.54a.91.91,0,0,0-.07-.14h0a.63.63,0,0,0-.36-.24.52.52,0,0,0-.18,0h-.14L93.1,56a1.15,1.15,0,0,0-.16-.29.86.86,0,0,0-.49-.36.91.91,0,0,0-.6.06,1.33,1.33,0,0,0-.28.16l-.13.09-.13-.08a.78.78,0,0,0-.8-.06.82.82,0,0,1-.15,1.35.73.73,0,0,1-.47.11c-.32,0-.58-.3-.5-.89l.46,0c0,.26,0,.37.11.38a.28.28,0,0,0,.17,0,.41.41,0,0,0,.16-.16c.09-.16,0-.41-.4-.65a.88.88,0,0,0-.48,0,.58.58,0,0,0-.23.13.48.48,0,0,0-.13.23.94.94,0,0,0,0,.52l0,.13-.1.1a1.73,1.73,0,0,0-.25.34.79.79,0,0,0-.05.56h0a1.22,1.22,0,0,0,.37.57,3.24,3.24,0,0,0,.6.45,1.46,1.46,0,0,1,.17-.3,1,1,0,0,1,.69-.36h0a2.4,2.4,0,0,1,1.88.55l.11.06,0,0a.9.9,0,0,1,.23,1,2.32,2.32,0,0,0,1-.14,1.66,1.66,0,0,0,.57-.34.71.71,0,0,0,.24-.4.4.4,0,0,0,0-.26l0-.12.08-.11a1.34,1.34,0,0,0,.22-.4.71.71,0,0,0,0-.45.61.61,0,0,0-.21-.3.75.75,0,0,0-.2-.1c-.33-.11-.53-.06-.63,0a.41.41,0,0,0-.09.31h0c0,.09.06.17.12.19s.19,0,.36-.19l.32.34a.83.83,0,0,1-.82.3.67.67,0,0,1-.44-.55h0a.85.85,0,0,1,.22-.72.83.83,0,0,1,.39-.22Z"/><path class="cls-6" d="M91.84,57.4s.93,2.8-.75,2.33.72-2.4.75-2.33Z"/><path class="cls-4" d="M92.05,57.29a5.57,5.57,0,0,1,.28,1.33,2.18,2.18,0,0,1-.08.82.81.81,0,0,1-.61.56A1.38,1.38,0,0,1,91,60c-.7-.19-.84-.61-.7-1.08A2.76,2.76,0,0,1,91,57.8a3.61,3.61,0,0,1,.7-.6h0a.21.21,0,0,1,.33.09Zm-.19,1.37a4.56,4.56,0,0,0-.15-.88,3.6,3.6,0,0,0-.35.34,2.32,2.32,0,0,0-.59.87c-.06.21,0,.41.38.51a.85.85,0,0,0,.4,0,.38.38,0,0,0,.26-.25,1.59,1.59,0,0,0,0-.63Z"/><path class="cls-2" d="M85.92,64.07a2.35,2.35,0,0,1-.29-1.78l.11-.55.46.34.49.36.14.1v.16c0,.4.44.76.82,1a1.07,1.07,0,0,1,.82-.59l.09,0,.08,0,2,.66.1,0,.07.08a1,1,0,0,1,.19.86,2,2,0,0,0,1.26-.39l.07-.06.09,0,.9-.16.84-.15-.48.71A3.66,3.66,0,0,1,92.21,66a3.15,3.15,0,0,1,.4.54l.59,1-1-.49a1.85,1.85,0,0,0-1.3-.2c-.39.19-1.08.49-1.41.08a.51.51,0,0,1-.09-.16,1.19,1.19,0,0,1-1.58-.6c-.45.32-.87.08-1.2-.58-.24-.37-.83-.46-1.22-.58l-.83-.26.77-.4a2.55,2.55,0,0,1,.63-.24Z"/><path class="cls-3" d="M86.48,62.73l-.5-.36a2.19,2.19,0,0,0,.63,2,1.8,1.8,0,0,0-1.16.23c.54.17,1.12.24,1.44.74s.47.86,1,.12c.33,1.07,1,1.27,1.92.58-.29.61-.17.93.92.4a2.26,2.26,0,0,1,1.57.21,2.18,2.18,0,0,0-.82-.83,3.31,3.31,0,0,0,1.92-1.37l-.89.16a2.56,2.56,0,0,1-2,.44c.09-.28.26-.64,0-1l-2-.66c-.47.08-.59.41-.68.77-.77-.38-1.34-.92-1.38-1.5Z"/><path class="cls-4" d="M88.14,60.44a1.19,1.19,0,0,1,.66-.27,1.32,1.32,0,0,1,.66.13,1.42,1.42,0,0,1,.25-.12,1.35,1.35,0,0,1,.9-.08,1.4,1.4,0,0,1,.75.53,1.1,1.1,0,0,1,.15.26l.14,0a1.17,1.17,0,0,1,.6.42h0a.88.88,0,0,1,.18.41l.24.06h0A1.41,1.41,0,0,1,93,62h0a1.07,1.07,0,0,1,.37.53,1.18,1.18,0,0,1,0,.74,2,2,0,0,1-.22.44,1,1,0,0,1,0,.39,1.17,1.17,0,0,1-.39.66,2.19,2.19,0,0,1-.73.44,2.92,2.92,0,0,1-1.51.14l-.27,0,.09-.25,0-.09h0c.07-.22.17-.49,0-.69l-.08-.06a2.14,2.14,0,0,0-1.63-.48.5.5,0,0,0-.36.18,1.1,1.1,0,0,0-.17.41l-.07.29-.26-.13a4,4,0,0,1-1-.67,1.74,1.74,0,0,1-.49-.77h0a1.24,1.24,0,0,1,.09-.9,1.88,1.88,0,0,1,.24-.36,1.41,1.41,0,0,1,0-.65,1,1,0,0,1,.26-.44h0a1,1,0,0,1,.42-.25,1.49,1.49,0,0,1,.78,0h0Z"/><path class="cls-5" d="M92,61.75a1,1,0,0,0-.08-.14h0a.68.68,0,0,0-.36-.24.47.47,0,0,0-.17,0h-.15l0-.13a2,2,0,0,0-.16-.29,1,1,0,0,0-.5-.36.91.91,0,0,0-.6.06,1.64,1.64,0,0,0-.28.16l-.13.09-.13-.08a.89.89,0,0,0-.52-.14.66.66,0,0,0-.28.09.79.79,0,0,1,.2,1,.91.91,0,0,1-.35.35.76.76,0,0,1-.46.1c-.32,0-.58-.3-.51-.89l.47.05c0,.25,0,.36.11.37a.28.28,0,0,0,.17,0,.49.49,0,0,0,.16-.16c.09-.16,0-.41-.4-.65a.82.82,0,0,0-.49,0,.5.5,0,0,0-.36.35.86.86,0,0,0,0,.52l0,.13-.1.1a1.4,1.4,0,0,0-.25.34.74.74,0,0,0-.06.56h0a1.4,1.4,0,0,0,.37.57,2.92,2.92,0,0,0,.61.45.9.9,0,0,1,.17-.3.94.94,0,0,1,.68-.36h0a2.46,2.46,0,0,1,1.89.55l.1.06,0,0a.91.91,0,0,1,.24,1,2.53,2.53,0,0,0,1-.15,1.69,1.69,0,0,0,.57-.34.77.77,0,0,0,.24-.4.6.6,0,0,0,0-.26l-.05-.12.08-.1a1.73,1.73,0,0,0,.23-.41.77.77,0,0,0,0-.45.54.54,0,0,0-.21-.3.69.69,0,0,0-.19-.1c-.33-.1-.53-.06-.63,0a.35.35,0,0,0-.09.31h0a.19.19,0,0,0,.12.18c.07,0,.19,0,.35-.19l.33.34a.84.84,0,0,1-.82.3.65.65,0,0,1-.45-.55h0a.89.89,0,0,1,.22-.72.82.82,0,0,1,.4-.22Z"/><path class="cls-6" d="M89.88,62.61s.92,2.8-.76,2.33.72-2.39.76-2.33Z"/><path class="cls-4" d="M90.09,62.5a5.81,5.81,0,0,1,.27,1.33,2,2,0,0,1-.08.82.81.81,0,0,1-.6.56,1.56,1.56,0,0,1-.63,0c-.69-.2-.83-.62-.7-1.09a3,3,0,0,1,.7-1.07,3.94,3.94,0,0,1,.7-.6h0a.23.23,0,0,1,.34.09Zm-.19,1.37a6.91,6.91,0,0,0-.15-.88,3.6,3.6,0,0,0-.36.34,2.45,2.45,0,0,0-.59.87c-.06.21,0,.41.39.51a.85.85,0,0,0,.4,0,.37.37,0,0,0,.25-.25,1.78,1.78,0,0,0,.06-.63Z"/><path class="cls-2" d="M83.59,69a2.32,2.32,0,0,1-.28-1.77l.11-.55.45.33.5.37.13.09v.17c0,.4.44.76.83,1a1,1,0,0,1,.81-.6h.09l.09,0,2,.65.1,0,.07.09a1,1,0,0,1,.19.86,2.09,2.09,0,0,0,1.27-.4l.07,0,.09,0,.89-.16.84-.15-.48.71a3.79,3.79,0,0,1-1.48,1.28,2.9,2.9,0,0,1,.39.53l.6,1L89.82,72a1.87,1.87,0,0,0-1.29-.19c-.39.18-1.09.49-1.42.08A.65.65,0,0,1,87,71.7a1.2,1.2,0,0,1-1.57-.6c-.46.32-.87.07-1.2-.59-.24-.37-.84-.45-1.23-.58l-.83-.26.77-.4a2.71,2.71,0,0,1,.63-.24Z"/><path class="cls-3" d="M84.15,67.7l-.49-.37a2.16,2.16,0,0,0,.63,2,1.77,1.77,0,0,0-1.16.22c.53.17,1.12.24,1.43.75s.47.86,1,.11c.33,1.08,1,1.27,1.92.59-.3.6-.18.92.92.4a2.23,2.23,0,0,1,1.56.2,2.06,2.06,0,0,0-.81-.82,3.38,3.38,0,0,0,1.91-1.38l-.89.16a2.5,2.5,0,0,1-2,.44.94.94,0,0,0,0-1l-2-.65c-.46.08-.59.4-.68.76-.76-.38-1.33-.91-1.38-1.49Z"/><path class="cls-4" d="M85.82,65.4a1.18,1.18,0,0,1,.65-.26,1.27,1.27,0,0,1,.67.13l.24-.13a1.37,1.37,0,0,1,.91-.07,1.28,1.28,0,0,1,.74.53,2.13,2.13,0,0,1,.16.25l.13,0a1.13,1.13,0,0,1,.61.41h0a1.19,1.19,0,0,1,.18.42l.24.06h0a1.1,1.1,0,0,1,.32.17h0a1.1,1.1,0,0,1,.38.52,1.15,1.15,0,0,1,0,.75,1.64,1.64,0,0,1-.22.44,1,1,0,0,1,0,.38,1.2,1.2,0,0,1-.38.67,2,2,0,0,1-.73.43,2.85,2.85,0,0,1-1.52.14l-.26,0L88,70l0-.08h0c.08-.22.17-.49,0-.7l-.09,0a2.13,2.13,0,0,0-1.63-.49.58.58,0,0,0-.35.18,1.08,1.08,0,0,0-.17.41l-.08.29-.26-.13a3.87,3.87,0,0,1-1-.66A1.77,1.77,0,0,1,84,68h0a1.26,1.26,0,0,1,.09-.91,1.33,1.33,0,0,1,.25-.35,1.33,1.33,0,0,1,0-.66.94.94,0,0,1,.26-.43h0a1,1,0,0,1,.43-.25,1.38,1.38,0,0,1,.78,0l0,0Z"/><path class="cls-5" d="M89.62,66.71a.83.83,0,0,0-.07-.13h0a.72.72,0,0,0-.37-.25l-.17,0h-.14l-.06-.13a1.57,1.57,0,0,0-.16-.29.93.93,0,0,0-.49-.36,1,1,0,0,0-.6,0,2,2,0,0,0-.28.16l-.13.1L87,65.74a.81.81,0,0,0-.52-.13.77.77,0,0,0-.28.08.8.8,0,0,1,.19,1,.92.92,0,0,1-.34.34.79.79,0,0,1-.47.1c-.32,0-.58-.3-.5-.89l.46,0c0,.26,0,.37.11.38a.3.3,0,0,0,.17-.05.31.31,0,0,0,.16-.16c.09-.16,0-.4-.4-.64a.91.91,0,0,0-.49,0,.54.54,0,0,0-.22.13.59.59,0,0,0-.14.23,1,1,0,0,0,0,.51l0,.14-.1.1a1.48,1.48,0,0,0-.25.34.74.74,0,0,0,0,.56h0a1.27,1.27,0,0,0,.37.57,3.24,3.24,0,0,0,.6.45,1.34,1.34,0,0,1,.17-.31,1,1,0,0,1,.69-.35h0a2.49,2.49,0,0,1,1.88.55l.11.07,0,0a.9.9,0,0,1,.23,1,2.32,2.32,0,0,0,1-.15,1.65,1.65,0,0,0,.57-.33.71.71,0,0,0,.24-.4.48.48,0,0,0,0-.26l0-.12.08-.11a1.34,1.34,0,0,0,.22-.4.74.74,0,0,0,0-.46.58.58,0,0,0-.22-.29.59.59,0,0,0-.19-.11c-.33-.1-.53,0-.63.05a.38.38,0,0,0-.09.31h0c0,.09.06.17.12.19s.19,0,.36-.19l.32.33a.84.84,0,0,1-.82.31.67.67,0,0,1-.44-.56h0a.86.86,0,0,1,.21-.71.8.8,0,0,1,.4-.23Z"/><path class="cls-6" d="M87.55,67.58s.93,2.8-.76,2.32.73-2.39.76-2.32Z"/><path class="cls-4" d="M87.76,67.47A5.43,5.43,0,0,1,88,68.79a2.18,2.18,0,0,1-.08.82.79.79,0,0,1-.61.56,1.23,1.23,0,0,1-.62,0c-.7-.2-.84-.61-.7-1.08a2.79,2.79,0,0,1,.7-1.08,3.79,3.79,0,0,1,.69-.59h0a.21.21,0,0,1,.33.09Zm-.19,1.36a4.45,4.45,0,0,0-.15-.87,4.76,4.76,0,0,0-.36.33,2.44,2.44,0,0,0-.58.88c-.06.21,0,.4.38.51a.72.72,0,0,0,.4,0,.32.32,0,0,0,.25-.25,1.4,1.4,0,0,0,.06-.63Z"/><path class="cls-7" d="M86.32,90a10.47,10.47,0,0,0,3.36-3.7,13.48,13.48,0,0,1-1.09-6.94,10,10,0,0,1-4.76,4.94l-.13.08c.82.35,1.67.74,2.54,1.16v4.38l.08.08Z"/><path class="cls-4" d="M86.44,90.22a13.59,13.59,0,0,0,1.78-1.51,10.07,10.07,0,0,0,1.64-2.26l.06-.11,0-.12A18.16,18.16,0,0,1,88.59,79c-.59,1.94-3.15,4.14-4.86,5.15l-.07,0h0l-.06,0-.36.25.4.17,1.24.55h0l1.16.55v4.22l.07.17.07.08.12.13.15-.1Zm1.5-1.86a12.5,12.5,0,0,1-1.49,1.28V85.4l-.12-.06-1.3-.6h0l-.83-.38a9.63,9.63,0,0,0,4-3.82,14.48,14.48,0,0,0,1.24,5.77,9.46,9.46,0,0,1-1.5,2Z"/><path class="cls-7" d="M41.93,90a10.47,10.47,0,0,1-3.36-3.7,12.6,12.6,0,0,0,1.35-6.7,9,9,0,0,0,4.5,4.7l.13.08c-.82.35-1.67.74-2.54,1.16v4.38l-.08.08Z"/><path class="cls-4" d="M41.81,90.22A13.59,13.59,0,0,1,40,88.71a10.07,10.07,0,0,1-1.64-2.26l-.06-.11.05-.12A18.16,18.16,0,0,0,39.66,79c.59,1.94,3.15,4.14,4.86,5.15l.07,0h0l.06,0,.36.25-.4.17-1.24.55h0l-1.16.55v4.22l-.07.17-.07.08-.12.13-.15-.1Zm-1.5-1.86a13.27,13.27,0,0,0,1.48,1.28V85.4l.13-.06,1.3-.6h0l.83-.38a9.66,9.66,0,0,1-4-3.82,14.3,14.3,0,0,1-1.23,5.77,9.46,9.46,0,0,0,1.5,2Z"/><path class="cls-8" d="M44.43,64.4l2,5c1.24,3.09,2.4,4.53,5.86,5.6,2.67.7,6.59-.81,8.22-1a25.86,25.86,0,0,1,3.21-.24h.53a30,30,0,0,1,3.43.25c1.63.24,5.55,1.75,8.22,1,3.46-1.07,4.62-2.51,5.86-5.6l2-5L64.26,62.63,44.43,64.4Z"/><path class="cls-3" d="M41.46,44.49a6.29,6.29,0,0,0,1.87-1.87C45.15,39.12,46,37,47.62,36c2-1.18,4.15-1.13,6-2.41,1.39-1,2.09-2.57,3.55-3.46,1.81-1.25,5.11-1.31,7-1.16,1.84-.15,5.14-.09,7,1.16,1.46.89,2.16,2.49,3.55,3.46,1.85,1.28,4.05,1.23,6,2.41,1.59,1,2.47,3.14,4.29,6.64a6.29,6.29,0,0,0,1.87,1.87l-.24.15a14.42,14.42,0,0,1,1.25,2.53c-.52,0-1-.07-1.53-.13a13.07,13.07,0,0,1-1.76-.36A10.2,10.2,0,0,1,81,44.88a15.65,15.65,0,0,1-3.35-3.71L77.54,41l-.18.09a4,4,0,0,1-1.25.43A1.68,1.68,0,0,1,75,41.23l-.23-.16-.11.26a10.18,10.18,0,0,1-2,3.05,9.48,9.48,0,0,1-2.72,2l-.25.12.16.23a3.12,3.12,0,0,1,.47.95,3.7,3.7,0,0,1,.16,1.12V49h.66v.45l-13.41-.55v-.14a3.7,3.7,0,0,1,.16-1.12,3.12,3.12,0,0,1,.47-.95l.16-.23-.25-.12a9.48,9.48,0,0,1-2.72-2,10.18,10.18,0,0,1-2-3.05l-.11-.26-.23.16a1.69,1.69,0,0,1-1.12.29h0a4,4,0,0,1-1.24-.43L50.71,41l-.11.17a15.65,15.65,0,0,1-3.35,3.71,10.2,10.2,0,0,1-3.51,1.8A13.07,13.07,0,0,1,42,47c-.5.06-1,.1-1.53.13a14.42,14.42,0,0,1,1.25-2.53l-.24-.15Zm34.34,5h-.52l.07-.41h.38l.07.39Z"/><path class="cls-6" d="M45.08,66.41h0Z"/><path class="cls-6" d="M40.74,69.35a3.41,3.41,0,0,1,1.73,1.43l-1.73-1.43ZM38,67a1.63,1.63,0,0,1-1.81-1.32c.11.84,1.8.75,1.53,1.5L38,67Zm-.24.06a2.81,2.81,0,0,1,1.93.58,2.88,2.88,0,0,1,1.07,1.75,2.78,2.78,0,0,1-1.93-.59,3,3,0,0,1-1.07-1.74Z"/><path class="cls-6" d="M40.19,67A3.44,3.44,0,0,1,42,68.36L40.19,67Zm-2.83-2.27a1.61,1.61,0,0,1-1.84-1.26c.13.83,1.81.7,1.56,1.46l.28-.2Zm-.24.07a2.8,2.8,0,0,1,2,.53A3,3,0,0,1,40.19,67a2.78,2.78,0,0,1-1.95-.53,2.9,2.9,0,0,1-1.12-1.72Z"/><path class="cls-6" d="M39,64.44a3.38,3.38,0,0,1,1.68,1.47L39,64.44ZM36.29,62a1.64,1.64,0,0,1-1.78-1.37c.09.84,1.77.8,1.49,1.54l.29-.17Zm-.25,0a2.78,2.78,0,0,1,1.92.64,2.94,2.94,0,0,1,1,1.77,2.82,2.82,0,0,1-1.92-.63,3,3,0,0,1-1-1.78Z"/><path class="cls-6" d="M38.2,61.86a3.36,3.36,0,0,1,1.68,1.48L38.2,61.86Zm-2.71-2.42a1.63,1.63,0,0,1-1.78-1.36c.09.83,1.77.79,1.49,1.54l.29-.18Zm-.25.05a2.83,2.83,0,0,1,1.92.64,3,3,0,0,1,1,1.77,2.77,2.77,0,0,1-1.92-.63,3,3,0,0,1-1-1.78Z"/><path class="cls-6" d="M37.05,59.32a3.38,3.38,0,0,1,1.69,1.48l-1.69-1.48ZM34.34,56.9a1.61,1.61,0,0,1-1.77-1.36c.09.83,1.77.8,1.49,1.54l.28-.18ZM34.1,57a2.84,2.84,0,0,1,1.92.64,2.9,2.9,0,0,1,1,1.78,2.8,2.8,0,0,1-1.91-.64,3,3,0,0,1-1-1.78Z"/><path class="cls-6" d="M35.64,56.14a3.54,3.54,0,0,1,1.71,1.5l-1.71-1.5Zm-2.38-2.76a1.64,1.64,0,0,1-1.59-1.59c0,.84,1.66,1,1.28,1.72l.31-.13Zm-.25,0a2.8,2.8,0,0,1,1.82.89,2.94,2.94,0,0,1,.79,1.89,2.79,2.79,0,0,1-1.82-.88A3,3,0,0,1,33,53.4Z"/><path class="cls-6" d="M34.86,53a3.82,3.82,0,0,1,1.42,2l-1.42-2Zm-2-3.32a1.76,1.76,0,0,1-1.41-2c-.16.88,1.57,1.37,1.06,2l.35-.09Zm-.27,0a3.06,3.06,0,0,1,1.77,1.25A3.13,3.13,0,0,1,34.83,53a3,3,0,0,1-1.76-1.25,3.14,3.14,0,0,1-.52-2.13Z"/><path class="cls-6" d="M34.75,49.76A3.57,3.57,0,0,1,35.52,52l-.77-2.21Zm-1.19-3.59a1.73,1.73,0,0,1-.9-2.15c-.34.79,1.18,1.65.55,2.16Zm-.25-.08a3,3,0,0,1,1.39,1.58,3.06,3.06,0,0,1,0,2.13,3,3,0,0,1-1.38-1.58,3.12,3.12,0,0,1,0-2.13Z"/><path class="cls-6" d="M35.36,47.86A3.5,3.5,0,0,1,34.42,50l.94-2.09ZM36.9,44.5a1.69,1.69,0,0,1,.8-2.14c-.76.31-.26,2-1,1.9l.24.24Zm-.12-.23a3,3,0,0,1-.07,2.08,2.94,2.94,0,0,1-1.4,1.52,3,3,0,0,1,.08-2.09,2.94,2.94,0,0,1,1.39-1.51Z"/><path class="cls-6" d="M35.85,50.52a3.54,3.54,0,0,1-.93,2.09l.93-2.09Zm1.55-3.37A1.69,1.69,0,0,1,38.2,45c-.77.32-.27,2-1.05,1.91l.25.23Zm-.12-.22A3,3,0,0,1,37.21,49a2.92,2.92,0,0,1-1.4,1.51,3,3,0,0,1,.07-2.08,2.88,2.88,0,0,1,1.4-1.51Z"/><path class="cls-6" d="M36,53a3.39,3.39,0,0,1-.8,2.09L36,53Zm1.54-3.37a1.7,1.7,0,0,1,.8-2.14c-.77.32-.26,2-1,1.91l.24.23Zm-.12-.22a3,3,0,0,1-.07,2.08A2.88,2.88,0,0,1,35.92,53,3,3,0,0,1,36,50.9a2.86,2.86,0,0,1,1.39-1.51Z"/><path class="cls-6" d="M36.6,55.79a2.84,2.84,0,0,1-.55,2l.55-2Zm1.22-3.51a1.7,1.7,0,0,1,.59-2.21c-.73.39-.07,2-.86,2l.27.21Zm-.14-.21a3,3,0,0,1,.12,2.08,2.92,2.92,0,0,1-1.24,1.64,3,3,0,0,1-.13-2.08,2.94,2.94,0,0,1,1.25-1.64Z"/><path class="cls-6" d="M37.75,58.2a3.58,3.58,0,0,1-.37,2.27l.37-2.27Zm.64-3.66a1.69,1.69,0,0,1,.23-2.28c-.66.51.24,2-.53,2.12l.3.16Zm-.17-.18a3,3,0,0,1,.45,2,3,3,0,0,1-1,1.83,3,3,0,0,1,.51-3.86Z"/><path class="cls-6" d="M39,60.88a5.61,5.61,0,0,1-.17,2.9l.17-2.9Zm.32-3.71a1.7,1.7,0,0,1,0-2.29c-.61.57.42,2-.34,2.16l.31.13ZM39.14,57a3,3,0,0,1,.64,2A3,3,0,0,1,39,60.9a3,3,0,0,1-.63-2,3,3,0,0,1,.8-1.92Z"/><path class="cls-6" d="M40,63.37a3.53,3.53,0,0,1-.25,2.28L40,63.37Zm.43-3.69a1.71,1.71,0,0,1,.11-2.3c-.63.55.35,2-.41,2.15l.3.15Zm-.18-.18a2.94,2.94,0,0,1,.57,2,3,3,0,0,1-.86,1.88,2.94,2.94,0,0,1-.57-2,3,3,0,0,1,.86-1.88Z"/><path class="cls-6" d="M40.83,66c.1.83.4,2,0,2.77V66Zm.71-3.65A1.71,1.71,0,0,1,41.81,60c-.67.5.21,2-.56,2.11l.29.17Zm-.17-.19A3,3,0,0,1,40.79,66a3,3,0,0,1-.42-2,3,3,0,0,1,1-1.81Z"/><path class="cls-6" d="M41.68,68.48a3.61,3.61,0,0,1-.57,2.23l.57-2.23Zm1-3.58a1.71,1.71,0,0,1,.42-2.26c-.7.45.08,2-.7,2.07l.28.19Zm-.16-.21a3,3,0,0,1,.28,2.07,2.92,2.92,0,0,1-1.12,1.73,3,3,0,0,1-.28-2.06,3,3,0,0,1,1.12-1.74Z"/><path class="cls-4" d="M41.94,68.58a4.38,4.38,0,0,1-.1,1.1l0,0a3.87,3.87,0,0,1,.8.93l-.44.27a3,3,0,0,0-.59-.71,4.16,4.16,0,0,1-.32.63l-.45-.26a3.45,3.45,0,0,0,.34-.7,3.61,3.61,0,0,0-.44-.23h0a3,3,0,0,1-1.11-.12,3.19,3.19,0,0,1-1-.52,3,3,0,0,1-.75-.84,3.23,3.23,0,0,1-.39-.94,2.16,2.16,0,0,1-.82-.29A1.86,1.86,0,0,1,36,66a.94.94,0,0,1-.1-.31l.51-.1.06.17a1.48,1.48,0,0,0,.67.44,1.65,1.65,0,0,1,.79.52h0v.06a1.94,1.94,0,0,1,.34,0l-.21-.14a3.07,3.07,0,0,1-.76-.81,3.3,3.3,0,0,1-.42-.94,2,2,0,0,1-.83-.27,1.82,1.82,0,0,1-.7-.88,1,1,0,0,1-.1-.3l.44-.12a1.34,1.34,0,0,0,.07.18,1.49,1.49,0,0,0,.7.42,1.51,1.51,0,0,1,.79.51h.07v0a3.15,3.15,0,0,1,.53,0,3.16,3.16,0,0,1-1-.54,3,3,0,0,1-.73-.85,3.36,3.36,0,0,1-.37-1A1.81,1.81,0,0,1,35,61.9a1.78,1.78,0,0,1-.65-.91.75.75,0,0,1-.09-.31l.45-.09a1.54,1.54,0,0,1,.05.17,1.55,1.55,0,0,0,.68.47c.33.15.65.3.76.55h.08v0a3.81,3.81,0,0,1,.59.08,3,3,0,0,1-.75-.45,3.31,3.31,0,0,1-.73-.86,3.41,3.41,0,0,1-.37-1,1.93,1.93,0,0,1-.81-.31,1.85,1.85,0,0,1-.65-.92.75.75,0,0,1-.09-.31l.45-.09a1.54,1.54,0,0,1,0,.17,1.55,1.55,0,0,0,.68.47l.07,0a3.07,3.07,0,0,1-.47-.62,3,3,0,0,1-.37-1,1.93,1.93,0,0,1-.81-.31h0a1.82,1.82,0,0,1-.65-.91.85.85,0,0,1-.09-.32l.45-.09c0,.06,0,.12.05.17a1.55,1.55,0,0,0,.68.47,1.58,1.58,0,0,1,.76.55h.07v.06a3,3,0,0,1,.84.15,2.81,2.81,0,0,1,.87.46,2.3,2.3,0,0,0,.22-.53l-.48-.29h0l-.15-.09h0a2.91,2.91,0,0,1-1.07-.3,2.94,2.94,0,0,1-.89-.66,3,3,0,0,1-.61-.94,2.93,2.93,0,0,1-.24-1A1.9,1.9,0,0,1,32,53.1a1.92,1.92,0,0,1-.53-1,1.07,1.07,0,0,1,0-.32l.46,0,0,.17a1.68,1.68,0,0,0,.61.56c.31.2.6.38.69.64h.07v.06a2.64,2.64,0,0,1,.81.26,3.16,3.16,0,0,1,.9.66,3.57,3.57,0,0,1,.3.38,2.05,2.05,0,0,0,.22-.48v0a5.85,5.85,0,0,0-.7-.71l0,0a3.25,3.25,0,0,1-1.07-.49,3.36,3.36,0,0,1-.83-.85,3.3,3.3,0,0,1-.48-1.09,3.48,3.48,0,0,1-.09-1.11,2.13,2.13,0,0,1-.74-.57h0A1.86,1.86,0,0,1,31.19,48a.78.78,0,0,1,0-.34l.46,0v.19a1.7,1.7,0,0,0,.56.7c.29.26.57.51.61.8l.08,0,0,0a3.43,3.43,0,0,1,.81.41,3.53,3.53,0,0,1,.83.85,3.26,3.26,0,0,1,.48,1.1c0,.07,0,.15,0,.23a4,4,0,0,0,.23-.39,3.59,3.59,0,0,0-.17-.83,3.51,3.51,0,0,0-.44-.83l-.06.07-.35-.32h0a3.17,3.17,0,0,1-.55-.49,3.25,3.25,0,0,1-.59-1,3.49,3.49,0,0,1-.22-1.14,3.45,3.45,0,0,1,.16-1.06,1.81,1.81,0,0,1-.69-1.86.94.94,0,0,1,.08-.32l.44.15a1.8,1.8,0,0,0,0,.19,1.66,1.66,0,0,0,.38.78,1.63,1.63,0,0,1,.4.89l.06,0,0,0a3.11,3.11,0,0,1,.67.58,3.32,3.32,0,0,1,.6,1,4.33,4.33,0,0,1,.16.56l0-.16,0,0a3.33,3.33,0,0,1-.16-1.13,3.17,3.17,0,0,1,.24-1.12h0a3.22,3.22,0,0,1,.61-.95,3.31,3.31,0,0,1,.81-.64,2,2,0,0,1,.07-.89,1.82,1.82,0,0,1,.69-.9.78.78,0,0,1,.26-.17l.21.42-.15.1a1.68,1.68,0,0,0-.25.8,1.61,1.61,0,0,1-.31.91l0,.07-.05,0a3.14,3.14,0,0,1,.09.87,3.75,3.75,0,0,1-.24,1.12,3.85,3.85,0,0,1-.39.69,3,3,0,0,1,.55-.38,2.07,2.07,0,0,1,.06-.9,2,2,0,0,1,.7-.9.69.69,0,0,1,.26-.17l.21.42-.15.1a1.65,1.65,0,0,0-.26.81,1.57,1.57,0,0,1-.3.9v.08h0a2.8,2.8,0,0,1,.09.58,2.7,2.7,0,0,1,.3-.27.78.78,0,0,1,.26-.17l.21.42-.15.1a1.76,1.76,0,0,0-.25.81,1.57,1.57,0,0,1-.31.9l0,.08h-.05a3.48,3.48,0,0,1,.09.79,2.56,2.56,0,0,1,.28-.3.74.74,0,0,1,.25-.2l.24.4-.14.12a1.54,1.54,0,0,0-.17.82,1.54,1.54,0,0,1-.23.94l0,.07h0c0,.12.07.23.1.35a1.51,1.51,0,0,1,.18-.26.79.79,0,0,1,.21-.24l.31.35-.13.14a1.8,1.8,0,0,0,0,.85,1.62,1.62,0,0,1-.06,1l0,.07,0,0a3.58,3.58,0,0,1,.3.79A1.81,1.81,0,0,1,39,55a.87.87,0,0,1,.18-.26l.34.33a1.71,1.71,0,0,1-.11.14,1.67,1.67,0,0,0,0,.85,1.57,1.57,0,0,1,0,1l0,.06,0,0a3.2,3.2,0,0,1,.38.79l0,.07a2.27,2.27,0,0,1,.26-.48.92.92,0,0,1,.2-.25l.32.34a1.71,1.71,0,0,0-.11.14,1.63,1.63,0,0,0,0,.85,1.58,1.58,0,0,1,0,.95l0,.07,0,0a3.35,3.35,0,0,1,.35.8,3.87,3.87,0,0,1,.12.68,2,2,0,0,1,.45-1,.9.9,0,0,1,.21-.23l.31.36-.13.13a1.67,1.67,0,0,0-.05.85,1.59,1.59,0,0,1-.09,1l0,.07,0,0a3.41,3.41,0,0,1,.29.83h0a3.11,3.11,0,0,1,0,1.14,3.24,3.24,0,0,1-.21.77,3.16,3.16,0,0,1,.42-.4,2,2,0,0,1-.09-.89h0a1.92,1.92,0,0,1,.53-1,.76.76,0,0,1,.24-.23l.32.4L43.1,63a1.63,1.63,0,0,0-.11.83,1.62,1.62,0,0,1-.15,1l0,.07,0,0a3.07,3.07,0,0,1,.24.85A3.38,3.38,0,0,1,43,66.81a3.16,3.16,0,0,1-.44,1,3.33,3.33,0,0,1-.63.72Zm3.16-2.4h0l-.06.47h0l.05-.47Zm-3.73,3.19a3.4,3.4,0,0,0,.05-.72l0,0c-.06-.12-.12-.25-.17-.37a1.76,1.76,0,0,1-.19.6l-.25-.13a3.43,3.43,0,0,1,.16.45l.42.21Zm-.68-.88a2.62,2.62,0,0,0,.11-.95,3.15,3.15,0,0,0-.55-.28h0a2.43,2.43,0,0,1-.66,0l.28.19a3.51,3.51,0,0,1,.75.84l.11.2Zm-2-1.07a2.52,2.52,0,0,0-.61-.11,2.53,2.53,0,0,0,.28.6,2.6,2.6,0,0,0,1.45,1.14,2.59,2.59,0,0,0,.61.1,3.24,3.24,0,0,0-.27-.6,3,3,0,0,0-.63-.7,2.63,2.63,0,0,0-.83-.43ZM40.74,67l-.06-.47-.06-.35,0,0L40.54,66l0,0a4.19,4.19,0,0,0-.45-.61l-.12.32-.12-.06.17.24a3.44,3.44,0,0,1,.4.87l.37.16Zm-1.19-1.55c0-.11.08-.21.11-.32a3.39,3.39,0,0,0-.62-.37h0a2.62,2.62,0,0,1-.62,0,3.16,3.16,0,0,1,.83.44,3.37,3.37,0,0,1,.35.29Zm2,2.14a3.59,3.59,0,0,1,.32.35,3.55,3.55,0,0,0,.23-.31,2.62,2.62,0,0,0,.37-.89,2.88,2.88,0,0,0,0-1,2.69,2.69,0,0,0-.16-.62,2.32,2.32,0,0,0-.4.48,2.8,2.8,0,0,0-.37.89,2.9,2.9,0,0,0,0,1s0,.07,0,.1Zm-3.5-2.46a2.84,2.84,0,0,0-.66-.09,3.14,3.14,0,0,0,.3.61,2.51,2.51,0,0,0,.65.69,2.56,2.56,0,0,0,.85.41,2.5,2.5,0,0,0,.66.09,3.08,3.08,0,0,0-.29-.61,2.69,2.69,0,0,0-.66-.69,2.57,2.57,0,0,0-.85-.41Zm1.69-.5V64.5a3.74,3.74,0,0,0,0-.94l0,0c-.08-.11-.16-.23-.23-.35a2.35,2.35,0,0,0-.19-.25,4.17,4.17,0,0,1-.24.94h0a3,3,0,0,1,.12.4,4.75,4.75,0,0,1,.59.33Zm-1-1.33a5.48,5.48,0,0,0,.11-.74,3.9,3.9,0,0,0-.63-.38h0a2.79,2.79,0,0,1-.86-.08,3,3,0,0,1,.76.46,2.88,2.88,0,0,1,.66.74ZM37,62.44a2.21,2.21,0,0,0-.66-.13,2.86,2.86,0,0,0,.88,1.35,2.73,2.73,0,0,0,.83.46,2.41,2.41,0,0,0,.65.12,2.62,2.62,0,0,0-.26-.62,2.68,2.68,0,0,0-.62-.73,2.37,2.37,0,0,0-.82-.45Zm1.9-.48a4.76,4.76,0,0,0-.07-.88l0,0-.14-.19-.1.07a3.6,3.6,0,0,0-.68-.83l-.06,0c0,.09-.07.19-.11.28a3.26,3.26,0,0,1,.68,1.35c.18.09.35.18.51.28Zm-1.55-2,.08-.21-.32-.17h-.3a3.08,3.08,0,0,1,.5.33l0,0Zm2.55,2.93,0,.08a2.76,2.76,0,0,0,.36-.57,2.89,2.89,0,0,0,.24-.94,2.84,2.84,0,0,0-.1-1,2.5,2.5,0,0,0-.27-.63,3.13,3.13,0,0,0-.36.58,3,3,0,0,0-.24.94,2.84,2.84,0,0,0,.1,1,2.55,2.55,0,0,0,.22.54Zm-3.7-3a2.86,2.86,0,0,0-.66-.13,2.92,2.92,0,0,0,.27.63,2.6,2.6,0,0,0,.61.72,2.73,2.73,0,0,0,.83.46,2.41,2.41,0,0,0,.65.12,3,3,0,0,0-.26-.62,2.68,2.68,0,0,0-.62-.73,2.75,2.75,0,0,0-.82-.45Zm2-.12a3.29,3.29,0,0,1-.07-.83,3.14,3.14,0,0,1,.21-1,2.43,2.43,0,0,1-.33.38,3.88,3.88,0,0,1,0,1.13l0,.16a1.2,1.2,0,0,1,.21.17Zm-.65-.45a3.85,3.85,0,0,0,0-.9l0,0a3.73,3.73,0,0,1-.32-.63l0,0a1.87,1.87,0,0,0-.46-.64,2.22,2.22,0,0,1-.26.54,3.49,3.49,0,0,1,.47.62,3,3,0,0,1,.34.88l.3.15Zm-2.48-2a3.08,3.08,0,0,0-.66-.13,2.5,2.5,0,0,0,.27.63,2.46,2.46,0,0,0,.61.72,2.73,2.73,0,0,0,.83.46,2.88,2.88,0,0,0,.65.13,2.89,2.89,0,0,0-.26-.63,2.5,2.5,0,0,0-.62-.72,2.57,2.57,0,0,0-.82-.46Zm2-.56a3,3,0,0,1,0-.6,2.61,2.61,0,0,1,.11-.5l-.3.24c0,.25,0,.47,0,.68l.21.18Zm-.65-.47c0-.11,0-.23,0-.36l0,0A3.14,3.14,0,0,1,36.1,55h-.05a2.49,2.49,0,0,0-.21-.56,3,3,0,0,1-.28.48l0,.1h0a3.34,3.34,0,0,1,.23.93l.19.11h0l.32.19ZM35,54.93l0,0h0a2.05,2.05,0,0,0-.34-.45,2.42,2.42,0,0,0-.76-.56,2.77,2.77,0,0,0-.63-.22,2.48,2.48,0,0,0,.18.66,2.73,2.73,0,0,0,1.28,1.37,3.11,3.11,0,0,0,.63.21,2.48,2.48,0,0,0-.18-.66h0a1.91,1.91,0,0,0-.16-.32Zm1.1-.91a3,3,0,0,1,.09-.38,3.08,3.08,0,0,1,.37-.8,3.51,3.51,0,0,1-.4.27,4.63,4.63,0,0,1-.14.79.83.83,0,0,1,.08.12Zm-.45-.59c0-.11,0-.22,0-.33l0-.05a3.19,3.19,0,0,1-.16-.88,3.48,3.48,0,0,1-.45.6h0v.11a7.91,7.91,0,0,1,.59.56Zm-2.25-3.12a3,3,0,0,0-.66-.35,3.82,3.82,0,0,0,.08.75,2.92,2.92,0,0,0,.42.94,2.77,2.77,0,0,0,1.36,1.07,2.74,2.74,0,0,0-.08-.75,3.24,3.24,0,0,0-.41-.94,2.86,2.86,0,0,0-.71-.72Zm2.15.5,0-.17v0a3.07,3.07,0,0,1-.16-1.13,3.12,3.12,0,0,1,.24-1.11,2.8,2.8,0,0,1,.39-.7,2.69,2.69,0,0,1-.49.34,4.06,4.06,0,0,1-.29,1.09h0a3.55,3.55,0,0,1-.23.43c0,.07,0,.13,0,.19a4.31,4.31,0,0,1,.54,1l0,.1Zm-1-1.4.06-.08a3.05,3.05,0,0,0,.06-.6,2.77,2.77,0,0,0-.18-1,3,3,0,0,0-.51-.85,2.87,2.87,0,0,0-.53-.46,2.74,2.74,0,0,0-.08.7,2.78,2.78,0,0,0,.18,1,2.91,2.91,0,0,0,.51.85,2.85,2.85,0,0,0,.49.43Zm2.15-4.1a2.57,2.57,0,0,0-.06-.68,2.38,2.38,0,0,0-.52.43,2.73,2.73,0,0,0-.52.82h0a2.8,2.8,0,0,0-.14,1.63,3,3,0,0,0,.52-.43,2.73,2.73,0,0,0,.72-1.77ZM37.19,48a2.65,2.65,0,0,0-.06-.69,2.7,2.7,0,0,0-.52.44,2.59,2.59,0,0,0-.51.81A2.75,2.75,0,0,0,36,50.17a2.43,2.43,0,0,0,.52-.44,2.62,2.62,0,0,0,.52-.81h0a2.65,2.65,0,0,0,.2-1Zm.08,4.1.2-.15,0-.16a3.07,3.07,0,0,1-.17.31Zm0-1.64a2.65,2.65,0,0,0-.06-.69,2.43,2.43,0,0,0-.52.44,2.62,2.62,0,0,0-.52.81,2.65,2.65,0,0,0-.2.95,2.69,2.69,0,0,0,.06.69,2.7,2.7,0,0,0,.52-.44,2.59,2.59,0,0,0,.51-.81,2.67,2.67,0,0,0,.21-1Zm.39,2.68a3.05,3.05,0,0,0-.13-.67,2.73,2.73,0,0,0-.48.48,2.57,2.57,0,0,0-.43.86,2.72,2.72,0,0,0-.12,1,3.14,3.14,0,0,0,.13.68,2.73,2.73,0,0,0,.47-.49,2.59,2.59,0,0,0,.44-.86,2.7,2.7,0,0,0,.12-1Zm1,4,.19-.23a.91.91,0,0,1-.07-.14,2.29,2.29,0,0,1-.12.37Zm-.32-1.76a2.87,2.87,0,0,0-.23-.64,2.28,2.28,0,0,0-.4.56,2.81,2.81,0,0,0-.25,1.89,3,3,0,0,0,.24.65,3.12,3.12,0,0,0,.39-.56,2.6,2.6,0,0,0,.29-.93,2.62,2.62,0,0,0,0-1Zm1.57,4h0ZM39.42,58a3,3,0,0,0-.29-.63,2.73,2.73,0,0,0-.34.6,2.7,2.7,0,0,0-.22,1,3.05,3.05,0,0,0,.13,1,2.7,2.7,0,0,0,.29.62,2.66,2.66,0,0,0,.34-.59,2.49,2.49,0,0,0,.21-1,2.78,2.78,0,0,0-.12-1Zm.8,5.53a1.87,1.87,0,0,1,.07-.22l-.09.1a.5.5,0,0,0,0,.12Zm.61-1.21c.1-.11.2-.22.32-.33a2.15,2.15,0,0,1-.14-.54v.06a3.07,3.07,0,0,1-.17.81Zm.29,4a3.37,3.37,0,0,1,.15-.48l-.19.21c0,.08,0,.17,0,.27Zm.42-3.15a2.78,2.78,0,0,0-.23-.65,2.77,2.77,0,0,0-.4.55,2.86,2.86,0,0,0-.31.92,2.63,2.63,0,0,0,0,1,2.77,2.77,0,0,0,.22.65,2.77,2.77,0,0,0,.4-.55,2.82,2.82,0,0,0,.29-1.89Z"/><path class="cls-7" d="M86.82,57l-.35-2-.57-.73-.29-1.75h-.78l-.33,1.74-.61.71-.19,1.82-.56.86h-.41l-.27-2.27-.5-.75-.37-2-.47-.54-.34-1.7H80l-.31,1.68-.52.65-.4,2.08-.38.61-.15.7h-.4l-.29-2.3-.48-.61-.29-2-.56-.68-.31-1.68h-.76l-.33,1.71-.58.68-.29,2-.44.61-.11.71h-.77V53.22c-.05-.35-.45-.16-.67-.24v-.81c-1.44-.69-1.58-2.06-.59-2.42v-1h-.66A3.8,3.8,0,0,0,67.66,45l-.1-1.09-1-.51-.92-5.16h-3l-.92,5.16-1,.51L60.59,45a3.8,3.8,0,0,0-3.07,3.78h-.66v1c1,.36.85,1.73-.59,2.42V53c-.22.08-.62-.11-.67.24v1.34h-.77l-.11-.71-.44-.61-.29-2-.58-.68-.33-1.71h-.76L52,50.5l-.56.68-.29,2-.48.61-.29,2.3H50l-.15-.7-.39-.61-.39-2.08-.52-.65-.31-1.68h-.77l-.34,1.7-.47.54-.37,2-.5.75-.27,2.27h-.41l-.56-.86L44.36,55l-.61-.71-.33-1.74h-.78l-.29,1.75-.57.73-.35,2,3,7.23H83.79l3-7.23Z"/><path class="cls-4" d="M86.58,57l-.33-1.82-.53-.68,0-.11-.26-1.56H85l-.3,1.56,0,.11-.56.65-.18,1.75,0,.1-.55.86-.07.11h-.75l0-.21-.25-2.21-.47-.7,0-.1-.36-2-.43-.49,0-.11-.3-1.51H80.2l-.27,1.49-.05.1-.48.6-.39,2L79,55l-.37.57-.13.65,0,.19h-.8l0-.21-.29-2.23-.43-.55-.05-.11-.28-2-.51-.63,0-.11-.28-1.48h-.38l-.29,1.51,0,.12-.54.62-.28,2,0,.11-.41.55-.1.66,0,.2H72.4V53.24a.45.45,0,0,0-.17,0,1,1,0,0,1-.34,0l-.16-.06v-.83a2.33,2.33,0,0,1-1.13-1.19,1.41,1.41,0,0,1-.1-.52,1.19,1.19,0,0,1,.12-.5h0a1.14,1.14,0,0,1,.52-.52V49H70.5v-.24a3.41,3.41,0,0,0-.74-2.21,4.23,4.23,0,0,0-2.16-1.34l-.15,0,0-.16-.09-1-.89-.45-.11-.05,0-.12-.88-5H62.81l-.88,5,0,.12-.11.05-.89.45-.09,1,0,.16-.15,0a4.23,4.23,0,0,0-2.16,1.34,3.41,3.41,0,0,0-.74,2.21V49h-.66v.58a1.14,1.14,0,0,1,.52.52,1.19,1.19,0,0,1,.12.5,1.41,1.41,0,0,1-.1.52,2.33,2.33,0,0,1-1.13,1.19v.83l-.16.06a1,1,0,0,1-.34,0,.45.45,0,0,0-.17,0V54.8H54.64l0-.2-.1-.66-.41-.55,0-.11-.28-2-.54-.62-.05-.12-.29-1.51h-.38l-.28,1.48-.05.11-.51.63-.28,2,0,.11-.43.55-.29,2.23,0,.21h-.8l0-.19-.13-.65L49.27,55l0-.08-.39-2-.48-.6,0-.1-.27-1.49h-.39l-.3,1.51,0,.11-.43.49-.36,2,0,.1-.47.7-.26,2.21,0,.21H45l-.07-.11L44.36,57l0-.1-.18-1.75-.56-.65,0-.11-.3-1.56h-.39l-.26,1.56,0,.11-.53.68L41.67,57l2.95,7h39l3-7Zm.12-2L87.05,57l0,.14-3,7.23-.06.15H44.31l-.06-.15-3-7.23,0-.14L41.55,55l.05-.11.53-.68.28-1.69,0-.2h1.16l0,.19L44,54.2l.56.67.06.13.19,1.76.45.7h.09l.24-2.06,0-.1.47-.71.36-2,.06-.12.43-.49.32-1.63,0-.2h1.15l0,.2.3,1.62.48.6,0,.1.39,2,.37.57,0,.08.11.51h0l.26-2.09,0-.12.44-.55.28-2,.05-.12.52-.63.3-1.62,0-.19h.19l.76,0h.2l0,.2.32,1.65.54.63.06.12.28,2,.41.56,0,.1.08.51h.34V53.19c.06-.45.35-.44.65-.43h0V52l.13-.06a1.93,1.93,0,0,0,1-1,1.12,1.12,0,0,0,.06-.35.72.72,0,0,0-.06-.29.74.74,0,0,0-.42-.35l-.15-.06V48.53h.66a3.81,3.81,0,0,1,.84-2.27,4.59,4.59,0,0,1,2.24-1.45l.09-.93v-.13l.12-.06.9-.46.9-5,0-.19h3.39l0,.19.9,5,.9.46.12.06v.13l.09.93a4.59,4.59,0,0,1,2.24,1.45A3.87,3.87,0,0,1,71,48.53h.66v1.38l-.15.06a.74.74,0,0,0-.42.35l-.21-.1.21.1a.72.72,0,0,0-.06.29,1.12,1.12,0,0,0,.06.35,1.93,1.93,0,0,0,1,1l.13.06v.74h0c.3,0,.59,0,.65.43v1.13h.34l.08-.51,0-.1.41-.56.28-2,.06-.12.54-.63.32-1.65,0-.2h.2l.76,0h.19l0,.19.3,1.62L77,51l0,.12.28,2,.44.55.05.12.26,2.09h0l.11-.51,0-.08.37-.57.38-2,0-.1.48-.6.3-1.62,0-.2H81l0,.2L81.33,52l.43.49.06.12.36,2,.47.71,0,.1.24,2.06H83l.45-.7L83.66,55l.06-.13.56-.67.32-1.68,0-.19H85.8l0,.2.28,1.69.53.68,0,.11Zm-16.06-4.9Z"/><polygon class="cls-2" points="51.7 53.46 51.99 51.42 52.54 50.75 52.71 49.8 52.9 50.78 53.47 51.45 53.76 53.47 54.2 54.08 54.36 55.13 56.17 55.13 56.16 53.57 56.24 53.57 56.82 53.45 56.83 52.51 57.08 52.34 57.32 52.15 57.52 51.93 57.7 51.7 57.84 51.46 57.95 51.21 58.02 50.95 58.05 50.68 58.04 50.41 57.98 50.15 57.87 49.9 57.72 49.68 57.53 49.48 57.41 49.4 57.41 49.34 58.06 49.34 58.08 48.63 58.09 48.49 58.1 48.35 58.11 48.22 58.14 48.09 58.16 47.96 58.19 47.83 58.23 47.71 58.27 47.59 58.32 47.47 58.37 47.36 58.42 47.24 58.48 47.13 58.55 47.03 58.62 46.92 58.7 46.82 58.78 46.72 58.86 46.62 58.96 46.53 59.05 46.43 59.16 46.34 59.27 46.26 59.39 46.17 59.51 46.09 59.64 46.01 59.78 45.93 59.92 45.86 60.07 45.79 60.23 45.72 60.39 45.65 60.57 45.59 61.11 45.42 61.21 44.27 62.2 43.77 63.08 38.8 63.76 38.8 64.1 38.8 65.17 38.8 66.05 43.77 67.04 44.27 67.14 45.42 67.68 45.59 67.86 45.65 68.02 45.72 68.18 45.79 68.33 45.86 68.47 45.93 68.61 46.01 68.74 46.09 68.86 46.17 68.98 46.26 69.09 46.34 69.19 46.43 69.29 46.53 69.39 46.62 69.47 46.72 69.55 46.82 69.63 46.92 69.7 47.03 69.77 47.13 69.83 47.24 69.88 47.36 69.93 47.47 69.98 47.59 70.02 47.71 70.06 47.83 70.09 47.96 70.11 48.09 70.14 48.22 70.15 48.35 70.17 48.49 70.17 48.63 70.19 49.34 70.83 49.34 70.83 49.4 70.72 49.48 70.53 49.68 70.38 49.9 70.27 50.15 70.21 50.41 70.2 50.68 70.23 50.95 70.3 51.21 70.41 51.46 70.55 51.7 70.72 51.93 70.93 52.15 71.17 52.34 71.42 52.51 71.43 53.45 72.01 53.57 72.09 53.57 72.08 55.13 73.89 55.13 74.05 54.08 74.49 53.47 74.78 51.45 75.35 50.78 75.54 49.8 75.71 50.75 76.26 51.42 76.55 53.46 77.02 54.06 77.36 56.7 78.7 56.7 78.92 55.65 79.31 55.04 79.7 52.99 80.22 52.34 80.4 51.36 80.6 52.38 81.07 52.91 81.44 54.91 81.92 55.64 82.23 58.27 83.44 58.27 84.23 57.04 84.42 55.26 85.01 54.57 85.21 53.55 85.38 54.56 85.95 55.3 86.45 57.72 83.73 64.3 44.52 64.3 41.8 57.72 42.3 55.3 42.87 54.56 43.04 53.55 43.24 54.57 43.83 55.26 44.02 57.04 44.81 58.27 46.02 58.27 46.33 55.64 46.81 54.91 47.18 52.91 47.65 52.38 47.85 51.36 48.03 52.34 48.55 52.99 48.94 55.04 49.33 55.65 49.55 56.7 50.89 56.7 51.23 54.06 51.7 53.46 51.7 53.46"/><path class="cls-6" d="M63.09,83.12c-1.71,0-2.51-1.48-4.29-1.45-2.92,0-4.44,1.91-8.61-1.07-3-1.56-4-.67-5.48-1.39-1.13-.46-1.59-3.2,1.07-2.84,1.51.62.39,2.29-.57,1.5a.82.82,0,0,0,1.2-.11c.25-.69.21-1.62-2.2-1.51-2.73-.12-4.5-1.4-4.57-4.25a3.26,3.26,0,0,1,3.8-3.35c3,.53,2.19,3.76.88,4.33-2,.39-2.81-1.91-.77-2-1.83,0-1.47,2.31.75,1.95,1.64-.27,2.55-.29,3.2.36a7.94,7.94,0,0,0,3.92,2.5,13,13,0,0,0,8-.61,14.46,14.46,0,0,1,4.18-.47h1a14.46,14.46,0,0,1,4.18.47,13,13,0,0,0,8,.61,7.94,7.94,0,0,0,3.92-2.5c.72-.75,1.56-.63,3.2-.36,2.22.36,2.58-1.9.75-1.95,2,.06,1.25,2.34-.75,1.95-1.32-.57-2.1-3.78.86-4.31A3.25,3.25,0,0,1,88.6,72c-.06,2.85-1.83,4.13-4.56,4.25-2.41-.11-2.45.82-2.2,1.51a.82.82,0,0,0,1.2.11c-1,.79-2.08-.88-.57-1.5,2.66-.36,2.2,2.38,1.07,2.84-1.47.72-2.49-.17-5.48,1.39-4.17,3-5.69,1.09-8.61,1.07-1.78,0-3.18,1.48-4.88,1.45-.51,0-1,0-1.48,0Z"/><path class="cls-4" d="M63.09,83.35a4.06,4.06,0,0,1-2.21-.74,3.86,3.86,0,0,0-2.07-.7h0a10.71,10.71,0,0,0-2.21.31c-1.8.4-3.47.76-6.52-1.42a7.89,7.89,0,0,0-3.66-1,4.15,4.15,0,0,1-1.8-.37h0a1.92,1.92,0,0,1-1-1.33,1.89,1.89,0,0,1,0-.82,1.39,1.39,0,0,1,.4-.73l.07-.06a5.28,5.28,0,0,1-3.4-1.24A4.34,4.34,0,0,1,39.41,72h0c0-.14,0-.29,0-.44a3.87,3.87,0,0,1,1-2.2,3.26,3.26,0,0,1,2.52-1,2.74,2.74,0,0,1,.48,0h0a2.73,2.73,0,0,1,1.7.9,2.21,2.21,0,0,1,.53,1.34A2.92,2.92,0,0,1,45.47,72a2.6,2.6,0,0,1-.34.59,5.9,5.9,0,0,1,1.16,0,2.07,2.07,0,0,1,1.38.58v0a7.24,7.24,0,0,0,1.59,1.42,8.77,8.77,0,0,0,2.22,1,9.81,9.81,0,0,0,3.61.33A17.14,17.14,0,0,0,59.35,75,11.61,11.61,0,0,1,63,74.52l.61,0h1.05l.61,0A11.61,11.61,0,0,1,68.9,75a17.14,17.14,0,0,0,4.25.94,9.83,9.83,0,0,0,3.61-.33h0a8.36,8.36,0,0,0,2.21-1,7.24,7.24,0,0,0,1.59-1.42v0A2,2,0,0,1,82,72.52a6,6,0,0,1,1.15.07,2.36,2.36,0,0,1-.35-.6,2.92,2.92,0,0,1-.24-1.35,2.26,2.26,0,0,1,.52-1.33,2.77,2.77,0,0,1,1.7-.89h0l.46,0a3.26,3.26,0,0,1,2.52,1,3.87,3.87,0,0,1,1,2.2c0,.15,0,.3,0,.44v0a4.37,4.37,0,0,1-1.28,3.24,5.28,5.28,0,0,1-3.4,1.24l.07.06a1.39,1.39,0,0,1,.4.73,2,2,0,0,1-1,2.15,4.15,4.15,0,0,1-1.8.37,7.86,7.86,0,0,0-3.66,1c-3.05,2.18-4.72,1.82-6.52,1.42a10.71,10.71,0,0,0-2.21-.31h0a5.46,5.46,0,0,0-2.39.71,5.52,5.52,0,0,1-2.48.73H63.09Zm-2-1.15a3.73,3.73,0,0,0,2,.68h1.49a5.38,5.38,0,0,0,2.28-.69,5.89,5.89,0,0,1,2.6-.75,10.06,10.06,0,0,1,2.31.32c1.7.37,3.27.71,6.17-1.36h0a8.2,8.2,0,0,1,3.86-1.07A3.84,3.84,0,0,0,83.44,79h0a1.35,1.35,0,0,0,.7-1,1.3,1.3,0,0,0,0-.62,1,1,0,0,0-.26-.49,1.58,1.58,0,0,0-1.31-.29l-.2.07c-.47.25-.63.85-.12,1.11a.55.55,0,0,0,.61-.09.22.22,0,0,1,.32,0,.24.24,0,0,1,0,.34l0,0a1.07,1.07,0,0,1-.35.2.8.8,0,0,1-.26,0h0a.9.9,0,0,1-1-.75,1.08,1.08,0,0,1,0-.36,1,1,0,0,1,0-.17,1.12,1.12,0,0,1,.25-.5,1.28,1.28,0,0,1,.36-.26A3.82,3.82,0,0,1,84,76a4.91,4.91,0,0,0,3.21-1.12A3.91,3.91,0,0,0,88.37,72a2.34,2.34,0,0,0,0-.38,3.38,3.38,0,0,0-.89-1.94,2.89,2.89,0,0,0-2.18-.83l-.41,0h0a2.34,2.34,0,0,0-1.43.73,1.84,1.84,0,0,0-.41,1,2.53,2.53,0,0,0,.21,1.13,1.77,1.77,0,0,0,.79.93,2.43,2.43,0,0,0,.71,0,1.31,1.31,0,0,0,.75-.41,1,1,0,0,0,.14-.24.29.29,0,0,0,0-.09.55.55,0,0,0,0-.33.93.93,0,0,0-.88-.42.24.24,0,1,1,0-.48,1.4,1.4,0,0,1,1.31.65,1,1,0,0,1,.09.63,1.33,1.33,0,0,1,0,.19,1.24,1.24,0,0,1-.23.42,1.64,1.64,0,0,1-1,.54,2.25,2.25,0,0,1-.93,0h0A10.26,10.26,0,0,0,82,73a1.52,1.52,0,0,0-1.1.49A7.63,7.63,0,0,1,79.23,75a9.22,9.22,0,0,1-2.32,1.07h0a10.11,10.11,0,0,1-3.78.35,17.17,17.17,0,0,1-4.37-1,11.48,11.48,0,0,0-3.5-.44l-.62,0h-1L63,75a11.48,11.48,0,0,0-3.5.44,17.17,17.17,0,0,1-4.37,1,10.11,10.11,0,0,1-3.78-.35h0A9.13,9.13,0,0,1,49,75a7.36,7.36,0,0,1-1.68-1.5A1.66,1.66,0,0,0,46.26,73a7.85,7.85,0,0,0-1.8.15l-.05,0h0A2.21,2.21,0,0,1,43,73.09a1.49,1.49,0,0,1-.61-.43,1.2,1.2,0,0,1-.24-.46l0-.14a1,1,0,0,1,.08-.64,1.41,1.41,0,0,1,1.31-.65c.37,0,.44.45,0,.48a.93.93,0,0,0-.88.42.55.55,0,0,0-.05.33s0,0,0,.07a.84.84,0,0,0,.16.27,1.18,1.18,0,0,0,.43.32,2.05,2.05,0,0,0,1.05.06h0a1.86,1.86,0,0,0,.73-.9,2.4,2.4,0,0,0,.2-1.13,1.75,1.75,0,0,0-.41-1.06,2.3,2.3,0,0,0-1.43-.74h0l-.42,0a2.89,2.89,0,0,0-2.18.83,3.38,3.38,0,0,0-.89,1.94,2.34,2.34,0,0,0,0,.38A3.91,3.91,0,0,0,41,74.9,4.91,4.91,0,0,0,44.21,76a5.36,5.36,0,0,1,1.49.1l.11,0h.06a1.46,1.46,0,0,1,.25.13,1.28,1.28,0,0,1,.36.26,1.12,1.12,0,0,1,.25.5,1,1,0,0,1,0,.17,1.08,1.08,0,0,1,0,.36.9.9,0,0,1-1,.75h-.06a.74.74,0,0,1-.25,0,1.07,1.07,0,0,1-.35-.2l0,0a.23.23,0,0,1,0-.32.22.22,0,0,1,.32,0,.55.55,0,0,0,.62.1.64.64,0,0,0,.24-.22,1.17,1.17,0,0,1,0-.11,1,1,0,0,0,0-.34.8.8,0,0,0-.42-.44.84.84,0,0,0-.19-.07,1.58,1.58,0,0,0-1.31.29,1,1,0,0,0-.26.49,1.3,1.3,0,0,0,0,.62,1.4,1.4,0,0,0,.69,1h0a3.84,3.84,0,0,0,1.62.32,8.28,8.28,0,0,1,3.86,1.06l0,0c2.9,2.07,4.47,1.73,6.17,1.36a10.06,10.06,0,0,1,2.31-.32h0a4.19,4.19,0,0,1,2.31.76Z"/><path class="cls-4" d="M41.7,44.64a12.05,12.05,0,0,0-1.84,5h0a8.86,8.86,0,0,0,.49,4.07h0l6.33,15.68h0a9.82,9.82,0,0,0,2,3.48,8.51,8.51,0,0,0,3.66,2c1.91.49,4.52-.18,6.41-.67.68-.18,1.27-.33,1.72-.4s1.1-.13,1.65-.17l1.36-.06v0h1a31.11,31.11,0,0,1,3.26.24c.45.07,1,.22,1.72.4,1.89.49,4.5,1.16,6.41.67a8.51,8.51,0,0,0,3.66-2,10,10,0,0,0,2-3.48h0L87.9,53.68h0a8.86,8.86,0,0,0,.49-4.07h0a12.05,12.05,0,0,0-1.84-5l.39-.25a12.53,12.53,0,0,1,1.91,5.17h0a9.32,9.32,0,0,1-.51,4.28h0L82,69.54h0a10.52,10.52,0,0,1-2.14,3.64A9,9,0,0,1,76,75.28h0c-2,.53-4.71-.16-6.64-.66-.68-.18-1.26-.33-1.67-.39A30.57,30.57,0,0,0,64.46,74h-.7c-.49,0-1,0-1.57.08s-1.08.08-1.62.16-1,.21-1.67.39c-1.93.5-4.61,1.19-6.64.66h0a9,9,0,0,1-3.86-2.1,10.52,10.52,0,0,1-2.14-3.64h0L39.92,53.85h0a9.32,9.32,0,0,1-.51-4.28h0a12.39,12.39,0,0,1,1.91-5.17l.39.25Z"/><path class="cls-6" d="M40.12,47.41c4.62-.12,8-2.13,10.67-6.11a2.36,2.36,0,0,0,2.59.12,9.68,9.68,0,0,0,4.81,5.14,3.73,3.73,0,0,0-.67,2.21h-.66v1c1,.36.85,1.73-.59,2.42V53c-.22.08-.62-.11-.67.24v1.34h-.77l-.11-.71-.44-.61-.29-2-.58-.68-.33-1.71h-.76L52,50.5l-.56.68-.29,2-.48.61-.29,2.3H50l-.15-.7-.39-.61-.39-2.08-.52-.65-.31-1.68h-.77l-.34,1.7-.47.54-.37,2-.5.75-.27,2.27h-.41l-.56-.86L44.36,55l-.61-.71-.33-1.74h-.78l-.29,1.75-.57.73L41.43,57l-1.3-3.23a9.21,9.21,0,0,1-.37-5,10.29,10.29,0,0,1,.36-1.34Zm2.44,12.27h0l-1-2.38,1,2.38ZM88.13,47.41a14.28,14.28,0,0,1-3.68-.51c-2.5-.71-4.76-2.3-7-5.6a2.36,2.36,0,0,1-2.59.12,9.68,9.68,0,0,1-4.81,5.14,3.73,3.73,0,0,1,.67,2.21h.66v1c-1,.36-.85,1.73.59,2.42V53c.22.08.62-.11.67.24v1.34h.77l.11-.71.44-.61.29-2,.58-.68.33-1.71h.76l.31,1.68.56.68.29,2,.48.61.29,2.3h.4l.15-.7.38-.61.4-2.08.52-.65L80,50.41h.77l.34,1.7.47.54.37,2,.5.75.27,2.27h.41l.56-.86L83.89,55l.61-.71.33-1.74h.78l.29,1.75.57.73L86.82,57l1.3-3.23a9.36,9.36,0,0,0,0-6.35ZM85.69,59.68h0l1-2.38-1,2.38Z"/><path class="cls-4" d="M40.11,47.18c.64,0,1.26-.06,1.87-.14a13.07,13.07,0,0,0,1.76-.36,10.2,10.2,0,0,0,3.51-1.8,15.65,15.65,0,0,0,3.35-3.71l.11-.17.18.09a4,4,0,0,0,1.24.43h0a1.69,1.69,0,0,0,1.12-.29l.23-.16.11.26a10.18,10.18,0,0,0,2,3.05,9.48,9.48,0,0,0,2.72,2l.25.12-.16.23a3.12,3.12,0,0,0-.47.95,3.7,3.7,0,0,0-.16,1.12V49h-.66v.58a1.14,1.14,0,0,1,.52.52,1.19,1.19,0,0,1,.12.5,1.41,1.41,0,0,1-.1.52,2.33,2.33,0,0,1-1.13,1.19v.83l-.16.06a1,1,0,0,1-.34,0,.45.45,0,0,0-.17,0V54.8H54.64l0-.2-.1-.66-.41-.55,0-.11-.28-2-.54-.62-.05-.12-.29-1.51h-.38l-.28,1.48-.05.11-.51.63-.28,2,0,.11-.43.55-.29,2.23,0,.21h-.8l0-.19-.13-.65L49.27,55l0-.08-.39-2-.48-.6,0-.1-.27-1.49h-.39l-.3,1.51,0,.11-.43.49-.36,2,0,.1-.47.7-.26,2.21,0,.21H45l-.07-.11L44.36,57l0-.1-.18-1.75-.56-.65,0-.11-.3-1.56h-.39l-.26,1.56,0,.11-.53.68L41.66,57l-.44,0-1.3-3.23h0a9.64,9.64,0,0,1-.57-3,10.2,10.2,0,0,1,.56-3.49l.05-.16Zm1.93.33c-.57.07-1.16.12-1.75.14a9.41,9.41,0,0,0-.48,3.17,8.81,8.81,0,0,0,.54,2.86h0l1,2.47.2-1.14.05-.11.53-.68.28-1.69,0-.2h1.16l0,.19L44,54.2l.56.67.06.13.19,1.76.45.7h.09l.24-2.06,0-.1.47-.71.36-2,.06-.12.43-.49.32-1.63,0-.2h1.15l0,.2.3,1.62.48.6,0,.1.39,2,.37.57,0,.08.11.51h0l.26-2.09,0-.12.44-.55.28-2,.05-.12.52-.63.3-1.62,0-.19h.19l.76,0h.2l0,.2.32,1.65.54.63.06.12.28,2,.41.56,0,.1.08.51h.34V53.19c.06-.45.35-.44.65-.43h0V52l.13-.06a1.93,1.93,0,0,0,1-1,1.12,1.12,0,0,0,.06-.35.72.72,0,0,0-.06-.29.74.74,0,0,0-.42-.35l-.15-.06V48.53h.66a4.19,4.19,0,0,1,.18-1,3.47,3.47,0,0,1,.38-.86,9.75,9.75,0,0,1-2.62-1.94,10.54,10.54,0,0,1-2-3,2,2,0,0,1-1.18.23h0a4,4,0,0,1-1.22-.39,16.32,16.32,0,0,1-3.33,3.66,10.61,10.61,0,0,1-3.68,1.87,13.66,13.66,0,0,1-1.82.38Zm.5,12.41h-.18l-.06-.14-.95-2.36h0l.43-.18,1,2.38.15.35-.38,0ZM88,47.65c-.59,0-1.18-.07-1.75-.14a13.66,13.66,0,0,1-1.82-.38,10.61,10.61,0,0,1-3.68-1.87,16.32,16.32,0,0,1-3.33-3.66,4,4,0,0,1-1.22.39A2,2,0,0,1,75,41.76a10.54,10.54,0,0,1-2,3,9.75,9.75,0,0,1-2.62,1.94,3.47,3.47,0,0,1,.38.86,4.19,4.19,0,0,1,.18,1h.66v1.38l-.15.06a.74.74,0,0,0-.42.35l-.21-.1.21.1a.72.72,0,0,0-.06.29,1.12,1.12,0,0,0,.06.35,1.93,1.93,0,0,0,1,1l.13.06v.74h0c.3,0,.59,0,.65.43v1.13h.34l.08-.51,0-.1.41-.56.28-2,.06-.12.54-.63.32-1.65,0-.2h.2l.76,0h.19l0,.19.3,1.62L77,51l0,.12.28,2,.44.55.05.12.26,2.09h0l.11-.51,0-.08.37-.57.38-2,0-.1.48-.6.3-1.62,0-.2H81l0,.2L81.33,52l.43.49.06.12.36,2,.47.71,0,.1.24,2.06H83l.45-.7L83.66,55l.06-.13.56-.67.32-1.68,0-.19H85.8l0,.2.28,1.69.53.68,0,.11.2,1.14,1-2.47h0a8.81,8.81,0,0,0,.54-2.86A9.41,9.41,0,0,0,88,47.65ZM86.27,47c.61.08,1.23.12,1.87.14h.16l0,.16a10.2,10.2,0,0,1,.56,3.49,9.64,9.64,0,0,1-.57,3h0L87,57.08l-.44,0-.34-1.88-.53-.68,0-.11-.26-1.56H85l-.3,1.56,0,.11-.56.65-.18,1.75,0,.1-.55.86-.07.11h-.75l0-.21-.25-2.21-.47-.7,0-.1-.36-2-.43-.49,0-.11-.3-1.51H80.2l-.27,1.49-.05.1-.48.6-.39,2L79,55l-.37.57-.13.65,0,.19h-.8l0-.21-.29-2.23-.43-.55-.05-.11-.28-2-.51-.63,0-.11-.28-1.48h-.38l-.29,1.51,0,.12-.54.62-.28,2,0,.11-.41.55-.1.66,0,.2H72.4V53.24a.45.45,0,0,0-.17,0,1,1,0,0,1-.34,0l-.16-.06v-.83a2.33,2.33,0,0,1-1.13-1.19,1.41,1.41,0,0,1-.1-.52,1.19,1.19,0,0,1,.12-.5h0a1.14,1.14,0,0,1,.52-.52V49H70.5v-.24a3.7,3.7,0,0,0-.16-1.12,3.12,3.12,0,0,0-.47-.95l-.16-.23.25-.12a9.48,9.48,0,0,0,2.72-2,10.18,10.18,0,0,0,2-3.05l.11-.26.23.16a1.68,1.68,0,0,0,1.11.29,4,4,0,0,0,1.25-.43l.18-.09.11.17A15.65,15.65,0,0,0,81,44.88a10.2,10.2,0,0,0,3.51,1.8,13.07,13.07,0,0,0,1.76.36Zm-.52,12.87h0l-.38,0,.15-.35,1-2.38.43.18h0l-1,2.36-.06.14Z"/><path class="cls-7" d="M64.12,24.47h.11l.6.08.13,0a18.65,18.65,0,0,1,3.76,1.58c1.15.4,3.09-.06,4.43.87,1.54,1.18,1.83,2.57,3.24,3.73,1.58,1.3,3.35,1.34,5.29,2.93,3.55,2.16,3.62,7.19,5.92,8.62,2.17,1.24,4.32-.4,4.12-2.15-.45-2.49-4.51-.46-1.7.79-1.91,1.43-3.51-1.56-1.06-3.18a3.38,3.38,0,0,1,4.29,1.15c1.36,2.55-.21,4.92-2.36,5.85-2.63,1-4.6-.13-6-2.16C83.1,39.12,82.22,37,80.63,36c-1.95-1.18-4.15-1.13-6-2.41-1.39-1-2.09-2.57-3.55-3.46-1.81-1.25-5.11-1.31-7-1.16-1.84-.15-5.14-.09-7,1.16C55.71,31,55,32.6,53.62,33.57c-1.85,1.28-4,1.23-6,2.41-1.59,1-2.47,3.14-4.29,6.64-1.37,2-3.34,3.12-6,2.16-2.15-.93-3.72-3.3-2.36-5.85a3.38,3.38,0,0,1,4.29-1.15c2.45,1.62.85,4.61-1.06,3.18,2.81-1.25-1.25-3.28-1.7-.79-.2,1.75,1.95,3.39,4.12,2.15C43,40.89,43,35.86,46.57,33.7c1.94-1.59,3.7-1.63,5.29-2.93,1.41-1.16,1.7-2.55,3.24-3.73,1.34-.93,3.28-.47,4.43-.87s2.37-1.52,4.59-1.7Z"/><path class="cls-4" d="M64.14,24.24h.11l.31,0,.3,0h.08l.08,0a9.39,9.39,0,0,1,2.72,1.08,8.86,8.86,0,0,0,1.06.5,5.43,5.43,0,0,0,1.56.2,5.49,5.49,0,0,1,2.92.7h0a8.15,8.15,0,0,1,1.78,2,7.72,7.72,0,0,0,1.46,1.72,8.7,8.7,0,0,0,2.33,1.27,11.21,11.21,0,0,1,3,1.66c2,1.24,2.93,3.35,3.74,5.24.63,1.45,1.2,2.77,2.15,3.37a2.81,2.81,0,0,0,1.72.38,2.45,2.45,0,0,0,1.08-.38,2.27,2.27,0,0,0,.73-.78h0a1.81,1.81,0,0,0,.25-1.14,1.09,1.09,0,0,0-.86-1,1.47,1.47,0,0,0-1,.19.64.64,0,0,0-.37.57c0,.23.27.5.84.75l.37.16-.32.25a1.64,1.64,0,0,1-1.82.24,1.6,1.6,0,0,1-.58-.55,2,2,0,0,1-.27-.81,2.68,2.68,0,0,1,1.34-2.46l0,0a3.7,3.7,0,0,1,2.52-.23,3.49,3.49,0,0,1,2.06,1.48h0l.17.36h0a4,4,0,0,1,0,3.34,5.11,5.11,0,0,1-2.24,2.29L91,45h0a4.94,4.94,0,0,1-3.44.1h0a5.94,5.94,0,0,1-2.79-2.36v0l-.81-1.58c-1.3-2.54-2.12-4.16-3.4-5h0a11.19,11.19,0,0,0-2.82-1.09,10.3,10.3,0,0,1-3.19-1.33,8.88,8.88,0,0,1-1.71-1.7A7.56,7.56,0,0,0,71,30.32h0a6.82,6.82,0,0,0-2.75-1,17.35,17.35,0,0,0-4.06-.14h0a17.35,17.35,0,0,0-4.06.14,6.82,6.82,0,0,0-2.75,1h0a7.56,7.56,0,0,0-1.83,1.74,8.88,8.88,0,0,1-1.71,1.7,10.3,10.3,0,0,1-3.19,1.33,11.19,11.19,0,0,0-2.82,1.09h0c-1.28.81-2.1,2.43-3.4,5l-.81,1.58v0a5.94,5.94,0,0,1-2.79,2.36,4.94,4.94,0,0,1-3.44-.1h0l-.4-.19a5.11,5.11,0,0,1-2.24-2.29,4,4,0,0,1,0-3.34h0c.06-.11.11-.23.18-.36h0a3.49,3.49,0,0,1,2.06-1.48,3.7,3.7,0,0,1,2.52.23l0,0A2.67,2.67,0,0,1,40.76,40a2,2,0,0,1-.27.81,1.6,1.6,0,0,1-.58.55,1.64,1.64,0,0,1-1.82-.24l-.32-.25.37-.16c.57-.25.81-.52.84-.75a.64.64,0,0,0-.37-.57,1.47,1.47,0,0,0-1-.19,1.09,1.09,0,0,0-.86,1A1.81,1.81,0,0,0,37,41.34a2.27,2.27,0,0,0,.73.78,2.45,2.45,0,0,0,1.08.38,2.81,2.81,0,0,0,1.72-.38c1-.6,1.52-1.92,2.15-3.37.81-1.89,1.72-4,3.74-5.24a11.21,11.21,0,0,1,3-1.66,8.7,8.7,0,0,0,2.33-1.27,7.72,7.72,0,0,0,1.46-1.72,8.15,8.15,0,0,1,1.78-2h0a5.49,5.49,0,0,1,2.92-.7,5.48,5.48,0,0,0,1.56-.2,8.86,8.86,0,0,0,1.06-.5,8.45,8.45,0,0,1,3.6-1.2Zm.07.48h-.09a8.26,8.26,0,0,0-3.4,1.15,9.26,9.26,0,0,1-1.12.53,6.11,6.11,0,0,1-1.69.23,5.08,5.08,0,0,0-2.67.61,7.68,7.68,0,0,0-1.68,1.9A7.83,7.83,0,0,1,52,31a9.3,9.3,0,0,1-2.44,1.34,10.36,10.36,0,0,0-2.85,1.6h0c-1.9,1.16-2.79,3.21-3.58,5-.66,1.53-1.25,2.91-2.34,3.59h0a3.26,3.26,0,0,1-2,.45,3,3,0,0,1-1.28-.46,2.82,2.82,0,0,1-.88-.94,2.32,2.32,0,0,1-.31-1.44v0a1.51,1.51,0,0,1,1.24-1.34,1.88,1.88,0,0,1,1.3.25,1.06,1.06,0,0,1,.6,1,1.33,1.33,0,0,1-.73.92,1.09,1.09,0,0,0,1,0,1.2,1.2,0,0,0,.41-.4,1.64,1.64,0,0,0,.2-.6,2.2,2.2,0,0,0-1.12-2,3.22,3.22,0,0,0-2.21-.2A3,3,0,0,0,35.21,39c-.06.11-.11.22-.16.33h0a3.5,3.5,0,0,0,0,2.94,4.61,4.61,0,0,0,2,2.08l.35.17a4.5,4.5,0,0,0,3.14.1,5.45,5.45,0,0,0,2.54-2.16l.81-1.57c1.33-2.6,2.18-4.27,3.56-5.15h0a12.17,12.17,0,0,1,2.93-1.14,9.85,9.85,0,0,0,3.06-1.26,8.82,8.82,0,0,0,1.62-1.61,8.14,8.14,0,0,1,1.94-1.85A7.41,7.41,0,0,1,60,28.86a17.58,17.58,0,0,1,4.15-.14,17.51,17.51,0,0,1,4.14.14,7.41,7.41,0,0,1,2.93,1.05,8.14,8.14,0,0,1,1.94,1.85,8.82,8.82,0,0,0,1.62,1.61,9.85,9.85,0,0,0,3.06,1.26,12.17,12.17,0,0,1,2.93,1.14h0c1.38.88,2.23,2.54,3.56,5.15.25.49.51,1,.81,1.57a5.45,5.45,0,0,0,2.54,2.16h0a4.5,4.5,0,0,0,3.14-.1l.35-.17a4.61,4.61,0,0,0,2-2.08,3.5,3.5,0,0,0,0-2.94h0c0-.11-.1-.22-.16-.33a3,3,0,0,0-1.76-1.25,3.22,3.22,0,0,0-2.21.2A2.2,2.2,0,0,0,88,40a1.48,1.48,0,0,0,.21.6,1,1,0,0,0,1.38.39,1.33,1.33,0,0,1-.73-.92,1.06,1.06,0,0,1,.6-1,1.88,1.88,0,0,1,1.3-.25A1.51,1.51,0,0,1,92,40.12v0a2.32,2.32,0,0,1-.31,1.44h0a2.82,2.82,0,0,1-.88.94,3,3,0,0,1-1.28.46,3.26,3.26,0,0,1-2-.45h0c-1.09-.68-1.68-2.06-2.34-3.59-.79-1.83-1.68-3.88-3.58-5h0a10.36,10.36,0,0,0-2.85-1.6A9.3,9.3,0,0,1,76.24,31a7.83,7.83,0,0,1-1.55-1.82A7.68,7.68,0,0,0,73,27.23a5.08,5.08,0,0,0-2.67-.61,6.11,6.11,0,0,1-1.69-.23,9.26,9.26,0,0,1-1.12-.53,9.09,9.09,0,0,0-2.61-1h-.13l-.29-.05-.29,0Z"/><path class="cls-9" d="M87.73,40.39c-1-.83.24-3.24-1.63-4.28v-.18c1.7.11,2.34-1,1.86-2.52-.87-1.48-3.31.19-1.47,1.34-2.68,0-1.85-4.36-6.51-5v-.17a1.55,1.55,0,0,0,1-2.07c-.76-1.5-3,0-1.32,1.14-2.55-.08-1.87-4.23-6.5-4.28l-.14-.13a1.61,1.61,0,0,0,.8-2.48,1,1,0,0,0-1.76.87c.17.45.8.57,1,.59a5.57,5.57,0,0,1-2.37-.08c-2.65-1-3.28-3.24-6.49-3.18h-.48c-2.95.08-3.61,2.18-6.18,3.18a5.57,5.57,0,0,1-2.37.08c.16,0,.79-.14,1-.59a1,1,0,0,0-1.76-.87c-.62,1,0,1.56.56,2.36l.17.25c-4.7,0-4,4.19-6.57,4.28C50.25,27.48,48,26,47.22,27.5a1.56,1.56,0,0,0,1.11,2.09v.14c-4.72.62-3.87,5-6.57,5,1.84-1.15-.6-2.82-1.47-1.34-.44,1.37,0,2.43,1.43,2.52l.29.27c-1.66,1.08-.52,3.38-1.48,4.19l-.06-.06a1.33,1.33,0,0,1-2.23.63c2.81-1.25-1.25-3.28-1.7-.79-.2,1.75,1.95,3.39,4.12,2.15C43,40.89,43,35.86,46.57,33.7c1.94-1.59,3.7-1.63,5.29-2.93,1.41-1.16,1.7-2.55,3.24-3.73,1.34-.93,3.28-.47,4.43-.87s2.2-1.37,4.17-1.65l.51,0c2.18.2,3.42,1.3,4.51,1.69s3.09-.06,4.43.87c1.54,1.18,1.83,2.57,3.24,3.73,1.58,1.3,3.35,1.34,5.29,2.93,3.55,2.16,3.62,7.19,5.92,8.62,2.17,1.24,4.32-.4,4.12-2.15-.45-2.49-4.51-.46-1.7.79a1.33,1.33,0,0,1-2.23-.63l-.06.06Z"/><path class="cls-4" d="M87.59,40.57A2.35,2.35,0,0,1,87,38.73c0-1.38-.33-2.34-1.86-2.71a4.69,4.69,0,0,0,2.39-.74,1.19,1.19,0,0,0,.28-.52c.19-.71,0-1.83-1-1.68h0a1.08,1.08,0,0,0-.53.24.69.69,0,0,0-.25.43c0,.25.13.53.56.8L86.5,35c-1.32,0-1.85-.92-2.47-2-1.55-2.63-3-2.71-5.71-3.11A5,5,0,0,0,80,29.3a1.49,1.49,0,0,0,.62-.46,1.27,1.27,0,0,0,.25-.59,1.29,1.29,0,0,0-.08-.65.82.82,0,0,0-.8-.5,1,1,0,0,0-.48.19.6.6,0,0,0-.22.37c0,.23.11.51.52.78l-.14.44c-1.2,0-1.73-.86-2.33-1.78-1.58-2.41-3-2.31-5.55-2.42a3.35,3.35,0,0,0,1.94-1.3,1.32,1.32,0,0,0,.19-.61,1.53,1.53,0,0,0-.26-.87.94.94,0,0,0-.68-.3.71.71,0,0,0-.38.12.77.77,0,0,0-.26.28.63.63,0,0,0,0,.54h0a.58.58,0,0,0,.23.26h0a1.53,1.53,0,0,0,.53.17l.09.45a2.73,2.73,0,0,1-1.13.12,6.23,6.23,0,0,1-1.44-.19h0a9.31,9.31,0,0,1-2.52-1.59h0a5.43,5.43,0,0,0-3.87-1.58h-.48a5.48,5.48,0,0,0-3.58,1.58,9.31,9.31,0,0,1-2.52,1.59h0a6.23,6.23,0,0,1-1.44.19,2.73,2.73,0,0,1-1.13-.12l.09-.45a1.53,1.53,0,0,0,.53-.17.58.58,0,0,0,.23-.26h0a.63.63,0,0,0,0-.54.77.77,0,0,0-.26-.28.71.71,0,0,0-.38-.12.94.94,0,0,0-.68.3,1.53,1.53,0,0,0-.26.87,1.32,1.32,0,0,0,.19.61,1.64,1.64,0,0,0,.5.48h0a5.38,5.38,0,0,0,1.45.82c-2.6.11-4,0-5.54,2.42-.61.92-1.14,1.74-2.34,1.78l-.14-.44c.41-.27.55-.55.52-.78a.6.6,0,0,0-.22-.37,1,1,0,0,0-.48-.19.82.82,0,0,0-.8.5,1.19,1.19,0,0,0-.08.65,1.27,1.27,0,0,0,.25.59,1.49,1.49,0,0,0,.62.46c.61.26.82.23,1.7.6-2.68.4-4.15.48-5.7,3.11-.62,1.06-1.15,2-2.47,2l-.12-.44c.43-.27.58-.55.55-.8a.63.63,0,0,0-.24-.43,1.08,1.08,0,0,0-.53-.24h0a.89.89,0,0,0-.92.43,2.39,2.39,0,0,0-.08,1.25,1.19,1.19,0,0,0,.28.52,1.31,1.31,0,0,0,.55.33h0a6.18,6.18,0,0,0,1.88.4c-1.55.38-1.85,1.3-1.9,2.72a2.35,2.35,0,0,1-.56,1.84l0,0a2.5,2.5,0,0,1-.21.35,1.46,1.46,0,0,1-.69.52,1.5,1.5,0,0,1-.94,0,2.32,2.32,0,0,1-.68-.35l-.32-.25.37-.16c.57-.25.81-.52.84-.75a.64.64,0,0,0-.37-.57,1.47,1.47,0,0,0-1-.19,1.09,1.09,0,0,0-.86,1A1.81,1.81,0,0,0,37,41.34a2.27,2.27,0,0,0,.73.78,2.45,2.45,0,0,0,1.08.38,2.81,2.81,0,0,0,1.72-.38c1-.6,1.52-1.92,2.15-3.37.81-1.89,1.72-4,3.74-5.24a11.21,11.21,0,0,1,3-1.66,8.7,8.7,0,0,0,2.33-1.27,7.72,7.72,0,0,0,1.46-1.72,8.15,8.15,0,0,1,1.78-2h0a5.49,5.49,0,0,1,2.92-.7,5.48,5.48,0,0,0,1.56-.2,8.86,8.86,0,0,0,1.06-.5,8.91,8.91,0,0,1,3.16-1.15,3.55,3.55,0,0,1,.41,0h.15a8.64,8.64,0,0,1,3.52,1.19,8.11,8.11,0,0,0,1,.5,5.43,5.43,0,0,0,1.56.2,5.49,5.49,0,0,1,2.92.7h0a8.15,8.15,0,0,1,1.78,2,7.72,7.72,0,0,0,1.46,1.72,8.7,8.7,0,0,0,2.33,1.27,11.21,11.21,0,0,1,3,1.66c2,1.24,2.93,3.35,3.74,5.24.63,1.45,1.2,2.77,2.15,3.37a2.81,2.81,0,0,0,1.72.38,2.45,2.45,0,0,0,1.08-.38,2.27,2.27,0,0,0,.73-.78h0a1.81,1.81,0,0,0,.25-1.14,1.09,1.09,0,0,0-.86-1,1.47,1.47,0,0,0-1,.19.64.64,0,0,0-.37.57c0,.23.27.5.84.75l.37.16-.32.25a2.32,2.32,0,0,1-.68.35A1.49,1.49,0,0,1,87.84,41h0a2.5,2.5,0,0,1-.21-.35l0,0Zm-.09-1.86A2.85,2.85,0,0,0,87.74,40l.15-.18.12.4a1.38,1.38,0,0,0,.21.42h0a1,1,0,0,0,1.13.37l.19-.07a1.33,1.33,0,0,1-.73-.92,1.06,1.06,0,0,1,.6-1,1.88,1.88,0,0,1,1.3-.25A1.51,1.51,0,0,1,92,40.12v0a2.32,2.32,0,0,1-.31,1.44h0a2.82,2.82,0,0,1-.88.94,3,3,0,0,1-1.28.46,3.26,3.26,0,0,1-2-.45h0c-1.09-.68-1.68-2.06-2.34-3.59-.79-1.83-1.68-3.88-3.58-5h0a10.36,10.36,0,0,0-2.85-1.6A9.3,9.3,0,0,1,76.24,31a7.83,7.83,0,0,1-1.55-1.82A7.68,7.68,0,0,0,73,27.23a5.08,5.08,0,0,0-2.67-.61,6.11,6.11,0,0,1-1.69-.23,9.26,9.26,0,0,1-1.12-.53,8.48,8.48,0,0,0-3.32-1.14h-.1a1.87,1.87,0,0,0-.38,0,8.43,8.43,0,0,0-3,1.1,9.26,9.26,0,0,1-1.12.53,6.11,6.11,0,0,1-1.69.23,5.08,5.08,0,0,0-2.67.61,7.68,7.68,0,0,0-1.68,1.9A7.83,7.83,0,0,1,52,31a9.3,9.3,0,0,1-2.44,1.34,10.36,10.36,0,0,0-2.85,1.6h0c-1.9,1.16-2.79,3.21-3.58,5-.66,1.53-1.25,2.91-2.34,3.59h0a3.26,3.26,0,0,1-2,.45,3,3,0,0,1-1.28-.46,2.82,2.82,0,0,1-.88-.94,2.32,2.32,0,0,1-.31-1.44v0a1.51,1.51,0,0,1,1.24-1.34,1.88,1.88,0,0,1,1.3.25,1.06,1.06,0,0,1,.6,1,1.33,1.33,0,0,1-.73.92l.19.07a1,1,0,0,0,.65,0,1.11,1.11,0,0,0,.49-.37,1.17,1.17,0,0,0,.2-.42l.12-.4.15.18a2.85,2.85,0,0,0,.24-1.33,3.18,3.18,0,0,1,.88-2.54,2.76,2.76,0,0,1-.53-.11h0a1.78,1.78,0,0,1-.74-.45,1.63,1.63,0,0,1-.4-.73c-.27-1,.15-2.48,1.51-2.27h0a1.49,1.49,0,0,1,.77.36,1.14,1.14,0,0,1,.4.74,1,1,0,0,1-.15.63,3.77,3.77,0,0,0,1.32-1.58,5.56,5.56,0,0,1,3.93-3.17,1.9,1.9,0,0,1-.51-.46,1.72,1.72,0,0,1-.35-.81,1.65,1.65,0,0,1,.11-.91v0a1.29,1.29,0,0,1,1.25-.76,1.38,1.38,0,0,1,.74.29,1.08,1.08,0,0,1,.39.68,1,1,0,0,1-.12.61,3.8,3.8,0,0,0,1.23-1.38,4.84,4.84,0,0,1,4.07-2.69,2.05,2.05,0,0,1-.47-.51,1.63,1.63,0,0,1-.26-.84,2,2,0,0,1,.35-1.17l0,0a1.38,1.38,0,0,1,1-.46,1.14,1.14,0,0,1,.61.2,1.24,1.24,0,0,1,.43.45,1.15,1.15,0,0,1,.06.93h0a.81.81,0,0,1-.25.37h.09a5.62,5.62,0,0,0,1.24-.14l0,0a8.65,8.65,0,0,0,2.4-1.51,5.87,5.87,0,0,1,3.85-1.68h.49a5.76,5.76,0,0,1,4.17,1.68h0a8.65,8.65,0,0,0,2.4,1.51l0,0a5.62,5.62,0,0,0,1.24.14h.09a.78.78,0,0,1-.25-.36h0a1.14,1.14,0,0,1,.06-.94,1.24,1.24,0,0,1,.43-.45,1.14,1.14,0,0,1,.61-.2,1.38,1.38,0,0,1,1,.46l0,0a2,2,0,0,1,.35,1.17,1.63,1.63,0,0,1-.26.84,2.05,2.05,0,0,1-.47.51,4.84,4.84,0,0,1,4.07,2.69A3.8,3.8,0,0,0,79,28.21a1,1,0,0,1-.12-.61,1.1,1.1,0,0,1,.39-.68,1.38,1.38,0,0,1,.74-.29,1.29,1.29,0,0,1,1.25.76v0a1.65,1.65,0,0,1,.11.91,1.72,1.72,0,0,1-.35.81,1.9,1.9,0,0,1-.51.46,5.52,5.52,0,0,1,3.92,3.17,3.78,3.78,0,0,0,1.33,1.58,1,1,0,0,1-.15-.63A1.14,1.14,0,0,1,86,33a1.49,1.49,0,0,1,.77-.36h0c1.37-.21,1.79,1.23,1.52,2.27a1.63,1.63,0,0,1-.4.73,1.78,1.78,0,0,1-.74.45h0a2.76,2.76,0,0,1-.53.11,3.18,3.18,0,0,1,.88,2.54Z"/><polygon class="cls-2" points="60.3 15.18 61.65 10.98 58.16 8.54 62.53 8.54 64.11 3.89 65.73 8.54 70.08 8.54 66.61 10.98 67.95 15.18 64.11 12.76 60.3 15.18 60.3 15.18"/><polygon class="cls-6" points="61.06 14.2 64.11 12.25 67.18 14.2 66.11 10.83 68.82 8.95 65.43 8.95 64.11 5.14 62.81 8.95 59.42 8.95 62.13 10.83 61.06 14.2 61.06 14.2"/><path class="cls-4" d="M52.49,76.87l1,.17a.88.88,0,0,0,0,.16l-.13,0a.13.13,0,0,0-.11,0,.23.23,0,0,0-.05.11c0,.26-.09.53-.13.79s-.1.53-.14.79a.71.71,0,0,1-.29.48.63.63,0,0,1-.56.08.82.82,0,0,1-.46-.32.66.66,0,0,1-.11-.48.44.44,0,0,1,.16-.29.26.26,0,0,1,.25-.07.28.28,0,0,1,.19.13.43.43,0,0,1,0,.25.35.35,0,0,1-.1.19.17.17,0,0,1-.15,0l-.05,0-.07,0a0,0,0,0,0,0,0s0,0,0,0a.25.25,0,0,0,.05.18.52.52,0,0,0,.26.17.32.32,0,0,0,.3-.07.64.64,0,0,0,.16-.37c0-.26.1-.53.14-.79s.09-.53.14-.8a.16.16,0,0,0,0-.12.12.12,0,0,0-.08,0l-.21,0a.88.88,0,0,1,0-.16Zm2.38.28c.08.42.16.84.23,1.26s.15.84.23,1.26a.57.57,0,0,0,.06.15.23.23,0,0,0,.1.05h.08a.88.88,0,0,0,0,.17l-1-.15a.88.88,0,0,1,0-.16h.09a.25.25,0,0,0,.16,0,.08.08,0,0,0,0-.07.17.17,0,0,0,0-.1c0-.17-.07-.35-.1-.52L54,78.93l-.11.21a1.16,1.16,0,0,0-.08.2.28.28,0,0,0,.05.2.2.2,0,0,0,.17.1h.07a1.11,1.11,0,0,0,0,.17q-.41-.06-.81-.15a.78.78,0,0,0,0-.16h0a.15.15,0,0,0,.14,0,.46.46,0,0,0,.17-.19l.54-1.07.54-1.1.16,0Zm-.33.64-.48,1,.68.1c-.07-.35-.13-.71-.2-1.07Zm1.26-.47.86.06,0,.17h-.08c-.05,0-.09,0-.11,0a.09.09,0,0,0,0,.06v.08c0,.27.09.54.14.81s.09.53.13.8l.26-.68c.08-.23.16-.45.25-.68,0-.08,0-.15,0-.23a.19.19,0,0,0,0-.1.22.22,0,0,0-.12-.05h-.1c0-.06,0-.12,0-.17l1,.06v.17h-.09a.26.26,0,0,0-.14,0,.14.14,0,0,0,0,.08.07.07,0,0,0,0,0c0,.27.09.53.13.8s.09.52.14.79l.24-.68c.08-.22.16-.45.25-.67l0-.12a.23.23,0,0,0,0-.17.19.19,0,0,0-.12-.07h-.06c0-.06,0-.11,0-.16l.7,0c0,.06,0,.11,0,.16a.34.34,0,0,0-.2.06.4.4,0,0,0-.11.18c-.14.37-.28.73-.42,1.11s-.27.74-.41,1.12h-.17c-.06-.32-.11-.63-.16-1s-.11-.63-.16-.94c-.12.31-.24.62-.35.92s-.23.62-.34.93h-.18l-.21-1.24L56,77.64a.23.23,0,0,0,0-.11.12.12,0,0,0-.08,0h-.07a1,1,0,0,1,0-.17Zm4.25.14.33,1.13c.11.37.23.74.34,1.1a.26.26,0,0,0,.07.13.16.16,0,0,0,.11,0H61A.81.81,0,0,1,61,80l-1,0a.81.81,0,0,0,0-.16h.1a.21.21,0,0,0,.15,0s0,0,0-.07a.28.28,0,0,0,0-.09c0-.15-.1-.31-.14-.46l-.81,0-.09.22c0,.1-.05.16-.06.21a.26.26,0,0,0,.06.18.29.29,0,0,0,.19.06h.07a.81.81,0,0,0,0,.16l-.82,0a.86.86,0,0,1,0-.16h.05a.27.27,0,0,0,.14-.07.55.55,0,0,0,.14-.22l.45-1.11.45-1.09Zm-.27.64c-.14.32-.27.65-.41,1l.69,0c-.1-.31-.19-.63-.28-1Zm1.36.94.92,0,0,.3-.91,0c0-.11,0-.21,0-.31Zm1.18-1.51c.62,0,1.25,0,1.88,0,0,.3,0,.6,0,.9h-.13A1.68,1.68,0,0,0,64,78a.54.54,0,0,0-.16-.23.35.35,0,0,0-.21-.07.13.13,0,0,0-.1,0,.1.1,0,0,0,0,.08c0,.31,0,.61,0,.92s0,.61,0,.91a.12.12,0,0,0,0,.09.09.09,0,0,0,.07,0h.24v.15l-1.15,0v-.15h.23a.19.19,0,0,0,.09,0,.12.12,0,0,0,0-.09c0-.3,0-.61,0-.91s0-.61,0-.92a.12.12,0,0,0,0-.09.15.15,0,0,0-.1,0c-.25,0-.42.25-.52.76h-.12l.06-.91Zm2.14,0c.63,0,1.26,0,1.88,0l.06.85h-.13a1.33,1.33,0,0,0-.12-.44.39.39,0,0,0-.18-.2.59.59,0,0,0-.29-.08h-.29a.13.13,0,0,0-.1,0,.11.11,0,0,0,0,.08c0,.28,0,.55,0,.83h.1a.33.33,0,0,0,.27-.1.6.6,0,0,0,.11-.35h.13c0,.19,0,.38,0,.56s0,.37,0,.56h-.13a.64.64,0,0,0-.12-.39.34.34,0,0,0-.29-.12h-.09c0,.3,0,.59,0,.89a.1.1,0,0,0,0,.08.26.26,0,0,0,.14,0h.25a.53.53,0,0,0,.44-.16.94.94,0,0,0,.2-.57h.13c0,.31,0,.62,0,.92-.65,0-1.3-.07-2-.08v-.15h.2a.1.1,0,0,0,.09,0,.12.12,0,0,0,0-.1c0-.3,0-.61,0-.91s0-.61,0-.91a.13.13,0,0,0,0-.09l-.12,0h-.17a.76.76,0,0,1,0-.15Zm2.28,0h.66c.22.28.43.56.64.85s.42.59.64.88c0-.2,0-.39,0-.59s0-.4,0-.6a.43.43,0,0,0-.1-.28.35.35,0,0,0-.24-.12.76.76,0,0,1,0-.15H69a.86.86,0,0,1,0,.16.29.29,0,0,0-.23.12.45.45,0,0,0,0,.28c0,.34,0,.67,0,1s0,.67.07,1h-.17c-.24-.35-.49-.69-.73-1s-.48-.66-.72-1l0,.68c0,.22,0,.45,0,.67a.54.54,0,0,0,.12.35.3.3,0,0,0,.23.11h0V80l-.87,0a.76.76,0,0,1,0-.15h.06a.26.26,0,0,0,.21-.11.56.56,0,0,0,.07-.3c0-.27,0-.54,0-.8s0-.53-.05-.8a.33.33,0,0,0-.26-.14h-.1v-.15ZM71,77.35h.1c0,.35.1.71.16,1.06h-.13a1.65,1.65,0,0,0-.35-.67.51.51,0,0,0-.41-.19.42.42,0,0,0-.29.14.78.78,0,0,0-.17.39,2.26,2.26,0,0,0,0,.7,3.6,3.6,0,0,0,.13.74.78.78,0,0,0,.24.36.4.4,0,0,0,.31.11.38.38,0,0,0,.33-.16.59.59,0,0,0,.09-.43l0-.24a.12.12,0,0,0,0-.1.1.1,0,0,0-.08,0h-.23s0-.11,0-.16l1,0s0,.11,0,.16h-.13s-.08,0-.09,0a.11.11,0,0,0,0,.1l.09,1h-.11l-.23-.44a.74.74,0,0,1-.25.35.57.57,0,0,1-.37.12A1,1,0,0,1,70,80a1.15,1.15,0,0,1-.41-.46,1.6,1.6,0,0,1-.2-.7,1.51,1.51,0,0,1,.2-1,.91.91,0,0,1,.72-.44.73.73,0,0,1,.3,0,1.1,1.1,0,0,1,.29.19c0-.09.06-.18.1-.28Zm1.82-.15c.18.39.37.78.55,1.16l.55,1.14a.38.38,0,0,0,.1.13.13.13,0,0,0,.11,0h.08l0,.17-1,.14,0-.17h.1a.37.37,0,0,0,.15,0,.15.15,0,0,0,0-.18c-.07-.16-.15-.32-.23-.48l-.79.1a1.89,1.89,0,0,0,0,.23.63.63,0,0,0,0,.22.23.23,0,0,0,.09.18.27.27,0,0,0,.2.06h.06l0,.17-.81.08a.88.88,0,0,1,0-.17h0a.18.18,0,0,0,.13-.08.54.54,0,0,0,.1-.23l.24-1.19.24-1.2.16,0Zm-.14.71c-.08.36-.15.71-.22,1.06l.68-.08c-.15-.32-.31-.65-.46-1ZM74,77.15,75,77l0,.16-.15,0a.09.09,0,0,0-.08,0,.09.09,0,0,0,0,.09c0,.29.09.57.14.85l.81-.15c0-.26-.1-.52-.14-.79a.17.17,0,0,0-.06-.12.12.12,0,0,0-.11,0l-.12,0,0-.16,1-.14,0,.16-.14,0a.1.1,0,0,0-.09,0,.14.14,0,0,0,0,.11c.06.32.11.63.17.94s.11.61.17.91a.19.19,0,0,0,0,.11.12.12,0,0,0,.1,0l.15,0,0,.15-1,.25,0-.16.15,0a.12.12,0,0,0,.08,0,.23.23,0,0,0,0-.12c-.06-.29-.11-.59-.16-.89l-.81.16c0,.31.11.62.16.92a.19.19,0,0,0,0,.1.06.06,0,0,0,.07,0l.17,0,0,.16-1,.23,0-.16.16,0s.06,0,.07,0a.16.16,0,0,0,0-.12c-.06-.32-.12-.65-.17-1s-.11-.65-.17-1a.27.27,0,0,0,0-.13.16.16,0,0,0-.12,0l-.12,0,0-.16Z"/><path class="cls-7" d="M64.13,65.63c-1.43,0-3.88,1.91-5.08,2.33a5.34,5.34,0,0,1-1.94.4c-2.4-.16-3.59-1.56-5.34-1.48-2.23.08-3.28,1.87-5.48,2.15l-.42-1c2.53-.25,3.58-2.16,5.9-2.24,1.75-.08,2.94,1.32,5.34,1.48A4.14,4.14,0,0,0,58.35,67c1.4-.38,4.08-2.55,5.78-2.55S68.5,66.66,69.9,67a4.14,4.14,0,0,0,1.24.18c2.4-.16,3.59-1.56,5.34-1.48,2.32.08,3.37,2,5.9,2.24L82,69c-2.2-.28-3.25-2.07-5.48-2.15-1.75-.08-2.94,1.32-5.34,1.48A5.34,5.34,0,0,1,69.2,68c-1.2-.42-3.65-2.32-5.07-2.33ZM47.14,71a9.94,9.94,0,0,0,.53.93c1.37-.62,2.39-1.68,4.1-1.74s2.94,1.32,5.34,1.47a5.12,5.12,0,0,0,1.94-.39c1.2-.43,3.65-2.32,5.08-2.34S68,70.81,69.2,71.24a5.12,5.12,0,0,0,1.94.39c2.4-.15,3.59-1.55,5.34-1.47s2.73,1.12,4.1,1.74a9.94,9.94,0,0,0,.53-.93c-1.69-.61-2.74-1.89-4.63-2s-2.94,1.32-5.34,1.47a3.83,3.83,0,0,1-1.24-.17c-1.4-.38-4.08-2.55-5.77-2.55s-4.38,2.17-5.78,2.55a3.83,3.83,0,0,1-1.24.17c-2.4-.15-3.59-1.55-5.34-1.47s-2.94,1.34-4.63,2Zm1.49,2.11a6.82,6.82,0,0,0,.82.67A4.82,4.82,0,0,1,51.77,73c1.75-.08,2.94,1.32,5.34,1.47a5.12,5.12,0,0,0,1.94-.39c1.2-.43,3.65-2.32,5.08-2.33s3.87,1.9,5.07,2.33a5.12,5.12,0,0,0,1.94.39c2.4-.15,3.59-1.55,5.34-1.47a4.82,4.82,0,0,1,2.32.74,6.82,6.82,0,0,0,.82-.67,6.34,6.34,0,0,0-3.14-1.21c-1.75-.08-2.94,1.32-5.34,1.48a4.14,4.14,0,0,1-1.24-.18c-1.4-.38-4.08-2.55-5.77-2.55s-4.38,2.17-5.78,2.55a4.14,4.14,0,0,1-1.24.18c-2.4-.16-3.59-1.56-5.34-1.48a6.34,6.34,0,0,0-3.14,1.21Z"/><path class="cls-4" d="M64.13,65.88a8.69,8.69,0,0,0-3.27,1.41,11.94,11.94,0,0,1-1.74.91,7.73,7.73,0,0,1-1,.3h0a3.86,3.86,0,0,1-1,.11h0a8.22,8.22,0,0,1-3-.87,5.06,5.06,0,0,0-2.29-.61h0a5.48,5.48,0,0,0-2.76,1,6.66,6.66,0,0,1-2.69,1.11l-.17,0-.07-.17-.42-1-.13-.31.32,0a6.62,6.62,0,0,0,2.91-1.15,5.94,5.94,0,0,1,3-1.1,5.5,5.5,0,0,1,2.49.65,8,8,0,0,0,2.87.83h0a2.73,2.73,0,0,0,.57,0,4.76,4.76,0,0,0,.61-.13h0a11.32,11.32,0,0,0,2.06-1,9.15,9.15,0,0,1,3.77-1.54,9.17,9.17,0,0,1,3.76,1.54,11.32,11.32,0,0,0,2.06,1h0a4.76,4.76,0,0,0,.61.13,2.73,2.73,0,0,0,.57,0h0A8,8,0,0,0,74,66.14a5.5,5.5,0,0,1,2.49-.65,5.94,5.94,0,0,1,3,1.1,6.62,6.62,0,0,0,2.91,1.15l.32,0-.13.31-.42,1-.07.17-.17,0a6.71,6.71,0,0,1-2.69-1.11,5.48,5.48,0,0,0-2.76-1h0a5.06,5.06,0,0,0-2.29.61,8.22,8.22,0,0,1-3,.87h0a3.86,3.86,0,0,1-1-.11h0a7.73,7.73,0,0,1-1-.3,11.94,11.94,0,0,1-1.74-.91,8.72,8.72,0,0,0-3.26-1.41Zm-3.49,1a8.91,8.91,0,0,1,3.48-1.47h0a8.91,8.91,0,0,1,3.48,1.47,10.91,10.91,0,0,0,1.66.87,8,8,0,0,0,1,.29h0a3.55,3.55,0,0,0,.9.1h0A8,8,0,0,0,74,67.28a5.5,5.5,0,0,1,2.49-.65,5.89,5.89,0,0,1,3,1.1,6.71,6.71,0,0,0,2.34,1l.23-.57A7.55,7.55,0,0,1,79.26,67a5.62,5.62,0,0,0-2.78-1h0a5.06,5.06,0,0,0-2.29.61,8.22,8.22,0,0,1-3,.87h0a4.87,4.87,0,0,1-.66,0,5.42,5.42,0,0,1-.65-.14h0a11.54,11.54,0,0,1-2.17-1.07,9,9,0,0,0-3.54-1.48,9,9,0,0,0-3.55,1.48,11.54,11.54,0,0,1-2.17,1.07h0a5.42,5.42,0,0,1-.65.14,4.87,4.87,0,0,1-.66,0h0a8.22,8.22,0,0,1-3-.87A5.06,5.06,0,0,0,51.78,66h0A5.62,5.62,0,0,0,49,67a7.55,7.55,0,0,1-2.78,1.16l.23.57a6.71,6.71,0,0,0,2.34-1,5.89,5.89,0,0,1,3-1.1,5.5,5.5,0,0,1,2.49.65,8,8,0,0,0,2.87.83h0A3.55,3.55,0,0,0,58,68h0a8,8,0,0,0,1-.29,10.91,10.91,0,0,0,1.66-.87ZM47.48,71.11l.12.22a2.26,2.26,0,0,0,.16.26c.35-.17.69-.38,1-.58a5.89,5.89,0,0,1,3-1.1,5.5,5.5,0,0,1,2.49.65,8,8,0,0,0,2.87.83h0a3.55,3.55,0,0,0,.9-.1h0A8,8,0,0,0,59,71a11.91,11.91,0,0,0,1.66-.87,8.77,8.77,0,0,1,3.48-1.47h0a8.77,8.77,0,0,1,3.48,1.47,11.91,11.91,0,0,0,1.66.87,8,8,0,0,0,1,.29h0a3.55,3.55,0,0,0,.9.1h0A8,8,0,0,0,74,70.56a5.5,5.5,0,0,1,2.49-.65,5.89,5.89,0,0,1,3,1.1c.33.2.67.41,1,.58a2.26,2.26,0,0,0,.16-.26l.12-.22a12.66,12.66,0,0,1-1.51-.8,5.53,5.53,0,0,0-2.78-1h0a5.06,5.06,0,0,0-2.29.61,8.42,8.42,0,0,1-3,.86h0a3.65,3.65,0,0,1-.66,0l-.65-.15h0a10.42,10.42,0,0,1-2.17-1.07A9.32,9.32,0,0,0,64.13,68a9.29,9.29,0,0,0-3.55,1.48,10.42,10.42,0,0,1-2.17,1.07h0l-.65.15a3.65,3.65,0,0,1-.66,0h0a8.42,8.42,0,0,1-3-.86,5.06,5.06,0,0,0-2.29-.61h0a5.53,5.53,0,0,0-2.78,1,12.66,12.66,0,0,1-1.51.8Zm-.28.48c-.09-.16-.17-.32-.26-.5l-.13-.26.26-.09a10,10,0,0,0,1.69-.87,5.94,5.94,0,0,1,3-1.1,5.5,5.5,0,0,1,2.49.65,8,8,0,0,0,2.87.83h0a3.64,3.64,0,0,0,.57,0,4.76,4.76,0,0,0,.61-.13h0a10.83,10.83,0,0,0,2.06-1,9.26,9.26,0,0,1,3.77-1.53,9.28,9.28,0,0,1,3.76,1.53,10.83,10.83,0,0,0,2.06,1h0a4.76,4.76,0,0,0,.61.13,3.64,3.64,0,0,0,.57,0h0A8,8,0,0,0,74,69.42a5.5,5.5,0,0,1,2.49-.65,5.94,5.94,0,0,1,3,1.1,10,10,0,0,0,1.69.87l.26.09-.13.26c-.09.18-.17.34-.26.5l-.28.46-.11.16-.17-.08a11.44,11.44,0,0,1-1.25-.68,5.39,5.39,0,0,0-2.76-1h0a5.06,5.06,0,0,0-2.29.61,8.42,8.42,0,0,1-3,.86h0a3.85,3.85,0,0,1-1-.1h0a9,9,0,0,1-1-.3,13,13,0,0,1-1.74-.91,8.76,8.76,0,0,0-3.26-1.42,8.73,8.73,0,0,0-3.27,1.42,13,13,0,0,1-1.74.91,9,9,0,0,1-1,.3h0a3.85,3.85,0,0,1-1,.1h0a8.42,8.42,0,0,1-3-.86,5.06,5.06,0,0,0-2.29-.61h0a5.47,5.47,0,0,0-2.76,1,10,10,0,0,1-1.25.69l-.17.08-.11-.16-.28-.46ZM49,73.13l.12.1h0l.3.23a6.82,6.82,0,0,1,1-.45,4.12,4.12,0,0,1,1.31-.25,5.5,5.5,0,0,1,2.49.65,8,8,0,0,0,2.87.83h0a3.55,3.55,0,0,0,.9-.1,8,8,0,0,0,1-.29A11.91,11.91,0,0,0,60.64,73a8.77,8.77,0,0,1,3.48-1.47h0A8.77,8.77,0,0,1,67.61,73a11.91,11.91,0,0,0,1.66.87,8,8,0,0,0,1,.29,3.5,3.5,0,0,0,.9.1h0A8,8,0,0,0,74,73.41a5.5,5.5,0,0,1,2.49-.65A4.18,4.18,0,0,1,77.8,73a6.82,6.82,0,0,1,1,.45l.3-.23h0l.12-.1a5.42,5.42,0,0,0-2.73-1h0a5.06,5.06,0,0,0-2.29.61,8.42,8.42,0,0,1-3,.86h0a3.65,3.65,0,0,1-.66,0l-.65-.15h0a10.42,10.42,0,0,1-2.17-1.07,9.12,9.12,0,0,0-3.54-1.47,9.1,9.1,0,0,0-3.55,1.47,10.42,10.42,0,0,1-2.17,1.07h0l-.65.15a3.65,3.65,0,0,1-.66,0h0a8.42,8.42,0,0,1-3-.86,5.06,5.06,0,0,0-2.29-.61h0a5.42,5.42,0,0,0-2.73,1Zm-.16.5c-.14-.12-.28-.24-.4-.36L48.24,73l.28-.17.24-.15a5.94,5.94,0,0,1,3-1.1,5.5,5.5,0,0,1,2.49.65,8,8,0,0,0,2.87.83h0a3.64,3.64,0,0,0,.57,0,4.76,4.76,0,0,0,.61-.13h0a10.83,10.83,0,0,0,2.06-1,9.26,9.26,0,0,1,3.77-1.53,9.28,9.28,0,0,1,3.76,1.53,10.83,10.83,0,0,0,2.06,1h0a4.76,4.76,0,0,0,.61.13,3.64,3.64,0,0,0,.57,0h0A8,8,0,0,0,74,72.27a5.5,5.5,0,0,1,2.49-.65,5.94,5.94,0,0,1,3,1.1l.24.15L80,73l-.24.23-.4.36h0c-.15.12-.29.23-.44.33l-.12.08L78.69,74a6.48,6.48,0,0,0-1-.49,4,4,0,0,0-1.18-.22h0a5.06,5.06,0,0,0-2.29.61,8.42,8.42,0,0,1-3,.86h0a3.85,3.85,0,0,1-1-.1,9.66,9.66,0,0,1-1-.3,11.94,11.94,0,0,1-1.74-.91A8.76,8.76,0,0,0,64.13,72a8.73,8.73,0,0,0-3.27,1.42,11.94,11.94,0,0,1-1.74.91,9,9,0,0,1-1,.3,3.85,3.85,0,0,1-1,.1h0a8.42,8.42,0,0,1-3-.86,5.06,5.06,0,0,0-2.29-.61h0a4,4,0,0,0-1.18.22,6.48,6.48,0,0,0-1,.49l-.12.07L49.32,74l-.44-.33Z"/><path class="cls-6" d="M63.63,69.38h1a.26.26,0,0,1,.24.27h0a.28.28,0,0,1-.14.24v3.18a.29.29,0,0,1,.14.25h0a.25.25,0,0,1-.24.26h-1a.25.25,0,0,1-.24-.26h0a.28.28,0,0,1,.15-.25V69.89a.27.27,0,0,1-.15-.24h0a.26.26,0,0,1,.24-.27Z"/><path class="cls-6" d="M63.63,65.13h1a.26.26,0,0,1,.24.27h0a.27.27,0,0,1-.14.24v3.19a.27.27,0,0,1,.14.24h0a.26.26,0,0,1-.24.27h-1a.26.26,0,0,1-.24-.27h0a.26.26,0,0,1,.15-.24V65.64a.26.26,0,0,1-.15-.24h0a.26.26,0,0,1,.24-.27Z"/><path class="cls-6" d="M63.63,60.89h1a.25.25,0,0,1,.24.26h0a.28.28,0,0,1-.14.25v3.18a.28.28,0,0,1,.14.25h0a.25.25,0,0,1-.24.26h-1a.25.25,0,0,1-.24-.26h0a.27.27,0,0,1,.15-.25V61.4a.27.27,0,0,1-.15-.25h0a.25.25,0,0,1,.24-.26Z"/><path class="cls-6" d="M63.63,56.64h1a.26.26,0,0,1,.24.27h0a.27.27,0,0,1-.14.24v3.19a.27.27,0,0,1,.14.24h0a.26.26,0,0,1-.24.27h-1a.26.26,0,0,1-.24-.27h0a.26.26,0,0,1,.15-.24V57.15a.26.26,0,0,1-.15-.24h0a.26.26,0,0,1,.24-.27Z"/><path class="cls-6" d="M63.63,52.4h1a.25.25,0,0,1,.24.26h0a.29.29,0,0,1-.14.25v3.18a.28.28,0,0,1,.14.24h0a.26.26,0,0,1-.24.27h-1a.26.26,0,0,1-.24-.27h0a.27.27,0,0,1,.15-.24V52.91a.28.28,0,0,1-.15-.25h0a.25.25,0,0,1,.24-.26Z"/><path class="cls-6" d="M63.63,48.15h1a.26.26,0,0,1,.24.27h0a.27.27,0,0,1-.14.24v3.19a.27.27,0,0,1,.14.24h0a.25.25,0,0,1-.24.26h-1a.25.25,0,0,1-.24-.26h0a.26.26,0,0,1,.15-.24V48.66a.26.26,0,0,1-.15-.24h0a.26.26,0,0,1,.24-.27Z"/><path class="cls-6" d="M63.63,43.91h1a.25.25,0,0,1,.24.26h0a.27.27,0,0,1-.14.24V47.6a.27.27,0,0,1,.14.24h0a.26.26,0,0,1-.24.27h-1a.26.26,0,0,1-.24-.27h0a.26.26,0,0,1,.15-.24V44.41a.26.26,0,0,1-.15-.24h0a.25.25,0,0,1,.24-.26Z"/><path class="cls-6" d="M63.63,39.66h1a.26.26,0,0,1,.24.27h0a.28.28,0,0,1-.14.24v3.18a.28.28,0,0,1,.14.25h0a.25.25,0,0,1-.24.26h-1a.25.25,0,0,1-.24-.26h0a.27.27,0,0,1,.15-.25V40.17a.27.27,0,0,1-.15-.24h0a.26.26,0,0,1,.24-.27Z"/><path class="cls-6" d="M63.63,35.41h1a.26.26,0,0,1,.24.27h0a.27.27,0,0,1-.14.24v3.19a.27.27,0,0,1,.14.24h0a.26.26,0,0,1-.24.27h-1a.26.26,0,0,1-.24-.27h0a.26.26,0,0,1,.15-.24V35.92a.26.26,0,0,1-.15-.24h0a.26.26,0,0,1,.24-.27Z"/><path class="cls-6" d="M60.77,30.32a13.43,13.43,0,0,1,.69,2.78c0,.62-.11.72-.69.72s-.75-.08-.71-.68a13.63,13.63,0,0,1,.71-2.82Z"/><path class="cls-4" d="M64.12,31.35a10.52,10.52,0,0,1,.67,1.88A8.71,8.71,0,0,1,65,34.6c0,.39,0,.62-.16.77h0a.44.44,0,0,1,.11.3.46.46,0,0,1-.06.23h0a.39.39,0,0,1-.08.1v3a.39.39,0,0,1,.08.1.46.46,0,0,1,.06.23.48.48,0,0,1-.1.29.46.46,0,0,1,.1.29.4.4,0,0,1-.06.22h0a.27.27,0,0,1-.08.1v3a.39.39,0,0,1,.08.1h0a.44.44,0,0,1,.06.23.43.43,0,0,1-.1.28.48.48,0,0,1,.1.29.46.46,0,0,1-.06.23h0a.39.39,0,0,1-.08.1v3l.08.1h0a.46.46,0,0,1,.06.23.48.48,0,0,1-.1.29.48.48,0,0,1,.1.29.46.46,0,0,1-.06.23l-.08.1v3a.39.39,0,0,1,.08.1h0a.46.46,0,0,1,.06.23.48.48,0,0,1-.1.29.43.43,0,0,1,.1.28.41.41,0,0,1-.06.23h0a.39.39,0,0,1-.08.1v3a.27.27,0,0,1,.08.1.4.4,0,0,1,.06.22.46.46,0,0,1-.1.29.48.48,0,0,1,.1.29.46.46,0,0,1-.06.23.39.39,0,0,1-.08.1v3a.39.39,0,0,1,.08.1h0a.46.46,0,0,1,.06.23.48.48,0,0,1-.1.29.44.44,0,0,1,.1.29.4.4,0,0,1-.06.22h0a.39.39,0,0,1-.08.1v3a.39.39,0,0,1,.08.1h0a.41.41,0,0,1,.06.23.43.43,0,0,1-.1.28.48.48,0,0,1,.1.29.46.46,0,0,1-.06.23.39.39,0,0,1-.08.1v3l.08.1h0a.46.46,0,0,1,.06.23.48.48,0,0,1-.1.29.46.46,0,0,1,.1.29.4.4,0,0,1-.06.22h0a.27.27,0,0,1-.08.1v3a.39.39,0,0,1,.08.1h0a.44.44,0,0,1,.06.23.46.46,0,0,1-.11.3.39.39,0,0,1-.29.13h-1a.37.37,0,0,1-.28-.13h0a.47.47,0,0,1-.12-.3.42.42,0,0,1,.07-.23.39.39,0,0,1,.08-.1V70a.27.27,0,0,1-.08-.1h0a.41.41,0,0,1-.07-.22.44.44,0,0,0,0-.58.48.48,0,0,1,.07-.23h0l.08-.1v-3a.39.39,0,0,1-.08-.1h0a.48.48,0,0,1-.07-.23.44.44,0,0,1,.11-.29.39.39,0,0,1-.11-.28.42.42,0,0,1,.07-.23.39.39,0,0,1,.08-.1v-3a.39.39,0,0,1-.08-.1h0a.41.41,0,0,1-.07-.22.4.4,0,0,1,.11-.29.44.44,0,0,1-.11-.29.48.48,0,0,1,.07-.23.39.39,0,0,1,.08-.1v-3l-.08-.1a.48.48,0,0,1-.07-.23.44.44,0,0,1,.11-.29.42.42,0,0,1-.11-.29.41.41,0,0,1,.07-.22h0a.27.27,0,0,1,.08-.1V53a.39.39,0,0,1-.08-.1.45.45,0,0,1-.07-.23.39.39,0,0,1,.11-.28.44.44,0,0,1-.11-.29.45.45,0,0,1,.07-.23h0a.39.39,0,0,1,.08-.1v-3l-.08-.1h0a.48.48,0,0,1-.07-.23.44.44,0,0,1,.11-.29.44.44,0,0,1-.11-.29.48.48,0,0,1,.07-.23l.08-.1v-3a.39.39,0,0,1-.08-.1h0a.48.48,0,0,1-.07-.23.44.44,0,0,1,.11-.29.39.39,0,0,1-.11-.28.42.42,0,0,1,.07-.23.39.39,0,0,1,.08-.1v-3a.27.27,0,0,1-.08-.1h0a.41.41,0,0,1-.07-.22.42.42,0,0,1,.11-.29.44.44,0,0,1-.11-.29.48.48,0,0,1,.07-.23h0a.39.39,0,0,1,.08-.1V36a.39.39,0,0,1-.08-.1.48.48,0,0,1-.07-.23.44.44,0,0,1,.11-.29c-.16-.14-.2-.37-.18-.74a8.82,8.82,0,0,1,.25-1.38,10.55,10.55,0,0,1,.71-1.92Zm.48,38.19h-1a.05.05,0,0,0-.05,0,.11.11,0,0,0,0,.08.14.14,0,0,0,0,.06h0s0,0,0,0l.09.05v3.39l-.09,0,0,0a.11.11,0,0,0,0,.06.11.11,0,0,0,0,.08h0l.05,0h1l.06,0a.19.19,0,0,0,0-.08s0,0,0-.06h0s0,0,0,0l-.09,0V69.79l.09-.05,0,0h0a.13.13,0,0,0,0-.06.19.19,0,0,0,0-.08.09.09,0,0,0-.06,0Zm0-4.24h-1l-.05,0a.11.11,0,0,0,0,.08.11.11,0,0,0,0,.06h0l0,0,.09,0v3.39l-.09,0,0,0h0a.14.14,0,0,0,0,.06.11.11,0,0,0,0,.08.05.05,0,0,0,.05,0h1a.09.09,0,0,0,.06,0,.19.19,0,0,0,0-.08.13.13,0,0,0,0-.06h0a.08.08,0,0,0,0,0l-.09,0V65.54l.09,0s0,0,0,0a.13.13,0,0,0,0-.06.19.19,0,0,0,0-.08l-.06,0Zm0-4.25h-1a.05.05,0,0,0-.05,0,.1.1,0,0,0,0,.08.14.14,0,0,0,0,.06h0l0,0,.09,0v3.38l-.09,0,0,0a.14.14,0,0,0,0,.07.09.09,0,0,0,0,.07.05.05,0,0,0,.05,0h1a.09.09,0,0,0,.06,0,.14.14,0,0,0,0-.07.15.15,0,0,0,0-.07h0l0,0-.09,0V61.3l.09,0,0,0h0a.13.13,0,0,0,0-.06.15.15,0,0,0,0-.08.09.09,0,0,0-.06,0Zm0-4.24h-1l-.05,0a.11.11,0,0,0,0,.08.14.14,0,0,0,0,.06l0,0,.09,0v3.39l-.09,0,0,0a.14.14,0,0,0,0,.06.11.11,0,0,0,0,.08l.05,0h1l.06,0h0a.19.19,0,0,0,0-.08.13.13,0,0,0,0-.06h0l0,0-.09,0V57.05l.09,0a.08.08,0,0,0,0,0,.13.13,0,0,0,0-.06.19.19,0,0,0,0-.08l-.06,0Zm0-4.25h-1l-.05,0a.11.11,0,0,0,0,.08.08.08,0,0,0,0,.06l0,0,.09,0v3.39l-.09.05,0,0h0a.14.14,0,0,0,0,.06.1.1,0,0,0,0,.08.05.05,0,0,0,.05,0h1a.09.09,0,0,0,.06,0,.15.15,0,0,0,0-.08.13.13,0,0,0,0-.06s0,0,0,0l-.09-.05V52.8l.09,0a.08.08,0,0,0,0,0h0s0,0,0-.06a.19.19,0,0,0,0-.08l-.06,0Zm0-4.25h-1a.05.05,0,0,0-.05,0,.11.11,0,0,0,0,.08.14.14,0,0,0,0,.06h0l0,0,.09.05V52l-.09,0,0,0h0a.11.11,0,0,0,0,.06.11.11,0,0,0,0,.08l.05,0h1l.06,0h0a.19.19,0,0,0,0-.08s0-.05,0-.06h0l0,0-.09,0V48.56l.09-.05s0,0,0,0a.13.13,0,0,0,0-.06.19.19,0,0,0,0-.08.09.09,0,0,0-.06,0Zm0-4.24h-1l-.05,0a.11.11,0,0,0,0,.08.11.11,0,0,0,0,.06h0l0,0,.09,0V47.7l-.09,0,0,0a.14.14,0,0,0,0,.06.11.11,0,0,0,0,.08.05.05,0,0,0,.05,0h1a.09.09,0,0,0,.06,0,.19.19,0,0,0,0-.08.13.13,0,0,0,0-.06h0a.05.05,0,0,0,0,0l-.09,0V44.31l.09,0,0,0h0s0,0,0-.06a.19.19,0,0,0,0-.08l-.06,0Zm0-4.25h-1a.05.05,0,0,0-.05,0,.1.1,0,0,0,0,.08.14.14,0,0,0,0,.06h0l0,0,.09,0v3.38l-.09,0,0,0a.08.08,0,0,0,0,.06.11.11,0,0,0,0,.08l.05,0h1a.09.09,0,0,0,.06,0h0a.12.12,0,0,0,0-.07s0-.05,0-.06h0l0,0-.09,0V40.07l.09,0,0,0h0a.13.13,0,0,0,0-.06.15.15,0,0,0,0-.08.09.09,0,0,0-.06,0Zm-.43-4.24h-.54l-.05,0a.11.11,0,0,0,0,.08.14.14,0,0,0,0,.06l0,0,.09,0v3.39l-.09,0,0,0h0a.14.14,0,0,0,0,.06.11.11,0,0,0,0,.08l.05,0h1l.06,0a.19.19,0,0,0,0-.08.13.13,0,0,0,0-.06l0,0-.09,0V35.82l.09,0a.08.08,0,0,0,0,0h0a.13.13,0,0,0,0-.06.19.19,0,0,0,0-.08l-.06,0Zm-.09-.33h.09c.25,0,.41,0,.48-.1s.09-.23.07-.53a7.87,7.87,0,0,0-.23-1.31c-.21-.85-.37-1.32-.37-1.32a12.71,12.71,0,0,0-.4,1.36,7.28,7.28,0,0,0-.24,1.32c0,.27,0,.42.08.49h0a.82.82,0,0,0,.5.09Z"/><path class="cls-9" d="M43.39,84.76a3.83,3.83,0,0,0-.61-4.33c-1.39-1.34-1.6-3.63,1.42-4.18h0c2.41-.11,2.45.82,2.2,1.51a.82.82,0,0,1-1.2.11c1,.79,2.08-.88.57-1.5-2.66-.36-2.2,2.38-1.07,2.84,1.47.72,2.49-.72,5.48.85,1.53,1.09,2.71,2.07,3.73,2.19,1.75.19,3-1.33,4.88-1.34s3.42,1.21,5.23,1.21,3.71-1.25,5.42-1.21c1.92,0,3.23,1.59,5.09,1.31,1-.15,2.09-1.14,3.52-2.16,3-1.57,4-.13,5.48-.85,1.13-.46,1.59-3.2-1.07-2.84-1.51.62-.39,2.29.57,1.5a.82.82,0,0,1-1.2-.11c-.25-.69-.21-1.62,2.2-1.51h0c3,.55,2.8,2.84,1.42,4.18a3.83,3.83,0,0,0-.61,4.33l-.06,0a14.66,14.66,0,0,0-4.89-1c-2.3,0-4.47,1.59-7.23,1.53-3.63-.11-5.19-1.78-8.51-1.65h-.73c-2.89.08-4.48,1.54-7.87,1.65-2.76.06-4.93-1.51-7.23-1.53a14.66,14.66,0,0,0-4.89,1l-.06,0Z"/><path class="cls-4" d="M43.18,84.68a4.82,4.82,0,0,0,.33-2.32,3,3,0,0,0-.89-1.76,3.4,3.4,0,0,1-1-1.77,2.21,2.21,0,0,1,0-1,2,2,0,0,1,.51-.89,3.63,3.63,0,0,1,2-.93h0a3,3,0,0,1,2.28.52,1.12,1.12,0,0,1,.25.5,1,1,0,0,1,0,.17.87.87,0,0,1,0,.36.89.89,0,0,1-1,.75h0a.86.86,0,0,1-.27,0,1.13,1.13,0,0,1-.34-.2l0,0,.3-.36a.55.55,0,0,0,.62.1.64.64,0,0,0,.24-.22,1.17,1.17,0,0,1,0-.11,1,1,0,0,0,0-.34.78.78,0,0,0-.41-.44l-.2-.07a1.58,1.58,0,0,0-1.31.29,1,1,0,0,0-.26.49,1.44,1.44,0,0,0,0,.62,1.38,1.38,0,0,0,.71,1h0a2.64,2.64,0,0,0,1.6.13,5.77,5.77,0,0,1,3.88.71l0,0,.72.52h0A7.51,7.51,0,0,0,53.94,82a4.42,4.42,0,0,0,2.38-.62,6,6,0,0,1,2.48-.72,7.55,7.55,0,0,1,2.66.61,8.08,8.08,0,0,0,2.57.6,8.86,8.86,0,0,0,2.67-.61,8.47,8.47,0,0,1,2.75-.6,5.91,5.91,0,0,1,2.5.72,4.52,4.52,0,0,0,2.55.6,7.11,7.11,0,0,0,2.55-1.48l.88-.65,0,0a5.77,5.77,0,0,1,3.88-.71,2.64,2.64,0,0,0,1.6-.13h0a1.36,1.36,0,0,0,.71-1,1.44,1.44,0,0,0,0-.62,1,1,0,0,0-.26-.49,1.58,1.58,0,0,0-1.31-.29l-.2.07c-.47.25-.64.85-.12,1.11a.55.55,0,0,0,.62-.1l.3.36,0,0a1.07,1.07,0,0,1-.35.2.75.75,0,0,1-.26,0h0a1.07,1.07,0,0,1-1-1.28,1.12,1.12,0,0,1,.25-.5,1.28,1.28,0,0,1,.36-.26A3.86,3.86,0,0,1,84.05,76h0a3.63,3.63,0,0,1,2,.93,2,2,0,0,1,.51.89,2.21,2.21,0,0,1,0,1,3.4,3.4,0,0,1-1,1.77,3,3,0,0,0-.89,1.76,4.71,4.71,0,0,0,.33,2.32l.07.18-.32.2-.1,0a22.29,22.29,0,0,0-2.53-.76A9.82,9.82,0,0,0,79.91,84a10.35,10.35,0,0,0-3.14.7,11.91,11.91,0,0,1-4.09.83h0a14.22,14.22,0,0,1-4.32-.89,11,11,0,0,0-4.18-.76h-.73a11.6,11.6,0,0,0-3.56.76,14.29,14.29,0,0,1-4.32.89h0a11.91,11.91,0,0,1-4.09-.83,10.35,10.35,0,0,0-3.14-.7,9.82,9.82,0,0,0-2.28.27,22.29,22.29,0,0,0-2.53.76l-.1,0-.32-.2.07-.18ZM44,82.3a4.93,4.93,0,0,1-.22,2.14A22.23,22.23,0,0,1,46,83.8a10.66,10.66,0,0,1,2.38-.29,10.64,10.64,0,0,1,3.28.73,11.77,11.77,0,0,0,3.94.81,14,14,0,0,0,4.19-.87,12.19,12.19,0,0,1,3.69-.79h.73a11.23,11.23,0,0,1,4.33.78,14,14,0,0,0,4.19.87,11.77,11.77,0,0,0,3.94-.81,8.51,8.51,0,0,1,5.66-.44,22.23,22.23,0,0,1,2.21.64,4.93,4.93,0,0,1-.22-2.14,3.54,3.54,0,0,1,1-2,3,3,0,0,0,.87-1.52,1.81,1.81,0,0,0,0-.77,1.59,1.59,0,0,0-.4-.68,3,3,0,0,0-1.56-.77l0,0a1.43,1.43,0,0,1,.4.73,2.06,2.06,0,0,1,0,.82,1.89,1.89,0,0,1-1,1.33,3,3,0,0,1-1.85.17,5.4,5.4,0,0,0-3.61.66l-.86.63a7.26,7.26,0,0,1-2.75,1.57,4.87,4.87,0,0,1-2.81-.64,5.69,5.69,0,0,0-2.31-.68h0a8.15,8.15,0,0,0-2.6.59,9.11,9.11,0,0,1-2.81.62,8,8,0,0,1-2.72-.63,7.54,7.54,0,0,0-2.5-.58h0a5.6,5.6,0,0,0-2.28.68,4.82,4.82,0,0,1-2.63.66,7.72,7.72,0,0,1-3.12-1.71h0l-.7-.51a5.4,5.4,0,0,0-3.61-.66,3,3,0,0,1-1.85-.17,1.89,1.89,0,0,1-1-1.33,2.06,2.06,0,0,1,0-.82,1.43,1.43,0,0,1,.4-.73l0,0a3,3,0,0,0-1.56.77,1.59,1.59,0,0,0-.4.68,1.81,1.81,0,0,0,0,.77,2.89,2.89,0,0,0,.87,1.52,3.54,3.54,0,0,1,1,2Z"/><path class="cls-7" d="M42.05,91.72a8.91,8.91,0,0,0,5.34,2.67V89.33a24.73,24.73,0,0,0-5.25,2.18l-.09.21Z"/><path class="cls-4" d="M42.32,91.68a7.49,7.49,0,0,0,2.12,1.55,10,10,0,0,0,2.74.88V89.63a21.46,21.46,0,0,0-2.26.8h0c-.83.35-1.71.77-2.6,1.25Zm1.94,2a7.85,7.85,0,0,1-2.36-1.78l-.11-.12.07-.15.1-.21.09-.1A26.78,26.78,0,0,1,44.77,90h0a20.29,20.29,0,0,1,2.57-.89L47.6,89v5.63l-.24,0a10.42,10.42,0,0,1-3.1-1Z"/><path class="cls-7" d="M86.2,91.72a8.91,8.91,0,0,1-5.34,2.67V89.33a24.73,24.73,0,0,1,5.25,2.18l.09.21Z"/><path class="cls-4" d="M86.35,91.88A7.77,7.77,0,0,1,84,93.66a10.27,10.27,0,0,1-3.09,1l-.24,0V89l.26.07a20.29,20.29,0,0,1,2.57.89A27.84,27.84,0,0,1,86.2,91.3l.09.1.1.21.07.15-.11.12Zm-2.54,1.35a7.49,7.49,0,0,0,2.12-1.55c-.89-.48-1.76-.9-2.6-1.25a21.46,21.46,0,0,0-2.26-.8v4.48a10,10,0,0,0,2.74-.88Z"/><path class="cls-7" d="M63.44,82.92c-2.6.1-4,1.54-7.11,1.65-2.51.06-4.48-1.51-6.57-1.53S44.93,84.17,42,85.56v6A19.41,19.41,0,0,1,49.48,89c2,0,4.07,1.44,6.63,1.57S61.19,89,63.32,89c.51,0,1.25,0,1.74,0,2.11.13,4.71,1.57,7.08,1.56C74.7,90.4,76.75,89,78.77,89a19.41,19.41,0,0,1,7.47,2.63v-6C83.32,84.17,80.7,83,78.49,83s-4.06,1.59-6.57,1.53c-3.08-.11-4.53-1.56-7.14-1.65-.43,0-.91,0-1.34,0Z"/><path class="cls-4" d="M63.45,83.16a10.23,10.23,0,0,0-3.18.76,12,12,0,0,1-3.93.89h0A10,10,0,0,1,52.61,84a8.68,8.68,0,0,0-2.86-.7,10.67,10.67,0,0,0-3.54.72,41.41,41.41,0,0,0-4,1.72v5.49A27.73,27.73,0,0,1,46,89.51a12.94,12.94,0,0,1,3.46-.79h0a10,10,0,0,1,3.08.73,12.62,12.62,0,0,0,3.56.84A13.26,13.26,0,0,0,60,89.48a13.37,13.37,0,0,1,3.33-.75h1c.28,0,.55,0,.78,0a13.47,13.47,0,0,1,3.17.74,13.39,13.39,0,0,0,3.88.81,12.62,12.62,0,0,0,3.56-.84,10,10,0,0,1,3.08-.73h0a12.94,12.94,0,0,1,3.46.79A27.73,27.73,0,0,1,86,91.21V85.72A41.41,41.41,0,0,0,82,84a10.67,10.67,0,0,0-3.54-.72,8.68,8.68,0,0,0-2.86.7,10,10,0,0,1-3.73.83h0A12,12,0,0,1,68,83.92a9.82,9.82,0,0,0-3.21-.76l-.67,0-.65,0Zm-3.31.31a10.45,10.45,0,0,1,3.29-.79h1.36a10.37,10.37,0,0,1,3.32.79,11.69,11.69,0,0,0,3.81.87,9.92,9.92,0,0,0,3.59-.81,9,9,0,0,1,3-.73,11.07,11.07,0,0,1,3.67.75,42.15,42.15,0,0,1,4.17,1.79l.13.06v6.36l-.31,0a27.39,27.39,0,0,0-4-1.84,12.64,12.64,0,0,0-3.35-.76,9.68,9.68,0,0,0-3,.7,13.08,13.08,0,0,1-3.66.87h0a13.93,13.93,0,0,1-4-.83,14,14,0,0,0-3.09-.73l-.75,0h-1a12.75,12.75,0,0,0-3.22.74,13.93,13.93,0,0,1-4,.83h0a13.08,13.08,0,0,1-3.66-.87,9.68,9.68,0,0,0-3-.7,12.64,12.64,0,0,0-3.35.76,27.39,27.39,0,0,0-4,1.84l-.31,0V85.4l.13-.06a42.15,42.15,0,0,1,4.17-1.79,11.07,11.07,0,0,1,3.67-.75,9,9,0,0,1,3,.73,9.92,9.92,0,0,0,3.59.81,11.69,11.69,0,0,0,3.81-.87Z"/><path class="cls-2" d="M43.5,89V86.66l.55-.25a.75.75,0,0,1,.48-.09c.13,0,.19.19.19.5a1.21,1.21,0,0,1-.12.55.73.73,0,0,1-.26.31,2.29,2.29,0,0,1-.39.21v.91l-.45.2ZM44,87.47h0a.53.53,0,0,0,.2-.13.31.31,0,0,0,.08-.13s0-.11,0-.2,0-.18,0-.19a.19.19,0,0,0-.14,0l-.07,0,0,0v.59Zm1,.93V86.06l.69-.27c.35-.14.53,0,.55.39a1.37,1.37,0,0,1,0,.39.76.76,0,0,1-.2.28h0a.14.14,0,0,1,.16,0,.24.24,0,0,1,.07.17l0,.54c0,.17,0,.25.06.25v0l-.5.19s0-.12,0-.26v-.26a.87.87,0,0,0,0-.27c0-.05-.06-.07-.13-.05l-.15.06v.92l-.46.18Zm.46-1.53.15-.06a.22.22,0,0,0,.13-.12.56.56,0,0,0,0-.26c0-.11,0-.17-.08-.18a.49.49,0,0,0-.24,0v.57Zm.91,1,.44-2.47.57-.18.43,2.22-.47.14-.06-.43-.38.11-.05.47-.48.14Zm.59-1,.27-.08-.14-1-.13,1.09Zm.92-.21.45-.08v.19c0,.14,0,.21.17.2a.2.2,0,0,0,.14-.08.36.36,0,0,0,0-.19c0-.11-.08-.21-.26-.3a2.61,2.61,0,0,1-.39-.26.61.61,0,0,1-.13-.44.35.35,0,0,0,0-.06.8.8,0,0,1,.17-.47.67.67,0,0,1,.42-.24.54.54,0,0,1,.31,0,.47.47,0,0,1,.23.19.87.87,0,0,1,.08.39v.05l-.44.08c0-.23-.05-.33-.17-.31a.21.21,0,0,0-.16.21.21.21,0,0,0,.06.17,1.78,1.78,0,0,0,.28.16,1.12,1.12,0,0,1,.31.22.45.45,0,0,1,.12.33,1,1,0,0,1-.14.66.75.75,0,0,1-.48.29.64.64,0,0,1-.44-.07.44.44,0,0,1-.18-.4v-.26Zm1.48.54V84.82l1.11,0v.47l-.63,0v.44l.61,0v.47l-.61,0v.51l.67,0v.47l-1.15,0Zm1.68.18V85.47l-.37-.11v-.47l1.23.35v.47l-.38-.11v1.88L51,87.34Zm1.4.44v-1l-.47-1.54.47.18.23.85h0l.24-.68.46.17L52.81,87v1l-.46-.17Zm.86.32.44-2.21.57.17.43,2.48-.47-.14-.06-.48-.38-.11-.05.44-.48-.15Zm.59-.68.27.08-.14-1.09-.13,1Zm1.66-1H56v1.79c0,.12.06.18.17.18s.16-.07.16-.21V86.36h.49v1.71c0,.45-.22.69-.62.7a.68.68,0,0,1-.51-.15.66.66,0,0,1-.18-.51V86.38ZM57,88.7V86.35l.48-.08v1.88l.59-.11v.47L57,88.7Zm1.12-.17L58.58,86l.56-.18.44,2.2-.48.16L59,87.78l-.37.12-.06.47-.47.16Zm.58-1.06.27-.08-.13-1-.14,1.09Zm1,.56V85.68l.47-.18v.91l.32-.12v-.9l.47-.17v2.35l-.47.17v-1l-.32.12v1l-.47.18Zm2.09-1.5.45-.09v.18c0,.15.06.21.17.2a.2.2,0,0,0,.14-.08.36.36,0,0,0,0-.19c0-.11-.08-.2-.26-.3A2,2,0,0,1,62,86a.62.62,0,0,1-.13-.43.13.13,0,0,0,0-.06A.83.83,0,0,1,62,85a.7.7,0,0,1,.42-.24.54.54,0,0,1,.31,0A.49.49,0,0,1,63,85a.8.8,0,0,1,.08.38v0l-.44.09c0-.23-.05-.33-.17-.3s-.14.08-.16.2a.22.22,0,0,0,.06.18l.28.15a1.38,1.38,0,0,1,.31.21.55.55,0,0,1,.12.33,1,1,0,0,1-.14.67.8.8,0,0,1-.48.29.59.59,0,0,1-.44-.06.43.43,0,0,1-.18-.39v-.26Zm1.34.54.46-2.36h.59L64.64,87h-.5l-.06-.46h-.39l0,.46Zm.61-.88H64l-.14-1-.14,1Zm1,.83V84.67l.48.07v.94l.36-.89.5.07-.44,1,.47,1.38-.51-.07-.27-.86-.11.23v.58L64.79,87Zm1.85.34V85.49l-.38-.12V84.9l1.23.39v.47l-.39-.12v1.87l-.46-.15Zm1,.35V85.36l.47.17v2.35l-.47-.17Zm1.36.48V85.85l.64.18a.91.91,0,0,1,.44.25.68.68,0,0,1,.18.5.62.62,0,0,1-.06.32.39.39,0,0,1-.17.14.88.88,0,0,1,.21.28,1,1,0,0,1,0,.35c0,.45-.21.62-.62.51L69,88.19Zm.48-.29c.14,0,.24.06.28,0a.35.35,0,0,0,0-.22.3.3,0,0,0-.07-.25.48.48,0,0,0-.26-.13v.57Zm0-1a.38.38,0,0,0,.25,0,.32.32,0,0,0,0-.21.25.25,0,0,0-.06-.2,1.42,1.42,0,0,0-.24-.11v.5Zm1,1.68V86.23l.49.06v.9l.33,0v-.9l.49,0v2.35l-.49,0v-1l-.33,0v1l-.49-.06Zm1.45.2.45-2.4.59-.06.45,2.29-.49,0-.07-.44-.38,0-.06.46-.49.06Zm.61-.94.27,0-.14-1-.13,1.06Zm1,.69V86.18l.47-.14V87l.35-1,.48-.14L74.52,87,75,88.13l-.5.15-.26-.74-.1.27v.58l-.47.14Zm1.79-.59V86.07l-.37.13v-.47l1.21-.44v.47l-.38.14v1.87l-.46.17Zm1-.36V85.24l.48-.16v2.35l-.48.15Zm1.45-.42V84.82h.59A1,1,0,0,1,79,85c.14.09.21.28.2.59a.8.8,0,0,1-.12.49.43.43,0,0,1-.28.19,1.85,1.85,0,0,1-.42,0v.91Zm.49-1.32h0a.34.34,0,0,0,.22,0,.15.15,0,0,0,.08-.1.78.78,0,0,0,0-.19q0-.17-.06-.21a.23.23,0,0,0-.15,0h-.12v.59Zm1,1.38V84.87l.72.16a.69.69,0,0,1,.57.73.84.84,0,0,1-.06.36.3.3,0,0,1-.2.16h0a.27.27,0,0,1,.16.13.49.49,0,0,1,.08.22l0,.56c0,.17,0,.26.06.28v0l-.52-.11a.85.85,0,0,1,0-.28v-.27a.93.93,0,0,0,0-.28.2.2,0,0,0-.13-.14l-.16,0v.92l-.48-.1ZM79.89,86l.16,0a.12.12,0,0,0,.13,0,.43.43,0,0,0,0-.24.26.26,0,0,0-.09-.23.72.72,0,0,0-.25-.1V86Zm.94,1.54.44-2.2.57.18L82.27,88l-.47-.15-.07-.47-.37-.12,0,.43-.48-.15Zm.59-.68.27.09-.14-1.09-.13,1Zm1.45-1,.46.19v1.83a.46.46,0,0,1-.12.36.33.33,0,0,1-.34,0,.88.88,0,0,1-.41-.32.81.81,0,0,1-.14-.49V87.2l.36.15v.34a.08.08,0,0,0,0,.07s0,0,.07,0,0,0,.06,0,0,0,0,0V85.86Zm.6,2.59.42-2.15.55.25.41,2.53-.45-.21-.06-.48L84,88.23l-.06.43-.45-.21Zm.56-.61.26.12-.13-1.11-.13,1Z"/><path class="cls-4" d="M39,102.15a15.09,15.09,0,0,1,2.41-.16,3.8,3.8,0,0,1,2.41.63,2.31,2.31,0,0,1,.84,1.82,2.56,2.56,0,0,1-.72,1.88,4.44,4.44,0,0,1-3.18.79v2.82H39Zm1.76,3.58a2.48,2.48,0,0,0,.6,0c.95,0,1.53-.48,1.53-1.29s-.5-1.16-1.39-1.16a3.4,3.4,0,0,0-.74.07Z"/><path class="cls-4" d="M50.47,106.6h-2.9v1.87h3.24v1.46h-5V102h4.87v1.47H47.57v1.64h2.9Z"/><path class="cls-4" d="M58.7,106.91c0-1-.07-2.09-.07-3.24h0c-.25,1-.57,2.13-.88,3.06l-1,3.07H55.37l-.84-3c-.26-.93-.53-2-.72-3.08h0c0,1.07-.08,2.28-.14,3.27l-.14,3H51.86l.5-7.89h2.38l.77,2.64c.24.91.49,1.89.67,2.82h0c.22-.92.49-2,.75-2.83L57.8,102h2.33l.44,7.89H58.82Z"/><path class="cls-4" d="M61.94,102.15a15.09,15.09,0,0,1,2.41-.16,3.78,3.78,0,0,1,2.41.63,2.31,2.31,0,0,1,.84,1.82,2.52,2.52,0,0,1-.72,1.88,3.67,3.67,0,0,1-2.56.83,3.52,3.52,0,0,1-.61,0v2.82H61.94Zm1.77,3.58a2.39,2.39,0,0,0,.59,0c1,0,1.54-.48,1.54-1.29s-.51-1.16-1.39-1.16a3.32,3.32,0,0,0-.74.07Z"/><path class="cls-4" d="M68.74,102.15a16.35,16.35,0,0,1,2.38-.16,4,4,0,0,1,2.55.62,2,2,0,0,1,.73,1.65A2.11,2.11,0,0,1,73,106.2v0a2,2,0,0,1,1.06,1.48,22.28,22.28,0,0,0,.64,2.22H72.88a9.24,9.24,0,0,1-.55-1.84c-.22-1-.55-1.25-1.28-1.26h-.54v3.1H68.74Zm1.77,3.39h.7c.89,0,1.42-.44,1.42-1.13s-.49-1.09-1.31-1.1a3.92,3.92,0,0,0-.81.06Z"/><path class="cls-4" d="M82.86,105.91c0,2.58-1.57,4.15-3.87,4.15s-3.71-1.77-3.71-4a3.81,3.81,0,0,1,3.84-4.13A3.67,3.67,0,0,1,82.86,105.91Zm-5.7.1c0,1.55.73,2.63,1.92,2.63S81,107.5,81,106s-.68-2.63-1.91-2.63S77.16,104.48,77.16,106Z"/><path class="cls-4" d="M85.82,109.93,83.29,102h1.95l1,3.34c.27.94.52,1.84.71,2.82h0c.2-1,.44-1.88.71-2.79l1-3.37h1.9l-2.66,7.89Z"/><path class="cls-4" d="M31.45,116.1h1v5.27c0,2.1-1,2.74-2.39,2.74a3.5,3.5,0,0,1-1.09-.18l.16-.84a2.22,2.22,0,0,0,.85.16c.91,0,1.45-.41,1.45-2Z"/><path class="cls-4" d="M35.44,121.5,34.63,124H33.57l2.68-7.88h1.23L40.17,124H39.09l-.85-2.48Zm2.59-.79-.77-2.27c-.18-.52-.29-1-.41-1.44h0c-.12.47-.25,1-.4,1.43l-.77,2.28Z"/><path class="cls-4" d="M42,124l-2-7.88h1.08l.93,4c.24,1,.45,2,.59,2.72h0c.13-.78.38-1.72.65-2.73l1-4h1.07l1,4a25.91,25.91,0,0,1,.55,2.7h0c.16-.86.38-1.74.63-2.72l1-4h1L47.4,124H46.33l-1-4.1a24,24,0,0,1-.52-2.58h0a25.06,25.06,0,0,1-.61,2.58L43.07,124Z"/><path class="cls-4" d="M51.23,121.5,50.41,124h-1L52,116.1h1.23L56,124H54.87L54,121.5Zm2.59-.79L53,118.44c-.17-.52-.29-1-.4-1.44h0c-.12.47-.24,1-.4,1.43l-.77,2.28Z"/><path class="cls-4" d="M60.62,117h-2.4v-.86h5.84V117H61.65v7h-1Z"/><path class="cls-4" d="M69,120.29H66v2.84h3.42V124H64.94V116.1H69.2V117H66v2.49H69Z"/><path class="cls-4" d="M70.71,124V116.1h1.11l2.53,4a21.72,21.72,0,0,1,1.41,2.56h0c-.09-1-.11-2-.11-3.24v-3.3h1V124h-1l-2.51-4a26,26,0,0,1-1.47-2.63h0c.06,1,.08,1.94.08,3.25V124Z"/><path class="cls-4" d="M84.41,123.63a7.08,7.08,0,0,1-2.42.44,3.72,3.72,0,0,1-4-4A4,4,0,0,1,82.21,116a4.74,4.74,0,0,1,2,.37l-.25.83a4,4,0,0,0-1.74-.34A3,3,0,0,0,79,120a2.89,2.89,0,0,0,3,3.18,3.26,3.26,0,0,0,1.36-.21v-2.35h-1.6v-.82h2.59Z"/><path class="cls-4" d="M87.25,121.5,86.43,124H85.38l2.68-7.88h1.23L92,124H90.89l-.84-2.48Zm2.59-.79-.77-2.27c-.18-.52-.3-1-.41-1.44h0c-.11.47-.24,1-.4,1.43l-.77,2.28Z"/><path class="cls-4" d="M94.16,116.1v3.3H98v-3.3h1V124H98v-3.69H94.16V124h-1V116.1Z"/></svg>