<svg id="Layer_1" data-name="Layer 1" xmlns="http://www.w3.org/2000/svg" viewBox="0 0 128 128"><defs><style>.cls-1{fill:#fff200;}.cls-1,.cls-11,.cls-3,.cls-4,.cls-5,.cls-7,.cls-8,.cls-9{fill-rule:evenodd;}.cls-2,.cls-4{fill:#100906;}.cls-3{fill:#00984a;}.cls-5{fill:#fff;}.cls-11,.cls-6{fill:#1b1412;}.cls-7{fill:#2e3192;}.cls-8{fill:#ed1c24;}.cls-10,.cls-9{fill:#00a651;}.cls-12{fill:#231f20;}</style></defs><path class="cls-1" d="M65.23,86.71c9.5-7.58,33.58-4.14,34.15-24V7.45H31.09V62.74c.57,19.83,24.65,16.39,34.14,24Z"/><path class="cls-2" d="M47.46,65.22H82.52L88.08,49l5.31-16.79L79.31,22.05,65,11.75,50.67,22.05,36.59,32.21,41.9,49l5.56,16.22ZM83.29,66.3H46.69l-5.82-17L35.33,31.79,50,21.17,65,10.41,79.94,21.17,94.65,31.79,89.1,49.34l-5.81,17Z"/><polygon class="cls-3" points="64.98 13.04 78.53 22.83 92.07 32.63 86.89 48.48 81.72 64.34 64.98 64.34 48.27 64.34 43.11 48.48 37.94 32.63 51.48 22.83 64.98 13.04 64.98 13.04"/><path class="cls-2" d="M48.56,63.93H81.43L91.59,32.78,65,13.54,51.71,23.16l-13.3,9.62,5.08,15.58,5.07,15.57ZM82,64.74H48L42.72,48.61,37.46,32.47l13.78-10L65,12.54,92.54,32.47,82,64.74Z"/><path class="cls-4" d="M46.15,48.45a20.06,20.06,0,1,0-1.26-7,21.26,21.26,0,0,0,1.26,7Z"/><path class="cls-5" d="M51.43,55.87l2.47-2.66A16.38,16.38,0,0,0,65,57.56a16.87,16.87,0,0,0,11-4.21l2.59,2.55A20.44,20.44,0,0,1,65,61.19a19.34,19.34,0,0,1-13.56-5.32Z"/><path class="cls-2" d="M51.73,55.87A19.27,19.27,0,0,0,65,61a20.16,20.16,0,0,0,13.24-5.09L76,53.65a17.26,17.26,0,0,1-5,3,16.85,16.85,0,0,1-6,1.14,16.62,16.62,0,0,1-11.08-4.26l-2.18,2.35ZM65,61.41A20.81,20.81,0,0,1,57.57,60a17.78,17.78,0,0,1-6.3-4l-.14-.14,2.76-3,.15.14A16.25,16.25,0,0,0,65,57.34a16.78,16.78,0,0,0,10.83-4.15l.15-.13,2.89,2.85-.17.15A20.61,20.61,0,0,1,65,61.41Z"/><path class="cls-5" d="M59.49,26l-.91-1,0,1.35.87-.35Zm1.69.77-.7.28-.57-.6-1.27.51,0,.82L58,28l0-3.67.67-.27,2.56,2.65ZM55.76,28l-.33-.47,1.22-.86.78,1.12a1.89,1.89,0,0,1-.3.66,2.29,2.29,0,0,1-.59.61,2,2,0,0,1-.9.35,1.43,1.43,0,0,1-.86-.18,2.07,2.07,0,0,1-.69-.63,1.86,1.86,0,0,1-.36-.91,1.46,1.46,0,0,1,.17-.89,1.71,1.71,0,0,1,.57-.61,1.67,1.67,0,0,1,1-.35,1.23,1.23,0,0,1,.81.34l-.49.5a.73.73,0,0,0-.46-.17.82.82,0,0,0-.49.16.9.9,0,0,0-.42.65,1.17,1.17,0,0,0,.27.85,1.33,1.33,0,0,0,.74.59.91.91,0,0,0,.76-.16,1.18,1.18,0,0,0,.31-.32,1.35,1.35,0,0,0,.19-.38l-.25-.35-.65.45Zm-4,3.14a1.3,1.3,0,0,0,.84.37.92.92,0,0,0,.9-1,1.38,1.38,0,0,0-.5-.79,1.36,1.36,0,0,0-.84-.38.9.9,0,0,0-.66.33.88.88,0,0,0-.24.71,1.33,1.33,0,0,0,.5.78Zm-.45.55a1.81,1.81,0,0,0,1.27.5,1.67,1.67,0,0,0,1.15-.61,1.61,1.61,0,0,0,.43-1.21,1.78,1.78,0,0,0-.68-1.19,1.75,1.75,0,0,0-1.29-.51,1.62,1.62,0,0,0-1.15.6,1.87,1.87,0,0,0-.38.64,1.6,1.6,0,0,0-.06.54,1.8,1.8,0,0,0,.15.55,2.27,2.27,0,0,0,.56.69Zm.24,3L50.22,34l-2.34.22.37-.72,1.58-.1L49,32l.36-.7,1.2,2,1.28.65-.31.62Zm-2.14,1.52-1.35.1,1.09.79.26-.89ZM51,35.28l-.21.72-.83.07-.38,1.32.67.48-.2.7-2.93-2.21.2-.71L51,35.28Zm-3.1,5.6,0-.51a2,2,0,0,0,0-.62.34.34,0,0,0-.13-.2.47.47,0,0,0-.25-.09.42.42,0,0,0-.28.07.44.44,0,0,0-.16.25c0,.06,0,.23,0,.51l0,.53.87.06Zm1.92.83-3.42-.24L46.54,40a2.41,2.41,0,0,1,.14-.78.78.78,0,0,1,.36-.38,1,1,0,0,1,.55-.11,1,1,0,0,1,.62.27,1.15,1.15,0,0,1,.27.7,1.34,1.34,0,0,1,.31-.35,3.28,3.28,0,0,1,.58-.35l.7-.37-.06.82-.78.44a5.8,5.8,0,0,0-.53.33.55.55,0,0,0-.15.2.83.83,0,0,0-.07.34v.14l1.43.1,0,.69Zm-2.47,3,1-.16-.06-.37a1.84,1.84,0,0,0-.15-.53.43.43,0,0,0-.21-.19.48.48,0,0,0-.27,0,.44.44,0,0,0-.29.16.48.48,0,0,0-.1.29,2.93,2.93,0,0,0,.07.5l.05.32Zm2.93.19-3.38.59-.19-1.08a4.4,4.4,0,0,1-.09-.82.89.89,0,0,1,.24-.54,1,1,0,0,1,.63-.31,1.08,1.08,0,0,1,.54,0,.92.92,0,0,1,.6.55,4.38,4.38,0,0,1,.18.69l.08.45,1.27-.23.12.68Z"/><path class="cls-5" d="M73.38,52.4l-.47-1.27-.46,1.27Zm1.28,1.35H73.9L73.6,53H72.23l-.28.77h-.73l1.33-3.41h.73l1.38,3.41ZM69.44,52.5v-.58h1.49v1.36a2.05,2.05,0,0,1-.63.37,2.28,2.28,0,0,1-.84.16,2,2,0,0,1-.94-.22,1.51,1.51,0,0,1-.6-.65,2.13,2.13,0,0,1-.2-.91,2,2,0,0,1,.23-1,1.58,1.58,0,0,1,.65-.63,1.84,1.84,0,0,1,.82-.17,1.63,1.63,0,0,1,1,.27,1.18,1.18,0,0,1,.46.73l-.68.13a.72.72,0,0,0-.28-.4.87.87,0,0,0-.5-.14.94.94,0,0,0-.72.28,1.22,1.22,0,0,0-.27.85,1.3,1.3,0,0,0,.28.92.9.9,0,0,0,.71.3,1.31,1.31,0,0,0,.43-.08,1.71,1.71,0,0,0,.38-.21V52.5Zm-3.24-.1-.47-1.27-.46,1.27Zm1.27,1.35h-.75l-.3-.77H65.05l-.28.77H64l1.33-3.41h.73l1.37,3.41Zm-4.94,0h.69V52.32l1.26-2h-.8l-.79,1.35-.8-1.35h-.82l1.26,2v1.44Zm-2.1-1.35L60,51.13l-.47,1.27Zm1.27,1.35H61l-.3-.77H59.28l-.28.77h-.74l1.34-3.41h.73l1.37,3.41Zm-6.46-1.11.68-.06a.81.81,0,0,0,.24.49.73.73,0,0,0,.5.16.82.82,0,0,0,.51-.14.42.42,0,0,0,.17-.33.38.38,0,0,0-.07-.21.63.63,0,0,0-.25-.14l-.56-.15a2.06,2.06,0,0,1-.78-.34.89.89,0,0,1-.31-.69.93.93,0,0,1,.57-.83,1.72,1.72,0,0,1,.68-.12,1.44,1.44,0,0,1,1,.28,1,1,0,0,1,.34.75l-.69,0a.55.55,0,0,0-.19-.37.68.68,0,0,0-.44-.12.8.8,0,0,0-.47.12.25.25,0,0,0-.11.22.25.25,0,0,0,.1.2,1.72,1.72,0,0,0,.64.23,3.12,3.12,0,0,1,.74.25.9.9,0,0,1,.38.34,1,1,0,0,1,.14.55,1,1,0,0,1-.16.55,1,1,0,0,1-.47.38,2,2,0,0,1-.74.12,1.48,1.48,0,0,1-1-.3,1.33,1.33,0,0,1-.42-.87Z"/><path class="cls-5" d="M81.43,44.44l1.33-.25-1.17-.67-.16.92Zm-1.56,1,.13-.74.82-.15.24-1.35-.72-.41.13-.72L83.61,44l-.12.72-3.62.75Zm1.62-5.94.58-.07.18,1.47-1.36.17a2,2,0,0,1-.44-.58,2.2,2.2,0,0,1-.26-.81,1.75,1.75,0,0,1,.11-.95,1.33,1.33,0,0,1,.57-.67,2,2,0,0,1,.88-.31,2,2,0,0,1,1,.1,1.54,1.54,0,0,1,.71.58,1.71,1.71,0,0,1,.27.79,1.67,1.67,0,0,1-.14,1,1.25,1.25,0,0,1-.68.55l-.21-.66a.75.75,0,0,0,.36-.32.78.78,0,0,0,.08-.51.91.91,0,0,0-.37-.68,1.2,1.2,0,0,0-.88-.16,1.31,1.31,0,0,0-.87.38.88.88,0,0,0-.22.74,1.16,1.16,0,0,0,.14.42,1.3,1.3,0,0,0,.25.34l.43-.05-.1-.78Zm-.95-4.17,1-.94-1.35.09.38.85Zm-.72,1.71-.31-.68.59-.59-.55-1.25-.83.06-.3-.67,3.68-.17.29.67-2.57,2.63ZM76.06,31l.45.52,1.14-1,.88,1-1.13,1,.46.52,2.58-2.24L80,30.29l-1,.88-.89-1,1-.89-.45-.52L76.06,31ZM74,27.22a1.27,1.27,0,0,0-.25.88.91.91,0,0,0,1.14.74,1.35,1.35,0,0,0,.71-.6,1.29,1.29,0,0,0,.26-.87.88.88,0,0,0-.42-.62.9.9,0,0,0-.74-.13,1.33,1.33,0,0,0-.7.6Zm-.61-.37A2.27,2.27,0,0,1,74,26.2a1.67,1.67,0,0,1,.52-.21A1.24,1.24,0,0,1,75,26a1.94,1.94,0,0,1,.7.28,1.66,1.66,0,0,1,.76,1.06,1.8,1.8,0,0,1-.33,1.33,1.72,1.72,0,0,1-1.09.84,1.59,1.59,0,0,1-1.26-.26,1.61,1.61,0,0,1-.77-1,1.77,1.77,0,0,1,.32-1.32Zm-3.34.5.88-2.69-1-.32.18-.54,2.59.83-.18.55-1-.31-.88,2.7L70,27.35Z"/><path class="cls-4" d="M75.11,57.57l-.35-1.91.34-.3,1.35,1-.32.28-.26-.2-.52.45.08.37-.32.28Zm.18-1,.35-.31-.5-.41.15.72ZM74,58.05a.77.77,0,0,0,.27,0,1.15,1.15,0,0,0,.25-.12.72.72,0,0,0,.31-.39.5.5,0,0,0,0-.43.62.62,0,0,0-.15-.2.38.38,0,0,0-.21-.07,1.77,1.77,0,0,0-.33,0l-.07,0a.51.51,0,0,1-.17,0,.1.1,0,0,1-.08-.06.15.15,0,0,1,0-.13.4.4,0,0,1,.13-.13.53.53,0,0,1,.2-.09l.29-.05-.15-.31a.86.86,0,0,0-.27,0,1,1,0,0,0-.23.12.79.79,0,0,0-.29.37.51.51,0,0,0,0,.42.4.4,0,0,0,.25.23.93.93,0,0,0,.49,0,.44.44,0,0,1,.18,0,.13.13,0,0,1,.08.07.17.17,0,0,1,0,.14.53.53,0,0,1-.13.13.4.4,0,0,1-.22.09,1,1,0,0,1-.31,0l.16.35Zm-.26-.11a1.16,1.16,0,0,1-.46.57.74.74,0,0,1-.31.12.57.57,0,0,1-.29,0,.65.65,0,0,1-.27-.17.88.88,0,0,1-.2-.29,1,1,0,0,1-.06-.73,1.06,1.06,0,0,1,.44-.57,1.23,1.23,0,0,1,.26-.12,1.35,1.35,0,0,1,.29,0l.16.35a1,1,0,0,0-.3,0,.75.75,0,0,0-.24.1.59.59,0,0,0-.26.33.65.65,0,0,0,0,.43.47.47,0,0,0,.26.29.38.38,0,0,0,.35-.06l.09-.07a.39.39,0,0,0,.08-.1l-.09-.2-.18.12-.13-.3.51-.33.3.66ZM71,58.25l1.12.67.26-.13-.55-1.66-.34.16.33,1-1.07-.63-.3.14L71,59.46l.35-.16-.35-1Zm-1.7,1.66L69.47,58l.41-.14,1,1.53-.37.13-.19-.3-.61.21,0,.38-.38.13Zm.45-.84.42-.14-.35-.59-.07.73ZM67.9,60.2,67,58.56l.38-.09.44.9.13-1,.24-.06.44.89.13-1,.38-.09L68.86,60l-.15,0-.51-1-.15,1.17-.15,0Zm-2.78.22.6-1.82h.43l.63,1.76-.4,0L66.27,60l-.64,0-.11.35-.4,0Zm.61-.68.44,0-.23-.67-.21.69Zm-1.26.67.37,0,0-.81.62-.95-.44,0-.35.56-.31-.59-.44,0,.55,1,0,.8Zm-2-.18.84-1.67.43.08.37,1.87-.4-.07-.06-.36L63.05,60l-.16.32-.39-.06Zm.69-.55.43.08-.12-.71-.31.63ZM61.06,60l.55.13a1.77,1.77,0,0,0,.34,0,.59.59,0,0,0,.23,0,.83.83,0,0,0,.3-.26,1.07,1.07,0,0,0,.16-.41,1.13,1.13,0,0,0,0-.41,1,1,0,0,0-.16-.35.77.77,0,0,0-.22-.19,1.07,1.07,0,0,0-.35-.13l-.55-.13L61.06,60Zm.6-1.32-.17,1.05.27.06a.34.34,0,0,0,.32-.08.48.48,0,0,0,.18-.35.6.6,0,0,0,0-.4.47.47,0,0,0-.28-.22l-.27-.06Zm-.48-.34-.24,1a.73.73,0,0,1-.31.5.56.56,0,0,1-.54,0,.71.71,0,0,1-.45-.37,1,1,0,0,1,0-.63l.24-1,.36.12L60,59a.56.56,0,0,0,0,.34.33.33,0,0,0,.21.19.28.28,0,0,0,.27,0,.5.5,0,0,0,.15-.29l.23-1,.36.13Zm-4,.42.36.18.22-.27.6.29v.37l.36.18,0-1.92-.4-.19-1.15,1.36Zm.78-.32.4.2,0-.73-.42.53Zm-1.47.11.57-1.29L56.66,57l.13-.29,1.22.78-.13.29-.44-.28-.57,1.29-.34-.22Zm.1-1.67-.32-.23-.42.88a.42.42,0,0,1-.2.23.28.28,0,0,1-.26-.05.38.38,0,0,1-.17-.25.51.51,0,0,1,.06-.33l.42-.87L55.42,56l-.43.89a.91.91,0,0,0-.08.62.86.86,0,0,0,.36.49.59.59,0,0,0,.53.13.7.7,0,0,0,.41-.39l.42-.89Zm-3.27-.16.87-1.45.31.26-.39.65.79-.29.34.3-.83.29.06,1.25-.39-.34,0-1.09-.41.68-.3-.26Z"/><polygon class="cls-5" points="64.95 23.59 82.4 49.68 47.5 49.75 64.95 23.59 64.95 23.59"/><path class="cls-6" d="M65,24.08,48,49.48l33.89-.07L65,24.08ZM47,50,65,23.1,82.91,50,47,50Z"/><polygon class="cls-7" points="67.34 29.78 65.94 27.45 64.96 28.53 64.17 27.13 62.44 29.78 67.34 29.78 67.34 29.78"/><path class="cls-8" d="M80.59,47.45l-.06,0-.1,0-.1,0-.1,0-.1,0-.1,0-.09,0-.1,0-.09,0h-.1l-.09,0h-1l-.11,0h-.11l-.11,0-.12,0-.11,0-.12,0-.13,0-.13,0-.13,0-.14,0,.19-.54.13,0,.13,0,.12,0L78,47l.11,0,.11,0,.1,0,.1,0h.1l.09,0h.9l.08,0h.08l.08,0,.08,0L80,47l.09,0,.09,0,.09,0h0l.33.5Zm-3.23,0h0Zm0,0h0l-.12-.05-.11,0-.1,0-.11,0-.1,0H76.4l-.1,0-.1,0-.1,0-.1,0-.1,0-.1,0-.11,0-.1,0-.11,0-.11,0-.11,0-.11,0-.12.05-.12,0-.12,0-.13,0-.12,0-.14,0-.13,0-.14,0L74,48h-.3v-.56h.23l.12,0,.11,0,.12,0,.11,0,.11,0,.11,0,.11,0,.11,0,.11,0,.11,0,.11-.05.11,0,.11,0,.12,0,.11,0,.12,0,.12,0,.12,0,.12,0,.13,0,.12,0h.54l.14,0,.15,0,.14,0,.15.05.14.06,0,0-.19.54Zm-3.69,0h0Zm0,.56h-.44l-.1,0-.1,0-.1,0-.1,0-.09,0-.09,0-.09,0-.08,0-.09,0-.08,0-.08,0-.08,0-.08,0-.07,0-.08,0-.08,0-.07,0-.08,0-.07,0-.08,0-.07,0-.08,0-.07,0h-.4v-.57h.22l.1,0h.11l.1,0,.09,0,.1,0,.09,0,.09,0,.09,0L72,47l.08,0,.08,0,.08,0,.08,0,.08,0,.08,0,.08,0,.07,0,.08,0,.07,0,.08,0,.07,0,.08,0h.07l.08,0,.08,0h.42V48Zm-2.75-.69h-.37l-.08,0H70.4l-.09,0h-.09l-.08,0-.09,0-.09,0-.08,0-.09,0-.09,0-.08,0-.09,0-.09,0-.09,0-.09,0-.09,0-.09,0-.09,0-.1,0-.09,0-.1,0-.1,0-.09,0-.1,0H68v-.56h.5l.08,0,.08,0,.09,0,.08,0,.09,0,.08,0,.09,0,.08,0,.09,0,.09,0,.09,0,.09,0,.09,0,.09,0,.1,0,.09,0,.1,0,.1,0,.1,0,.1,0h.1l.11,0h.44v.57Z"/><path class="cls-8" d="M79.7,46.12h0l-.08,0-.08,0-.08,0-.08,0-.08,0-.08,0-.08,0-.07,0-.08,0-.08,0h-.81l-.09,0-.09,0-.09,0-.09,0-.1,0-.1,0-.1,0-.11,0-.11,0-.12,0,.22-.53.11,0,.11,0,.09,0,.1,0,.09,0,.08,0,.08,0,.08,0h.07l.07,0h.65l.06,0H79l.06,0,.07,0,.07,0,.07,0,.07,0,.07,0,.33.49Zm-2.61,0h0l0,0Zm0,0,0,0L77,46l-.09,0-.08,0-.08,0h-.38l-.08,0h-.08l-.08,0L76,46l-.08,0-.09,0-.08,0-.09,0-.09,0-.09,0-.1,0-.09,0-.1,0-.1,0-.11,0-.1,0-.11,0-.12,0-.12,0-.12,0-.12,0H74l0-.57h.19l.09,0,.1,0,.09,0,.09,0,.09,0,.09,0,.09,0,.09,0,.09,0,.1,0,.09,0,.09,0,.1,0,.09,0,.1,0,.1,0,.1,0,.11,0,.11,0,.11,0,.11,0h.48l.12,0,.13,0,.13,0,.12,0,.13.06h0l-.22.53Zm-3.07,0Zm0,.57h-.39l-.09,0-.09,0-.08,0-.09,0-.08,0-.07,0-.08,0-.07,0-.08,0-.07,0-.06,0-.07,0-.07,0-.06,0-.07,0-.06,0-.06,0-.06,0-.06,0-.06,0-.06,0H72.1L72,46h-.32v-.57H72l.09,0,.09,0,.08,0,.09,0,.08,0,.08,0,.07,0,.08,0,.07,0,.07,0,.07,0,.06,0,.07,0,.06,0,.07,0,.06,0,.06,0,.06,0,.07,0,.06,0,.06,0,.06,0,.06,0h.06l.06,0H74l0,.57ZM71.72,46h-.31l-.08,0h-.08l-.08,0h-.09l-.08,0-.09,0-.08,0-.09,0-.09,0-.09,0-.08,0-.09,0-.09,0-.09,0-.1,0-.09,0-.09,0-.09,0-.09,0-.09,0-.09,0-.1,0-.09,0h-.09l-.1,0h-.28V46h.44l.08,0,.08,0,.08,0,.08,0,.09,0,.08,0,.09,0,.09,0,.09,0,.09,0,.09,0,.09,0,.09,0,.09,0,.1,0,.09,0,.09,0,.1,0,.1,0,.09,0,.1,0h.49V46Z"/><path class="cls-8" d="M78.88,44.89h0l-.07,0-.08,0-.07,0-.07,0-.06,0-.07,0-.07,0-.07,0-.06,0-.07,0-.07,0h-.72l-.08,0-.07,0-.08,0-.08,0-.09,0-.08,0-.09,0-.09,0-.1,0-.09-.05.25-.51.09,0,.09,0,.08,0,.08,0,.07,0,.07,0,.07,0,.06,0H78l0,0h0l0,0,0,0,.06,0,.06,0,.06,0,.06,0,.07,0,0,0,.32.48Zm-2.34,0h0l0,0,.05,0Zm0,0-.05,0-.07,0-.07,0-.06,0h-.06l-.06,0h-.23l-.06,0h-.06l-.06,0-.07,0-.06,0-.07,0-.07,0-.08,0-.07,0-.08,0-.08.05-.08,0-.08,0-.09,0-.09,0-.09,0-.09,0-.1,0-.1,0-.11,0-.11,0-.11,0H74l0-.56h.22l.07,0,.07,0,.07,0,.08,0,.07,0,.08,0,.07,0,.08,0,.08,0,.07-.05.08,0,.08,0,.09,0,.08,0,.09,0,.08,0,.09,0,.1,0,.1,0,.1,0h.32l.11,0,.11,0,.12,0,.11,0,.11.06.11.06,0,0-.25.51Zm-2.56,0Zm0,.56h-.35l-.08,0-.08,0-.07,0-.08,0-.07,0-.07,0-.06,0-.06,0-.06,0-.06,0-.06,0-.06,0-.06,0-.05,0,0,0,0,0,0,0,0,0-.05,0,0,0,0,0,0,0h-.29v-.57h.26l.09,0,.07,0,.08,0,.07,0,.07,0,.07,0,.07,0,.06,0,.06,0,.06,0,.06,0,.06,0,.05,0,.06,0,.05,0,0,0,0,0,0,0,0,0,.05,0,0,0,0,0H74l0,.56Zm-2-.68h-.39l-.08,0-.07,0-.08,0-.08,0-.08,0-.08,0-.09,0L71,45l-.08,0-.09,0-.08,0-.09,0-.09,0-.08,0-.09,0-.08,0-.09,0-.09,0-.08,0-.09,0H69.9l-.08,0h-.35V44.8h.31l.08,0h.07l.07,0,.08,0,.08,0,.08,0,.08,0,.08,0,.09,0,.08,0,.08,0,.09,0,.09,0,.08,0,.09,0,.09,0,.08,0,.09,0,.09,0,.09,0,.09,0,.08,0h.44v.57Z"/><path class="cls-8" d="M78.22,43.9l0,0-.06,0L78,44,78,44l-.06,0-.06,0-.06,0h-.06l-.06,0-.06,0h-.78l-.07,0-.07,0-.08,0-.07,0-.08,0-.08,0-.08,0-.08,0-.09,0,.24-.51.08,0,.08,0,.07,0,.07,0,.07,0,.06,0h.06l0,0h.67l0,0,0,0,0,0,.05,0,0,0,.06,0,.32.48Zm-2.08,0h0l0,0Zm0,0,0,0-.06,0-.06,0-.06,0h-.4l0,0-.06,0-.06,0-.06,0-.06,0-.07,0-.06,0L75,44l-.07,0-.08,0-.07,0-.08,0-.08,0-.08,0-.09,0-.08,0-.1,0-.09,0-.1,0H73.9l0-.56h.19l.07,0,.06,0,.06,0,.07,0,.07,0,.06,0,.07,0,.07,0,.06,0,.07,0,.07,0,.07,0,.08,0,.07,0,.08,0,.08,0,.08,0,.09,0,.09,0,.08,0h.4l.1,0,.1,0,.1,0,.1,0,.11.06-.05,0-.24.51Zm-2.26-.08Zm0,.56h-.38l-.07,0-.07,0-.07,0-.06,0-.06,0-.06,0-.06,0,0,0-.06,0,0,0,0,0,0,0,0,0,0,0,0,0,0,0,0,0,0,0,0,0h0l0,0h-.25v-.56h.24l.07,0h.07l.07,0,.07,0,.06,0,.06,0,.06,0,.06,0,0,0,.06,0,0,0,0,0,.05,0,0,0,0,0,0,0,.05,0,0,0,0,0,0,0h0l0,0h.3l0,.56Zm-1.74-.58h-.35l-.06,0h-.07l-.07,0-.07,0-.07,0-.07,0-.07,0-.08,0-.07,0-.08,0-.07,0-.08,0-.08,0-.08,0-.07,0-.08,0-.08,0h-.07l-.08,0-.08,0h-.08l-.07,0h-.31v-.56h.33l.07,0h.07l.06,0h.07l.07,0,.08,0,.07,0,.07,0,.08,0,.07,0,.08,0,.08,0,.07,0,.08,0,.08,0,.08,0h.07l.08,0,.08,0,.08,0h.47v.56Z"/><path class="cls-8" d="M77.41,42.69h0l-.06,0-.06,0,0,0,0,0-.06,0-.05,0-.06,0-.05,0,0,0h-.06l0,0h-.59l-.07,0h-.06l-.06,0-.07,0-.06,0-.07,0-.07,0-.07,0-.07,0-.08,0,.27-.5.07,0,.06,0,.06,0,.06,0,.06,0,0,0,0,0h.58l0,0h0l0,0,0,0,0,0,0,0,0,0,.32.48Zm-1.88,0h0l0,0Zm0,0,0,0,0,0,0,0h0l0,0H75l0,0,0,0,0,0-.06,0,0,0-.06,0-.06,0-.06,0-.06,0-.06,0-.07,0-.07,0-.08,0-.07,0-.08,0-.08,0-.09,0-.09,0h-.19l0-.56h.15l0,0h0l.06,0,0,0,.06,0,0,0,.06,0,0,0,.06,0,.06,0,.06,0,.07,0,.06,0,.07,0,.06,0,.07,0,.08,0,.07,0,.08,0h.45l.09,0,.1,0,.09,0,.09.05.09,0,0,0-.27.5Zm-1.92-.09Zm0,.56h-.28l-.07,0-.06,0-.07,0-.06,0,0,0L73,43l0,0-.05,0,0,0,0,0-.05,0,0,0,0,0,0,0,0,0,0,0,0,0,0,0,0,0h0l0,0h-.22v-.56h.22l.06,0h.07l.06,0,.06,0,.06,0,0,0,.05,0,.06,0,0,0,0,0,0,0,0,0,0,0,0,0,0,0,0,0,0,0,0,0,0,0h0l0,0h.27l0,.56Zm-1.5-.56h-.34l-.06,0h0l-.06,0-.06,0-.07,0-.06,0-.06,0-.07,0-.06,0-.07,0-.06,0-.07,0-.07,0-.06,0-.07,0-.07,0-.07,0h-.06l-.07,0H70.5l-.07,0h-.28v-.56h.39l0,0,.06,0h.06l.06,0,.07,0,.06,0,.06,0,.07,0,.07,0,.06,0,.07,0,.07,0,.06,0,.07,0,.07,0h.07l.07,0,.07,0h.42v.56Z"/><path class="cls-8" d="M76.64,41.53l0,0,0,0,0,0,0,0,0,0,0,0,0,0,0,0,0,0,0,0h-.05l0,0h-.54l-.05,0h-.06l-.05,0-.06,0,0,0-.06,0-.06,0-.06,0-.06,0-.07,0,.29-.49.06,0,0,0,0,0,0,0,.05,0,0,0H76l0,0h0l0,0,0,0,0,0,0,0,0,0,0,0,.32.48Zm-1.68,0h0l0,0,0,0Zm0,0,0,0,0,0,0,0,0,0h-.27l0,0,0,0,0,0,0,0,0,0,0,0,0,0-.06,0,0,0-.06,0-.06,0-.06,0-.07,0-.07,0-.07,0-.08,0-.08,0H73.4l0-.57h.15l0,0,0,0,.05,0,0,0,0,0,0,0,0,0,0,0,.05,0,0,0,0,0,.06,0,0,0,.06,0,.07,0,.06,0,.07,0,.07,0,.07,0h.34l.09,0,.08,0,.08,0,.09,0,.08.05,0,0-.29.49Zm-1.59-.12Zm0,.57h-.2l-.06,0h-.06L73,42l-.06,0,0,0,0,0,0,0,0,0,0,0,0,0,0,0,0,0,0,0,0,0,0,0,0,0,0,0,0,0h0l0,0,0,0h-.19v-.56h.2l.06,0,.06,0h.06l0,0,0,0,0,0,0,0,0,0,0,0,0,0,0,0,0,0,0,0,0,0,0,0,0,0,0,0,0,0,0,0h.05l0,0h.16l0,.57Zm-1.27-.53h-.36l0,0-.06,0h0l-.05,0,0,0-.06,0,0,0-.06,0,0,0-.06,0,0,0-.06,0-.06,0H71l-.06,0,0,0h-.06l-.06,0h-.31v-.56h.3l0,0h.05l0,0,.06,0,0,0,0,0,.06,0,.05,0,.06,0,.05,0,.06,0,.05,0,.06,0,.06,0,.06,0,.06,0h.06l.06,0h.37v.56Z"/><path class="cls-4" d="M88.52,71.56l.66-.63L87,68.64l3.64.92.71-.68-3.4-3.51-.66.64,2.27,2.34-3.71-1-.69.67,3.4,3.5Zm-3-.22-1.61-1.07.53,1.85,1.08-.78Zm2.61.49-.87.63-1-.64L84.63,73,85,74.09l-.84.61-1.34-5,.85-.61,4.46,2.79Zm-8.69,5.23.81-.43-1.81-3.38,2.66,2.93.84-.44-1-3.84,1.81,3.38.81-.42-2.3-4.31-1.31.7.8,3.34L78.4,72.07l-1.31.69,2.3,4.3ZM77,78l-1.6-4.6.94-.32,1.59,4.6L77,78Zm-4.62-1.71-.3-1.2.75-.18c.39-.1.62-.15.7-.16a.62.62,0,0,1,.41.1.56.56,0,0,1,.23.35.69.69,0,0,1,0,.38.56.56,0,0,1-.22.26,4,4,0,0,1-.85.28l-.71.17Zm-.27,3L73,79l-.49-2,.19,0a1.56,1.56,0,0,1,.5-.07.85.85,0,0,1,.34.13,6.7,6.7,0,0,1,.68.57l1,.85,1.14-.28-.81-.78a5.6,5.6,0,0,0-.73-.63,2.52,2.52,0,0,0-.62-.27,1.55,1.55,0,0,0,.83-.67,1.3,1.3,0,0,0,.1-1,1.33,1.33,0,0,0-.4-.69A1.14,1.14,0,0,0,74,73.9a3.74,3.74,0,0,0-1.14.15l-2,.5,1.19,4.73Zm-4.49.59-.68-4.82,3.59-.5.12.81L68,75.73l.15,1.07,2.43-.34.11.81-2.43.34.19,1.32,2.7-.38.12.81-3.69.51Zm-3.86-2.13,0,1.3.92,0a4.24,4.24,0,0,0,.68,0,.62.62,0,0,0,.36-.18.54.54,0,0,0,.15-.41.57.57,0,0,0-.39-.6,3.06,3.06,0,0,0-.87-.11l-.8,0Zm.07-1.94,0,1.13.64,0h.72a.66.66,0,0,0,.41-.16.5.5,0,0,0,.15-.38.51.51,0,0,0-.11-.37.52.52,0,0,0-.36-.18c-.1,0-.38,0-.85-.05l-.56,0Zm-1-.84,2,.06a6.47,6.47,0,0,1,.87.08,1.41,1.41,0,0,1,.5.22,1.22,1.22,0,0,1,.36.42,1.13,1.13,0,0,1,.13.58,1.18,1.18,0,0,1-.21.62,1.21,1.21,0,0,1-.51.41,1.32,1.32,0,0,1,.67.46,1.2,1.2,0,0,1,.21.75,1.38,1.38,0,0,1-.18.64,1.27,1.27,0,0,1-.44.48,1.36,1.36,0,0,1-.67.21c-.16,0-.56,0-1.19,0l-1.66,0L62.83,75Zm-5.31,1.19.71.17a3.58,3.58,0,0,0,.87.16.52.52,0,0,0,.32-.14.63.63,0,0,0,.19-.33.57.57,0,0,0,0-.41.64.64,0,0,0-.32-.28c-.07,0-.3-.09-.69-.19L57.82,75l-.3,1.2Zm-1.64,2.49,1.18-4.73,2,.5a3.7,3.7,0,0,1,1.07.4,1.09,1.09,0,0,1,.44.59,1.44,1.44,0,0,1,0,.8,1.35,1.35,0,0,1-.53.8,1.53,1.53,0,0,1-1,.2,2.17,2.17,0,0,1,.41.53,5.43,5.43,0,0,1,.36.9l.35,1.07L59,79.41l-.44-1.2a5.83,5.83,0,0,0-.33-.82.69.69,0,0,0-.23-.27,1.6,1.6,0,0,0-.48-.17l-.19,0-.49,2-1-.23Zm-1.6-2.51L53,75.7l1.22-1.5,0,1.93Zm1.09,2.41-.26-5.24-1-.34-3.4,4,1,.34.75-.92,1.84.64,0,1.18,1,.35Zm-6-4.39.38-.73,1.88,1-.91,1.71a2.91,2.91,0,0,1-1,.05,3.34,3.34,0,0,1-1.16-.36,2.7,2.7,0,0,1-1-.91,2.06,2.06,0,0,1-.32-1.21,3,3,0,0,1,.36-1.28,2.78,2.78,0,0,1,.92-1A2.18,2.18,0,0,1,49.65,71a2.58,2.58,0,0,1,1.15.34,2.26,2.26,0,0,1,1.08,1A1.67,1.67,0,0,1,52,73.58l-1-.29a1,1,0,0,0-.08-.69,1.12,1.12,0,0,0-.52-.51A1.38,1.38,0,0,0,49.3,72a1.77,1.77,0,0,0-.91.89,1.92,1.92,0,0,0-.27,1.33,1.29,1.29,0,0,0,.69.86,2.06,2.06,0,0,0,1.22.17l.29-.54-1-.53ZM42.77,72l3,2.18.48-.67-2.21-1.6.78-1.07,2,1.44.48-.67-2-1.43L46,69.3l2.14,1.55.48-.67-2.93-2.12L42.77,72Zm-2.48-2.32,2.83-2.91-1-1,.58-.59,2.8,2.69-.58.59-1-1L41,70.37l-.72-.69Z"/><path class="cls-5" d="M64.7,47.41H61.23c-4.31-7.42-2-14.5,3.47-15.21,5.49.71,7.79,7.79,3.47,15.21Z"/><path class="cls-9" d="M62.38,43.83c-.11.4-.25.83-.66.93s-.74-.22-1-.52c.52-.1.65.2.94.15s.27-.39.75-.56Z"/><path class="cls-9" d="M62.37,43.78l.09,0,0,.09-.06-.06Zm.06.06-.09,0,.06.06,0,0,0,0h0l0,0,0,0,0,0,0,0h0l0,0,0,0,0,0,0,0,0,0,0,0v0l0,0,0,0,0,0v0l0,0v0l0,0,0,0,0,0h0l0,0,0,0h-.05l0,0h-.06l0-.1h.13l0,0h0l0,0,0,0h0l0,0v0l0,0,0,0v0l0,0,0,0,0,0,0,0,0,0,0,0,0,0,0,0,0,0,0,0,0,0,0,0,0,0h0l0,0,.06.06Zm-.79.6Zm0-.1,0,.1h-.36l0,0h0l0,0H60.7l0-.1h.94Zm-1-.06-.07-.07.09,0,0,.09Zm0-.09,0,.1,0-.08,0,0,0,0,0,0,0,0,0,0,0,0,0,0,0,0,0,0,0,0,0,0,0,0,0,0,0,0,0,0,0,0,0,0,0,0h0l0,0h.4l0,.1h-.42l0,0,0,0h0l0,0,0,0,0,0,0,0,0,0,0,0,0,0,0,0,0,0,0,0,0,0,0,0,0,0,0,0,0,0,0,0,0,0,0,0,0-.09Zm1,.62Zm0,0,0-.1h.1l0,0h0l0,0,0,0,0,0,0,0,0,0,0,0,0,0,0,0v0l0,0,0,0,0,0,0,0v0l0,0v0l0,0v-.07l0,0v-.15l0,0v-.08l.09,0V44l0,0v.12l0,0v.07l0,0,0,0v0l0,0,0,0,0,0,0,0,0,0,0,0,0,0,0,0,0,0,0,0,0,0,0,0,0,0,0,0,0,0,0,0h0l0,0Z"/><path class="cls-9" d="M62.7,44.53c0,.42,0,.87-.4,1.07s-.78,0-1.13-.25c.48-.22.67,0,.94-.09s.17-.45.59-.73Z"/><path class="cls-9" d="M62.68,44.48l.07,0v.1l-.07-.05Zm.07.05h-.1l.08,0,0,0,0,0,0,0,0,0,0,0,0,0,0,0,0,0v0l0,0,0,0v0l0,0V45l0,0v.09l0,0v0l0,0v0l0,0,0,0,0,0,0,0h0l0-.09h0l0,0h0l0,0h0v0l0,0v-.15l0,0v-.06l0,0v0l0,0,0,0,0,0,0,0,0,0,0,0,0,0,0,0,0,0,0,0,0,0,.07.05Zm-.61.77Zm0-.09,0,.09h0l0,0h-.83l0,0,0,0,0-.09,0,0,.05,0,0,0h.81Zm-1,.19-.08,0,.09,0v.09Zm0-.09,0,.09v-.09l0,0,0,0,0,0,0,0,0,0,0,0h0l0,0,0,0h0l0,0,0,0h.07l0,0h.54l0,0,0,.09,0,0,0,0h-.6l0,0h0l0,0h0l0,0,0,0,0,0,0,0,0,0,0,0,0,0h0l0,0,0,0v-.09Zm1.17.33Zm0,0,0-.09h0l0,0,0,0,0,0,0,0,0,0,0,0,0,0,0,0,0,0v0l0,0v0l0,0v-.7h.1v.7l0,0v0l0,0,0,0,0,0,0,0,0,0,0,0,0,0,0,0,0,0,0,0,0,0,0,0Z"/><path class="cls-9" d="M63.46,45.25c0,.42,0,.86-.34,1.09s-.77,0-1.14-.18c.47-.25.67,0,.94-.15s.13-.45.54-.76Z"/><path class="cls-9" d="M63.43,45.21l.08-.06v.09l-.08,0Zm.08,0h-.1l.08,0,0,0,0,0,0,0,0,0,0,0,0,0,0,0,0,0,0,0,0,0v.08l0,0v.2l0,0v0l0,0v0l0,0,0,0,0,0,0,0h0l0-.08h0l0,0h0v0l0,0h0v-.32l0,0v0l0,0,0,0,0,0,0,0,0,0,0,0,0,0,0,0,0,0,0,0,.08,0Zm-.57.81h0Zm0-.08,0,.08h-.82l0,0,0,0,0,0,0-.09,0,0,0,0,0,0,0,0h.76Zm-.93.24-.08-.05.08,0v.09Zm0-.09,0,.09v-.09l0,0h0l0,0,0,0,0,0h0l0,0h0l0,0,0,0H63l0,0,0,0,0,.09,0,0,0,0h0l0,0h-.61l0,0h0l0,0h0l0,0,0,0h0l0,0,0,0,0,0h0l0,0v-.09Zm1.19.26Zm0,0,0-.09h0l0,0,0,0,0,0,0,0,0,0,0,0,0,0,0,0,0,0V46l0,0v-.74h.1V46l0,0v0l0,0,0,0,0,0,0,0,0,0,0,0,0,0,0,0,0,0,0,0Z"/><path class="cls-9" d="M62.1,42.93c-.12.41-.25.83-.66.93s-.74-.22-1-.51c.52-.1.64.2.94.14s.27-.39.75-.56Z"/><path class="cls-9" d="M62.09,42.88l.08,0,0,.1-.06-.07Zm.06.07-.09,0,.06.06h0l0,0,0,0,0,0h0l0,0,0,0,0,0,0,0,0,0,0,0,0,0,0,0,0,0,0,0v0l0,0,0,0v0l0,0,0,0v0h0l0,0,0,0,0,0h0l0,0h-.11l0-.1h.1v0h0v0l0,0h0l0,0v0l0,0,0,0v0l0,0,0,0,0,0,0,0,0,0,0,0,0,0,0,0,0,0,0,0,0,0,0,0,0,0,0,0,0,0,.05,0,.06.07Zm-.79.59Zm0-.1,0,.1h-.94l0-.1h.53l0,0h.39Zm-1-.06-.07-.06.09,0,0,.08Zm0-.08,0,.1,0-.09,0,0,0,0,0,0,0,0,0,0,0,0,0,0,0,0,0,0,0,0,0,0,0,0,0,0,0,0,0,0,0,0,0,0h0l0,0h0l0,0h.37l0,.09H61l0,0,0,0,0,0,0,0,0,0,0,0,0,0,0,0,0,0,0,0,0,0,0,0,0,0,0,0,0,0,0,0,0,0,0,0,0,0,0,0,0-.08Zm1.05.61Zm0,0,0-.09h.07l0,0h0l0,0,0,0h0l0,0,0,0,0,0,0,0,0,0,0,0,0,0,0,0,0,0,0,0v0l0,0v0l0,0v0l0,0v-.07l0,0V43l0,0,.09,0v0l0,0v.16l0,0v.08l0,0v0l0,0v0l0,0,0,0,0,0,0,0,0,0,0,0,0,0,0,0,0,0,0,0,0,0,0,0,0,0,0,0,0,0h0l0,0h-.08Z"/><path class="cls-9" d="M62.07,36.8c-.29.31-.6.63-1,.54s-.57-.53-.7-.92c.52.14.49.46.78.55s.42-.23.93-.17Z"/><path class="cls-9" d="M62.07,36.75h.1l-.07.07,0-.08Zm0,.08L62,36.76l0,.09h-.93l0-.1h.31l0,0h.59l0,.08Zm-1,.19Zm0-.1,0,.1h-.06l0,0h0l0,0h0l0,0,0,0h0l0,0v0l0,0,0,0v0l0,0,0,0,0,0v0l0,0,0,0,0,0,0,0h0l0,0,0,0,0,0h0l0,0,0,0h0l0,0h0l0-.1,0,0h0l0,0,0,0,0,0h0l0,0,0,0,0,0,0,0,0,0,0,0,0,0,0,0,0,0,0,0,0,0,0,0v0l0,0,0,0v0h0v0h0l0,0h.11Zm-.83-.48,0-.09.09,0-.06.07Zm.06-.07,0,.1.06-.06v.07l0,0v.07l0,0v.07l0,0v0l0,0v0l0,0,0,0,0,0,0,0v0l0,0,0,0,0,0,0,0,0,0,0,0,0,0,0,0,0,0,0,0h0l0,0h.1l0,.1H61l0,0h0l0,0,0,0,0,0,0,0,0,0,0,0,0,0,0,0,0,0,0,0,0,0,0,0,0,0,0,0,0,0,0,0,0,0v0l0,0v0l0,0v0l0,0v-.07l0,0v-.07l.06-.07Zm.67,1Zm0,0,0-.1h.39l0,0h0l0,0,0,0,0,0,0,0,0,0,0,0,0,0,0,0,0,0,0,0,0,0,0,0,0,0,0,0,0,0,0,0,0,0,0,0,.07.07,0,0,0,0,0,0,0,0,0,0,0,0,0,0,0,0,0,0,0,0,0,0,0,0,0,0,0,0,0,0,0,0,0,0,0,0,0,0,0,0h0l0,0h-.38Z"/><path class="cls-9" d="M62.45,36c-.29.31-.59.64-1,.55s-.56-.52-.7-.91c.51.14.5.46.78.54s.42-.24.93-.18Z"/><path class="cls-9" d="M62.45,36h.1l-.07.08,0-.09Zm0,.09L62.41,36l0,.08h-.61l0,0h-.29v-.1h.92l0,.09Zm-1,.19h0Zm0-.1v.1h-.06l0,0h0l0,0,0,0h0l0,0,0,0v0l0,0,0,0v0l0,0,0,0,0,0v0h0l0,0,0,0,0,0,0,0,0,0,0,0h0l0,0,0,0h0l0,0h-.09l0-.1h0l.05,0,0,0h0l0,0,0,0,0,0,0,0,0,0,0,0,0,0,0,0,0,0,0,0,0,0,0,0,0,0,0,0h0l0,0,0,0v0l0,0h0l0,0h.11Zm-.83-.47,0-.09.08,0,0,.07Zm0-.07,0,.1.06-.07v.08l0,0v.08l0,0v.07l0,0v0l0,0,0,0v0l0,0,0,0,0,0,0,0,0,0,0,0,0,0,0,0,0,0,0,0,0,0,0,0,0,0,0,0,0,0h.13l0,.1h-.08l0,0h0l0,0,0,0,0,0,0,0,0,0,0,0,0,0,0,0,0,0,0,0,0,0,0,0,0,0,0,0,0,0,0,0,0,0v0l0,0v0l0,0v0l0,0v-.07l0,0v-.07l0-.07Zm.68,1Zm0,0,0-.1h.37l0,0h0l0,0,0,0,0,0,0,0,0,0,0,0,0,0,0,0,0,0,0,0,0,0,0,0,0,0,0,0,0,0,0,0,0,0,0,0,0,0,.07.07,0,0,0,0,0,0,0,0,0,0,0,0,0,0,0,0,0,0,0,0,0,0,0,0,0,0,0,0,0,0,0,0,0,0,0,0,0,0,0,0h-.07l0,0h-.35Z"/><path class="cls-9" d="M63,35.31c-.33.27-.67.56-1.07.41s-.49-.59-.57-1c.48.21.42.52.7.64s.44-.18.94,0Z"/><path class="cls-9" d="M63,35.26l.09,0-.07.07,0-.09Zm0,.09L63,35.27l0,.09h-.95l0-.1H63l0,.09Zm-1,.06Zm0-.1,0,.1h0l0,0h0l0,0h0l0,0,0,0,0,0,0,0v0l0,0v0l0,0v0l0,0v0l0,0v0l0,0,0,0v0l0,0,0,0,0,0,0,0,0,0,0,0,0,0,0,0,0,0,0,0,0,0,0-.09,0,0,0,0,0,0,0,0,0,0,0,0,0,0,0,0,0,0,0,0,0,0,0,0,0,0v0l0,0,0,0v0l0,0v0l0,0v0l0,0h0l0,0h0l0,0h0l0,0Zm-.76-.58,0-.09.08,0-.06,0Zm.06,0,0,.09.06-.06v.49l0,0v0l0,0v0l0,0v0l0,0,0,0,0,0,0,0,0,0,0,0,0,0,0,0,0,0,0,0,0,0H62l0,.1,0,0h0l0,0,0,0,0,0,0,0,0,0,0,0,0,0,0,0,0,0,0,0,0,0,0,0v0l0,0,0,0v-.07l0,0v-.47l.06,0Zm.54,1.09Zm0,0,0-.1h0l0,0h.4l0,0h0l0,0h0l0,0,0,0,0,0,0,0,0,0,0,0,0,0,0,0,0,0,0,0,0,0,0,0,0,0,0,0,0,0,.06.08,0,0,0,0,0,0,0,0,0,0,0,0,0,0,0,0,0,0,0,0,0,0,0,0,0,0,0,0,0,0,0,0h0l0,0h-.53Z"/><path class="cls-9" d="M63.76,34.7c-.37.2-.77.41-1.13.18s-.36-.68-.35-1.09c.44.3.31.59.55.77s.47-.09.93.14Z"/><path class="cls-9" d="M63.78,34.66l.09,0-.08,0v-.09Zm0,.09,0-.09v.09l0,0,0,0h0l0,0h-.73l0,0h0l0-.09h.8l0,0,0,0,0,0v.09Zm-1-.15Zm0-.09,0,.09h0l0,0,0,0,0,0,0,0v0l0,0v0l0,0v-.22l0,0v-.07l0,0v0l0,0,0,0,0,0,0,0,0,0,0,0,0,0,0,0,0,0,.05-.09,0,0,0,0,0,0,0,0,0,0,0,0,0,0,0,0,0,0v0l0,0,0,0v.35h0l0,0v0h0Zm-.63-.73v-.09l.07.05-.08,0Zm.08,0-.05.09.07,0v.7l0,0v.07l0,0,0,0v0l0,0,0,0,0,0,0,0,0,0,0,0,0,0,0,.08,0,0,0,0,0,0,0,0,0,0,0,0,0,0,0,0,0,0,0,0,0,0v0l0,0v-.75l.08,0Zm.3,1.18Zm0,0,0-.08h0l0,0h0l0,0h.57l0,0h0l0,0h0l0,0,0,0h0l0,0,0,0,0,0h0l0,0,0,.09h0l0,0,0,0,0,0,0,0,0,0h0l0,0,0,0h0l0,0h-.07l0,0h-.49l0,0h0l0,0h0l0,0Z"/><path class="cls-10" d="M63.8,46.71l-.07,0a5.91,5.91,0,0,1-2.59-2.82,9,9,0,0,1-.78-3.94,8.56,8.56,0,0,1,.84-3.61,5.09,5.09,0,0,1,2.35-2.41.17.17,0,0,1,.22.08.15.15,0,0,1-.08.22c-1.78.83-2.93,3-3,5.72-.06,2.89,1.19,5.43,3.18,6.46a.17.17,0,0,1,.07.23.16.16,0,0,1-.15.09Z"/><path class="cls-9" d="M67.24,43.88c.11.4.25.83.66.93s.74-.22,1-.52c-.52-.1-.65.2-.94.15s-.27-.4-.75-.56Z"/><path class="cls-9" d="M67.19,43.89l0-.09.09,0-.06.06Zm0,0,.06-.06h0l0,0,0,0,0,0,0,0,0,0,0,0,0,0,0,0,0,0,0,0,0,0,0,0,0,0v0l0,0,0,0,0,0v0h0v0l0,0v0h0l0,0H68l0,.09h-.06l0,0h-.05l0,0,0,0h0l0,0,0,0,0,0v0l0,0,0,0v0l0,0,0,0v0l0,0,0,0,0,0,0,0,0,0,0,0,0,0h0l0,0,0,0,0,0h0l0,0,0,0,.06-.06-.09,0Zm.79.6Zm0-.1h.94l0,.1H68.3l0,0H68l0-.09Zm.94-.15.09,0-.07.07,0-.09Zm0,0,0,.09,0,0,0,0,0,0,0,0,0,0,0,0,0,0,0,0,0,0,0,0,0,0,0,0,0,0,0,0,0,0,0,0,0,0,0,0h0l0,0h0l0,0h-.38l0-.1h.4l0,0h0l0,0,0,0,0,0,0,0,0,0,0,0,0,0,0,0,0,0,0,0,0,0,0,0,0,0,0,0,0,0,0,0,0,0,0,0,0,.08,0-.1Zm-1,.62Zm0,0h0l0,0h0l0,0,0,0,0,0,0,0,0,0,0,0,0,0,0,0,0,0,0,0,0,0,0,0,0,0,0,0,0,0,0,0,0,0v0l0,0V44.2l0,0V44l0,0v-.11l.09,0v.08l0,0v.15l0,0v.07l0,0v0l0,0v0l0,0,0,0,0,0v0l0,0,0,0,0,0,0,0,0,0,0,0,0,0,0,0,0,0h0l0,0h.1l0,.1Z"/><path class="cls-9" d="M66.92,44.58c0,.42,0,.86.4,1.07s.78,0,1.13-.25c-.48-.22-.67,0-.94-.09s-.17-.45-.59-.73Z"/><path class="cls-9" d="M66.87,44.58v-.1l.07.05-.07,0Zm0,0,.07,0,0,0,0,0,0,0,0,0,0,0,0,0,0,0,0,0,0,0,0,0,0,0v0l0,0v0l0,0v.19l0,0v0h0l0,0h0l0,0h0l0,.09h0l0,0,0,0,0,0,0,0v0l0,0v0l0,0v-.07l0,0v-.15l0,0v0l0,0,0,0v0l0,0,0,0,0,0,0,0,0,0,0,0,0,0,0,0,.07,0Zm.62.77h0Zm0-.09h.81l0,0,0,0,0,0,0,.09,0,0,0,0h-.84l0,0h0l0-.09Zm.94.1.09,0-.08,0v-.08Zm0,0v.08l0,0,0,0h0l0,0,0,0,0,0,0,0,0,0,0,0,0,0h0l0,0,0,0h-.6l0,0h0l0,0,0-.09,0,0h.54l0,0H68l0,0h0l0,0,0,0,0,0,0,0h0l0,0,0,0,0,0,0,0,0,0v.09l0-.09Zm-1.17.33Zm0,0h0l0,0,0,0,0,0,0,0,0,0,0,0,0,0,0,0,0,0v0l0,0,0,0v0l0,0v-.7H67v.7l0,0v0l0,0v0l0,0,0,0,0,0,0,0,0,0,0,0,0,0,0,0,0,0h0l0,.09Z"/><path class="cls-9" d="M66.16,45.3c0,.42,0,.86.34,1.09s.77,0,1.14-.18c-.47-.25-.68,0-.94-.15s-.13-.45-.54-.76Z"/><path class="cls-9" d="M66.11,45.29V45.2l.08.06-.08,0Zm0,0,.08,0,0,0,0,0,0,0,0,0,0,0,0,0,0,0,0,0,0,0,0,0v0l0,0v.32h0l0,0v0h0l0,0h0l-.06.08h0l0,0,0,0,0,0,0,0,0,0v-.07l0,0v-.16l0,0v-.07l0,0v0l0,0,0,0,0,0,0,0,0,0,0,0,0,0,0,0,0,0,.08,0Zm.57.82Zm0-.09h.76l0,0,0,0h.05l0,0,0,.09,0,0,0,0,0,0h0l0,0h-.75l.06-.08Zm.93.15.08,0-.08,0v-.09Zm0,0v.09l0,0h0l0,0,0,0,0,0h0l0,0,0,0h0l0,0h0l0,0h-.61l0,0h0l0,0,0,0,0-.09,0,0,0,0h.65l0,0h0l0,0h0l0,0h0l0,0,0,0,0,0h0l0,0v.09l0-.09Zm-1.19.26Zm0,0h0l0,0,0,0,0,0,0,0,0,0,0,0,0,0,0,0,0,0,0,0v0l0,0v-.78h.1v.77l0,0v0l0,0,0,0,0,0,0,0,0,0,0,0,0,0,0,0,0,0h0l0,.09Z"/><path class="cls-9" d="M67.52,43c.12.41.25.83.66.93s.74-.22,1-.51c-.52-.1-.64.2-.94.14s-.27-.39-.75-.56Z"/><path class="cls-9" d="M67.47,43l0-.09.08,0-.06.06Zm0,0,.06-.06,0,0,0,0,0,0,0,0,0,0,0,0,0,0,0,0,0,0,0,0,0,0,0,0,0,0,0,0,0,0,0,0v0l0,0v0l0,0,0,0v0h0v0h0v0h.1l0,.1h-.11l0,0h0l0,0,0,0,0,0,0,0h0l0,0,0,0v0l0,0,0,0v0l0,0,0,0,0,0,0,0,0,0,0,0,0,0,0,0,0,0,0,0h0l0,0,0,0,0,0h0l.06-.06-.09,0Zm.79.6Zm0-.1h.94l0,.1h-.94l0-.1Zm.94-.14.09,0-.07.06,0-.08Zm0,0,0,.08,0,0,0,0,0,0,0,0,0,0,0,0,0,0,0,0,0,0,0,0,0,0,0,0,0,0,0,0,0,0,0,0,0,0,0,0,0,0,0,0h-.46l0-.09h.37l0,0h0l0,0h0l0,0,0,0,0,0,0,0,0,0,0,0,0,0,0,0,0,0,0,0,0,0,0,0,0,0,0,0,0,0,0,0,0,0,0,.09,0-.1Zm-1,.61Zm0,0h-.08l0,0h0l0,0,0,0,0,0,0,0,0,0,0,0,0,0,0,0,0,0,0,0,0,0,0,0,0,0,0,0,0,0v0l0,0v0l0,0v-.08l0,0v-.16l0,0v0l.09,0,0,0v.19l0,0v.07l0,0v.07l0,0,0,0v0l0,0,0,0,0,0,0,0,0,0,0,0,0,0,0,0,0,0,0,0,0,0,0,0,0,0h0l0,0h.07l0,.09Z"/><path class="cls-9" d="M67.94,42.17c.11.4.24.83.66.93s.74-.22,1-.51c-.52-.1-.65.19-.94.14s-.27-.39-.75-.56Z"/><path class="cls-9" d="M67.89,42.18l0-.09.09,0-.06.06Zm0,0,.06-.06,0,0,0,0h0l0,0,0,0,0,0,0,0,0,0,0,0,0,0,0,0,0,0,0,0,0,0,0,0,0,0,0,0v0l0,0,0,0v0h0v0h0l0,0h0l0,0h.08l0,.1h-.09l0,0h0l0,0h0v0l0,0,0,0,0,0v0h0l0,0v0l0,0,0,0,0,0v0l0,0,0,0,0,0,0,0,0,0,0,0,0,0,0,0,0,0h0l0,0,0,0h0l.06-.07-.09,0Zm.79.6Zm0-.1H69l0,0h.61l0,.09h-.94l0-.1Zm.94-.14h.09l-.07.07,0-.08Zm0,0,0,.08,0,0,0,0,0,0,0,0,0,0,0,0,0,0,0,0,0,0,0,0,0,0,0,0,0,0,0,0,0,0,0,0,0,0,0,0,0,0h0l0,0h-.42v-.1h.31l0,0H69l0,0,0,0h0l0,0,0,0,0,0,0,0,0,0,0,0,0,0,0,0,0,0,0,0,0,0,0,0,0,0,0,0,0,0,0,0,0,.08,0-.09Zm-1,.61h0Zm0,0h-.08l0,0h0l0,0,0,0,0,0,0,0,0,0,0,0,0,0,0,0,0,0,0,0,0,0,0,0v0l0,0,0,0,0,0v0l0,0v0l0,0v-.15l0,0v-.12l.09,0v.16l0,0v.11l0,0v0l0,0v0l0,0v0l0,0,0,0v0l0,0,0,0,0,0,0,0,0,0,0,0,0,0,0,0,0,0,0,0,0,0h.12v.1Z"/><path class="cls-9" d="M68,41.18c.12.4.25.83.67.93s.73-.22,1-.52c-.53-.1-.65.2-.94.15s-.27-.4-.76-.56Z"/><path class="cls-9" d="M68,41.19l0-.09.09,0-.06.06Zm0,0,.06-.06h0l0,0,0,0,0,0,0,0,0,0,0,0,0,0,0,0,0,0,0,0,0,0,0,0,0,0,0,0,0,0,0,0v0l0,0h0v0l0,0v0h0v0h.14l0,.09h0l0,0h0l0,0h0l0,0v0h0l0,0,0,0,0,0v0l0,0v0l0,0,0,0,0,0v0l0,0,0,0,0,0,0,0,0,0,0,0,0,0h0l0,0,0,0,0,0h0l0,0,.06-.06-.09,0Zm.79.6Zm0-.1h.94l0,.1h-.94l0-.09Zm.94-.15.09,0-.07.07,0-.09Zm0,0,0,.09,0,0,0,0,0,0,0,0,0,0,0,0,0,0,0,0,0,0,0,0,0,0,0,0,0,0,0,0,0,0,0,0,0,0,0,0h0l0,0h0l0,0h-.38l0-.1h.4l0,0h0l0,0,0,0,0,0,0,0,0,0,0,0,0,0,0,0,0,0,0,0,0,0,0,0,0,0,0,0,0,0,0,0,0,0,0,0,0,.08,0-.1Zm-1,.62Zm0,0h0l0,0h0l0,0,0,0,0,0,0,0,0,0,0,0,0,0,0,0,0,0,0,0,0,0,0,0,0,0,0,0v0l0,0,0,0v0l0,0v0l0,0v-.12l0,0v-.15l.09,0v.15l0,0v.11l0,0v0l0,0v.06l0,0,0,0v0l0,0,0,0,0,0,0,0,0,0,0,0,0,0,0,0,0,0,0,0h0l0,0,0,0h.1l0,.1Z"/><path class="cls-9" d="M68.18,40.21c.12.41.25.84.66.94s.74-.22,1-.52c-.52-.1-.65.2-.94.15s-.27-.4-.76-.57Z"/><path class="cls-9" d="M68.14,40.23l0-.09.09,0-.06.06Zm0,0,.06-.06h0l.05,0,0,0,0,0,0,0,0,0,0,0,0,0,0,0,0,0,0,0,0,0,0,0,0,0,0,0,0,0,0,0v0h0l0,0v0l0,0v0h0l0,0H69l0,.09h-.11l0,0h0l0,0v0h0l0,0,0,0,0,0v0l0,0v0l0,0,0,0,0,0v0l0,0,0,0,0,0,0,0,0,0,0,0,0,0h0l0,0,0,0,0,0h0l0,0,.06-.06-.09,0Zm.79.59Zm0-.09h.93v.1h-.94l0-.09Zm.93-.15.1,0-.07.07,0-.09Zm0,0,0,.09,0,0,0,0,0,0,0,0,0,0,0,0,0,0,0,0,0,0,0,0,0,0,0,0,0,0,0,0,0,0,0,0,0,0,0,0h0l0,0h0l0,0h-.39l0-.1h.4l0,0h0l0,0,0,0,0,0,0,0,0,0,0,0,0,0,0,0,0,0,0,0,0,0,0,0,0,0,0,0,0,0,0,0,0,0,0,0,0,.09v-.1Zm-1,.62Zm0,0h0l0,0h-.07l0,0,0,0,0,0,0,0,0,0,0,0,0,0,0,0,0,0,0,0,0,0,0,0,0,0,0,0v0l0,0,0,0v0l0,0v0l0,0v-.11l0,0v-.15l.09,0v.15l0,0v.11l0,0v0l0,0v.07l0,0,0,0,0,0v0l0,0,0,0,0,0,0,0,0,0,0,0,0,0,0,0,0,0h0l0,0h0l0,0h.07l0,.1Z"/><path class="cls-9" d="M68.11,39.31c.18.38.38.79.8.82s.7-.33.94-.66c-.53,0-.61.29-.91.28s-.32-.34-.83-.44Z"/><path class="cls-9" d="M68.07,39.33l0-.09.09,0-.05.07Zm0,0,.05-.07h.14l0,0h0l0,0h0l0,0,0,0,0,0h0l0,0,0,0,0,0,0,0h0l0,0,0,0,0,0h0l0,0h0l0,0H69v.1h-.19l0,0h0l0,0h0l0,0,0,0h0v0l0,0,0,0h0l0,0,0,0h0l0,0,0,0h0l0,0h0l0,0h-.2l.06-.07-.09,0Zm.87.47Zm0-.1h.25l0,0h0l0,0h0l0,0h0l0,0h.43v.1h-.34l0,0h-.1l0,0h0l0,0h0l0,0h-.09l0,0h-.17v-.1Zm.9-.28h.09l0,.08,0-.08Zm0,0,0,.08,0,0,0,0,0,0,0,0,0,0,0,0,0,0,0,0,0,0,0,0,0,0,0,0,0,0,0,0,0,0,0,0,0,0,0,0,0,0,0,0,0,0h0l0,0,0,0H68.9v-.1h.33l0,0,0,0,0,0,0,0,0,0,0,0,0,0,0,0,0,0,0,0,0,0,0,0,0,0,0,0,0,0,0,0,0,0,0,0,0,0,0,0,0,0,0,0,0,.08v-.1Zm-.95.76Zm0,0h-.19l0,0,0,0h0l0,0,0,0,0,0,0,0,0,0,0,0,0,0,0,0,0,0,0,0,0,0,0,0,0,0,0,0,0,0,0,0,0,0,0,0v0l0,0,0,0,0,0v0l0,0,.09,0v0l0,0,0,0v0l0,0,0,0,0,0v0l0,0,0,0,0,0,0,0,0,0,0,0,0,0,0,0,0,0,0,0,0,0,0,0,0,0,0,0,0,0,0,0,0,0h.06l0,0h.14v.1Z"/><path class="cls-9" d="M68.1,38.44c.25.34.51.7.94.67s.62-.46.8-.83c-.53.08-.54.4-.84.44s-.38-.28-.9-.28Z"/><path class="cls-9" d="M68.07,38.47,68,38.39h.09l0,.08Zm0,0,0-.08h.4l0,0h0l0,0h0l0,0h0l0,0H69v.1h-.3l0,0h-.05l0,0h0l0,0H68.1l0-.08-.07.06Zm.94.3Zm0-.1h.14l0,0h0l0,0,0,0h0v0l0,0h0l0,0,0,0,0,0,0,0,0,0,0,0h0l0,0,0,0h0l0,0h.22l0,.1h-.13l0,0h-.07l0,0h-.06l0,0,0,0h0l0,0,0,0h0l0,0v0l0,0h0l0,0,0,0h0l0,0,0,0h0l0,0H69v-.1Zm.83-.44h.09l0,.08,0-.07Zm0,0,0,.07v0l0,0,0,0,0,0v0l0,0,0,0,0,0,0,0,0,0,0,0,0,0,0,0,0,0,0,0,0,0,0,0,0,0,0,0,0,0,0,0,0,0,0,0,0,0,0,0,0,0h0l0,0H69v-.1h.2l0,0h0l0,0,0,0,0,0,0,0,0,0,0,0,0,0,0,0,0,0,0,0,0,0,0,0,0,0,0,0,0,0,0,0v0l0,0,0,0,0,0,0,0v0l0,0,0,0,0,.07,0-.1Zm-.79.93Zm0,0h-.27l0,0h0l0,0h0l0,0,0,0,0,0,0,0,0,0,0,0,0,0,0,0,0,0,0,0,0,0,0,0,0,0,0,0,0,0,0,0,0,0,0,0,0,0,0,0,0,0,.07-.06,0,0,0,0,0,0,0,0,0,0,0,0,0,0,0,0,0,0,0,0,0,0,0,0,0,0,0,0,0,0,0,0,0,0,0,0,0,0,0,0,0,0h0l0,0H69v.1Z"/><path class="cls-9" d="M67.9,37.66c.26.34.54.69,1,.63s.6-.47.77-.85c-.52.09-.53.41-.82.47s-.4-.27-.91-.25Z"/><path class="cls-9" d="M67.86,37.69l-.06-.08h.1l0,.08Zm0,0,0-.08h.45l0,0h.05l0,0h.07l0,0h.26V38H68.5l0,0h-.07l0,0h-.1l0,0H67.9l0-.08-.08.06Zm1,.27Zm0-.1H69v0h0l0,0h0l0,0,0,0,0,0,0,0,0,0,0,0,0,0h0l0,0,0,0,0,0,0,0,0,0h0l0,0h0l0,0h.14l0,.1h-.21l0,0h0l0,0h0l0,0,0,0h0l0,0,0,0,0,0,0,0h0v0l0,0,0,0,0,0h0l0,0,0,0h0l0,0h0l0,0h-.09v-.1Zm.82-.47.09,0,0,.09,0-.07Zm0,0,0,.07v0l0,0,0,0v0l0,0,0,0v0l0,0,0,0,0,0,0,0,0,0,0,0,0,0,0,0,0,0,0,0,0,0,0,0,0,0,0,0,0,0,0,0,0,0,0,0,0,0h0l0,0h-.16v-.1H69l0,0h0l0,0,0,0,0,0,0,0,0,0,0,0,0,0,0,0,0,0,0,0,0,0,0,0,0,0,0,0,0,0,0,0,0,0v0l0,0,0,0v0l0,0,0,0v0l0,0v0l.06.07,0-.1Zm-.76,1Zm0,0h-.35l0,0h0l0,0,0,0,0,0,0,0,0,0,0,0,0,0,0,0,0,0,0,0,0,0,0,0,0,0,0,0,0,0,0,0,0,0,0,0,0,0,0,0,0,0,.08-.06,0,0,0,0,0,0,0,0,0,0,0,0,0,0,0,0,0,0,0,0,0,0,0,0,0,0,0,0,0,0,0,0,0,0,0,0,0,0,0,0,0,0h.06l0,0h.27v.1Z"/><path class="cls-9" d="M67.54,36.85c.28.31.59.63,1,.54s.57-.53.7-.92c-.51.15-.49.46-.78.55s-.42-.23-.92-.17Z"/><path class="cls-9" d="M67.5,36.88l-.07-.07h.1l0,.08Zm0,0,0-.08h.62l0,0h.28l0,.1h-.93l0-.09-.07.07Zm1,.19h0Zm0-.1h.12v0h0l0,0h0l0,0v0l0,0,0,0v0l0,0,0,0,0,0,0,0,0,0,0,0,0,0,0,0,0,0,0,0,0,0h0l0,0,0,0,0,0h.05l0,0,0,.1h0l0,0h0l0,0h0l0,0,0,0,0,0,0,0h0l0,0,0,0,0,0,0,0,0,0,0,0,0,0v0l0,0,0,0v0l0,0,0,0,0,0h0l0,0h0l0,0h0l0,0h-.06l0-.1Zm.78-.55.08,0,0,.09,0-.07Zm0,0,0,.07v.11l0,0v0l0,0v.08l0,0v0l0,0,0,0v0l0,0,0,0,0,0,0,0,0,0,0,0,0,0,0,0,0,0,0,0,0,0,0,0,0,0,0,0,0,0h0l0,0h-.07l0-.1h.11l0,0h0l0,0,0,0,0,0,0,0,0,0,0,0,0,0,0,0,0,0,0,0,0,0,0,0v0l0,0,0,0v0l0,0v0l0,0v0l0,0V36.6l0,0v-.11l.06.06,0-.1Zm-.67,1Zm0,0h-.39l0,0h0l0,0,0,0,0,0,0,0,0,0,0,0,0,0,0,0,0,0,0,0,0,0,0,0,0,0,0,0,0,0,0,0,0,0,0,0,0,0,0,0,.07-.07,0,0,0,0,0,0,0,0,0,0,0,0,0,0,0,0,0,0,0,0,0,0,0,0,0,0,0,0,0,0,0,0,0,0h0l0,0,0,0h.39l0,.1Z"/><path class="cls-9" d="M67.17,36.07c.28.31.59.64,1,.55s.56-.52.7-.91c-.52.14-.5.46-.78.54s-.42-.24-.93-.18Z"/><path class="cls-9" d="M67.14,36.1,67.07,36h.1l0,.08Zm0,0,0-.08h.92v.1h-.26l0,0h-.63l0-.08-.07.06Zm1,.2Zm0-.1h.13v0h0l0,0v0l0,0v0h0l0,0,0,0,0,0,0,0,0,0,0,0,0,0,0,0,0,0,0,0,0,0,0,0,0,0,0,0,0,0h0l0,0h0l0,.1H68.8l0,0h0l0,0,0,0h0l0,0,0,0,0,0,0,0,0,0,0,0h0l0,0v0l0,0,0,0v0l0,0,0,0,0,0v0l0,0h0l0,0,0,0h0l0,0H68.1v-.1Zm.77-.54.09,0,0,.09-.06-.07Zm0,0,.06.07v.07l0,0v.07l0,0v0l0,0v0l0,0,0,0v0l0,0,0,0,0,0,0,0,0,0,0,0,0,0,0,0,0,0,0,0,0,0,0,0,0,0,0,0,0,0,0,0h0l0,0h-.08l0-.1h.14l0,0,0,0,0,0,0,0,0,0,0,0,0,0,0,0,0,0,0,0,0,0,0,0,0,0,0,0,0,0v0l0,0v0l0,0,0,0v-.07l0,0V35.8l0,0v-.07l.06.07,0-.1Zm-.67,1h0Zm0,0h-.35l0,0h0l0,0h0l0,0,0,0,0,0,0,0,0,0,0,0,0,0,0,0,0,0,0,0,0,0,0,0,0,0,0,0,0,0,0,0,0,0,0,0,0,0,.07-.06,0,0,0,0,0,0,0,0,0,0,0,0,0,0,0,0,0,0,0,0,0,0,0,0,0,0,0,0,0,0,0,0,0,0,0,0,0,0h0l0,0h.36l0,.1Z"/><path class="cls-9" d="M66.6,35.34c.32.27.67.56,1.07.42s.49-.6.57-1c-.48.2-.42.52-.7.63s-.44-.17-.94,0Z"/><path class="cls-9" d="M66.57,35.38l-.07-.06.09,0,0,.09Zm0,0,0-.09h.94l0,.09h-1l0-.09-.06.08Zm1,.06Zm0-.09h0v0h0v0h0v0l0,0h0v0l0,0v-.05l0,0v0l0,0,0,0v0l0,0,0,0,0,0,0,0,0,0,0,0,0,0,0,0,0,0,0,0,0,0,0,0,0,0,0,.09,0,0,0,0,0,0,0,0,0,0,0,0,0,0,0,0,0,0,0,0,0,0v0l0,0,0,0v0l0,0v0l0,0v0l0,0v0l0,0,0,0v0l0,0h0l0,0,0,0h0l0,0h0l0-.09Zm.7-.64.08,0,0,.09-.06-.06Zm0,0,.06.06v.46l0,0v0l0,0v0l0,0v0l0,0,0,0,0,0,0,0,0,0,0,0,0,0,0,0,0,0,0,0,0,0,0,0,0,0h0l0-.09,0,0h0l0,0,0,0,0,0,0,0,0,0,0,0,0,0,0,0,0,0,0,0v0l0,0,0,0v0l0,0v-.07l0,0v-.44l.06,0,0-.09Zm-.54,1.09Zm0,0h0l0,0h-.42l0,0h-.07l0,0,0,0,0,0,0,0,0,0,0,0,0,0,0,0,0,0,0,0,0,0,0,0,0,0,0,0,0,0,0,0,0,0,.06-.08,0,0,0,0,0,0,0,0,0,0,0,0,0,0,0,0,0,0,0,0,0,0,0,0,0,0h0l0,0,0,0h0l0,0h.47l0,.09Z"/><path class="cls-9" d="M65.86,34.75c.37.2.77.4,1.13.18s.36-.68.35-1.09c-.44.3-.31.59-.55.77s-.47-.09-.93.14Z"/><path class="cls-9" d="M65.83,34.8l-.08,0,.09,0v.09Zm0,0v-.09l0,0h0l0,0h.8l0,.09h0l0,0H66l0,0h0l0,0,0,0v-.09l0,.09Zm1-.15Zm0-.09h0l0,0h0l0,0h0v-.35l0,0,0,0v0l0,0,0,0,0,0,0,0,0,0,0,0,0,0,0,0,0,0,0,.09,0,0,0,0,0,0,0,0,0,0,0,0,0,0,0,0,0,0v0l0,0v.06l0,0v.24l0,0v0l0,0v0l0,0,0,0,0,0,0,0h0l0-.09Zm.55-.77.07,0v.09l-.08,0Zm0,0,.08,0v.71l0,0v.07l0,0,0,0,0,0,0,0,0,0,0,0,0,0,0,0,0,0,0,0,0,0L67,34.89l0,0,0,0,0,0,0,0,0,0,0,0,0,0v0l0,0,0,0v-.1l0,0v-.67l.07,0,0-.09ZM67,35Zm0,0h0l0,0,0,0,0,0h-.56l0,0h-.07l0,0h0l0,0,0,0h0l0,0,0,0,0,0,0,0,0,0h0l0-.09h0l0,0,0,0,0,0,0,0,0,0h0l0,0h0l0,0h0l0,0h.57l0,0h0l0,0h0L67,35Z"/><path class="cls-10" d="M65.82,46.76a.16.16,0,0,1-.15-.09.16.16,0,0,1,.07-.23c2-1,3.24-3.57,3.18-6.46-.06-2.7-1.21-4.89-3-5.72a.15.15,0,0,1-.08-.22.17.17,0,0,1,.22-.08,5.09,5.09,0,0,1,2.35,2.41A8.56,8.56,0,0,1,69.26,40a8.94,8.94,0,0,1-.78,3.93,5.89,5.89,0,0,1-2.59,2.83l-.07,0Z"/><path class="cls-4" d="M65.27,45.24a4.16,4.16,0,0,0,0-2.08,5,5,0,0,0,1.23-2.74,1.67,1.67,0,0,0-.25-2.29C66.19,36.42,65,36.51,64.69,35a2,2,0,0,0-.34,1.8c-.24,0-.4.13-.43.31,0,1.68,1.6,2.93,1.29,5.15-.09.46-.21.28-.77-.18-.12-.21-.46-.06-.21.31.83,1.25.24.82.55,3,.09.12.43,0,.49-.06Z"/><path class="cls-11" d="M65.32,45.25h0l0,0Zm-.09,0,.09,0,0,0h-.53v0h0l.08-.06h.42v0Zm-.49.11h0v0Zm.08-.06-.08.06v0l0-.19,0-.18,0-.17v-1.6l0-.06,0-.05,0-.07,0-.07,0-.07,0-.08,0-.09-.06-.09-.07-.1-.07-.11.08-.06.07.11.07.11.06.09,0,.09,0,.08,0,.08,0,.07,0,.07,0,.06,0,.06v1.63l0,.16,0,.18,0,.19v0Zm-.55-3Zm0,0-.08.06h0l0,0,0,0,0,0V42l0,0v0h0l0,0h.21l0,0h0v0l0,0,0,0-.09.05v0H64.2v0h0v0h0v.15l0,0,0,0Zm.14-.24h0Zm0,0,.09-.05,0,0,0,0,0,0,.05,0,0,0,0,0,0,0,0,0,0,0,0,0,0,0,0,0,0,0,0,0h.14v-.2l.1,0v.2l0,0v0h0l0,0h-.2l0,0,0,0,0,0,0,0,0,0,0,0,0,0,0,0,0,0,0,0,0,0,0,0,0,0-.06,0Zm.86.16Zm0,0-.1,0h0l0-.21v-.76l0-.18,0-.17,0-.17,0-.17,0-.16-.06-.17,0-.16-.07-.15-.06-.16-.07-.15-.06-.15-.07-.15-.07-.15L64.42,39l-.06-.15-.07-.14-.06-.15-.06-.15-.06-.14,0-.15L64,38l0-.15,0-.15,0-.15,0-.16v-.31H64v.3l0,.15,0,.15,0,.15,0,.14.05.15,0,.14,0,.14.06.15.07.14.06.15.07.14.07.15.06.15.07.15.07.15.07.15.06.16L65,40l.06.16.06.16,0,.17,0,.17,0,.18,0,.18,0,.18,0,.19V42l0,.21Zm-1.38-5.17h0Zm.09,0h-.09V37h0v0h0v0h0l0,0h.37v.1H64v0h0v0h0v0Zm.43-.32,0,.06h-.06l0-.06Zm0,.06v-.1l0,.07,0-.06,0-.06v-.06l0-.07v-.64l0-.06v-.06l0-.06v-.05l0-.06,0-.05,0-.06,0-.06,0-.05,0-.06,0-.05,0-.06,0-.06,0,0,0-.05,0-.06,0,0,.08,0,0,.05,0,.06,0,0,0,.06,0,0,0,0,0,.06,0,0,0,.05,0,.06,0,0,0,0,0,.06v0l0,.06v.83l0,.06,0,.06,0,.06Zm.29-1.87.07-.11,0,.12Zm.08,0-.08,0h.09l0,.14,0,.13,0,.12,0,.12,0,.1,0,.1.06.1,0,.09.06.08.06.08.06.08.06.08.07.07.06.07.07.08.07.07.06.07.07.07.06.08.06.08.06.08.06.09L66,37l0,.1,0,.1,0,.1,0,.12,0,.12,0,.13,0,.14,0,.15v.15h-.1V38l0-.15,0-.13,0-.12,0-.12,0-.11,0-.1,0-.1,0-.09L65.88,37l-.06-.08,0-.08-.06-.07-.07-.08-.06-.07-.06-.07-.07-.08-.06-.07-.07-.07-.07-.08-.06-.07-.07-.08L65.06,36,65,35.89l-.06-.09,0-.1,0-.1,0-.12,0-.11,0-.13,0-.13,0-.15.09,0Zm1.49,3.18h0v0l0,0Zm0,0h.1l0,0,.06.06.06.06,0,.06,0,.06,0,.06,0,.06,0,.06,0,.07,0,.06,0,.07,0,.06,0,.07,0,.07,0,.07,0,.07v.53l0,.08v.08l0,.09,0,.08,0,.09,0,.08,0,.09,0,.09,0,.09,0,.09-.08,0,.05-.09,0-.09,0-.08,0-.09,0-.08,0-.08,0-.08,0-.08,0-.08V39l0-.07,0-.06,0-.06,0-.07,0-.06,0-.06,0-.06,0-.06,0-.06,0-.06-.05-.06,0,0-.06-.06,0-.06,0,0Zm.25,2.28h0v0Zm0,0,.08,0v.28l0,.1v.1l0,.1,0,.1,0,.1,0,.1,0,.09,0,.1,0,.09,0,.1,0,.09,0,.09,0,.09,0,.09,0,.09,0,.08,0,.09,0,.08-.05.08,0,.08,0,.08,0,.08-.06.07,0,.07,0,.07-.05.07,0,.07,0,.06,0,.06-.07-.06,0-.06,0-.07,0-.06.05-.07.06-.07.05-.07,0-.07,0-.08,0-.07,0-.08.05-.08,0-.08,0-.09,0-.08L66,42l0-.09,0-.08,0-.09,0-.09,0-.1,0-.09,0-.09,0-.1,0-.09,0-.1,0-.09,0-.1,0-.1,0-.09v-.32Zm-1.23,2.78v0l0,0v0Zm0,0,.07.06v0l0,.08,0,.09v.08l0,.09v1.76l-.09,0v-1.8l0-.08,0-.08v-.13Z"/><path class="cls-5" d="M66.56,38.63a.28.28,0,0,1-.25.18.29.29,0,0,1-.28-.28.28.28,0,0,1,.28-.27.27.27,0,0,1,.27.27.3.3,0,0,1,0,.1Z"/><path class="cls-12" d="M66.31,38.27a.27.27,0,1,0,0,.53.27.27,0,0,0,.25-.17.36.36,0,0,0,0-.1.27.27,0,0,0-.27-.26Zm0,.54a.28.28,0,1,1,0-.55.28.28,0,0,1,.28.27.3.3,0,0,1,0,.1.28.28,0,0,1-.26.18Z"/><path class="cls-5" d="M66.66,39.67a.27.27,0,0,1-.25.18.27.27,0,1,1,0-.54.27.27,0,0,1,.27.27.29.29,0,0,1,0,.09Z"/><path class="cls-12" d="M66.41,39.31a.27.27,0,0,0-.27.27.27.27,0,0,0,.52.09.29.29,0,0,0,0-.09.27.27,0,0,0-.27-.27Zm0,.55a.28.28,0,0,1-.28-.28.27.27,0,0,1,.28-.28.28.28,0,0,1,.28.28.44.44,0,0,1,0,.1.3.3,0,0,1-.26.18Z"/><path class="cls-5" d="M66,37.18a.2.2,0,0,1-.19.14.21.21,0,0,1-.2-.21.2.2,0,0,1,.2-.2.21.21,0,0,1,.21.2.14.14,0,0,1,0,.07Z"/><path class="cls-12" d="M65.76,36.91a.2.2,0,0,0,0,.4.21.21,0,0,0,.19-.13.17.17,0,0,0,0-.07.2.2,0,0,0-.2-.2Zm0,.41a.21.21,0,0,1-.21-.21.21.21,0,1,1,.42,0,.17.17,0,0,1,0,.07.2.2,0,0,1-.2.14Z"/><path class="cls-9" d="M64,33.82c-.57.13-1.18.28-1.27.63-.15.62.29.27.55,0,.08-.24.54-.25.72-.67Z"/><path class="cls-9" d="M64,33.77l.1,0,0,.09L64,33.77Zm0,0,.06.07,0,0,0,0,0,0,0,0,0,0,0,0,0,0,0,0,0,0,0,0,0,0,0,0,0,0,0,0,0,0,0,0h0l0,0h0l0,0h0l0,0h0l0,0h0v0l0,0h0v0h0v0l-.09,0V34.4l0,0,0,0,0,0,0,0,0,0h0l0,0h0l0,0,0,0h0l0,0h0l0,0h0l0,0,0,0,0,0,0,0,0,0,0,0,0,0,0,0,0,0,0,0,0,0v0l0,0,0,0,.05.07,0-.1Zm-.66.74v0h0l0,0Zm0,0,0,0,0,0,0,0,0,0,0,0,0,0,0,0,0,0,0,0,0,0,0,0,0,0,0,0h0l0,0h-.19l0,0,0,0,0,0v-.34l.09,0v.26h.13l0,0h0l0,0h0l0,0,0,0,0,0,0,0,0,0,0,0,0,0,0,0,0,0,0,0v0l.09,0Zm-.65-.07Zm0,0h0v0l0,0,0,0,0,0,0,0,0,0,0,0,0,0,0,0,0,0,0,0,0,0,0,0,0,0,0,0,0,0,0,0,.05,0h0l.05,0,0,0h0l.05,0h0l.06,0h.1l.06,0h.16l0,0,0,.1h-.05l0,0h-.16l-.06,0h-.05l0,0h-.1l0,0-.05,0h0l0,0h0l0,0,0,0,0,0,0,0,0,0,0,0,0,0,0,0,0,0,0,0,0,0,0,0v0l0,0,0,0v.05h0l-.09,0Z"/><path class="cls-9" d="M65.71,34c.58.13,1.18.28,1.28.63.15.62-.29.27-.55,0-.09-.24-.54-.25-.73-.67Z"/><path class="cls-9" d="M65.67,34l0-.09.09,0,0,.07Zm0-.07,0,.1.06-.07v0l0,0,0,0,0,0,0,0,0,0,0,0,0,0,0,0,0,0,0,0,0,0,0,0h0l0,0,0,0h0l0,0h0l0,0,0,0h0l0,0h0l0,0,0,0,0,0,0,0v0l0,0v0l-.09,0v0h0v0h0v0h0l0,0h0l0,0h0l0,0h0l0,0h0l0,0h0l0,0,0,0,0,0h0l0,0,0,0,0,0,0,0,0,0,0,0,0,0,0,0,0,0,0,0,0,0,0,0,0-.07Zm.69.76h0v0l0,0Zm0,0,.09,0v0l0,0,0,0,0,0,0,0,0,0,0,0,0,0,0,0,0,0,0,0h0l0,0h0l0,0H67v-.26l.1,0v.34l0,0,0,0,0,0H66.8l0,0h0l0,0,0,0,0,0,0,0,0,0,0,0,0,0,0,0,0,0,0,0,0,0,0,0,0,0Zm.65-.07Zm0,0-.1,0h0v-.07l0,0,0,0,0,0,0,0,0,0,0,0,0,0,0,0,0,0,0,0,0,0,0,0,0,0,0,0h0l0,0h0l0,0,0,0h-.1l0,0H66l0,0h-.11l0,0H65.7l0-.1h.06l0,0h.11l0,0h.11l.05,0h.06l.05,0h0l0,0,0,0h0l0,0,0,0,0,0,0,0,0,0,0,0,0,0,0,0,0,0,0,0,0,0,0,0,0,0,0,0,0,0,0,0v0l0,0Z"/><polygon class="cls-4" points="98.73 6.98 98.73 6.98 65.23 6.98 31.52 6.98 31.52 6.98 30.64 6.98 30.64 8.26 30.64 8.26 30.64 62.74 30.64 62.74 30.64 62.75 31.53 62.72 31.53 7.91 31.52 7.91 31.52 7.45 31.53 7.45 31.53 7.91 65.23 7.91 98.94 7.91 98.94 7.9 99.38 7.9 99.38 7.91 98.94 7.91 98.94 62.73 98.94 62.72 98.94 62.74 98.94 62.73 98.82 64.48 98.58 66.1 98.21 67.59 97.73 68.97 97.15 70.24 96.47 71.4 95.69 72.47 94.83 73.46 93.88 74.36 92.86 75.18 91.78 75.94 90.62 76.63 89.41 77.27 88.15 77.85 86.85 78.39 85.51 78.88 84.15 79.34 82.76 79.77 81.36 80.18 79.95 80.57 78.54 80.96 77.14 81.34 75.75 81.72 74.38 82.11 73.03 82.51 71.73 82.94 70.46 83.39 69.24 83.88 68.07 84.42 66.97 85 65.93 85.64 65.23 86.14 65.5 86.34 64.97 86.34 65.23 86.14 64.54 85.64 63.5 85 62.4 84.42 61.23 83.88 60.01 83.39 58.74 82.94 57.43 82.51 56.09 82.11 54.72 81.72 53.33 81.34 51.93 80.96 50.52 80.57 49.11 80.18 47.71 79.77 46.32 79.34 44.95 78.88 43.62 78.39 42.31 77.85 41.06 77.27 39.85 76.63 38.69 75.94 37.6 75.18 36.58 74.36 35.64 73.46 34.78 72.47 34 71.4 33.32 70.24 32.73 68.97 32.26 67.59 31.89 66.1 31.65 64.48 31.53 62.72 31.53 62.74 30.64 62.75 30.77 64.58 31.03 66.29 31.41 67.87 31.92 69.33 32.54 70.68 33.27 71.93 34.1 73.07 35.02 74.11 36.02 75.07 37.09 75.94 38.23 76.73 39.43 77.45 40.68 78.1 41.98 78.7 43.31 79.25 44.67 79.76 46.06 80.23 47.46 80.66 48.88 81.08 50.29 81.47 51.71 81.85 53.11 82.23 54.49 82.61 55.85 83 57.18 83.4 58.47 83.82 59.71 84.27 60.9 84.74 62.02 85.26 63.08 85.81 64.06 86.42 64.97 87.08 65.23 87.29 65.5 87.08 66.4 86.42 67.39 85.81 68.45 85.26 69.57 84.74 70.76 84.27 72 83.82 73.29 83.4 74.61 83 75.97 82.61 77.36 82.23 78.76 81.85 80.17 81.47 81.59 81.08 83 80.66 84.41 80.23 85.8 79.76 87.16 79.25 88.49 78.7 89.79 78.1 91.04 77.45 92.24 76.73 93.38 75.94 94.45 75.07 95.45 74.11 96.37 73.07 97.2 71.93 97.92 70.68 98.55 69.33 99.05 67.87 99.44 66.29 99.7 64.58 99.82 62.75 99.82 62.74 99.82 62.74 99.82 7.9 99.82 7.45 99.82 6.98 99.82 6.98 98.73 6.98 98.73 6.98"/><path class="cls-7" d="M50.56,45.66l0,0,.07,0,.06,0,.07,0,.06,0,.06,0H51l0,0h.68l.07,0,.08,0,.07,0,.09,0,.08,0,.09,0,.1,0,.09,0,.11,0,.22.54-.11,0-.11,0-.1,0-.1,0-.1,0-.09,0-.09,0-.09,0-.08,0h-.09l-.08,0h-.62l-.08,0h-.07l-.08,0-.07,0-.08,0-.07,0-.08,0-.07,0-.08,0-.08,0-.07,0,.33-.49Zm3-4.47h0l0,0,0,0,0,0h0l0,0h.44l0,0,0,0,0,0,0,0,.05,0,0,0,.29.5-.06,0-.06,0-.06,0,0,0-.06,0-.06,0,0,0h0l-.05,0h-.62l0,0h0l0,0,0,0,0,0,0,0,0,0,0,0-.05,0,.32-.48Zm1.25.43,0,0h0l0,0Zm0,0-.29-.5,0,0,.08-.05.08,0,.08,0,.08,0,.08,0h.33l.07,0,.07,0,.06,0,.07,0,.06,0,0,0,.06,0,0,0,.05,0,0,0,0,0,0,0,0,0,0,0,0,0,0,0,0,0,0,0h.18l0,.57h-.17l-.07,0-.08,0-.07,0-.06,0-.07,0-.06,0-.06,0,0,0-.05,0-.06,0,0,0,0,0,0,0,0,0,0,0,0,0,0,0H54.9l0,0,0,0,0,0,0,0Zm1.52-.13Zm0,.57,0-.57h.2l0,0h0l0,0,0,0,0,0,0,0,0,0,0,0,0,0,0,0,0,0,0,0,0,0,.05,0,0,0,0,0,.05,0,0,0,.06,0,.06,0h.19v.57h-.17l0,0h0l0,0,0,0,0,0,0,0,0,0,0,0,0,0,0,0,0,0,0,0,0,0,0,0,0,0-.05,0,0,0-.05,0-.06,0-.06,0h-.25Zm1.21-.52V41h.36l.06,0h.06l.05,0,.06,0,.06,0,0,0,.06,0,.05,0,.06,0,.05,0,0,0,0,0,.05,0,0,0,.05,0h0l0,0h.09l0,0h.19V42H58.7l-.06,0h0l-.06,0-.05,0-.06,0-.05,0-.06,0-.05,0-.06,0-.05,0,0,0-.05,0,0,0,0,0H57.9l0,0-.05,0h-.34Zm-4.66.75h0l.05,0,0,0,0,0,0,0H53l0,0h.48l.05,0h0l.05,0,0,0,.06,0,.07,0,.06,0,.26.52-.07,0-.07,0-.07,0-.06,0-.07,0-.06,0-.06,0-.06,0h-.06l-.06,0H53l-.05,0h-.06l-.05,0,0,0-.05,0,0,0-.06,0,0,0,0,0-.05,0,.33-.48Zm1.45.43,0,0h0l0,0Zm0,0-.26-.52,0,0,.09-.06.09,0,.08,0,.1,0,.09,0h.35l.08,0,.07,0,.08,0,.07,0,.06,0,.07,0,.06,0,.06,0,.06,0,.06,0,.06,0,.06,0,0,0,.05,0,.06,0,.05,0,0,0,0,0h.05l0,0H56l0,.57h-.19l-.08,0-.08,0-.08,0-.08,0-.07,0-.07,0-.07,0-.06,0-.07,0-.06,0,0,0-.06,0,0,0-.06,0,0,0-.05,0,0,0,0,0,0,0h-.28l0,0,0,0,0,0,0,0ZM56,42.67Zm0,.57,0-.57h.25l0,0h0l0,0,0,0,0,0,0,0,0,0,0,0,0,0,0,0,0,0,0,0,0,0,0,0,.06,0,.05,0,0,0,.06,0,.06,0,.06,0h.27v.57h-.17l0,0h0l0,0h0l0,0,0,0,0,0,0,0,0,0,0,0,0,0-.05,0,0,0,0,0-.05,0,0,0-.06,0-.05,0-.06,0-.06,0-.06,0-.07,0H56Zm1.43-.55v-.57h.35l.06,0h.07l.07,0,.06,0,.07,0,.06,0,.07,0,.06,0,.07,0,.06,0,.06,0,.06,0,.07,0,.06,0,.06,0,.06,0,0,0h.06l0,0h.11l0,0h.21v.57h-.27l-.07,0h-.13l-.06,0-.07,0-.06,0-.07,0-.06,0-.06,0-.07,0-.06,0-.06,0-.06,0-.07,0-.06,0-.06,0-.06,0-.06,0h0l-.06,0h0l-.05,0h-.28ZM52,43.5l0,0,.05,0,0,0,0,0h0l.05,0h.59l0,0,.06,0H53l.07,0,.06,0,.07,0,.07,0,.08,0,.24.52-.08,0-.08,0-.08,0-.08,0-.07,0-.07,0-.07,0-.07,0h-.07l-.06,0h-.63l-.06,0h0l-.06,0-.06,0-.06,0-.06,0-.06,0-.05,0-.06,0,0,0L52,43.5Zm1.65.44h0l0,0Zm0,0-.24-.52,0,0,.1-.06.1,0,.09,0,.1,0,.1,0h.29l.09,0h.09l.08,0,.08,0,.08,0,.08,0,.07,0,.07,0,.07,0,.07,0,.07,0,.07,0,.06,0,.07,0,.06,0,.06,0,.07,0,.06,0,.06,0h.06l.06,0h.18l0,.58h-.2l-.1,0-.09,0-.09,0-.08,0-.08,0-.08,0-.08,0-.07,0-.07,0-.07,0-.07,0-.07,0-.06,0-.06,0-.06,0-.06,0-.06,0,0,0,0,0h-.38l0,0-.06,0-.06,0,0,0Zm2.16-.1Zm0,.58,0-.58h.32l0,0,0,0,0,0,0,0,0,0,.05,0,0,0,0,0,.05,0,0,0,0,0,.05,0,.06,0,.05,0,.06,0,.06,0,.06,0,.06,0,.07,0h.07l.07,0h.22v.58h-.19l0,0H57.1l0,0,0,0,0,0,0,0,0,0,0,0-.05,0,0,0,0,0-.05,0,0,0-.05,0,0,0-.06,0-.06,0-.06,0-.06,0-.07,0-.07,0h-.37Zm1.66-.57v-.58h.46l.07,0,.08,0,.08,0h.07l.08,0,.07,0,.07,0,.08,0,.07,0,.07,0,.08,0,.07,0,.07,0,.07,0,.07,0,.07,0,.06,0,.07,0h.12l.06,0h.26v.57h-.37l-.08,0h-.07l-.07,0-.08,0-.07,0-.08,0-.07,0-.07,0-.08,0-.07,0-.07,0-.07,0-.08,0-.07,0-.07,0-.07,0H58l-.07,0-.07,0h-.06l-.06,0h-.34Zm-6,.6,0,0,.06,0,.06,0,.06,0,0,0,0,0h.05l0,0h.58l0,0h.06l.06,0,.07,0,.07,0,.08,0,.07,0,.09,0,.08,0,.25.52-.09,0-.09,0-.09,0-.08,0-.08,0-.08,0-.08,0-.08,0-.07,0h-.07l-.08,0H51.8l-.07,0h-.06l-.07,0-.06,0-.07,0-.06,0-.07,0-.06,0-.07,0-.07,0-.06,0,0,0,.33-.49Zm1.93.46h0l0,0Zm0,0L53,44.43l0,0,.11-.06.11-.06.11,0,.11,0,.1,0h.32l.1,0,.1,0,.09,0,.09,0,.09,0,.09,0,.08,0,.08,0,.08,0,.07,0,.08,0,.07,0,.08,0,.07,0,.07,0,.07,0,.07,0,.07,0,.08,0,.06,0,.07,0h.21l0,.58h-.11l-.11,0-.11,0-.1,0-.1,0-.09,0-.09,0-.09,0-.09,0-.08,0-.08,0-.08,0-.07,0-.08,0-.07,0-.07,0-.07,0-.06,0-.07,0-.06,0-.06,0h-.38l-.06,0-.06,0-.06,0-.07,0,0,0Zm2.44,0Zm0,.58,0-.58h.24l0,0h0l.05,0,0,0,0,0,.05,0,0,0,0,0,.05,0,0,0,.06,0,0,0,0,0,.06,0,.06,0,0,0,.07,0,.06,0,.06,0,.07,0,.07,0,.07,0,.08,0,.08,0h.25v.57h-.27l0,0,0,0-.05,0,0,0,0,0L57,45l0,0,0,0-.06,0,0,0-.05,0-.06,0,0,0-.06,0-.06,0-.07,0-.06,0-.07,0-.07,0-.07,0-.08,0-.08,0h-.33Zm1.87-.69v-.57h.25l.09,0H58l.09,0,.08,0,.09,0,.08,0,.08,0,.09,0,.08,0,.08,0,.09,0,.08,0,.08,0,.08,0,.08,0,.08,0,.08,0,.08,0,.08,0,.07,0,.07,0,.08,0h.06l.07,0H60v.58h-.33l-.08,0H59.5l-.08,0-.08,0-.09,0-.08,0-.08,0-.08,0-.09,0-.08,0-.08,0-.08,0-.09,0-.08,0-.08,0-.07,0-.08,0-.08,0-.08,0h-.07l-.07,0-.07,0h-.38ZM52.76,46.1h0l0,0Zm0,0-.22-.54,0,0,.12-.06.13,0,.12,0,.12,0,.12,0h.46l.11,0,.11,0,.1,0,.1,0,.1,0,.09,0,.1,0,.09,0,.09,0,.09,0,.09,0,.09,0,.09,0,.08,0,.09,0L55,46l.08,0,.09,0,.09,0,.08,0h.27l0,.57h-.12l-.13,0-.12,0-.11,0-.11,0-.11,0-.11,0-.1,0-.1,0-.1,0-.09,0-.09,0-.09,0-.09,0-.09,0-.08,0-.08,0-.08,0-.08,0-.08,0h-.08l-.07,0h-.36l-.08,0L53,46l-.08,0-.09,0-.08,0,0,0Zm2.93,0Zm0,.57,0-.57H56l.06,0,.06,0,.06,0,.06,0,.05,0,.06,0,.06,0,.06,0,.06,0,.07,0,.06,0,.06,0,.07,0,.07,0,.06,0,.08,0,.07,0,.07,0,.08,0,.08,0,.08,0h.09l.09,0h.28V46h-.31l0,0h-.06l-.06,0-.05,0-.06,0-.06,0-.06,0-.06,0-.06,0-.06,0-.07,0-.06,0-.06,0-.07,0-.07,0-.07,0-.07,0-.08,0-.08,0-.08,0-.08,0-.09,0-.08,0h-.38ZM57.86,46v-.57h.47l.09,0,.09,0,.09,0,.1,0,.09,0,.09,0,.08,0,.09,0,.09,0,.09,0,.09,0,.08,0,.09,0,.08,0,.08,0,.08,0,.09,0,.08,0,.07,0,.08,0h.08l.07,0h.34v.58h-.36l-.09,0H60l-.09,0-.08,0-.09,0-.09,0-.09,0-.09,0-.08,0-.09,0-.09,0-.08,0-.09,0-.08,0-.09,0-.08,0-.08,0-.09,0-.08,0-.08,0h-.08l-.08,0h-.08l-.07,0h-.29Z"/><path class="cls-7" d="M49.69,47h0l.09,0,.09,0,.08,0,.08,0,.08,0,.08,0,.08,0h1l.09,0h.09l.1,0,.1,0,.11,0,.11,0L52,47l.12,0,.12,0,.19.55-.13,0-.13,0-.12,0-.12,0-.12,0-.11,0-.11,0-.11,0-.1,0H50.25l-.09,0-.09,0-.09,0-.1,0-.09,0-.09,0-.1,0-.1,0-.09,0,0,0,.33-.49Zm2.79.46h0l0,0Zm0,0-.19-.55,0,0,.14-.06.14,0,.14,0,.14,0,.13,0h.52l.12,0,.12,0,.12,0,.12,0,.11,0,.11,0,.11,0,.11,0,.11.05.11,0,.1,0,.11,0,.1,0,.11,0,.1,0,.11,0,.1,0,.11,0,.11,0,.1,0,.11,0H56L56,48h-.28l-.14,0-.13,0-.13,0-.12,0-.13,0-.12,0-.11,0-.12,0-.11,0-.11,0-.11,0-.1,0-.1,0-.1,0-.1,0-.1,0-.1,0-.09,0-.1,0h-.09l-.09,0H52.9l-.1,0-.1,0-.11,0-.11,0,0,0Zm3.52,0ZM56,48l0-.58h.4l.07,0,.08,0h.07l.07,0,.07,0,.07,0,.07,0,.08,0,.07,0,.07,0,.08,0,.07,0,.08,0,.08,0,.07,0,.08,0,.09,0,.08,0,.09,0,.09,0,.09,0,.09,0,.1,0,.1,0h.31v.58h-.31l-.07,0-.07,0h-.07l-.07,0-.08,0-.07,0-.07,0-.07,0-.07,0-.07,0-.08,0-.07,0-.08,0-.08,0-.08,0-.08,0-.08,0-.08,0-.09,0-.09,0-.09,0-.09,0-.1,0-.1,0H56Zm2.64-.68v-.58h.53l.1,0,.09,0,.1,0,.09,0,.1,0,.09,0,.09,0,.09,0L60,47,60,47l.09,0,.08,0,.08,0,.09,0,.08,0,.08,0,.08,0,.08,0,.08,0h.08l.08,0H61l.08,0h.31v.57H61l-.09,0-.1,0-.09,0-.09,0-.1,0-.09,0-.08,0-.09,0-.09,0-.08,0-.09,0-.08,0-.09,0-.08,0-.09,0-.08,0-.08,0-.08,0-.09,0-.08,0-.08,0H59.1l-.08,0h-.43Z"/><path class="cls-9" d="M61.68,42.12c-.11.4-.25.83-.66.93s-.74-.22-1-.51c.52-.1.65.19.94.14s.27-.39.75-.56Z"/><path class="cls-9" d="M61.67,42.07l.09,0,0,.09-.06-.06Zm.06.06-.09,0,.06.07h0l0,0,0,0h0l0,0,0,0,0,0,0,0,0,0,0,0,0,0,0,0,0,0,0,0v0l0,0,0,0v0l0,0,0,0h0l0,0,0,0,0,0,0,0h0l0,0h0l0,0h-.09l0-.1H61l0,0h0l0,0h0v0h0v0l0,0v0l0,0,0,0,0,0,0,0v0l0,0,0,0,0,0,0,0,0,0,0,0,0,0,0,0,0,0,0,0h0l0,0,.05,0,.06.06Zm-.79.6Zm0-.1,0,.1H60l0-.09h.58l0,0h.33Zm-1-.06-.07-.07H60l0,.08Zm0-.08,0,.09,0-.08,0,0,0,0,0,0,0,0,0,0,0,0,0,0,0,0,0,0,0,0,0,0,0,0,0,0,0,0,0,0,0,0h0l0,0,0,0h.06l0,0H61l0,.1h-.42l0,0h0l0,0,0,0,0,0,0,0,0,0,0,0,0,0,0,0,0,0,0,0,0,0,0,0,0,0,0,0,0,0,0,0,0,0,0,0,0,0,0-.08ZM61,43.1Zm0,0,0-.1h.13l0,0,0,0,0,0,0,0,0,0,0,0,0,0,0,0,0,0,0,0,0,0v0l0,0,0,0v0l0,0v0l0,0v0l0,0v-.14l0,0V42.1l.09,0v.12l0,0v.11l0,0v.07l0,0v0l0,0,0,0,0,0v0l0,0,0,0,0,0,0,0,0,0,0,0,0,0,0,0,0,0,0,0,0,0h0l0,0,0,0H61Z"/><path class="cls-9" d="M61.6,41.13c-.12.4-.25.83-.66.93s-.74-.22-1-.52c.52-.1.64.2.94.15s.27-.4.75-.56Z"/><path class="cls-9" d="M61.59,41.08l.09,0,0,.09-.06-.06Zm.06.06-.09,0,.06.06,0,0,0,0h0l0,0,0,0,0,0h0l0,0,0,0,0,0,0,0,0,0,0,0,0,0,0,0v0l0,0,0,0v0l0,0,0,0v0l0,0,0,0h0l0,0,0,0h-.07l0,0h0l0-.09H61l0,0h0l0,0v0l0,0h0v0l0,0,0,0v0l0,0,0,0,0,0,0,0,0,0,0,0,0,0,0,0,0,0,0,0,0,0,0,0,0,0,0,0h.05l.06.06Zm-.79.59h0Zm0-.09,0,.09h-.94l0-.1h.94Zm-1-.06-.07-.07.09,0,0,.09Zm0-.09,0,.1,0-.08,0,0,0,0,0,0,0,0,0,0,0,0,0,0,0,0,0,0,0,0,0,0,0,0,0,0,0,0,0,0,0,0,0,0,0,0h0l0,0h.4l0,.1h-.39l0,0h0l0,0h0l0,0,0,0,0,0,0,0,0,0,0,0,0,0,0,0,0,0,0,0,0,0,0,0,0,0,0,0,0,0,0,0,0,0,0,0,0-.09Zm1.05.62Zm0,0,0-.1H61l0,0h0l0,0,0,0,0,0,0,0,0,0,0,0,0,0,0,0,0,0,0,0,0,0,0,0v0l0,0,0,0v-.07l0,0v0l0,0v-.22l0,0,.09,0v.08l0,0v.12l0,0v.07l0,0v0l0,0v0l0,0,0,0,0,0,0,0,0,0,0,0,0,0,0,0,0,0,0,0,0,0,0,0,0,0,0,0,0,0,0,0h0l0,0Z"/><path class="cls-9" d="M61.45,40.18c-.12.41-.25.83-.66.93s-.74-.22-1-.51c.52-.1.64.19.94.14s.27-.39.75-.56Z"/><path class="cls-9" d="M61.44,40.13l.09,0,0,.1-.06-.07Zm.06.07-.09,0,.06.06h0l0,0,0,0h0l0,0,0,0,0,0,0,0,0,0,0,0,0,0,0,0,0,0,0,0,0,0v0l0,0,0,0v0l0,0,0,0v0h0l0,0,0,0h0l0,0,0,0h-.11l0-.1h.1v0h0v0l0,0h0l0,0,0,0v0l0,0,0,0v0l0,0,0,0,0,0,0,0,0,0,0,0,0,0,0,0,0,0,0,0,0,0h0l0,0,0,0,0,0,.06.07Zm-.79.59Zm0-.1,0,.1h-.94l0-.1h.53l0,0h.38Zm-1-.06-.07-.06.09,0,0,.08Zm0-.08,0,.1,0-.09,0,0,0,0,0,0,0,0,0,0,0,0,0,0,0,0,0,0,0,0,0,0,0,0,0,0,0,0,0,0,0,0,0,0h0l0,0h0l0,0h.37l0,.09h-.46l0,0,0,0,0,0,0,0,0,0,0,0,0,0,0,0,0,0,0,0,0,0,0,0,0,0,0,0,0,0,0,0,0,0,0,0,0,0,0,0,0-.08Zm1,.61Zm0,0,0-.09h0l0,0h.06l0,0,0,0,0,0,0,0,0,0,0,0,0,0,0,0,0,0,0,0,0,0,0,0,0,0v0l0,0,0,0v0l0,0v-.07l0,0v-.19l0,0v0l.09,0v.07l0,0v.15l0,0v0l0,0v0l0,0v0l0,0,0,0,0,0,0,0,0,0,0,0,0,0,0,0,0,0,0,0,0,0,0,0,0,0,0,0,0,0h0l0,0H60.8Z"/><path class="cls-9" d="M61.52,39.26c-.17.38-.37.79-.79.82s-.7-.33-.94-.66c.53,0,.6.29.9.28s.33-.35.83-.44Z"/><path class="cls-9" d="M61.51,39.21l.1,0,0,.09-.06-.07Zm.06.07-.09,0,.05.07h-.16l0,0h-.07l0,0h0l0,0,0,0h0l0,0,0,0,0,0h0l0,0,0,0h0l0,0,0,0h0l0,0h0l0,0H60.7v-.1h.18l0,0h0l0,0h0l0,0,0,0,0,0h0l0,0,0,0,0,0,0,0,0,0h0l0,0,0,0h0l0,0h0l0,0h.13l.06.07Zm-.87.47Zm0-.1v.1h-.22l0,0h-.05l0,0h0l0,0h0l0,0h-.13l0,0h-.31v-.1h.44l0,0h0l0,0h0l0,0h.05l0,0h.25Zm-.94-.2-.06-.08h.09l0,.08Zm0-.08v.1l0-.08,0,0,0,0,0,0,0,0,0,0,0,0,0,0,0,0,0,0,0,0,0,0,0,0,0,0,0,0,0,0,0,0,0,0,0,0,0,0,0,0,0,0h0l0,0h0l0,0h.24v.11h-.31l0,0h0l0,0,0,0,0,0,0,0,0,0,0,0,0,0,0,0,0,0,0,0,0,0,0,0,0,0,0,0,0,0,0,0,0,0,0,0,0,0,0,0,0,0,0,0,0-.08Zm.95.77Zm0,0V40h.13l0,0H61l0,0,0,0,0,0,0,0,0,0,0,0,0,0,0,0,0,0,0,0,0,0,0,0,0,0,0,0,0,0,0,0,0,0,0,0,0,0v0l0,0,0,0,0,0v0l0,0,.09,0,0,0,0,0,0,0v0l0,0,0,0,0,0,0,0,0,0,0,0,0,0,0,0,0,0,0,0,0,0,0,0,0,0,0,0,0,0,0,0,0,0,0,0,0,0,0,0,0,0h0l0,0h-.2Z"/><path class="cls-9" d="M61.53,38.39c-.24.35-.51.71-.93.67s-.63-.46-.8-.83c.52.08.54.4.84.44s.38-.28.89-.28Z"/><path class="cls-9" d="M61.53,38.34h.1l-.06.08,0-.08Zm0,.08-.08-.06,0,.08H61.1l0,0h0l0,0h0l0,0h-.31v-.1h.27l0,0h0l0,0h0l0,0h.06l0,0h.39l0,.08Zm-.94.3Zm0-.1v.1h-.16l0,0h0l0,0h0l0,0,0,0,0,0h0l0,0,0,0,0,0h0l0,0,0,0h0l0,0h0l0,0,0,0h-.27v-.1H60l0,0h0l0,0,0,0h0l0,0,0,0,0,0,0,0,0,0h0l0,0,0,0,0,0,0,0h0l0,0h0l0,0h.14Zm-.89-.37,0-.08h.09l0,.07Zm0-.07v.1l.05-.07,0,0v0l0,0,0,0,0,0v0l0,0,0,0,0,0,0,0,0,0,0,0,0,0,0,0,0,0,0,0,0,0,0,0,0,0,0,0,0,0,0,0,0,0,0,0h0l0,0h.2v.1h-.15l0,0h0l0,0,0,0,0,0,0,0,0,0,0,0,0,0,0,0,0,0,0,0,0,0,0,0,0,0,0,0,0,0,0,0,0,0,0,0,0,0,0,0,0,0,0,0,0,0v0l0,0,0,0,0-.07Zm.79.93Zm0,0V39h.3l0,0h0l0,0,0,0,0,0,0,0,0,0,0,0,0,0,0,0,0,0,0,0,0,0,0,0,0,0,0,0,0,0,0,0,0,0,0,0,0,0,0,0,0,0,.08.06,0,0,0,0,0,0,0,0,0,0,0,0,0,0,0,0,0,0,0,0,0,0,0,0,0,0,0,0,0,0,0,0,0,0,0,0,0,0,0,0,0,0h0l0,0h0l0,0h-.28Z"/><path class="cls-9" d="M61.74,37.61c-.26.34-.54.69-1,.63s-.61-.47-.77-.85c.52.09.53.41.82.47s.4-.27.91-.25Z"/><path class="cls-9" d="M61.74,37.56h.09l-.06.07,0-.08Zm0,.08-.07-.06,0,.08h-.36l0,0h-.1l0,0h-.07l0,0h-.3v-.1h.25l0,0h.07l0,0h0l0,0h.46l0,.08Zm-.94.27h0Zm0-.1v.1h-.09l0,0h0l0,0h0l0,0,0,0h0l0,0,0,0,0,0,0,0h0l0,0,0,0,0,0,0,0h0l0,0h0l0,0,0,0h0l0,0H60l0-.1h.14l0,0h0l0,0h0l0,0,0,0,0,0,0,0,0,0h0l0,0,0,0,0,0,0,0,0,0v0l0,0h0l0,0h0l0,0h.16Zm-.87-.4,0-.09.09,0-.05.07Zm.05-.07,0,.1,0-.07,0,0v0l0,0v0l0,0,0,0v0l0,0,0,0,0,0,0,0v0l0,0,0,0,0,0,0,0,0,0,0,0,0,0,0,0,0,0,0,0,0,0,0,0,0,0,0,0h0l0,0h.14l0,.1h-.08l0,0h0l0,0h0l0,0,0,0,0,0,0,0,0,0,0,0,0,0,0,0,0,0,0,0,0,0,0,0,0,0,0,0,0,0,0,0v0l0,0,0,0,0,0v0l0,0,0,0v0l0,0v0l.05-.07Zm.75.95Zm0,0,0-.1h.27l0,0h.06l0,0,0,0,0,0,0,0,0,0,0,0,0,0,0,0,0,0,0,0,0,0,0,0,0,0,0,0,0,0,0,0,0,0,0,0,0,0,0,0,0,0,.07.06,0,0,0,0,0,0,0,0,0,0,0,0,0,0,0,0,0,0,0,0,0,0,0,0,0,0,0,0,0,0,0,0,0,0,0,0,0,0,0,0,0,0h0l0,0h-.35Z"/><path class="cls-12" d="M29.84,102l-1.19,1.43V106h-2V96.86h2v4.35h.08L30,99.44l2-2.58h2.25l-3.07,3.76L34.6,106H32.26Z"/><path class="cls-12" d="M41.4,106l-.66-2.17h-3L37,106H35l3-9.13H40.5l3,9.13Zm-2.16-7.32h-.07l-1,3.46h2.09Z"/><path class="cls-12" d="M44.74,96.86h4.43a2.21,2.21,0,0,1,2.41,2.34c0,1.4-.77,1.93-1.7,2v.07a2,2,0,0,1,2,2.15,2.45,2.45,0,0,1-2.35,2.6H44.74Zm2,3.74h2a.77.77,0,0,0,.84-.83v-.4a.77.77,0,0,0-.84-.83h-2Zm0,3.72H49a.77.77,0,0,0,.85-.83v-.44a.77.77,0,0,0-.85-.82H46.73Z"/><path class="cls-12" d="M55.35,96.86v5.6c0,1.28.47,1.92,1.65,1.92s1.65-.64,1.65-1.92v-5.6h1.93v5.39c0,2.7-1,3.9-3.58,3.9s-3.58-1.2-3.58-3.9V96.86Z"/><path class="cls-12" d="M62.55,106V96.86h4.32a2.92,2.92,0,0,1,0,5.84H64.54V106Zm2-5h2.09a.85.85,0,0,0,1-.9v-.58a.85.85,0,0,0-1-.9H64.54Z"/><path class="cls-12" d="M75.8,106l-.65-2.17H72.1L71.45,106h-2l3-9.13H74.9l3,9.13Zm-2.15-7.32h-.07l-1,3.46h2.1Z"/><path class="cls-12" d="M82.1,98.63V106h-2V98.63H77.64V96.86h6.93v1.77Z"/><path class="cls-12" d="M85.94,106V96.86h6.21v1.77H87.92v1.87h3.63v1.75H87.92v2h4.23V106Z"/><path class="cls-12" d="M96.67,101.68l-.88-1.83h0V106H93.88V96.86h2.17l2.5,4.32.88,1.83h0V96.86h1.87V106H99.16Z"/><path class="cls-12" d="M42.19,112.57h4.43A2.21,2.21,0,0,1,49,114.91c0,1.4-.77,1.92-1.7,2V117a2,2,0,0,1,2.05,2.14A2.46,2.46,0,0,1,47,121.7H42.19Zm2,3.74h2a.78.78,0,0,0,.84-.84v-.39a.78.78,0,0,0-.84-.84h-2Zm0,3.71h2.29a.77.77,0,0,0,.85-.82v-.45a.77.77,0,0,0-.85-.82H44.17Z"/><path class="cls-12" d="M50.56,117.13c0-3.1,1.6-4.72,4-4.72s4,1.62,4,4.72-1.59,4.72-4,4.72S50.56,120.23,50.56,117.13Zm5.93.68v-1.36c0-1.45-.72-2.27-1.91-2.27s-1.91.82-1.91,2.27v1.36c0,1.45.72,2.28,1.91,2.28S56.49,119.26,56.49,117.81Z"/><path class="cls-12" d="M66.05,120.25H66c-.13.91-1,1.6-2.34,1.6-2.09,0-3.74-1.62-3.74-4.68s1.66-4.76,4.13-4.76a3.66,3.66,0,0,1,3.52,2.12l-1.62.93a1.89,1.89,0,0,0-1.9-1.28c-1.23,0-2,.7-2,2.22v1.47c0,1.51.8,2.22,2,2.22,1,0,1.79-.47,1.79-1.36v-.46h-1.7v-1.66h3.6v5.09H66.05Z"/><path class="cls-12" d="M69.32,117.13c0-3.1,1.59-4.72,4-4.72s4,1.62,4,4.72-1.6,4.72-4,4.72S69.32,120.23,69.32,117.13Zm5.92.68v-1.36c0-1.45-.72-2.27-1.91-2.27s-1.91.82-1.91,2.27v1.36c0,1.45.72,2.28,1.91,2.28S75.24,119.26,75.24,117.81Z"/><path class="cls-12" d="M81,121.7H79v-9.13h4.33a2.67,2.67,0,0,1,2.76,2.91,2.6,2.6,0,0,1-1.66,2.63l1.79,3.59H84l-1.59-3.35H81Zm2.09-5a.85.85,0,0,0,1-.9v-.57a.86.86,0,0,0-1-.91H81v2.38Z"/></svg>