<svg id="Layer_1" data-name="Layer 1" xmlns="http://www.w3.org/2000/svg" viewBox="0 0 128 128"><defs><style>.cls-1{fill:#0250a4;}.cls-1,.cls-2,.cls-3,.cls-4,.cls-5,.cls-6,.cls-7{fill-rule:evenodd;}.cls-2{fill:#ffcb05;}.cls-3,.cls-8{fill:#231f20;}.cls-4{fill:#f58220;}.cls-5{fill:#00a651;}.cls-6{fill:#a6ce39;}.cls-7{fill:#fff;}</style></defs><path class="cls-1" d="M64,8.22l44.13,32.07L91.27,92.17H36.73L19.87,40.29,64,8.22Zm-12.65,19ZM74.7,28.4a2.17,2.17,0,0,0-.9.44l-.14.14-.06.07,0-.05-.11.19,0,0h0a.58.58,0,0,0-.09.27,1.22,1.22,0,0,0,.23.72l.1.13h0a.47.47,0,0,0,.1.1,1.46,1.46,0,0,0,.63.81l0,0-.1.08a.35.35,0,0,0-.09.07,2.2,2.2,0,0,0-.93.46l-.15.14-.06.08L73,32l-.1.19,0,0a.54.54,0,0,0-.09.28,1.27,1.27,0,0,0,.23.73l.12.15a.76.76,0,0,0,.09.09,1.6,1.6,0,0,0,.65.85l0,0-.11.08-.09.08a2.11,2.11,0,0,0-1,.47l-.16.15-.06.07-.06-.05-.11.18a.05.05,0,0,1,0,0,.64.64,0,0,0-.09.29,1.17,1.17,0,0,0,.24.76l.11.15.1.1a1.72,1.72,0,0,0,.67.87h0l0,0-.12.08-.09.09a2.22,2.22,0,0,0-1,.48,1.21,1.21,0,0,0-.16.16L72,38.5l-.06-.06-.1.19,0,0a.5.5,0,0,0-.09.29,1.2,1.2,0,0,0,.24.78l.12.16.1.1a1.67,1.67,0,0,0,.7.9h0l0,0-.13.09-.1.09a2.37,2.37,0,0,0-1,.5,1.29,1.29,0,0,0-.17.16h0l-.07.09-.07-.06-.1.18,0,0h0a.6.6,0,0,0-.09.3,1.29,1.29,0,0,0,.25.8l.12.16a1.14,1.14,0,0,0,.11.11,1.72,1.72,0,0,0,.72.93h0l.06,0h0l-.15.1h0l-.1.09a2.44,2.44,0,0,0-1.07.52c-.06,0-.11.11-.16.16l-.09.1-.06-.06-.1.18,0,.05a.54.54,0,0,0-.1.31,1.34,1.34,0,0,0,.26.83,1.83,1.83,0,0,0,.13.16h0l.11.11a1.78,1.78,0,0,0,.74,1h0l.09.06h0l-.15.11-.11.09a2.58,2.58,0,0,0-1.1.54l-.17.17h0l-.09.1-.06-.06-.11.19,0,0h0a.68.68,0,0,0-.1.32,1.35,1.35,0,0,0,.27.85l.13.17h0l.12.12a1.83,1.83,0,0,0,.76,1,.41.41,0,0,1,.11.07l-.05,0-.16.11-.11.1a2.6,2.6,0,0,0-1.13.55l-.18.17-.09.11-.07-.06-.1.19,0,.05h0a.66.66,0,0,0-.11.33,1.44,1.44,0,0,0,.28.87l.13.17.12.12a1.84,1.84,0,0,0,.79,1h0l.15.09-.09.06a.91.91,0,0,0-.16.11l-.12.1a2.64,2.64,0,0,0-1.16.57l-.19.18-.1.12-.07-.06-.1.19,0,.05h0a.67.67,0,0,0-.11.34,1.44,1.44,0,0,0,.29.89l.13.18.13.12a1.92,1.92,0,0,0,.8,1.05h0l.21.12-.15.08-.17.12-.12.1a2.78,2.78,0,0,0-1.19.59l-.19.18-.12.14-.06-.06-.1.19,0,0a.7.7,0,0,0-.1.34,1.4,1.4,0,0,0,.29.92l.14.18.13.13a2,2,0,0,0,.83,1.08l.25.15a2.32,2.32,0,0,0,.44.16l-.09.61c-.27,1.79-1.45,2.69-4.18,2.09a1.41,1.41,0,0,0,.15-.62h0a1.43,1.43,0,0,0-.17-.65,1.57,1.57,0,0,0,.15-.19,1.52,1.52,0,0,0,.2-.7h0a1.45,1.45,0,0,0-.18-.66l.15-.2a1.43,1.43,0,0,0,.21-.71h0a1.51,1.51,0,0,0-.19-.67,1.49,1.49,0,0,0,.15-.2,1.44,1.44,0,0,0,.22-.71h0a1.44,1.44,0,0,0-.2-.68,1.56,1.56,0,0,0,.16-.2,1.51,1.51,0,0,0,.22-.73h0a1.45,1.45,0,0,0-.21-.7.85.85,0,0,0,.17-.2h0a1.54,1.54,0,0,0,.22-.73h0a1.46,1.46,0,0,0-.21-.71,1.63,1.63,0,0,0,.17-.2,1.46,1.46,0,0,0,.23-.75h0a1.41,1.41,0,0,0-.22-.72,1.2,1.2,0,0,0,.17-.21,1.41,1.41,0,0,0,.24-.75h0a1.46,1.46,0,0,0-.23-.74.91.91,0,0,0,.18-.21,1.49,1.49,0,0,0,.25-.77h0a1.51,1.51,0,0,0-.24-.75A2,2,0,0,0,67.3,52a1.5,1.5,0,0,0,.25-.78h0a1.41,1.41,0,0,0-.25-.77,1,1,0,0,0,.19-.21,1.46,1.46,0,0,0,.26-.79h0a1.43,1.43,0,0,0-.26-.78,1,1,0,0,0,.2-.22,1.48,1.48,0,0,0,.27-.8h0a1.47,1.47,0,0,0-.27-.79h0a2.2,2.2,0,0,0,.2-.23,1.44,1.44,0,0,0,.28-.8h0a1.46,1.46,0,0,0-.28-.8h0a.93.93,0,0,0,.21-.23,1.48,1.48,0,0,0,.29-.81h0a1.48,1.48,0,0,0-.29-.81v0a1.21,1.21,0,0,0,.22-.23,1.44,1.44,0,0,0,.29-.83h0a1.44,1.44,0,0,0-.29-.82l0,0a1.05,1.05,0,0,0,.23-.24,1.45,1.45,0,0,0,.3-.83h0a1.48,1.48,0,0,0-.3-.84l0,0a1.75,1.75,0,0,0,.23-.24,1.48,1.48,0,0,0,.31-.85h0a1.43,1.43,0,0,0-.31-.85l0,0a1.48,1.48,0,0,0,.25-.25,1.5,1.5,0,0,0,.32-.86h0a1.5,1.5,0,0,0-.32-.86,1.16,1.16,0,0,0-.59-.43,3.72,3.72,0,0,0,1-2.51h0c0-.06,0-.12,0-.18h0v0a1.56,1.56,0,0,0,.46-.29,1.3,1.3,0,0,0,.43-1h0v-.22h0a1.29,1.29,0,0,0-.43-1,1.56,1.56,0,0,0-.46-.29v0h0c0-.06,0-.12,0-.18h0a3.94,3.94,0,0,0-1.6-3A6,6,0,0,0,64.49,25a1.36,1.36,0,0,0,.13-.24,2.73,2.73,0,0,0,.2-1.05h0a2.73,2.73,0,0,0-.2-1.05c-.14-.33-.36-.53-.62-.53h0c-.26,0-.48.2-.63.53a2.74,2.74,0,0,0-.19,1.05h0a2.74,2.74,0,0,0,.19,1.05,1.38,1.38,0,0,0,.14.24,6,6,0,0,0-3.29,1.22,3.89,3.89,0,0,0-1.6,3h0a1.09,1.09,0,0,0,0,.18h0v0a1.61,1.61,0,0,0-.47.29,1.32,1.32,0,0,0-.42,1h0v.22h0a1.33,1.33,0,0,0,.42,1,1.61,1.61,0,0,0,.47.29v0h0a1.09,1.09,0,0,0,0,.18h0a3.67,3.67,0,0,0,1,2.51,1.09,1.09,0,0,0-.59.43,1.5,1.5,0,0,0-.32.86h0a1.5,1.5,0,0,0,.32.86,1.42,1.42,0,0,0,.24.25l0,0a1.49,1.49,0,0,0-.3.85h0a1.48,1.48,0,0,0,.3.84,1.14,1.14,0,0,0,.24.25l0,0a1.48,1.48,0,0,0-.3.84h0a1.45,1.45,0,0,0,.3.83,1.05,1.05,0,0,0,.23.24l0,0a1.44,1.44,0,0,0-.29.82h0a1.44,1.44,0,0,0,.29.83,1,1,0,0,0,.22.23v0a1.41,1.41,0,0,0-.29.81h0a1.41,1.41,0,0,0,.29.81.93.93,0,0,0,.21.23h0a1.46,1.46,0,0,0-.28.8h0a1.44,1.44,0,0,0,.28.8,2.2,2.2,0,0,0,.2.23h0a1.39,1.39,0,0,0-.27.79h0a1.39,1.39,0,0,0,.27.79,1.37,1.37,0,0,0,.19.22,1.54,1.54,0,0,0-.26.78h0a1.47,1.47,0,0,0,.27.79.91.91,0,0,0,.18.21,1.49,1.49,0,0,0-.25.77h0a1.43,1.43,0,0,0,.26.78.91.91,0,0,0,.18.21,1.41,1.41,0,0,0-.24.75h0a1.49,1.49,0,0,0,.25.77,1.2,1.2,0,0,0,.17.21,1.46,1.46,0,0,0-.23.74h0a1.43,1.43,0,0,0,.25.75.87.87,0,0,0,.17.21,1.41,1.41,0,0,0-.22.72h0a1.46,1.46,0,0,0,.23.74,1.12,1.12,0,0,0,.17.2,1.5,1.5,0,0,0-.22.71h0a1.4,1.4,0,0,0,.23.73h0a1.08,1.08,0,0,0,.16.2,1.59,1.59,0,0,0-.12.27,2.27,2.27,0,0,0-.73.16,5.27,5.27,0,0,0-2.11,1.67l-.27.35a4.75,4.75,0,0,0-.58,1.11l-.5-3.32.1-.1a3.53,3.53,0,0,0,1.51-.83c.11-.09.22-.18.32-.28s.21-.21.3-.32,0,0,0,0h0a5.17,5.17,0,0,0,1.11-1.87,1.51,1.51,0,0,0,.08-.34,1.71,1.71,0,0,0,0-.31V55h-.16a3.1,3.1,0,0,0-1.67.8l-.34.3c-.11.11-.23.23-.33.35h0a5.4,5.4,0,0,0-1.07,1.73l0,.06-.51-3.35.13-.14a3.41,3.41,0,0,0,1.44-.82,3.84,3.84,0,0,0,.3-.28c.1-.1.2-.2.29-.31h0a5,5,0,0,0,1.05-1.83h0c0-.11,0-.22.07-.32a1.63,1.63,0,0,0,0-.31v-.18h-.17a3.12,3.12,0,0,0-1.59.81l-.32.29a3.4,3.4,0,0,0-.32.34h0a5,5,0,0,0-1,1.67l0,.1L56,50.57l.16-.23a3.32,3.32,0,0,0,1.36-.81l.28-.27c.09-.09.18-.2.27-.31h0a5,5,0,0,0,1-1.77,2,2,0,0,0,.06-.32,1.51,1.51,0,0,0,0-.3v-.17l-.17,0a2.94,2.94,0,0,0-1.51.8,4.11,4.11,0,0,0-.31.29,5.21,5.21,0,0,0-1.23,2,1,1,0,0,1,0,.14l-.51-3.42.19-.22a3.14,3.14,0,0,0,1.29-.8,3.44,3.44,0,0,0,.27-.27c.08-.09.17-.19.25-.3h0a4.62,4.62,0,0,0,.9-1.72c0-.1,0-.2.05-.3a2.72,2.72,0,0,0,0-.28h0l0-.17-.16,0a2.85,2.85,0,0,0-1.44.8l-.29.28c-.09.11-.19.21-.27.32h0a4.93,4.93,0,0,0-.86,1.57c0,.06,0,.13,0,.19l-.53-3.45h0l.21-.26a2.9,2.9,0,0,0,1.22-.79l.25-.26h0l.24-.29h0a4.41,4.41,0,0,0,.82-1.66h0a1.55,1.55,0,0,0,0-.29,1.22,1.22,0,0,0,0-.27h0l0-.17-.16,0a2.67,2.67,0,0,0-1.36.79l-.27.28-.26.31h0a4.51,4.51,0,0,0-.78,1.5,1.38,1.38,0,0,0-.06.26L54,37.49l.25-.28a3.14,3.14,0,0,0,1.14-.79,2.85,2.85,0,0,0,.23-.26c.07-.09.15-.18.22-.28h0a4.3,4.3,0,0,0,.75-1.62,1.31,1.31,0,0,0,0-.27,1.13,1.13,0,0,0,0-.26h0l0-.17-.16,0a2.52,2.52,0,0,0-1.28.8,2.16,2.16,0,0,0-.25.27l-.24.3h0s0,0,0,0h0a4.12,4.12,0,0,0-.7,1.41,1.38,1.38,0,0,0-.06.26s0,.08,0,.11l-.53-3.52.09-.15.19-.24A3.06,3.06,0,0,0,54.75,32l.21-.25a1.3,1.3,0,0,0,.18-.23,4.24,4.24,0,0,0,.73-1.6,1.24,1.24,0,0,0,0-.27,1,1,0,0,0,0-.24l0-.17-.17,0a2.52,2.52,0,0,0-1.25.79l-.24.26-.23.3h0a4.3,4.3,0,0,0-.67,1.42c0,.09,0,.17,0,.25a.76.76,0,0,0,0,.15l-.48-3.15a3.62,3.62,0,0,0,.31-1.52c0-.13,0-.26,0-.39a3.9,3.9,0,0,0-1.22-2.91,3.6,3.6,0,0,0-.51,2.7h0a4.26,4.26,0,0,0,.79,2.14l.4,2.66a3.26,3.26,0,0,0-.69-1.2l-.25-.27a3.2,3.2,0,0,0-.27-.25h0a4.4,4.4,0,0,0-1.59-.92,1.4,1.4,0,0,0-.28-.06c-.15,0-.29,0-.44,0a2.67,2.67,0,0,0,.71,1.59,4.31,4.31,0,0,0,.56.57,4,4,0,0,0,1.72,1l.21,0,.4.27,0,0,.55,3.61a3.47,3.47,0,0,0-1-1.47,4.42,4.42,0,0,0-1.95-1.16,2.25,2.25,0,0,0-.73,0,2.81,2.81,0,0,0,.78,1.62,5.12,5.12,0,0,0,.58.56h0a3.92,3.92,0,0,0,1.78.93h0a.91.91,0,0,0,.23,0l.39.26h0l.54,3.62a3.27,3.27,0,0,0-.8-1.22l-.27-.27c-.09-.08-.19-.17-.3-.25h0a4.43,4.43,0,0,0-1.73-.88,1.87,1.87,0,0,0-.3,0h-.29l-.16,0a2.86,2.86,0,0,0,.84,1.63h0c.1.1.19.2.29.29A5,5,0,0,0,53,41.08l.28.07.25,0,.4.23h0l.55,3.63a3.57,3.57,0,0,0-.86-1.24,3.45,3.45,0,0,0-.28-.26,3.92,3.92,0,0,0-.32-.25h0a4.81,4.81,0,0,0-1.8-.86l-.31,0a.87.87,0,0,0-.28,0l-.18,0,0,.17a3,3,0,0,0,.89,1.47,2.76,2.76,0,0,0,.3.29,4,4,0,0,0,.34.27h0a4.93,4.93,0,0,0,1.6.81l.29.06.28,0h0l.39.22h0l.09.58,0,0h0l.46,3a3.62,3.62,0,0,0-.91-1.26l-.3-.26-.34-.25h0a4.62,4.62,0,0,0-1.87-.84l-.31,0a1.37,1.37,0,0,0-.29,0l-.18,0L51,47a3.19,3.19,0,0,0,1,1.5l.32.28.36.28h0a5,5,0,0,0,1.71.8l.3.05.24,0,.4.21.55,3.64a3.91,3.91,0,0,0-1-1.27,2.78,2.78,0,0,0-.32-.26L54.2,52h0s0,0,0,0h0a5,5,0,0,0-1.94-.81h0l-.33,0a1.51,1.51,0,0,0-.3,0h0l-.17,0,0,.17a3.17,3.17,0,0,0,1,1.51c.1.1.22.19.33.29h0l.38.27h0A5,5,0,0,0,55,54.2a1.81,1.81,0,0,0,.31,0h.25l.38.19.55,3.64a3.89,3.89,0,0,0-1-1.28h0l-.33-.26c-.11-.08-.23-.17-.36-.25h0a5,5,0,0,0-2-.79l-.33,0a1.06,1.06,0,0,0-.31,0l-.17,0,0,.17a3.33,3.33,0,0,0,1.07,1.52l.35.29h0l.39.27h0a5.3,5.3,0,0,0,1.84.77l.32,0h.26l.37.17.55,3.65a4,4,0,0,0-1.08-1.29,5.35,5.35,0,0,0-2.79-1.28,2.1,2.1,0,0,0-.35,0,2.36,2.36,0,0,0-.31,0l-.17,0,.05.16a3.17,3.17,0,0,0,1.12,1.54,7,7,0,0,0,.78.56h0a5.35,5.35,0,0,0,1.9.75h0l.33,0h.26l.37.17.23,1.56c.32,2.13,1.71,3.21,4.84,2.53a1.22,1.22,0,0,0,0,.26h0a1.46,1.46,0,0,0,.19.68.85.85,0,0,0,.14.19,1.44,1.44,0,0,0-.16.63h0a1.49,1.49,0,0,0,.18.67.94.94,0,0,0,.14.19,1.39,1.39,0,0,0-.16.62h0a1.45,1.45,0,0,0,.18.66.94.94,0,0,0,.14.19,1.52,1.52,0,0,0-.15.61h0a1.5,1.5,0,0,0,.17.65.67.67,0,0,0,.55.41h1a.67.67,0,0,0,.56-.41,1.5,1.5,0,0,0,.17-.65h0a1.52,1.52,0,0,0-.15-.61.94.94,0,0,0,.14-.19,1.44,1.44,0,0,0,.17-.66h0a1.38,1.38,0,0,0-.15-.62.94.94,0,0,0,.14-.19,1.49,1.49,0,0,0,.18-.67h0a1.44,1.44,0,0,0-.16-.63,1.33,1.33,0,0,0,.14-.19,1.46,1.46,0,0,0,.19-.68h0a1.22,1.22,0,0,0,0-.26c3.13.68,4.51-.4,4.84-2.53l.1-.72A2.3,2.3,0,0,0,72,63.54a2.73,2.73,0,0,0,.25-.23l.17-.22a1.88,1.88,0,0,0,.51-.36h0l.08-.09a1.15,1.15,0,0,0,.3-.56h0a.67.67,0,0,0,0-.36s0,0,0-.06l0-.2-.08,0a2.44,2.44,0,0,0-.75-1l-.22-.17-.2-.12a1.94,1.94,0,0,0-.32-.42,2.21,2.21,0,0,0,.9-.39l.24-.22A1.66,1.66,0,0,0,73,59a2,2,0,0,0,.5-.35h0l.08-.09a1.2,1.2,0,0,0,.29-.54h0a.67.67,0,0,0,0-.36.43.43,0,0,1,0,0l-.05-.21-.08,0a2.3,2.3,0,0,0-.73-1l-.21-.16-.19-.12a2.11,2.11,0,0,0-.28-.37,2,2,0,0,0,.83-.37,2.29,2.29,0,0,0,.23-.21,1.66,1.66,0,0,0,.16-.21,1.72,1.72,0,0,0,.49-.34l.07-.09A1.15,1.15,0,0,0,74.4,54h0a.72.72,0,0,0,0-.34l0-.05,0-.21-.08,0a2.31,2.31,0,0,0-.71-.94l-.21-.16-.18-.12a1.91,1.91,0,0,0-.24-.32,2.17,2.17,0,0,0,.77-.35,2.23,2.23,0,0,0,.22-.21,1.56,1.56,0,0,0,.16-.2,1.59,1.59,0,0,0,.47-.33l.07-.09a1,1,0,0,0,.28-.51h0a.72.72,0,0,0,0-.34h0a.43.43,0,0,1,0-.05l0-.21-.08,0a2.37,2.37,0,0,0-.68-.91l-.2-.15-.18-.11-.21-.29a1.8,1.8,0,0,0,.71-.34,1.42,1.42,0,0,0,.22-.2.9.9,0,0,0,.15-.19,1.72,1.72,0,0,0,.46-.32l.07-.08a1,1,0,0,0,.27-.5h0a.54.54,0,0,0,0-.32s0,0,0-.05l0-.21-.08,0a2.23,2.23,0,0,0-.66-.88L74.37,45l-.18-.11a1.2,1.2,0,0,0-.18-.26,1.91,1.91,0,0,0,.67-.33l.22-.19a1.33,1.33,0,0,0,.14-.19,1.58,1.58,0,0,0,.44-.31l.07-.08a1.05,1.05,0,0,0,.27-.49h0a.6.6,0,0,0,0-.32.43.43,0,0,1,0,0l0-.2-.08,0a2.22,2.22,0,0,0-.64-.84l-.19-.14a1,1,0,0,0-.17-.1,1.46,1.46,0,0,0-.17-.24,1.91,1.91,0,0,0,.64-.31,1.29,1.29,0,0,0,.21-.19l.14-.18a1.67,1.67,0,0,0,.42-.3l.08-.08h0a1,1,0,0,0,.26-.47h0a.61.61,0,0,0,0-.31s0,0,0,0l0-.21-.08,0a2.1,2.1,0,0,0-.61-.82l-.19-.13-.16-.1a1.19,1.19,0,0,0-.16-.23,1.72,1.72,0,0,0,.61-.29,1.21,1.21,0,0,0,.2-.19,1.15,1.15,0,0,0,.14-.17,1.38,1.38,0,0,0,.41-.29l.07-.08a1,1,0,0,0,.25-.46h0a.52.52,0,0,0,0-.3.43.43,0,0,1,0-.05l0-.2-.08,0a2,2,0,0,0-.59-.78l-.18-.14-.15-.09a1.91,1.91,0,0,0-.15-.21,1.76,1.76,0,0,0,.58-.29.81.81,0,0,0,.19-.18,1,1,0,0,0,.13-.16,1.5,1.5,0,0,0,.4-.28h0l.07-.08a1,1,0,0,0,.24-.44h0a.63.63,0,0,0,0-.3.08.08,0,0,0,0,0l0-.21-.07,0a2,2,0,0,0-.58-.75,1.09,1.09,0,0,0-.17-.13L76,31.7a1.1,1.1,0,0,0-.14-.21,1.71,1.71,0,0,0,.56-.27l.19-.17.12-.16a1.39,1.39,0,0,0,.39-.28h0l.06-.06a1,1,0,0,0,.23-.44h0a.53.53,0,0,0,0-.29h0s0,0,0,0l0-.21-.06,0a1.89,1.89,0,0,0-.56-.73l-.16-.13-.14-.09a1.65,1.65,0,0,0-.26-.32l-.07-.06h0a2.64,2.64,0,0,0,.63-1.4,2,2,0,0,0-.62-2A2,2,0,0,0,75,26.6a2.62,2.62,0,0,0,.18,1.52,1.27,1.27,0,0,0-.23.12l-.13.09-.08.07ZM62.27,66.59a1.43,1.43,0,0,1-.16-.62h0a1.45,1.45,0,0,1,.18-.65.7.7,0,0,1-.15-.19,1.52,1.52,0,0,1-.2-.7h0a1.45,1.45,0,0,1,.18-.66,1,1,0,0,1-.15-.2,1.43,1.43,0,0,1-.21-.71h0a1.39,1.39,0,0,1,.19-.67,1,1,0,0,1-.15-.2,1.34,1.34,0,0,1-.22-.71h0a1.44,1.44,0,0,1,.2-.68,1.56,1.56,0,0,1-.16-.2,1.3,1.3,0,0,1-.15-.34,4.43,4.43,0,0,1-.57,1.16c-.08.12-.17.25-.27.38a5.62,5.62,0,0,1-2.05,1.71,2.81,2.81,0,0,1-.56.18l-.08.07.15,1c.27,1.79,1.45,2.69,4.18,2.09ZM51.35,27.21Zm0,0Zm1.7,16.08Zm0,0ZM85.18,80.52a1.23,1.23,0,0,0,.34-.38h0a.69.69,0,0,0,.08-.39.64.64,0,0,0-.15-.35,1.33,1.33,0,0,0-.42-.34,25.59,25.59,0,0,1-3-2l-.2-.15h0a3.58,3.58,0,0,0,.74-.25,3.42,3.42,0,0,0,1.09-.83,3.56,3.56,0,0,0,.55-1l.42.34c1,.82,2.36.65,3.7.09a16.9,16.9,0,0,0,3.28-2l.58-.43-.69-.22-2.74-.87a6,6,0,0,0,2.9-1.13,22.79,22.79,0,0,0,2.94-2.46l.63-.61-.87,0-2-.08c2.33-.27,3.82-2.34,5-4.05l.26-.36.53-.72-.88.13L93.66,63l.4-.07a4.92,4.92,0,0,0,3.23-2.74,19.41,19.41,0,0,0,1.52-3.88l.25-.81-.76.37-2.58,1.23a4.48,4.48,0,0,0,.75-.63,6,6,0,0,0,.89-1.19,12.77,12.77,0,0,0,1.38-6.9l-.08-.67-2.94,2.45c1.39-2.13,2.06-7.29.53-9.22l-.3-.37-.29.38-2.22,3a5.37,5.37,0,0,0,.21-.56,8,8,0,0,0,.29-1.47,16.72,16.72,0,0,0-1.2-7.58l-.33-.67-.33.68-1,2.1a6,6,0,0,0-.38-3.2,18.28,18.28,0,0,0-2.22-3.89L88,28.69l-.22.73L87,31.93a2.17,2.17,0,0,0,0-.36,5.2,5.2,0,0,0-.17-1.22,13,13,0,0,0-3.77-5.77L81.06,38,75.78,60.86a9,9,0,0,1-.88,2.38,7.92,7.92,0,0,1-1.47,1.85l-.06,0a2.3,2.3,0,0,1-.15-.32,10,10,0,0,1-.33-1l-.13-.47-.32.38a5.53,5.53,0,0,0-.72,2.46c0,.2,0,.38,0,.55s0,.34,0,.49h0l0,.24-.15.2a2.62,2.62,0,0,1-1.38,1.05,2.69,2.69,0,0,1-.75.15,2.38,2.38,0,0,0-.85.16.64.64,0,0,0-.39.69h0c0,.06,0,0,0,0h0a.71.71,0,0,0,.16.4h0L68,70v.4a3.54,3.54,0,0,1-1.18,2.61,3,3,0,0,1-.41.32H61.62a3,3,0,0,1-.41-.32A3.5,3.5,0,0,1,60,70.44V70l-.35.13h0a.79.79,0,0,0,.16-.4h0v0h0a.64.64,0,0,0-.39-.69,2.38,2.38,0,0,0-.85-.16,2.85,2.85,0,0,1-.76-.15,2.6,2.6,0,0,1-1.37-1.05l-.15-.2,0-.24h0c0-.15,0-.31,0-.49s0-.35,0-.55a5.4,5.4,0,0,0-.72-2.46l-.31-.38-.14.47a10,10,0,0,1-.32,1,2.3,2.3,0,0,1-.15.32l-.06,0a7.72,7.72,0,0,1-1.48-1.85,9,9,0,0,1-.87-2.38L46.93,38l-2-13.45a13.07,13.07,0,0,0-3.76,5.77,5.22,5.22,0,0,0-.18,1.22c0,.12,0,.24,0,.36l-.75-2.51L40,28.69l-.44.63a18.31,18.31,0,0,0-2.23,3.89,6.06,6.06,0,0,0-.37,3.2l-1-2.1-.33-.68-.34.67a16.73,16.73,0,0,0-1.19,7.58,8,8,0,0,0,.28,1.47l.21.56-2.22-3L32,40.56l-.29.37c-1.53,1.93-.86,7.09.52,9.22L29.34,47.7l-.08.67a12.77,12.77,0,0,0,1.38,6.9,5.6,5.6,0,0,0,.89,1.19,4,4,0,0,0,.74.63L29.7,55.86l-.76-.37.25.81a19.41,19.41,0,0,0,1.52,3.88,4.89,4.89,0,0,0,3.23,2.74l.4.07-3.66-.57-.88-.13.52.72.27.36c1.22,1.71,2.72,3.78,5.05,4.05l-2,.08-.88,0,.63.61a22.29,22.29,0,0,0,2.95,2.46,6,6,0,0,0,2.9,1.13l-2.74.87-.69.22.58.43a16.9,16.9,0,0,0,3.28,2c1.34.56,2.65.73,3.7-.09l.42-.34a3.12,3.12,0,0,0,.55,1,3.33,3.33,0,0,0,1.83,1.08h0L46,77a24.78,24.78,0,0,1-3,2,1.18,1.18,0,0,0-.41.34.64.64,0,0,0-.15.35.62.62,0,0,0,.08.39h0a1.23,1.23,0,0,0,.34.38,1.46,1.46,0,0,0,.35.18.94.94,0,0,0,.15.06l-.06.1h0a4.26,4.26,0,0,1,.42.43c.12.15.24.31.35.47a6.68,6.68,0,0,1,1,2.81,1.19,1.19,0,0,0-.16.67.69.69,0,0,0,.2.42.76.76,0,0,0,.41.2,1.38,1.38,0,0,0,.83-.15h0a.52.52,0,0,0,.13-.06h0l.13-.08h0a2.27,2.27,0,0,0,.52-.49,3.48,3.48,0,0,1,1.07-.88,20.81,20.81,0,0,1,2.58-1.3c3.92-1.61,8.16-1.36,12.32-1.35h1.88c4.15,0,8.4-.26,12.31,1.35a20.36,20.36,0,0,1,2.59,1.3,3.39,3.39,0,0,1,1.06.88,2.58,2.58,0,0,0,.53.49h0l.13.08h0l.12.06h0a1.41,1.41,0,0,0,.84.15.79.79,0,0,0,.41-.2.69.69,0,0,0,.2-.42,1.13,1.13,0,0,0-.17-.67,6.82,6.82,0,0,1,1-2.81,5.32,5.32,0,0,1,.36-.47,4.26,4.26,0,0,1,.42-.43h0l-.06-.1a.94.94,0,0,0,.15-.06,1.46,1.46,0,0,0,.35-.18ZM47,72.23l-2.4,1.87a15.68,15.68,0,0,0,2-.32,7.42,7.42,0,0,0,1.88-.69A4,4,0,0,1,47,72.23Zm34,0a4,4,0,0,1-1.48.86,7.35,7.35,0,0,0,1.87.69,16.12,16.12,0,0,0,2,.32Z"/><path class="cls-2" d="M44.63,25.36l1.44,9.46.15,2.57L48,51.77l-.35.4a4.81,4.81,0,0,0-.44.76l-5.8-19.85c-.75-2.55,1.67-6.16,3.22-7.72Zm16.78,34a4.21,4.21,0,0,1-1.26,2.51,4.27,4.27,0,0,1-2.21,1.41l0,0-.07-.45a5,5,0,0,1,1.21-2.07,4.05,4.05,0,0,1,2.36-1.43ZM49.2,29.45a3.35,3.35,0,0,1,2,1,3.56,3.56,0,0,1,1.19,1.76l.18.18,0,.17-.34-.23a3.59,3.59,0,0,1-1.88-.95,3.32,3.32,0,0,1-1.2-1.89Zm6.52,0a3.06,3.06,0,0,1-.68,2,3.22,3.22,0,0,1-1.5,1.26l-.22.28,0-.16.12-.23a3.27,3.27,0,0,1,.69-1.81,3,3,0,0,1,1.61-1.29Zm.75,4.28a3.28,3.28,0,0,1-.75,2,3.34,3.34,0,0,1-1.55,1.28L54,37.3l0-.18.09-.18a3.53,3.53,0,0,1,.76-1.88,3,3,0,0,1,1.67-1.31Zm-6.78.08a3.35,3.35,0,0,1,2.11.92,3.65,3.65,0,0,1,1.27,1.77l.18.17,0,.17-.33-.21a3.66,3.66,0,0,1-2-.92,3.44,3.44,0,0,1-1.29-1.9Zm.49,4.37a3.48,3.48,0,0,1,2.19.89,3.72,3.72,0,0,1,1.36,1.78l.17.16,0,.18L53.6,41a3.75,3.75,0,0,1-2-.89,3.46,3.46,0,0,1-1.39-1.92ZM57.29,38a3.44,3.44,0,0,1-.83,2.11,3.54,3.54,0,0,1-1.66,1.31l-.17.19,0-.2.07-.12a3.68,3.68,0,0,1,.84-2A3.21,3.21,0,0,1,57.29,38Zm.82,4.28a3.58,3.58,0,0,1-.91,2.19,3.64,3.64,0,0,1-1.78,1.32c0,.06-.09.11-.13.16l0-.22,0-.07a3.88,3.88,0,0,1,.91-2,3.39,3.39,0,0,1,1.9-1.35Zm-7.43.27a3.6,3.6,0,0,1,2.27.86,3.78,3.78,0,0,1,1.44,1.8l.17.14,0,.19-.33-.19a3.84,3.84,0,0,1-2.11-.87,3.49,3.49,0,0,1-1.47-1.93Zm.49,4.37a3.72,3.72,0,0,1,2.36.82,3.89,3.89,0,0,1,1.52,1.82l.17.13,0,.19-.32-.17a4,4,0,0,1-2.19-.84,3.6,3.6,0,0,1-1.56-2Zm7.77-.37a3.78,3.78,0,0,1-1,2.27,3.83,3.83,0,0,1-1.89,1.35l-.11.12,0-.24v0a4.15,4.15,0,0,1,1-2.1,3.63,3.63,0,0,1,2-1.37Zm.82,4.28a3.89,3.89,0,0,1-1.09,2.35,4,4,0,0,1-2,1.37l-.08.09-.05-.3a4.4,4.4,0,0,1,1.08-2.12,3.7,3.7,0,0,1,2.13-1.39Zm-8.1.47a3.73,3.73,0,0,1,2.44.78,4.17,4.17,0,0,1,1.62,1.83l.15.12,0,.2a3.18,3.18,0,0,0-.32-.16,4.1,4.1,0,0,1-2.27-.81,3.81,3.81,0,0,1-1.65-2Zm.49,4.37a3.86,3.86,0,0,1,2.53.75,4.21,4.21,0,0,1,1.7,1.84l.15.11,0,.2-.31-.14a4.3,4.3,0,0,1-2.36-.78,3.92,3.92,0,0,1-1.74-2Zm8.44-.56a5,5,0,0,1-3.28,3.81l-.06.06,0-.38a4.65,4.65,0,0,1,1.14-2.09,3.84,3.84,0,0,1,2.25-1.4Zm-7.94,4.93a4,4,0,0,1,2.61.72A4.38,4.38,0,0,1,57,62.63l.14.1,0,.21-.31-.14a4.21,4.21,0,0,1-2.43-.74,3.94,3.94,0,0,1-1.83-2Zm-.76-35.31a3.9,3.9,0,0,0-.38,2.44,3.71,3.71,0,0,0,.76,2.12,1.28,1.28,0,0,1,.3.7,1.58,1.58,0,0,1,.06-.72A3.94,3.94,0,0,0,52.87,27a3.59,3.59,0,0,0-1-2.27Zm10.9,43.77a.6.6,0,0,0,.27.07h1.88a.59.59,0,0,0,.26-.07,1.21,1.21,0,0,1,.12.48c0,.35-.24.85-.54.85H63.21c-.29,0-.53-.5-.53-.85a1.2,1.2,0,0,1,.11-.48Zm-.11-40.14,1,1h-2.1l1-1ZM64,25.2c-2.82,0-5.12,1.79-5.15,4l1-1,.15-.14.16.14,1.16,1.09,1.16-1.09.15-.14.16.14L64,29.3l1.16-1.09.15-.14.16.14,1.16,1.09,1.16-1.09.15-.14.16.14,1.05,1c0-2.21-2.34-4-5.15-4Zm0-2.87c.33,0,.59.62.59,1.37s-.26,1.36-.59,1.36-.6-.61-.6-1.36.27-1.37.6-1.37Zm4.06,12.55H59.94a3.53,3.53,0,0,1-1.09-2.44l1,1,.15.15.16-.15,1.16-1.08,1.16,1.08.15.15.16-.15L64,32.34l1.16,1.08.15.15.16-.15,1.16-1.08,1.16,1.08.15.15.16-.15,1.05-1a3.57,3.57,0,0,1-1.09,2.44Zm.77-5.3A1.17,1.17,0,0,1,70,30.71v.22a1.16,1.16,0,0,1-1.2,1.12H59.17A1.17,1.17,0,0,1,58,30.93v-.22a1.17,1.17,0,0,1,1.21-1.13Zm-6.15,3.68,1-1h-2.1l1,1Zm2.63,0,1-1h-2.1l1,1Zm2.63,0,1.07-1H66.89l1,1Zm-7.89,0,1.05-1H59l1.06,1Zm5.26-4.88,1,1h-2.1l1-1Zm2.63,0,1.07,1H66.89l1-1Zm-7.89,0,1.05,1H59l1.06-1Zm8.11,6.72c.45,0,.87.61.87,1.09s-.42,1.09-.87,1.09H59.84c-.45,0-.87-.61-.87-1.09s.42-1.09.87-1.09ZM59.5,37.42a.77.77,0,0,0,.34.08h8.32a.81.81,0,0,0,.34-.08,1.3,1.3,0,0,1,.31.77c0,.47-.42,1.07-.85,1.07H60c-.44,0-.85-.6-.85-1.07a1.24,1.24,0,0,1,.31-.77Zm.2,2a.81.81,0,0,0,.34.08H68a.84.84,0,0,0,.34-.08,1.27,1.27,0,0,1,.28.75c0,.46-.4,1.06-.83,1.06H60.24c-.42,0-.83-.6-.83-1.06a1.28,1.28,0,0,1,.29-.75Zm.2,2a.81.81,0,0,0,.34.08h7.51a.77.77,0,0,0,.34-.08,1.21,1.21,0,0,1,.28.72c0,.46-.4,1-.81,1H60.44c-.42,0-.81-.59-.81-1a1.26,1.26,0,0,1,.27-.72ZM62.63,67a.5.5,0,0,0,.27.08h2.2a.56.56,0,0,0,.27-.08,1.31,1.31,0,0,1,.12.5c0,.36-.25.86-.55.86H63.06c-.31,0-.55-.5-.55-.86a1.31,1.31,0,0,1,.12-.5Zm-.16-1.53a.5.5,0,0,0,.27.07h2.52a.52.52,0,0,0,.27-.07,1.16,1.16,0,0,1,.13.5c0,.37-.25.88-.56.88H62.9c-.31,0-.56-.51-.56-.88a1.16,1.16,0,0,1,.13-.5Zm-.17-1.56a.54.54,0,0,0,.28.08h2.84a.57.57,0,0,0,.28-.08,1.25,1.25,0,0,1,.13.52c0,.37-.26.89-.58.89H62.74c-.32,0-.58-.52-.58-.89a1.13,1.13,0,0,1,.14-.52Zm-.17-1.58a.57.57,0,0,0,.29.08h3.16a.6.6,0,0,0,.29-.08,1.17,1.17,0,0,1,.14.53c0,.38-.27.9-.59.9H62.58c-.32,0-.59-.52-.59-.9a1.17,1.17,0,0,1,.14-.53ZM62,60.73a.6.6,0,0,0,.29.08h3.5a.6.6,0,0,0,.29-.08,1.22,1.22,0,0,1,.15.54c0,.39-.28.92-.61.92H62.42c-.33,0-.61-.53-.61-.92a1.1,1.1,0,0,1,.15-.54Zm-.18-1.63a.67.67,0,0,0,.3.08h3.83a.61.61,0,0,0,.3-.08,1.16,1.16,0,0,1,.16.56c0,.39-.29.92-.62.92h-3.5c-.34,0-.63-.53-.63-.92a1.19,1.19,0,0,1,.16-.56Zm-.17-1.65a.61.61,0,0,0,.3.08h4.18a.64.64,0,0,0,.3-.08,1.25,1.25,0,0,1,.17.58c0,.39-.3.93-.65.93H62.08c-.34,0-.64-.54-.64-.93a1.14,1.14,0,0,1,.17-.58Zm-.18-1.68a.56.56,0,0,0,.31.09h4.52a.59.59,0,0,0,.31-.09,1.22,1.22,0,0,1,.18.59c0,.41-.31,1-.67,1H61.91c-.35,0-.66-.54-.66-1a1.19,1.19,0,0,1,.18-.59Zm-.18-1.7a.56.56,0,0,0,.31.09h4.88a.59.59,0,0,0,.31-.09,1.18,1.18,0,0,1,.19.61c0,.41-.32,1-.68,1H61.74c-.36,0-.68-.54-.68-1a1.18,1.18,0,0,1,.19-.61Zm-.19-1.73a.62.62,0,0,0,.32.09h5.23a.59.59,0,0,0,.32-.09,1.14,1.14,0,0,1,.2.62c0,.42-.33,1-.69,1H61.56c-.37,0-.7-.55-.7-1a1.23,1.23,0,0,1,.2-.62Zm-.18-1.76a.62.62,0,0,0,.32.09h5.6a.62.62,0,0,0,.32-.09,1.25,1.25,0,0,1,.21.64c0,.42-.34,1-.72,1H61.38c-.37,0-.71-.56-.71-1a1.25,1.25,0,0,1,.21-.64Zm-.19-1.78a.73.73,0,0,0,.32.09h6a.74.74,0,0,0,.33-.09,1.24,1.24,0,0,1,.22.65c0,.43-.35,1-.73,1H61.2c-.38,0-.73-.57-.73-1a1.15,1.15,0,0,1,.22-.65ZM60.5,47a.63.63,0,0,0,.33.09h6.34A.63.63,0,0,0,67.5,47a1.23,1.23,0,0,1,.23.67c0,.44-.36,1-.75,1H61c-.4,0-.76-.57-.76-1A1.17,1.17,0,0,1,60.5,47Zm-.2-1.84a.81.81,0,0,0,.34.08h6.72a.81.81,0,0,0,.34-.08,1.28,1.28,0,0,1,.24.69c0,.44-.37,1-.77,1H60.83c-.4,0-.77-.57-.77-1a1.2,1.2,0,0,1,.24-.69Zm-.2-1.88a.81.81,0,0,0,.34.08h7.12a.76.76,0,0,0,.33-.08,1.19,1.19,0,0,1,.26.71c0,.44-.38,1-.79,1H60.64c-.41,0-.79-.59-.79-1a1.25,1.25,0,0,1,.25-.71ZM63,70a.52.52,0,0,0,.25.07h1.58A.55.55,0,0,0,65,70a1.15,1.15,0,0,1,.11.47c0,.35-.23.84-.52.84H63.36c-.29,0-.51-.49-.51-.84A1.15,1.15,0,0,1,63,70Zm.15,1.47a.55.55,0,0,0,.25.07h1.27a.52.52,0,0,0,.25-.07.85.85,0,0,1,.1.46c0,.24-.21.84-.5.84h-1c-.28,0-.5-.6-.5-.84a1,1,0,0,1,.1-.46ZM44.72,57.05a8,8,0,0,1,.93-2.32L35.59,34.47c-1,2-2,7.71-.36,9.86l9.49,12.72Zm38.56,0a8,8,0,0,0-.93-2.32L92.41,34.47c1,2,2,7.71.36,9.86L83.28,57.05Zm1.51,17.82-.52-.4,0-.34h-.44l-2.69-2.07a2.55,2.55,0,0,0,.62-1.45h0a2.1,2.1,0,0,0,0-.43l.68-.2,9,3c-1.57,1.16-4.77,3.35-6.61,1.92Zm-.2-7.69A7.06,7.06,0,0,0,84.86,66l.06-.53-.47.26L84,66l.14-.24a4.91,4.91,0,0,0,.37-1l12.86-2c-1.32,1.82-3.28,4.46-5.92,4.45l-6.86-.06Zm-.12.33a5.86,5.86,0,0,1-1,1.7,3.23,3.23,0,0,1-.55.5l-.08.05,5,1.57C90,72,93,69.16,94.36,67.87l-9.89-.36Zm.15-3.09,9-1.61c2.62-.48,4.22-4.49,4.87-6.62L84.68,62.78a7.81,7.81,0,0,1-.06,1.64Zm.13-2,10-4.92c2.84-1.41,3.9-7,3.64-9L84.55,59.94a5.57,5.57,0,0,1-.11,1.78,3.3,3.3,0,0,1-.2.58l.33-.29.18.37Zm-.23-2.82,10.07-8.62c2.09-1.79,2.87-7.89,1.37-9.78L83.34,57.37a4.84,4.84,0,0,1-.06,1.47h0l.43-.64.29-.42.2.47a8.38,8.38,0,0,1,.32,1.31ZM43.21,74.87c-1.84,1.43-5-.76-6.61-1.92l9-3,.67.2a3.12,3.12,0,0,0,0,.43h0a2.55,2.55,0,0,0,.62,1.45l-2.69,2.07h-.44v.34l-.51.4Zm.32-7.36-9.89.36C35,69.16,38,72,40.08,71.33l5.05-1.57L45,69.71a3.6,3.6,0,0,1-.54-.5,5.86,5.86,0,0,1-1-1.7Zm-.12-.33-6.87.06c-2.63,0-4.6-2.63-5.92-4.45l12.87,2a4.91,4.91,0,0,0,.37,1c0,.08.09.16.14.24l-.46-.25-.46-.26.05.53a8.52,8.52,0,0,0,.28,1.15Zm0-2.76-9-1.61c-2.63-.48-4.22-4.49-4.87-6.62l13.77,6.59a7.87,7.87,0,0,0,.07,1.64Zm-.13-2,.17-.37.34.29a3.3,3.3,0,0,1-.2-.58,5.88,5.88,0,0,1-.12-1.78L29.62,48.42c-.25,2,.8,7.63,3.65,9l10,4.92Zm.22-2.82a8.27,8.27,0,0,1,.33-1.31l.2-.47.28.42.44.64h0a5.19,5.19,0,0,1-.07-1.47L32,41.16c-1.5,1.89-.73,8,1.37,9.78l10.06,8.62Zm10,15.8a6.84,6.84,0,0,1,2.06-1A14.62,14.62,0,0,1,58,73.82a19.21,19.21,0,0,1,2.6-.2h6.73a19.36,19.36,0,0,1,2.61.2,15,15,0,0,1,2.49.52,6.78,6.78,0,0,1,2.05,1,.83.83,0,0,1,.16,1.17.85.85,0,0,1-1.17.16,5.72,5.72,0,0,0-1.87-.91,12.22,12.22,0,0,0-2.23-.42,22.65,22.65,0,0,0-2.32-.11H60.91a22.59,22.59,0,0,0-2.31.11,12.17,12.17,0,0,0-2.24.42,5.76,5.76,0,0,0-1.86.91.85.85,0,0,1-1.17-.16.84.84,0,0,1,.15-1.17Zm-1.56-7.73c-4.07-.77-6.66,2.19-4.86,4.28a2.86,2.86,0,0,0,1.83,1l.07,0a2.41,2.41,0,0,1-.6-.64l-.1-.17-.09-.18h0A2.35,2.35,0,0,1,48,71c0-.07,0-.13,0-.19a1.24,1.24,0,0,1,0-.18h0a2.38,2.38,0,0,1,.32-.88l.11-.16a.76.76,0,0,1,.11-.14h0a2.19,2.19,0,0,1,.91-.63l.22-.06.24,0h0a3.56,3.56,0,0,1,1,0l.17,0,.16,0h0a2.3,2.3,0,0,1,.77.43h0l.12.12.1.12h0a2.14,2.14,0,0,1,.37.72,1.24,1.24,0,0,1,0,.16l0,.16h0a2.33,2.33,0,0,1,0,.79l0,.16a1,1,0,0,1,0,.16h0a5,5,0,0,1-.42,1,6.85,6.85,0,0,1-.67,1,11.61,11.61,0,0,1-.91,1c-.35.36-.74.73-1.18,1.11a5,5,0,0,1-1.57,1c-1,.76-2.06,1.59-3.33,2.52-.8.51,5.76-1.44,8.56-2.59a1.08,1.08,0,0,1,.29-1.37h0a5.43,5.43,0,0,1,1-.6c.17-.09.34-.16.52-.24a3.81,3.81,0,0,1-.47-1.84,3.9,3.9,0,0,1,1.47-3c-.67-.55-1.07-1.26-.84-1.8a6.73,6.73,0,0,1-3.09,0Zm9.26,5.74a3.76,3.76,0,0,1-1.41-2.92v0a4.39,4.39,0,0,1-3.14-.48,4.35,4.35,0,0,1-.64-.39,4,4,0,0,0-1.41,2.6,3.34,3.34,0,0,0,.48,2.11l.41-.14a11.66,11.66,0,0,1,1.23-.33c.42-.08.86-.15,1.3-.21l1.32-.15c.43,0,.87-.06,1.31-.06Zm-4.91-3.88a2.91,2.91,0,0,1-1-1.16c-.22-.64.1-1.17.49-1s.64.92,1.21,1.26a3.09,3.09,0,0,0,1.61.56c.63,0,1,.15,1,.57s-.54.68-1.07.62a6.66,6.66,0,0,1-2.2-.87Zm-.92-5.57A6.29,6.29,0,0,1,56,67.25c-.25-.27-.57-.31-.93.08a4.24,4.24,0,0,1-1.29.22,7.32,7.32,0,0,1-1.74-.15,2.78,2.78,0,0,0,.37-.13,5,5,0,0,0,2.08-1.47,5.24,5.24,0,0,0,.83-1.88ZM49.21,75.48a16.28,16.28,0,0,0,2.08-2.14,6.1,6.1,0,0,0,1-1.64A2,2,0,0,0,52,69.55a1.7,1.7,0,0,0-.87-.59,2.15,2.15,0,0,0-2.88,1.68,2,2,0,0,0,.18,1.16,2.28,2.28,0,0,0,.94,1A9.15,9.15,0,0,1,46.68,74a13.07,13.07,0,0,1-2.64.36h-.13v.14a2.23,2.23,0,0,0,.59,1.16,3,3,0,0,0,1,.77,2.72,2.72,0,0,0,1.41.23,3.91,3.91,0,0,0,2.28-1.15Zm17.6-2.11h.55c.44,0,.88,0,1.32.06l1.32.15h0c.44,0,.88.13,1.3.21a12.35,12.35,0,0,1,1.23.33l.41.14a3.4,3.4,0,0,0,.48-2.11A4,4,0,0,0,72,69.55a5,5,0,0,1-.64.39,4.39,4.39,0,0,1-3.14.48v0a3.74,3.74,0,0,1-1.42,2.92Zm5.83-9.45a5.44,5.44,0,0,0,.84,1.88,5,5,0,0,0,2.08,1.47,2.78,2.78,0,0,0,.37.13,7.36,7.36,0,0,1-1.74.15,4.31,4.31,0,0,1-1.3-.22c-.35-.39-.67-.35-.93-.08a6.39,6.39,0,0,1,.68-3.33Zm6.15,11.56a3.86,3.86,0,0,0,2.27,1.15,2.74,2.74,0,0,0,1.42-.23,3,3,0,0,0,1-.77,2.23,2.23,0,0,0,.59-1.16v-.14H84A13.07,13.07,0,0,1,81.31,74a9.1,9.1,0,0,1-2.69-1.13,2.28,2.28,0,0,0,.94-1,2,2,0,0,0,.18-1.16A2.15,2.15,0,0,0,76.86,69a1.7,1.7,0,0,0-.87.59,2,2,0,0,0-.27,2.15,6.37,6.37,0,0,0,1,1.64,17.11,17.11,0,0,0,2.09,2.14Zm-2.71-7.85a6.73,6.73,0,0,1-3.09,0c.23.54-.18,1.25-.85,1.8a3.91,3.91,0,0,1,1.48,3,3.71,3.71,0,0,1-.48,1.84c.18.08.36.15.53.24a5.43,5.43,0,0,1,1,.6h0a1.07,1.07,0,0,1,.41.71,1.1,1.1,0,0,1-.12.66c2.8,1.15,9.36,3.1,8.56,2.59-1.28-.93-2.38-1.76-3.33-2.52a5,5,0,0,1-1.58-1q-.64-.57-1.17-1.11a11.81,11.81,0,0,1-.92-1,7.66,7.66,0,0,1-.66-1,4.5,4.5,0,0,1-.43-1h0l0-.16a.76.76,0,0,1,0-.16,2.33,2.33,0,0,1,0-.79h0a.78.78,0,0,1,0-.16.75.75,0,0,0,0-.16,2.17,2.17,0,0,1,.38-.72h0l.11-.12.12-.12h0a2.25,2.25,0,0,1,.76-.43h0l.16,0,.17,0a3.56,3.56,0,0,1,1,0h0l.23,0,.22.06a2.13,2.13,0,0,1,.91.63h0a1.71,1.71,0,0,1,.11.14.86.86,0,0,1,.1.16,2.08,2.08,0,0,1,.32.88h0c0,.06,0,.13,0,.18V71a2.52,2.52,0,0,1-.18.93h0a1.42,1.42,0,0,1-.08.18l-.1.17a2.3,2.3,0,0,1-.61.64l.07,0a2.84,2.84,0,0,0,1.83-1c1.81-2.09-.79-5-4.85-4.28Zm-4.36,1.86a6.52,6.52,0,0,1-2.19.87c-.53.06-1-.2-1.07-.62s.36-.54,1-.57a3.09,3.09,0,0,0,1.61-.56c.56-.34.84-1.08,1.2-1.26s.72.34.49,1a2.76,2.76,0,0,1-1,1.16ZM81.4,55.8l8.9-18.27c1.37-2.8-.56-5.71-2.15-8L81,53.47a7.9,7.9,0,0,1,.41,2.12,1.48,1.48,0,0,1,0,.21Zm-3,11.56a2.6,2.6,0,0,0,.36-.13c1.64-.66,2.16-3.28,1.88-5.45.81,2.17,1.4,5-.12,6.4a4.72,4.72,0,0,0-2.12-.82Zm.9-9.41c-.13,1.83-.52,4.71-2.13,6.28a4.34,4.34,0,0,1-2.82,1.28,3.32,3.32,0,0,0,3.12.08c2.15-1.21,2.47-4.72,1.83-7.64Zm.48,1.41c.39,2.29-.23,5-1.36,6a3.41,3.41,0,0,1-3.11.86,15.26,15.26,0,0,1-1.64-.64A5.21,5.21,0,0,0,76,67.15a3.39,3.39,0,0,0,2.66-.22c1.79-1.08,2.32-4.34,1.07-7.57Zm1.57,8.13L83,66.56c1.31-.71,1.49-3.07,1.34-4l-2.71,2.38a4.9,4.9,0,0,1-.34,2.56Zm.38,2.41.51-.14c1.44-.4,2.27-2.8,2.37-3.76L81,68a2.37,2.37,0,0,1-.33.38,3.15,3.15,0,0,1,.56.6,2.64,2.64,0,0,1,.44,1Zm-.09-5.37,1.93-1.74c1.1-1,.76-3.55.39-4.44l-2.8,4.12.06.18c.09.33.19.66.26,1a8.85,8.85,0,0,1,.16.87ZM81,62l1.77-2.67c.86-1.29,0-3.48-.6-4.28L80.2,59.8a10.48,10.48,0,0,1,.33,1.34A4.89,4.89,0,0,1,81,62ZM80,59.36a5,5,0,0,0-.38-.72,6.49,6.49,0,0,0-.3-1.21l.59-5.3a6.17,6.17,0,0,1,1,5L80,59.36Zm-1.18-.54L81.5,37.36,76.05,60.92a8,8,0,0,1-2.43,4.37c2.42-.29,4.69-1.43,5.23-6.47Zm4.52-33.46-1.44,9.46-.15,2.57L80,51.77l.35.4a4.88,4.88,0,0,1,.43.76l5.81-19.85c.75-2.55-1.67-6.16-3.22-7.72ZM46.28,69.9l-.5-.14c-1.45-.4-2.27-2.8-2.37-3.76L47,68a2.43,2.43,0,0,0,.34.38,3.15,3.15,0,0,0-.56.6,2.67,2.67,0,0,0-.45,1Zm3.34-2.54a4.72,4.72,0,0,0-2.12.82c-1.52-1.37-.93-4.23-.13-6.4-.28,2.17.25,4.79,1.89,5.45a2.2,2.2,0,0,0,.36.13Zm-3,.13a5,5,0,0,1-.33-2.56l-2.71-2.38c-.16.94,0,3.3,1.34,4l1.7.93Zm-.29-3c0-.29.1-.58.16-.87s.17-.68.27-1l.06-.18-2.81-4.12c-.37.89-.71,3.44.4,4.44l1.92,1.74ZM47,62l-1.78-2.67c-.86-1.29,0-3.48.61-4.28L47.8,59.8a10.52,10.52,0,0,0-.34,1.34A5.07,5.07,0,0,0,47,62Zm1.21-2.66c-1.26,3.23-.72,6.49,1.07,7.57a3.38,3.38,0,0,0,2.66.22,5.26,5.26,0,0,0,2.38-1.6,15.31,15.31,0,0,1-1.65.64,3.4,3.4,0,0,1-3.1-.86c-1.13-1-1.75-3.68-1.36-6ZM48.72,58c-.65,2.92-.32,6.43,1.83,7.64a3.32,3.32,0,0,0,3.12-.08,4.34,4.34,0,0,1-2.82-1.28c-1.61-1.57-2-4.45-2.13-6.28ZM48,59.36a6.1,6.1,0,0,1,.37-.72,6.52,6.52,0,0,1,.31-1.21l-.6-5.3a6.2,6.2,0,0,0-1,5L48,59.36ZM46.6,55.8v-.21A7.9,7.9,0,0,1,47,53.47L39.84,29.53c-1.59,2.29-3.51,5.2-2.14,8L46.6,55.8Zm2.55,3c.54,5,2.81,6.18,5.23,6.47A8,8,0,0,1,52,60.92L46.49,37.36Z"/><path class="cls-3" d="M111.25,39.27l-18,55.55H34.8l-18-55.55L64,5l47.25,34.32ZM58,64.52,52.73,29.67c-.14.12-.08.61-.11.69-.06-.22-.11-.54-.33-.64l5.28,35a2.82,2.82,0,0,0,1.61,2.4,5.22,5.22,0,0,0,3.16,0,1.69,1.69,0,0,1,.11-.27,1.33,1.33,0,0,1-.14-.19,4.79,4.79,0,0,1-2.82,0A2.49,2.49,0,0,1,58,64.52Zm12,0a2.46,2.46,0,0,1-1.49,2.13,4.83,4.83,0,0,1-2.83,0,.85.85,0,0,1-.14.19.81.81,0,0,1,.11.27,5.22,5.22,0,0,0,3.16,0,2.79,2.79,0,0,0,1.61-2.4l.11-.73h-.08a1,1,0,0,1-.35-.06l-.1.62Zm-.93-3.6-.6.29L68.2,61a.63.63,0,0,0-.12.34,1.48,1.48,0,0,0,.54,1.11,2.13,2.13,0,0,0,3.71.55,1.5,1.5,0,0,0,.85-.9.63.63,0,0,0,0-.36l-.33.16-.49-.46-.6.3-.49-.46-.6.3-.49-.46-.6.29-.49-.45Zm5.17-31.68-.45.21-.2-.18a.4.4,0,0,0-.09.25,1.07,1.07,0,0,0,.4.82,1.43,1.43,0,0,0,.68.84,1,1,0,0,1,.62-.1h0a1.08,1.08,0,0,1,.5.22l.07.05a1.38,1.38,0,0,0,.89-.59,1.13,1.13,0,0,0,.63-.67.43.43,0,0,0,0-.27l-.25.12-.37-.34-.44.22-.36-.34-.45.22-.36-.34-.45.22-.36-.34Zm-.51,3-.46.23-.21-.2a.47.47,0,0,0-.09.26,1.14,1.14,0,0,0,.42.86,1.44,1.44,0,0,0,.7.86,1.21,1.21,0,0,1,.65-.1h0a1.16,1.16,0,0,1,.52.23h0l.06.06a1.44,1.44,0,0,0,.93-.62,1.16,1.16,0,0,0,.65-.7.48.48,0,0,0,0-.28l-.26.13-.37-.35-.47.22-.37-.35-.47.23-.38-.36-.46.23-.38-.35Zm-.51,3.14-.48.24-.22-.2a.47.47,0,0,0-.1.27,1.22,1.22,0,0,0,.44.89,1.45,1.45,0,0,0,.73.89,1.11,1.11,0,0,1,.67-.1h0a1.19,1.19,0,0,1,.53.23l.07.06a1.49,1.49,0,0,0,1-.64,1.19,1.19,0,0,0,.67-.72.49.49,0,0,0,0-.29l-.27.13-.39-.37-.48.24L75,35.68l-.48.24-.39-.37-.48.24-.39-.37Zm-.54,3.25-.49.25L72,38.71a.47.47,0,0,0-.1.28,1.24,1.24,0,0,0,.45.92,1.53,1.53,0,0,0,.77.93,1.13,1.13,0,0,1,.68-.1h0a1.14,1.14,0,0,1,.55.24l.07.06a1.58,1.58,0,0,0,1-.67,1.3,1.3,0,0,0,.7-.75.51.51,0,0,0,0-.3l-.27.14-.41-.38-.5.24-.4-.38-.5.25-.4-.38-.5.24-.41-.38ZM72.13,42l-.51.25a2.39,2.39,0,0,1-.23-.22.48.48,0,0,0-.11.3,1.27,1.27,0,0,0,.47,1,1.57,1.57,0,0,0,.81,1,1.14,1.14,0,0,1,.68-.1h0a1.44,1.44,0,0,1,.4.13l.11.07.12.1a1.63,1.63,0,0,0,1.06-.7,1.25,1.25,0,0,0,.72-.77.57.57,0,0,0,0-.31l-.29.14-.42-.39-.51.25L74,42.32l-.52.25-.41-.39-.52.25L72.13,42Zm-.57,3.49-.53.26-.24-.23a.64.64,0,0,0-.11.31,1.32,1.32,0,0,0,.49,1,1.67,1.67,0,0,0,.85,1,1.17,1.17,0,0,1,.69-.1h0a1.12,1.12,0,0,1,.4.14h0l.12.07.1.08a1.66,1.66,0,0,0,1.12-.72,1.31,1.31,0,0,0,.75-.8.5.5,0,0,0,0-.32l-.29.14-.43-.4-.53.26-.44-.4-.53.26-.43-.41-.53.26-.44-.4ZM71,49.15l-.54.27-.25-.23a.48.48,0,0,0-.11.31,1.34,1.34,0,0,0,.49,1,1.78,1.78,0,0,0,.92,1.07,1.28,1.28,0,0,1,.67-.09h0a1.23,1.23,0,0,1,.42.14l.12.08.08.06A1.73,1.73,0,0,0,74,51a1.4,1.4,0,0,0,.77-.83.53.53,0,0,0,0-.33l-.3.15L74,49.6l-.55.26L73,49.45l-.55.26L72,49.3l-.55.27L71,49.15Zm-.61,3.76-.56.28L69.54,53a.52.52,0,0,0-.11.32,1.38,1.38,0,0,0,.51,1,1.8,1.8,0,0,0,1,1.12,1.32,1.32,0,0,1,.65-.08h0a1.57,1.57,0,0,1,.43.15h0l.12.08,0,0a1.79,1.79,0,0,0,1.27-.78,1.38,1.38,0,0,0,.79-.85.58.58,0,0,0,0-.34l-.31.15-.47-.43c-.18.1-.37.19-.56.28l-.46-.43-.57.28-.46-.43-.57.27-.46-.43Zm-.63,3.92-.58.29-.27-.25a.56.56,0,0,0-.11.33,1.43,1.43,0,0,0,.53,1.08,1.84,1.84,0,0,0,1.06,1.18A1.26,1.26,0,0,1,71,59.4h0a1.76,1.76,0,0,1,.44.15l.12.08a1.84,1.84,0,0,0,1.37-.81,1.48,1.48,0,0,0,.82-.88.59.59,0,0,0,0-.35l-.32.16-.48-.44-.58.28-.47-.44-.59.28L70.79,57l-.58.28-.48-.44ZM81.52,76.91a3.68,3.68,0,0,1-.47,0H81c1.76,1.36,2.68,2,3.43,2.54a11.62,11.62,0,0,1-3-.42,66.21,66.21,0,0,1-6.65-2.27,1,1,0,0,1-1,.31.63.63,0,0,1-.22-.07.72.72,0,0,1-.21-.12h0a4.94,4.94,0,0,0-.83-.5,6.27,6.27,0,0,0-1-.37,9.09,9.09,0,0,0-1.06-.25c-.37-.07-.74-.12-1.12-.16l-1-.07h-.19l-1.14,0H60.91c-.53,0-1.08,0-1.64.06l-.32,0-.32,0h0c-.05,0,0,0,0,0h0c-.38,0-.76.09-1.12.16a9.26,9.26,0,0,0-1.07.25,6.15,6.15,0,0,0-1,.37,4.57,4.57,0,0,0-.83.5,1.1,1.1,0,0,1-1.14.1,1.07,1.07,0,0,1-.19-.13l-.1-.09A68,68,0,0,1,46.56,79a11.68,11.68,0,0,1-3,.42c.75-.52,1.67-1.18,3.42-2.54H47a3.84,3.84,0,0,1-.48,0,30.42,30.42,0,0,1-3.4,2.35c-.53.28-.63.69-.12,1.08a3,3,0,0,0,2.3.33.89.89,0,0,0,.36-.22.79.79,0,0,1-.43.32,2.86,2.86,0,0,1-1.77-.08,6.54,6.54,0,0,1,1.82,3.6l0,.32a.81.81,0,0,0-.07.9c.19.22.6.21,1,0l.24-.14.22-.17,0,0A16.28,16.28,0,0,1,48.05,84a15.91,15.91,0,0,1,6.59-2.39A82.73,82.73,0,0,1,64,81.32a82.73,82.73,0,0,1,9.36.29A16,16,0,0,1,80,84a16.28,16.28,0,0,1,1.33,1.16l0,0,.22.17a2,2,0,0,0,.23.14c.43.21.84.22,1,0a.8.8,0,0,0-.08-.9,1.82,1.82,0,0,0,0-.32,6.56,6.56,0,0,1,1.83-3.6,2.86,2.86,0,0,1-1.77.08.82.82,0,0,1-.44-.32,1,1,0,0,0,.36.22,3,3,0,0,0,2.31-.33c.51-.39.4-.8-.12-1.08a31.31,31.31,0,0,1-3.41-2.35ZM76.1,25c-.48.09-.92.72-1,1.52a2.1,2.1,0,0,0,.29,1.53.68.68,0,0,1,.57.09,2.11,2.11,0,0,0,.72-1.39A1.73,1.73,0,0,0,76.1,25ZM69.81,60a2.42,2.42,0,0,0-1.5.91l.18.17.6-.3.49.46.6-.3.49.46.6-.29.49.45.6-.29.49.46.22-.11a2.45,2.45,0,0,0-1.16-1.31,1.36,1.36,0,0,0-1-.74,1.31,1.31,0,0,0-1.13.43Zm5-31.45a1.85,1.85,0,0,0-1.11.68l.14.12.44-.21.36.34.45-.22.36.34.45-.22.36.34.45-.22.36.34.17-.08a1.78,1.78,0,0,0-.87-1,1,1,0,0,0-.71-.56,1,1,0,0,0-.85.32Zm-.48,3a1.9,1.9,0,0,0-1.16.7l.15.13.46-.23.38.35.46-.22.38.35.46-.23.38.36.46-.23.38.35.17-.08a1.91,1.91,0,0,0-.9-1,1,1,0,0,0-1.62-.24Zm-.5,3.12a1.94,1.94,0,0,0-1.2.73l.15.13.48-.23.39.36.48-.23.39.36.48-.23.39.36.49-.23.39.36.18-.08a2,2,0,0,0-.94-1,1,1,0,0,0-1.68-.25Zm-.51,3.23a2.05,2.05,0,0,0-1.24.75l.15.14.5-.24.4.38.5-.25.4.38.5-.24.41.38.5-.25.4.38.19-.09a2,2,0,0,0-1-1.08,1,1,0,0,0-1.74-.26Zm-.53,3.34a2.07,2.07,0,0,0-1.28.78l.15.15.52-.26.42.39.51-.25.42.39.51-.25.42.39.52-.25.42.39.19-.09a2.09,2.09,0,0,0-1-1.12,1.07,1.07,0,0,0-1.8-.27Zm-.55,3.46a2.23,2.23,0,0,0-1.33.81l.17.15.53-.26.43.4.53-.26L73,46l.53-.26.43.4.53-.26.44.41.19-.1a2.14,2.14,0,0,0-1-1.16,1.19,1.19,0,0,0-.85-.66,1.23,1.23,0,0,0-1,.38Zm-.57,3.6a2.26,2.26,0,0,0-1.37.83l.17.15.55-.26.45.41.55-.27.44.42.55-.27.45.42.55-.27.44.42.21-.1a2.22,2.22,0,0,0-1.07-1.2,1.14,1.14,0,0,0-1.92-.28Zm-.59,3.73a2.32,2.32,0,0,0-1.41.86l.17.16.57-.28.46.43.57-.28.46.43.56-.27.47.43.56-.28.46.43.21-.1A2.28,2.28,0,0,0,73,52.36a1.19,1.19,0,0,0-2-.3ZM70.44,56a2.34,2.34,0,0,0-1.45.88l.18.16.58-.28.47.44.59-.28.47.44.59-.28.47.44.58-.29.48.45.22-.11a2.38,2.38,0,0,0-1.14-1.27,1.31,1.31,0,0,0-.93-.72,1.29,1.29,0,0,0-1.11.42ZM47.51,82.53l.36-.2-.7-1.25,1.48.82.39-.21L48,79.76l-.36.2.71,1.29-1.5-.85-.38.21,1.07,1.92Zm30.14-.86a1.31,1.31,0,0,0,.26.12.75.75,0,0,0,.43,0,.28.28,0,0,0,.18-.17.25.25,0,0,0,0-.22.38.38,0,0,0-.11-.11h0a.82.82,0,0,0,.49,0,.91.91,0,0,0,.5-.39L79,80.66a.81.81,0,0,1-.29.27.47.47,0,0,1-.33,0,.54.54,0,0,1-.31-.3.93.93,0,0,1,.07-.61.91.91,0,0,1,.33-.49.56.56,0,0,1,.44,0,.5.5,0,0,1,.25.2.53.53,0,0,1,.06.31l.45,0a1,1,0,0,0-.07-.46,1,1,0,0,0-.54-.45,1,1,0,0,0-.81,0,1.29,1.29,0,0,0-.56.71,1.14,1.14,0,0,0,0,.87,1,1,0,0,0,.44.47H78l-.09.12.19,0a.22.22,0,0,1,.13.09.1.1,0,0,1,0,.09s0,.06-.08.08a.39.39,0,0,1-.2,0,1.83,1.83,0,0,1-.26-.11l-.06.17Zm-26.32-.83-1.58-1.77-.44.16-.06,2.37.45-.16V80.9l.82-.3.36.41.45-.17Zm-1.07-.54-.56-.66v.87l.56-.21Zm2.09-.55.49-.13.08.27a1,1,0,0,1-.46.32.59.59,0,0,1-.49-.07.89.89,0,0,1-.32-.53.78.78,0,0,1,0-.57.6.6,0,0,1,.4-.3.56.56,0,0,1,.34,0,.41.41,0,0,1,.23.2l.41-.2a.8.8,0,0,0-.41-.38,1.08,1.08,0,0,0-.67,0,1.35,1.35,0,0,0-.48.24,1,1,0,0,0-.3.51,1.23,1.23,0,0,0,0,.63,1.29,1.29,0,0,0,.28.53.94.94,0,0,0,.48.3,1.19,1.19,0,0,0,.62,0,1.59,1.59,0,0,0,.49-.24,1.3,1.3,0,0,0,.33-.34l-.23-.85-.92.25.09.36Zm3.51.1-1.29-2-.46.09-.42,2.32.46-.09.08-.52.87-.17.28.45.48-.09Zm-1-.7-.46-.74-.13.86.59-.12Zm1.21.69.45-.06-.13-.91h.09a.57.57,0,0,1,.22,0,.34.34,0,0,1,.15.07s.14.14.28.29l.38.43.53-.07-.33-.39a2.51,2.51,0,0,0-.3-.32.93.93,0,0,0-.26-.15.7.7,0,0,0,.4-.26.63.63,0,0,0,.09-.43.71.71,0,0,0-.14-.33.51.51,0,0,0-.29-.17,1.47,1.47,0,0,0-.51,0l-.93.13.3,2.18Zm.27-1.32.32,0a1.51,1.51,0,0,0,.4-.08.23.23,0,0,0,.11-.11.31.31,0,0,0,0-.17.3.3,0,0,0-.08-.17.28.28,0,0,0-.18-.06l-.33,0-.34,0,.08.55Zm3.91.88-1.07-2.12-.47,0-.67,2.28.48,0,.13-.51.88-.08.24.48.48,0Zm-.89-.79L59,77.82l-.22.84.6,0Zm1.8-1.47.07,2.2.84,0a1,1,0,0,0,.39-.06.74.74,0,0,0,.31-.19.93.93,0,0,0,.22-.39,1.39,1.39,0,0,0,0-.47,1.8,1.8,0,0,0-.09-.52,1,1,0,0,0-.22-.35.68.68,0,0,0-.34-.19,1.28,1.28,0,0,0-.42,0l-.81,0Zm.45.36,0,1.45H62a.79.79,0,0,0,.26,0,.32.32,0,0,0,.18-.1.41.41,0,0,0,.11-.21,1.24,1.24,0,0,0,0-.41,1,1,0,0,0-.06-.39.54.54,0,0,0-.13-.21.4.4,0,0,0-.21-.09,1.3,1.3,0,0,0-.37,0Zm3.84,1.8-.85-2.22h-.47l-.9,2.19h.48l.19-.5h.88l.18.51Zm-.81-.89-.29-.82-.31.81Zm1,.89h.41l.05-1.44L67,79.34l.44,0,.08-2.21h-.41l0,1.47-.85-1.5-.44,0-.07,2.21Zm4.2.24-.69-2.27-.47,0-1.05,2.12.47,0,.23-.48.88.07.14.52.49,0Zm-.74-.94-.24-.84-.36.79.6,0Zm1.69,1,.44.06.13-.91h.09a.53.53,0,0,1,.22.06.4.4,0,0,1,.12.11c0,.05.09.16.18.35l.26.52.52.07-.2-.46a4.21,4.21,0,0,0-.2-.39,1.14,1.14,0,0,0-.22-.22.69.69,0,0,0,.47-.14.61.61,0,0,0,.2-.38.72.72,0,0,0,0-.36.51.51,0,0,0-.23-.25,1.93,1.93,0,0,0-.49-.13l-.93-.13-.31,2.19Zm.62-1.2.32,0a1.77,1.77,0,0,0,.4,0,.23.23,0,0,0,.14-.07.26.26,0,0,0,.07-.16.22.22,0,0,0,0-.18.22.22,0,0,0-.15-.11l-.32-.06-.34,0-.08.55ZM75,80.33,74.63,78l-.46-.09-1.3,2,.46.1.28-.45.87.18.08.53.48.1Zm-.63-1-.12-.86-.46.73.58.13Zm.88,1,.43.12.17-.65.44-.26.32,1.16.56.15-.5-1.53,1-.61-.57-.16L76,79.29l.26-.94-.43-.12-.57,2.13Zm6,2.28.3-2.36-.41-.23-1.82,1.52.41.23.4-.35.77.42-.07.53.42.24ZM81,81.48l.13-.86-.66.57.53.29ZM61.41,59.4a4.05,4.05,0,0,0-2.36,1.43,5,5,0,0,0-1.21,2.07l.07.45,0,0a4.27,4.27,0,0,0,2.21-1.41,4.21,4.21,0,0,0,1.26-2.51ZM49.2,29.45a3.32,3.32,0,0,0,1.2,1.89,3.59,3.59,0,0,0,1.88.95l.34.23,0-.17-.18-.18a3.56,3.56,0,0,0-1.19-1.76,3.35,3.35,0,0,0-2-1Zm6.52,0a3,3,0,0,0-1.61,1.29,3.27,3.27,0,0,0-.69,1.81l-.12.23,0,.16.22-.28A3.22,3.22,0,0,0,55,31.42a3.06,3.06,0,0,0,.68-2Zm.75,4.28a3,3,0,0,0-1.67,1.31A3.53,3.53,0,0,0,54,36.94l-.09.18,0,.18.19-.24a3.34,3.34,0,0,0,1.55-1.28,3.28,3.28,0,0,0,.75-2Zm-6.78.08A3.44,3.44,0,0,0,51,35.73a3.66,3.66,0,0,0,2,.92l.33.21,0-.17-.18-.17a3.65,3.65,0,0,0-1.27-1.77,3.35,3.35,0,0,0-2.11-.92Zm.49,4.37a3.46,3.46,0,0,0,1.39,1.92,3.75,3.75,0,0,0,2,.89l.33.2,0-.18-.17-.16a3.72,3.72,0,0,0-1.36-1.78,3.48,3.48,0,0,0-2.19-.89ZM57.29,38a3.21,3.21,0,0,0-1.78,1.33,3.68,3.68,0,0,0-.84,2l-.07.12,0,.2.17-.19a3.54,3.54,0,0,0,1.66-1.31A3.44,3.44,0,0,0,57.29,38Zm.82,4.28a3.39,3.39,0,0,0-1.9,1.35,3.88,3.88,0,0,0-.91,2l0,.07,0,.22s.09-.1.13-.16a3.64,3.64,0,0,0,1.78-1.32,3.58,3.58,0,0,0,.91-2.19Zm-7.43.27a3.49,3.49,0,0,0,1.47,1.93,3.84,3.84,0,0,0,2.11.87l.33.19,0-.19-.17-.14A3.78,3.78,0,0,0,53,43.43a3.6,3.6,0,0,0-2.27-.86Zm.49,4.37a3.6,3.6,0,0,0,1.56,2,4,4,0,0,0,2.19.84l.32.17,0-.19-.17-.13a3.89,3.89,0,0,0-1.52-1.82,3.72,3.72,0,0,0-2.36-.82Zm7.77-.37a3.63,3.63,0,0,0-2,1.37,4.15,4.15,0,0,0-1,2.1v0l0,.24.11-.12a3.83,3.83,0,0,0,1.89-1.35,3.78,3.78,0,0,0,1-2.27Zm.82,4.28a3.7,3.7,0,0,0-2.13,1.39,4.4,4.4,0,0,0-1.08,2.12l.05.3.08-.09a4,4,0,0,0,2-1.37,3.89,3.89,0,0,0,1.09-2.35Zm-8.1.47a3.81,3.81,0,0,0,1.65,2,4.1,4.1,0,0,0,2.27.81,3.18,3.18,0,0,1,.32.16l0-.2-.15-.12A4.17,4.17,0,0,0,54.1,52.1a3.73,3.73,0,0,0-2.44-.78Zm.49,4.37a3.92,3.92,0,0,0,1.74,2,4.3,4.3,0,0,0,2.36.78l.31.14,0-.2-.15-.11a4.21,4.21,0,0,0-1.7-1.84,3.86,3.86,0,0,0-2.53-.75Zm8.44-.56a3.84,3.84,0,0,0-2.25,1.4,4.65,4.65,0,0,0-1.14,2.09l0,.38.06-.06a5,5,0,0,0,3.28-3.81Zm-7.94,4.93a3.94,3.94,0,0,0,1.83,2,4.21,4.21,0,0,0,2.43.74l.31.14,0-.21-.14-.1a4.38,4.38,0,0,0-1.78-1.85,4,4,0,0,0-2.61-.72Zm-.76-35.31a3.9,3.9,0,0,0-.38,2.44,3.71,3.71,0,0,0,.76,2.12,1.28,1.28,0,0,1,.3.7,1.58,1.58,0,0,1,.06-.72A3.94,3.94,0,0,0,52.87,27a3.59,3.59,0,0,0-1-2.27Zm10.9,43.77a1.2,1.2,0,0,0-.11.48c0,.35.24.85.53.85h1.57c.3,0,.54-.5.54-.85a1.21,1.21,0,0,0-.12-.48.59.59,0,0,1-.26.07H63.06a.6.6,0,0,1-.27-.07ZM62.63,67a1.31,1.31,0,0,0-.12.5c0,.36.24.86.55.86h1.88c.3,0,.55-.5.55-.86a1.31,1.31,0,0,0-.12-.5.56.56,0,0,1-.27.08H62.9a.5.5,0,0,1-.27-.08Zm-.16-1.53a1.16,1.16,0,0,0-.13.5c0,.37.25.88.56.88h2.2c.31,0,.56-.51.56-.88a1.16,1.16,0,0,0-.13-.5.52.52,0,0,1-.27.07H62.74a.5.5,0,0,1-.27-.07Zm-.17-1.56a1.13,1.13,0,0,0-.14.52c0,.37.26.89.58.89h2.51c.32,0,.58-.52.58-.89a1.25,1.25,0,0,0-.13-.52.57.57,0,0,1-.28.08H62.58a.54.54,0,0,1-.28-.08Zm-.17-1.58a1.17,1.17,0,0,0-.14.53c0,.38.27.9.59.9h2.84c.32,0,.59-.52.59-.9a1.17,1.17,0,0,0-.14-.53.6.6,0,0,1-.29.08H62.42a.57.57,0,0,1-.29-.08ZM62,60.73a1.1,1.1,0,0,0-.15.54c0,.39.28.92.61.92h3.16c.33,0,.61-.53.61-.92a1.22,1.22,0,0,0-.15-.54.6.6,0,0,1-.29.08h-3.5a.6.6,0,0,1-.29-.08Zm-.18-1.63a1.19,1.19,0,0,0-.16.56c0,.39.29.92.63.92h3.5c.33,0,.62-.53.62-.92a1.16,1.16,0,0,0-.16-.56.61.61,0,0,1-.3.08H62.08a.67.67,0,0,1-.3-.08Zm-.17-1.65a1.14,1.14,0,0,0-.17.58c0,.39.3.93.64.93h3.83c.35,0,.65-.54.65-.93a1.25,1.25,0,0,0-.17-.58.64.64,0,0,1-.3.08H61.91a.61.61,0,0,1-.3-.08Zm-.18-1.68a1.19,1.19,0,0,0-.18.59c0,.41.31,1,.66,1h4.17c.36,0,.67-.54.67-1a1.22,1.22,0,0,0-.18-.59.59.59,0,0,1-.31.09H61.74a.56.56,0,0,1-.31-.09Zm-.18-1.7a1.18,1.18,0,0,0-.19.61c0,.41.32,1,.68,1h4.52c.36,0,.68-.54.68-1a1.18,1.18,0,0,0-.19-.61.59.59,0,0,1-.31.09H61.56a.56.56,0,0,1-.31-.09Zm-.19-1.73a1.23,1.23,0,0,0-.2.62c0,.42.33,1,.7,1h4.88c.36,0,.69-.55.69-1a1.14,1.14,0,0,0-.2-.62.59.59,0,0,1-.32.09H61.38a.62.62,0,0,1-.32-.09Zm-.18-1.76a1.25,1.25,0,0,0-.21.64c0,.42.34,1,.71,1h5.23c.38,0,.72-.56.72-1a1.25,1.25,0,0,0-.21-.64.62.62,0,0,1-.32.09H61.2a.62.62,0,0,1-.32-.09Zm-.19-1.78a1.15,1.15,0,0,0-.22.65c0,.43.35,1,.73,1h5.6c.38,0,.73-.57.73-1a1.24,1.24,0,0,0-.22-.65.74.74,0,0,1-.33.09H61a.73.73,0,0,1-.32-.09ZM60.5,47a1.17,1.17,0,0,0-.24.67c0,.44.36,1,.76,1h6c.39,0,.75-.57.75-1A1.23,1.23,0,0,0,67.5,47a.63.63,0,0,1-.33.09H60.83A.63.63,0,0,1,60.5,47Zm-.2-1.84a1.2,1.2,0,0,0-.24.69c0,.44.37,1,.77,1h6.34c.4,0,.77-.57.77-1a1.28,1.28,0,0,0-.24-.69.81.81,0,0,1-.34.08H60.64a.81.81,0,0,1-.34-.08Zm-.2-1.88a1.25,1.25,0,0,0-.25.71c0,.44.38,1,.79,1h6.72c.41,0,.79-.59.79-1a1.19,1.19,0,0,0-.26-.71.76.76,0,0,1-.33.08H60.44a.81.81,0,0,1-.34-.08ZM63,70a1.15,1.15,0,0,0-.11.47c0,.35.22.84.51.84h1.27c.29,0,.52-.49.52-.84A1.15,1.15,0,0,0,65,70a.55.55,0,0,1-.25.07H63.21A.52.52,0,0,1,63,70Zm.15,1.47a1,1,0,0,0-.1.46c0,.24.22.84.5.84h1c.29,0,.5-.6.5-.84a.85.85,0,0,0-.1-.46.52.52,0,0,1-.25.07H63.36a.55.55,0,0,1-.25-.07Zm5-36.38H59.84c-.45,0-.87.61-.87,1.09s.42,1.09.87,1.09h8.32c.45,0,.87-.61.87-1.09s-.42-1.09-.87-1.09ZM59.5,37.42a1.24,1.24,0,0,0-.31.77c0,.47.41,1.07.85,1.07H68c.43,0,.85-.6.85-1.07a1.3,1.3,0,0,0-.31-.77.81.81,0,0,1-.34.08H59.84a.77.77,0,0,1-.34-.08Zm.2,2a1.28,1.28,0,0,0-.29.75c0,.46.41,1.06.83,1.06h7.51c.43,0,.83-.6.83-1.06a1.27,1.27,0,0,0-.28-.75.84.84,0,0,1-.34.08H60a.81.81,0,0,1-.34-.08Zm.2,2a1.26,1.26,0,0,0-.27.72c0,.46.39,1,.81,1h7.12c.41,0,.81-.59.81-1a1.21,1.21,0,0,0-.28-.72.77.77,0,0,1-.34.08H60.24a.81.81,0,0,1-.34-.08Zm4.1-19c-.33,0-.6.62-.6,1.37s.27,1.36.6,1.36.59-.61.59-1.36-.26-1.37-.59-1.37Zm-1.32,6.05-1,1h2.1l-1-1Zm0,4.88,1-1h-2.1l1,1Zm2.63,0,1-1h-2.1l1,1Zm2.63,0,1.07-1H66.89l1,1Zm-7.89,0,1.05-1H59l1.06,1Zm5.26-4.88-1,1h2.1l-1-1Zm2.63,0-1,1H69l-1.07-1Zm-7.89,0-1.06,1H61.1l-1.05-1Zm4-3.18c-2.82,0-5.12,1.79-5.15,4l1-1,.15-.14.16.14,1.16,1.09,1.16-1.09.15-.14.16.14L64,29.3l1.16-1.09.15-.14.16.14,1.16,1.09,1.16-1.09.15-.14.16.14,1.05,1c0-2.21-2.34-4-5.15-4Zm4.06,9.68a3.57,3.57,0,0,0,1.09-2.44l-1.05,1-.16.15-.15-.15-1.16-1.08-1.16,1.08-.16.15-.15-.15L64,32.34l-1.16,1.08-.16.15-.15-.15-1.16-1.08-1.16,1.08-.16.15-.15-.15-1-1a3.53,3.53,0,0,0,1.09,2.44Zm.77-5.3H59.17A1.17,1.17,0,0,0,58,30.71v.22a1.17,1.17,0,0,0,1.21,1.12h9.66A1.16,1.16,0,0,0,70,30.93v-.22a1.17,1.17,0,0,0-1.2-1.13Zm16,45.29c1.84,1.43,5-.76,6.61-1.92l-9-3-.68.2a2.1,2.1,0,0,1,0,.43h0a2.55,2.55,0,0,1-.62,1.45l2.69,2.07h.44l0,.34.52.4ZM81.4,55.8l8.9-18.27c1.37-2.8-.56-5.71-2.15-8L81,53.47a7.9,7.9,0,0,1,.41,2.12,1.48,1.48,0,0,1,0,.21Zm-3,11.56a4.72,4.72,0,0,1,2.12.82c1.52-1.37.93-4.23.12-6.4.28,2.17-.24,4.79-1.88,5.45a2.6,2.6,0,0,1-.36.13Zm.9-9.41c-.13,1.83-.52,4.71-2.13,6.28a4.34,4.34,0,0,1-2.82,1.28,3.32,3.32,0,0,0,3.12.08c2.15-1.21,2.47-4.72,1.83-7.64Zm.48,1.41c.39,2.29-.23,5-1.36,6a3.41,3.41,0,0,1-3.11.86,15.26,15.26,0,0,1-1.64-.64A5.21,5.21,0,0,0,76,67.15a3.39,3.39,0,0,0,2.66-.22c1.79-1.08,2.32-4.34,1.07-7.57Zm1.57,8.13L83,66.56c1.31-.71,1.49-3.07,1.34-4l-2.71,2.38a4.9,4.9,0,0,1-.34,2.56Zm.38,2.41.51-.14c1.44-.4,2.27-2.8,2.37-3.76L81,68a2.37,2.37,0,0,1-.33.38,3.15,3.15,0,0,1,.56.6,2.64,2.64,0,0,1,.44,1Zm-.09-5.37,1.93-1.74c1.1-1,.76-3.55.39-4.44l-2.8,4.12.06.18c.09.33.19.66.26,1a8.85,8.85,0,0,1,.16.87ZM81,62l1.77-2.67c.86-1.29,0-3.48-.6-4.28L80.2,59.8a10.48,10.48,0,0,1,.33,1.34A4.89,4.89,0,0,1,81,62ZM80,59.36l.87-2.23a6.17,6.17,0,0,0-1-5l-.59,5.3a6.49,6.49,0,0,1,.3,1.21,5,5,0,0,1,.38.72Zm-1.18-.54L81.5,37.36,76.05,60.92a8,8,0,0,1-2.43,4.37c2.42-.29,4.69-1.43,5.23-6.47Zm4.52-33.46-1.44,9.46-.15,2.57L80,51.77l.35.4a4.88,4.88,0,0,1,.43.76l5.81-19.85c.75-2.55-1.67-6.16-3.22-7.72Zm-.09,31.69,9.49-12.72c1.6-2.15.64-7.86-.36-9.86L82.35,54.73a8,8,0,0,1,.93,2.32Zm1.31,10.13,6.86.06c2.64,0,4.6-2.63,5.92-4.45l-12.86,2a4.91,4.91,0,0,1-.37,1L84,66l.45-.25.47-.26-.06.53a7.06,7.06,0,0,1-.27,1.15Zm-.12.33a5.86,5.86,0,0,1-1,1.7,3.23,3.23,0,0,1-.55.5l-.08.05,5,1.57C90,72,93,69.16,94.36,67.87l-9.89-.36Zm.15-3.09,9-1.61c2.62-.48,4.22-4.49,4.87-6.62L84.68,62.78a7.81,7.81,0,0,1-.06,1.64Zm.13-2,10-4.92c2.84-1.41,3.9-7,3.64-9L84.55,59.94a5.57,5.57,0,0,1-.11,1.78,3.3,3.3,0,0,1-.2.58l.33-.29.18.37Zm-.23-2.82,10.07-8.62c2.09-1.79,2.87-7.89,1.37-9.78L83.34,57.37a4.84,4.84,0,0,1-.06,1.47h0l.43-.64.29-.42.2.47a8.38,8.38,0,0,1,.32,1.31Zm-31,15.8a.84.84,0,0,0-.15,1.17.85.85,0,0,0,1.17.16,5.76,5.76,0,0,1,1.86-.91,12.17,12.17,0,0,1,2.24-.42,22.59,22.59,0,0,1,2.31-.11h6.17a22.65,22.65,0,0,1,2.32.11,12.22,12.22,0,0,1,2.23.42,5.72,5.72,0,0,1,1.87.91.85.85,0,0,0,1.17-.16.83.83,0,0,0-.16-1.17,6.78,6.78,0,0,0-2.05-1A15,15,0,0,0,70,73.82a19.36,19.36,0,0,0-2.61-.2H60.63a19.21,19.21,0,0,0-2.6.2,14.62,14.62,0,0,0-2.49.52,6.84,6.84,0,0,0-2.06,1Zm13.33-2h.55c.44,0,.88,0,1.32.06l1.32.15h0c.44,0,.88.13,1.3.21a12.35,12.35,0,0,1,1.23.33l.41.14a3.4,3.4,0,0,0,.48-2.11A4,4,0,0,0,72,69.55a5,5,0,0,1-.64.39,4.39,4.39,0,0,1-3.14.48v0a3.74,3.74,0,0,1-1.42,2.92Zm5.83-9.45A6.39,6.39,0,0,0,72,67.25c.26-.27.58-.31.93.08a4.31,4.31,0,0,0,1.3.22,7.36,7.36,0,0,0,1.74-.15,2.78,2.78,0,0,1-.37-.13,5,5,0,0,1-2.08-1.47,5.44,5.44,0,0,1-.84-1.88Zm6.15,11.56a3.86,3.86,0,0,0,2.27,1.15,2.74,2.74,0,0,0,1.42-.23,3,3,0,0,0,1-.77,2.23,2.23,0,0,0,.59-1.16v-.14H84A13.07,13.07,0,0,1,81.31,74a9.1,9.1,0,0,1-2.69-1.13,2.28,2.28,0,0,0,.94-1,2,2,0,0,0,.18-1.16A2.15,2.15,0,0,0,76.86,69a1.7,1.7,0,0,0-.87.59,2,2,0,0,0-.27,2.15,6.37,6.37,0,0,0,1,1.64,17.11,17.11,0,0,0,2.09,2.14Zm-2.71-7.85a6.73,6.73,0,0,1-3.09,0c.23.54-.18,1.25-.85,1.8a3.91,3.91,0,0,1,1.48,3,3.71,3.71,0,0,1-.48,1.84c.18.08.36.15.53.24a5.43,5.43,0,0,1,1,.6h0a1.07,1.07,0,0,1,.41.71,1.1,1.1,0,0,1-.12.66c2.8,1.15,9.36,3.1,8.56,2.59-1.28-.93-2.38-1.76-3.33-2.52a5,5,0,0,1-1.58-1q-.64-.57-1.17-1.11a11.81,11.81,0,0,1-.92-1,7.66,7.66,0,0,1-.66-1,4.5,4.5,0,0,1-.43-1h0l0-.16a.76.76,0,0,1,0-.16,2.33,2.33,0,0,1,0-.79h0a.78.78,0,0,1,0-.16.75.75,0,0,0,0-.16,2.17,2.17,0,0,1,.38-.72h0l.11-.12.12-.12h0a2.25,2.25,0,0,1,.76-.43h0l.16,0,.17,0a3.56,3.56,0,0,1,1,0h0l.23,0,.22.06a2.13,2.13,0,0,1,.91.63h0a1.71,1.71,0,0,1,.11.14.86.86,0,0,1,.1.16,2.08,2.08,0,0,1,.32.88h0c0,.06,0,.13,0,.18V71a2.52,2.52,0,0,1-.18.93h0a1.42,1.42,0,0,1-.08.18l-.1.17a2.3,2.3,0,0,1-.61.64l.07,0a2.84,2.84,0,0,0,1.83-1c1.81-2.09-.79-5-4.85-4.28Zm-4.36,1.86a2.76,2.76,0,0,0,1-1.16c.23-.64-.09-1.17-.49-1s-.64.92-1.2,1.26a3.09,3.09,0,0,1-1.61.56c-.63,0-1,.15-1,.57s.54.68,1.07.62a6.52,6.52,0,0,0,2.19-.87Zm-19.8-1.86c-4.07-.77-6.66,2.19-4.86,4.28a2.86,2.86,0,0,0,1.83,1l.07,0a2.41,2.41,0,0,1-.6-.64l-.1-.17-.09-.18h0A2.35,2.35,0,0,1,48,71c0-.07,0-.13,0-.19a1.24,1.24,0,0,1,0-.18h0a2.38,2.38,0,0,1,.32-.88l.11-.16a.76.76,0,0,1,.11-.14h0a2.19,2.19,0,0,1,.91-.63l.22-.06.24,0h0a3.56,3.56,0,0,1,1,0l.17,0,.16,0h0a2.3,2.3,0,0,1,.77.43h0l.12.12.1.12h0a2.14,2.14,0,0,1,.37.72,1.24,1.24,0,0,1,0,.16l0,.16h0a2.33,2.33,0,0,1,0,.79l0,.16a1,1,0,0,1,0,.16h0a5,5,0,0,1-.42,1,6.85,6.85,0,0,1-.67,1,11.61,11.61,0,0,1-.91,1c-.35.36-.74.73-1.18,1.11a5,5,0,0,1-1.57,1c-1,.76-2.06,1.59-3.33,2.52-.8.51,5.76-1.44,8.56-2.59a1.08,1.08,0,0,1,.29-1.37h0a5.43,5.43,0,0,1,1-.6c.17-.09.34-.16.52-.24a3.81,3.81,0,0,1-.47-1.84,3.9,3.9,0,0,1,1.47-3c-.67-.55-1.07-1.26-.84-1.8a6.73,6.73,0,0,1-3.09,0Zm9.26,5.74a3.76,3.76,0,0,1-1.41-2.92v0a4.39,4.39,0,0,1-3.14-.48,4.35,4.35,0,0,1-.64-.39,4,4,0,0,0-1.41,2.6,3.34,3.34,0,0,0,.48,2.11l.41-.14a11.66,11.66,0,0,1,1.23-.33c.42-.08.86-.15,1.3-.21l1.32-.15c.43,0,.87-.06,1.31-.06Zm-4.91-3.88a6.66,6.66,0,0,0,2.2.87c.53.06,1-.2,1.07-.62s-.36-.54-1-.57a3.09,3.09,0,0,1-1.61-.56c-.57-.34-.84-1.08-1.21-1.26s-.71.34-.49,1a2.91,2.91,0,0,0,1,1.16Zm-.92-5.57a5.24,5.24,0,0,1-.83,1.88,5,5,0,0,1-2.08,1.47,2.78,2.78,0,0,1-.37.13,7.32,7.32,0,0,0,1.74.15,4.24,4.24,0,0,0,1.29-.22c.36-.39.68-.35.93-.08a6.29,6.29,0,0,0-.68-3.33ZM49.21,75.48a16.28,16.28,0,0,0,2.08-2.14,6.1,6.1,0,0,0,1-1.64A2,2,0,0,0,52,69.55a1.7,1.7,0,0,0-.87-.59,2.15,2.15,0,0,0-2.88,1.68,2,2,0,0,0,.18,1.16,2.28,2.28,0,0,0,.94,1A9.15,9.15,0,0,1,46.68,74a13.07,13.07,0,0,1-2.64.36h-.13v.14a2.23,2.23,0,0,0,.59,1.16,3,3,0,0,0,1,.77,2.72,2.72,0,0,0,1.41.23,3.91,3.91,0,0,0,2.28-1.15ZM44.72,57.05a8,8,0,0,1,.93-2.32L35.59,34.47c-1,2-2,7.71-.36,9.86l9.49,12.72ZM43.21,74.87l.51-.4v-.34h.44l2.69-2.07a2.55,2.55,0,0,1-.62-1.45h0a3.12,3.12,0,0,1,0-.43l-.67-.2-9,3c1.57,1.16,4.77,3.35,6.61,1.92Zm.32-7.36-9.89.36C35,69.16,38,72,40.08,71.33l5.05-1.57L45,69.71a3.6,3.6,0,0,1-.54-.5,5.86,5.86,0,0,1-1-1.7Zm-.12-.33A8.52,8.52,0,0,1,43.13,66l-.05-.53.46.26L44,66c0-.08-.1-.16-.14-.24a4.91,4.91,0,0,1-.37-1l-12.87-2c1.32,1.82,3.29,4.46,5.92,4.45l6.87-.06Zm0-2.76a7.87,7.87,0,0,1-.07-1.64L29.54,56.19c.65,2.13,2.24,6.14,4.87,6.62l9,1.61Zm-.13-2,.17-.37.34.29a3.3,3.3,0,0,1-.2-.58,5.88,5.88,0,0,1-.12-1.78L29.62,48.42c-.25,2,.8,7.63,3.65,9l10,4.92Zm.22-2.82a8.27,8.27,0,0,1,.33-1.31l.2-.47.28.42.44.64h0a5.19,5.19,0,0,1-.07-1.47L32,41.16c-1.5,1.89-.73,8,1.37,9.78l10.06,8.62Zm1.16-34.2c-1.55,1.56-4,5.17-3.22,7.72l5.8,19.85a4.81,4.81,0,0,1,.44-.76l.35-.4L46.22,37.39l-.15-2.57-1.44-9.46ZM46.28,69.9a2.67,2.67,0,0,1,.45-1,3.15,3.15,0,0,1,.56-.6A2.43,2.43,0,0,1,47,68l-3.54-2c.1,1,.92,3.36,2.37,3.76l.5.14Zm3.34-2.54a2.2,2.2,0,0,1-.36-.13c-1.64-.66-2.17-3.28-1.89-5.45-.8,2.17-1.39,5,.13,6.4a4.72,4.72,0,0,1,2.12-.82Zm-3,.13a5,5,0,0,1-.33-2.56l-2.71-2.38c-.16.94,0,3.3,1.34,4l1.7.93Zm-.29-3c0-.29.1-.58.16-.87s.17-.68.27-1l.06-.18-2.81-4.12c-.37.89-.71,3.44.4,4.44l1.92,1.74ZM47,62a5.07,5.07,0,0,1,.43-.88,10.52,10.52,0,0,1,.34-1.34l-1.94-4.73c-.6.8-1.47,3-.61,4.28L47,62Zm1.21-2.66c-1.26,3.23-.72,6.49,1.07,7.57a3.38,3.38,0,0,0,2.66.22,5.26,5.26,0,0,0,2.38-1.6,15.31,15.31,0,0,1-1.65.64,3.4,3.4,0,0,1-3.1-.86c-1.13-1-1.75-3.68-1.36-6ZM48.72,58c-.65,2.92-.32,6.43,1.83,7.64a3.32,3.32,0,0,0,3.12-.08,4.34,4.34,0,0,1-2.82-1.28c-1.61-1.57-2-4.45-2.13-6.28ZM48,59.36a6.1,6.1,0,0,1,.37-.72,6.52,6.52,0,0,1,.31-1.21l-.6-5.3a6.2,6.2,0,0,0-1,5L48,59.36ZM46.6,55.8v-.21A7.9,7.9,0,0,1,47,53.47L39.84,29.53c-1.59,2.29-3.51,5.2-2.14,8L46.6,55.8Zm2.55,3c.54,5,2.81,6.18,5.23,6.47A8,8,0,0,1,52,60.92L46.49,37.36l2.66,21.46Zm60.35-19L64,6.78,18.5,39.84,35.88,93.33H92.12L109.5,39.84ZM64.19,6.13,64,6l-.19.13L17.94,39.46l-.19.14.07.22L35.35,93.75l.07.22H92.58l.07-.22,17.53-53.93.07-.22-.19-.14L64.19,6.13ZM81,72.23a4,4,0,0,1-1.48.86,7.35,7.35,0,0,0,1.87.69,16.12,16.12,0,0,0,2,.32L81,72.23Zm-34,0-2.4,1.87a15.68,15.68,0,0,0,2-.32,7.42,7.42,0,0,0,1.88-.69A4,4,0,0,1,47,72.23Zm38.16,8.29a1.23,1.23,0,0,0,.34-.38h0a.69.69,0,0,0,.08-.39.64.64,0,0,0-.15-.35,1.33,1.33,0,0,0-.42-.34,25.59,25.59,0,0,1-3-2l-.2-.15h0a3.58,3.58,0,0,0,.74-.25,3.42,3.42,0,0,0,1.09-.83,3.32,3.32,0,0,0,.55-1l.42.34c1,.82,2.36.65,3.7.09a16.9,16.9,0,0,0,3.28-2l.58-.43-.69-.22-2.74-.87a6,6,0,0,0,2.9-1.13,22.79,22.79,0,0,0,2.94-2.46l.63-.61-.87,0-2-.08c2.33-.27,3.82-2.34,5-4.05l.26-.36.53-.72-.88.13L93.66,63l.4-.07a4.92,4.92,0,0,0,3.23-2.74,20,20,0,0,0,1.52-3.88l.25-.81-.76.37-2.58,1.23a4.48,4.48,0,0,0,.75-.63,6,6,0,0,0,.89-1.19,12.77,12.77,0,0,0,1.38-6.9l-.08-.67-2.94,2.45c1.39-2.13,2.06-7.29.53-9.22l-.3-.37-.29.38-2.22,3a5.37,5.37,0,0,0,.21-.56,8,8,0,0,0,.29-1.47,16.72,16.72,0,0,0-1.2-7.58l-.33-.67-.33.68-1,2.1a6,6,0,0,0-.38-3.2,18.28,18.28,0,0,0-2.22-3.89L88,28.69l-.22.73L87,31.93a2.17,2.17,0,0,0,0-.36,5.2,5.2,0,0,0-.17-1.22,13,13,0,0,0-3.77-5.77L81.06,38,75.78,60.86a9,9,0,0,1-.88,2.38,7.92,7.92,0,0,1-1.47,1.85l-.06,0a2.3,2.3,0,0,1-.15-.32,10,10,0,0,1-.33-1l-.13-.47-.32.38a5.53,5.53,0,0,0-.72,2.46c0,.2,0,.38,0,.55s0,.34,0,.49h0l0,.24-.15.2a2.62,2.62,0,0,1-1.38,1.05,2.69,2.69,0,0,1-.75.15,2.38,2.38,0,0,0-.85.16.64.64,0,0,0-.39.69h0c0,.06,0,0,0,0h0a.71.71,0,0,0,.16.4h0L68,70v.4a3.54,3.54,0,0,1-1.18,2.61,3,3,0,0,1-.41.32H61.62a3,3,0,0,1-.41-.32A3.5,3.5,0,0,1,60,70.44V70l-.35.13h0a.79.79,0,0,0,.16-.4h0v0h0a.64.64,0,0,0-.39-.69,2.38,2.38,0,0,0-.85-.16,2.85,2.85,0,0,1-.76-.15,2.6,2.6,0,0,1-1.37-1.05l-.15-.2,0-.24h0c0-.15,0-.31,0-.49s0-.35,0-.55a5.4,5.4,0,0,0-.72-2.46l-.31-.38-.14.47a10,10,0,0,1-.32,1,2.3,2.3,0,0,1-.15.32l-.06,0a7.72,7.72,0,0,1-1.48-1.85,9,9,0,0,1-.87-2.38L46.93,38l-2-13.45a13.07,13.07,0,0,0-3.76,5.77,5.22,5.22,0,0,0-.18,1.22c0,.12,0,.24,0,.36l-.75-2.51L40,28.69l-.44.63a18.31,18.31,0,0,0-2.23,3.89,6.06,6.06,0,0,0-.37,3.2l-1-2.1-.33-.68-.34.67a16.73,16.73,0,0,0-1.19,7.58,8,8,0,0,0,.28,1.47c.07.19.14.38.22.56l-2.23-3L32,40.56l-.29.37c-1.53,1.93-.86,7.09.52,9.22L29.34,47.7l-.08.67a12.77,12.77,0,0,0,1.38,6.9,5.6,5.6,0,0,0,.89,1.19,4,4,0,0,0,.74.63L29.7,55.86l-.76-.37.25.81a19.41,19.41,0,0,0,1.52,3.88,4.89,4.89,0,0,0,3.23,2.74l.4.07-3.66-.57-.88-.13.52.72.27.36c1.22,1.71,2.72,3.78,5.05,4.05l-2,.08-.88,0,.63.61a22.29,22.29,0,0,0,2.95,2.46,6,6,0,0,0,2.9,1.13l-2.74.87-.69.22.58.43a16.9,16.9,0,0,0,3.28,2c1.34.56,2.65.73,3.7-.09l.42-.34a3.12,3.12,0,0,0,.55,1,3.33,3.33,0,0,0,1.83,1.08h0L46,77a24.78,24.78,0,0,1-3,2,1.18,1.18,0,0,0-.41.34.64.64,0,0,0-.15.35.62.62,0,0,0,.08.39h0a1.23,1.23,0,0,0,.34.38,1.46,1.46,0,0,0,.35.18.47.47,0,0,0,.15.06l-.06.1h0a4.26,4.26,0,0,1,.42.43c.12.15.24.31.35.47a6.68,6.68,0,0,1,1,2.81,1.19,1.19,0,0,0-.16.67.69.69,0,0,0,.2.42.76.76,0,0,0,.41.2,1.38,1.38,0,0,0,.83-.15h0a.52.52,0,0,0,.13-.06h0l.13-.08h0a2.27,2.27,0,0,0,.52-.49,3.48,3.48,0,0,1,1.07-.88,20.81,20.81,0,0,1,2.58-1.3c3.92-1.61,8.16-1.36,12.32-1.35h1.88c4.15,0,8.4-.26,12.31,1.35a20.36,20.36,0,0,1,2.59,1.3,3.39,3.39,0,0,1,1.06.88,2.58,2.58,0,0,0,.53.49h0l.13.08h0l.12.06h0a1.41,1.41,0,0,0,.84.15.79.79,0,0,0,.41-.2.69.69,0,0,0,.2-.42,1.13,1.13,0,0,0-.17-.67,6.82,6.82,0,0,1,1-2.81,5.32,5.32,0,0,1,.36-.47,4.26,4.26,0,0,1,.42-.43h0l-.06-.1a.47.47,0,0,0,.15-.06,1.46,1.46,0,0,0,.35-.18ZM53.05,43.29Zm0,0Zm-1.7-16.08Zm0,0ZM62.27,66.59a1.43,1.43,0,0,1-.16-.62h0a1.45,1.45,0,0,1,.18-.65.7.7,0,0,1-.15-.19,1.52,1.52,0,0,1-.2-.7h0a1.45,1.45,0,0,1,.18-.66,1,1,0,0,1-.15-.2,1.43,1.43,0,0,1-.21-.71h0a1.39,1.39,0,0,1,.19-.67,1,1,0,0,1-.15-.2,1.34,1.34,0,0,1-.22-.71h0a1.44,1.44,0,0,1,.2-.68,1.56,1.56,0,0,1-.16-.2,1.3,1.3,0,0,1-.15-.34,4.43,4.43,0,0,1-.57,1.16c-.08.12-.17.25-.27.38a5.62,5.62,0,0,1-2.05,1.71,2.81,2.81,0,0,1-.56.18l-.08.07.15,1c.27,1.78,1.45,2.68,4.18,2.08ZM74.7,28.4a2.17,2.17,0,0,0-.9.44l-.14.14-.06.07,0-.05-.11.19,0,0h0a.58.58,0,0,0-.09.27,1.22,1.22,0,0,0,.23.72l.1.13h0a.47.47,0,0,0,.1.1,1.46,1.46,0,0,0,.63.81l0,0-.1.08a.35.35,0,0,0-.09.07,2.09,2.09,0,0,0-.93.46l-.15.14-.06.08L73,32l-.1.19,0,0a.54.54,0,0,0-.09.28,1.27,1.27,0,0,0,.23.73l.11.15.1.09a1.6,1.6,0,0,0,.65.85l0,0-.11.08-.09.08a2.11,2.11,0,0,0-1,.47l-.16.15-.06.07-.06-.05-.11.18a.05.05,0,0,1,0,0,.64.64,0,0,0-.09.29,1.17,1.17,0,0,0,.24.76l.11.15.1.1a1.72,1.72,0,0,0,.67.87h0l0,0-.12.08-.09.09a2.22,2.22,0,0,0-1,.48,1.21,1.21,0,0,0-.16.16L72,38.5l-.06-.06-.1.19,0,0a.5.5,0,0,0-.09.29,1.2,1.2,0,0,0,.24.78l.12.16.1.1a1.67,1.67,0,0,0,.7.9h0l0,0-.13.09-.1.09a2.37,2.37,0,0,0-1,.5,1.29,1.29,0,0,0-.17.16h0l-.07.09-.07-.06-.1.18,0,0h0a.6.6,0,0,0-.09.3,1.29,1.29,0,0,0,.25.8l.12.16a1.14,1.14,0,0,0,.11.11,1.72,1.72,0,0,0,.72.93h0l.06,0h0l-.15.1h0l-.1.09a2.44,2.44,0,0,0-1.07.52c-.06,0-.11.11-.16.16l-.09.1-.06-.06-.1.18,0,.05a.54.54,0,0,0-.1.31,1.34,1.34,0,0,0,.26.83,1.83,1.83,0,0,0,.13.16h0l.11.11a1.78,1.78,0,0,0,.74,1h0l.09.06h0l-.15.11-.11.09a2.58,2.58,0,0,0-1.1.54l-.17.17h0l-.09.1-.06-.06-.11.19,0,0h0a.68.68,0,0,0-.1.32,1.35,1.35,0,0,0,.27.85l.13.17h0l.12.12a1.83,1.83,0,0,0,.76,1,.41.41,0,0,1,.11.07l-.05,0-.16.11-.11.1a2.6,2.6,0,0,0-1.13.55l-.18.17-.09.11-.07-.06-.1.19,0,.05h0a.66.66,0,0,0-.11.33,1.44,1.44,0,0,0,.28.87l.13.17.12.12a1.84,1.84,0,0,0,.79,1h0l.15.09-.09.06a.91.91,0,0,0-.16.11l-.12.1a2.64,2.64,0,0,0-1.16.57l-.19.18-.1.12-.07-.06-.1.19,0,.05h0a.67.67,0,0,0-.11.34,1.44,1.44,0,0,0,.29.89l.13.18.13.12a1.92,1.92,0,0,0,.8,1.05h0l.21.12-.15.08-.17.12-.12.1a2.78,2.78,0,0,0-1.19.59l-.19.18-.12.14-.06-.06-.1.19,0,0a.7.7,0,0,0-.1.34,1.4,1.4,0,0,0,.29.92l.14.18.13.13a2,2,0,0,0,.83,1.08l.25.15a2.32,2.32,0,0,0,.44.16l-.09.62c-.27,1.78-1.45,2.68-4.18,2.08a1.41,1.41,0,0,0,.15-.62h0a1.43,1.43,0,0,0-.17-.65,1.57,1.57,0,0,0,.15-.19,1.52,1.52,0,0,0,.2-.7h0a1.45,1.45,0,0,0-.18-.66l.15-.2a1.43,1.43,0,0,0,.21-.71h0a1.51,1.51,0,0,0-.19-.67,1.49,1.49,0,0,0,.15-.2,1.44,1.44,0,0,0,.22-.71h0a1.44,1.44,0,0,0-.2-.68,1.56,1.56,0,0,0,.16-.2,1.51,1.51,0,0,0,.22-.73h0a1.45,1.45,0,0,0-.21-.7.85.85,0,0,0,.17-.2h0a1.54,1.54,0,0,0,.22-.73h0a1.46,1.46,0,0,0-.21-.71,1.63,1.63,0,0,0,.17-.2,1.46,1.46,0,0,0,.23-.75h0a1.41,1.41,0,0,0-.22-.72,1.2,1.2,0,0,0,.17-.21,1.41,1.41,0,0,0,.24-.75h0a1.46,1.46,0,0,0-.23-.74.91.91,0,0,0,.18-.21,1.49,1.49,0,0,0,.25-.77h0a1.51,1.51,0,0,0-.24-.75A2,2,0,0,0,67.3,52a1.5,1.5,0,0,0,.25-.78h0a1.41,1.41,0,0,0-.25-.77,1,1,0,0,0,.19-.21,1.46,1.46,0,0,0,.26-.79h0a1.43,1.43,0,0,0-.26-.78,1.42,1.42,0,0,0,.2-.22,1.48,1.48,0,0,0,.27-.8h0a1.47,1.47,0,0,0-.27-.79h0a2.2,2.2,0,0,0,.2-.23,1.44,1.44,0,0,0,.28-.8h0a1.55,1.55,0,0,0-.28-.8h0a.93.93,0,0,0,.21-.23,1.48,1.48,0,0,0,.29-.81h0a1.48,1.48,0,0,0-.29-.81v0a1.21,1.21,0,0,0,.22-.23,1.44,1.44,0,0,0,.29-.83h0a1.44,1.44,0,0,0-.29-.82l0,0a1.05,1.05,0,0,0,.23-.24,1.45,1.45,0,0,0,.3-.83h0a1.48,1.48,0,0,0-.3-.84l0,0a1.75,1.75,0,0,0,.23-.24,1.48,1.48,0,0,0,.31-.85h0a1.43,1.43,0,0,0-.31-.85l0,0a1,1,0,0,0,.25-.25,1.5,1.5,0,0,0,.32-.86h0a1.5,1.5,0,0,0-.32-.86,1.16,1.16,0,0,0-.59-.43,3.72,3.72,0,0,0,1-2.51h0c0-.06,0-.12,0-.18h0v0a1.56,1.56,0,0,0,.46-.29,1.3,1.3,0,0,0,.43-1h0v-.22h0a1.29,1.29,0,0,0-.43-1,1.56,1.56,0,0,0-.46-.29v0h0c0-.06,0-.12,0-.18h0a3.91,3.91,0,0,0-1.6-3A6,6,0,0,0,64.49,25a1.36,1.36,0,0,0,.13-.24,2.73,2.73,0,0,0,.2-1.05h0a2.73,2.73,0,0,0-.2-1.05c-.14-.33-.36-.53-.62-.53h0c-.26,0-.48.2-.63.53a2.74,2.74,0,0,0-.19,1.05h0a2.74,2.74,0,0,0,.19,1.05,1.38,1.38,0,0,0,.14.24,6,6,0,0,0-3.29,1.22,3.89,3.89,0,0,0-1.6,3h0a1.09,1.09,0,0,0,0,.18h0v0a1.61,1.61,0,0,0-.47.29,1.32,1.32,0,0,0-.42,1h0v.22h0a1.33,1.33,0,0,0,.42,1,1.61,1.61,0,0,0,.47.29v0h0a1.09,1.09,0,0,0,0,.18h0a3.67,3.67,0,0,0,1,2.51,1.09,1.09,0,0,0-.59.43,1.5,1.5,0,0,0-.32.86h0a1.5,1.5,0,0,0,.32.86,1.42,1.42,0,0,0,.24.25l0,0a1.49,1.49,0,0,0-.3.85h0a1.48,1.48,0,0,0,.3.84,1.14,1.14,0,0,0,.24.25l0,0a1.48,1.48,0,0,0-.3.84h0a1.45,1.45,0,0,0,.3.83,1.05,1.05,0,0,0,.23.24l0,0a1.44,1.44,0,0,0-.29.82h0a1.44,1.44,0,0,0,.29.83,1,1,0,0,0,.22.23v0a1.41,1.41,0,0,0-.29.81h0a1.41,1.41,0,0,0,.29.81.93.93,0,0,0,.21.23h0a1.46,1.46,0,0,0-.28.8h0a1.44,1.44,0,0,0,.28.8,2.2,2.2,0,0,0,.2.23h0a1.39,1.39,0,0,0-.27.79h0a1.39,1.39,0,0,0,.27.79,1.37,1.37,0,0,0,.19.22,1.45,1.45,0,0,0-.26.78h0a1.55,1.55,0,0,0,.26.79,1.29,1.29,0,0,0,.19.21,1.49,1.49,0,0,0-.25.77h0a1.43,1.43,0,0,0,.26.78.91.91,0,0,0,.18.21,1.41,1.41,0,0,0-.24.75h0a1.49,1.49,0,0,0,.25.77,1.2,1.2,0,0,0,.17.21,1.46,1.46,0,0,0-.23.74h0a1.43,1.43,0,0,0,.25.75.87.87,0,0,0,.17.21,1.41,1.41,0,0,0-.22.72h0a1.46,1.46,0,0,0,.23.74,1.12,1.12,0,0,0,.17.2,1.51,1.51,0,0,0-.22.72h0a1.4,1.4,0,0,0,.23.73h0a1.08,1.08,0,0,0,.16.2,1.59,1.59,0,0,0-.12.27,2.27,2.27,0,0,0-.73.16,5.27,5.27,0,0,0-2.11,1.67l-.27.35a4.75,4.75,0,0,0-.58,1.11l-.5-3.32.1-.1a3.53,3.53,0,0,0,1.51-.83c.11-.09.22-.18.32-.28s.21-.21.3-.32,0,0,0,0h0a5.17,5.17,0,0,0,1.11-1.87,1.51,1.51,0,0,0,.08-.34,1.71,1.71,0,0,0,0-.31V55h-.16a3.1,3.1,0,0,0-1.67.8l-.34.3c-.11.11-.23.23-.33.35h0a5.4,5.4,0,0,0-1.07,1.73.14.14,0,0,0,0,.06l-.51-3.35.13-.14a3.41,3.41,0,0,0,1.44-.82,3.84,3.84,0,0,0,.3-.28c.1-.1.2-.2.29-.31h0a5,5,0,0,0,1.05-1.83h0c0-.11,0-.22.07-.32a1.63,1.63,0,0,0,0-.31v-.18h-.17a3.12,3.12,0,0,0-1.59.81l-.32.29a3.4,3.4,0,0,0-.32.34h0a5,5,0,0,0-1,1.67l0,.1L56,50.57l.16-.23a3.32,3.32,0,0,0,1.36-.81l.28-.27.27-.31h0a5,5,0,0,0,1-1.77,2,2,0,0,0,.06-.32,1.51,1.51,0,0,0,0-.3v-.17l-.17,0a2.94,2.94,0,0,0-1.51.8,4.11,4.11,0,0,0-.31.29,5.21,5.21,0,0,0-1.23,2,1,1,0,0,1,0,.14l-.51-3.42.19-.22a3.14,3.14,0,0,0,1.29-.8,3.44,3.44,0,0,0,.27-.27c.08-.09.17-.19.25-.3h0a4.62,4.62,0,0,0,.9-1.72c0-.1,0-.2.05-.3a2.72,2.72,0,0,0,0-.28h0l0-.18-.16,0a2.85,2.85,0,0,0-1.44.8l-.29.28c-.09.11-.19.21-.27.32h0a4.93,4.93,0,0,0-.86,1.57c0,.06,0,.13,0,.19l-.53-3.45h0l.21-.26a2.9,2.9,0,0,0,1.22-.79l.25-.26h0l.24-.29h0a4.41,4.41,0,0,0,.82-1.66h0a1.55,1.55,0,0,0,0-.29,1.22,1.22,0,0,0,0-.27h0l0-.17-.16,0a2.67,2.67,0,0,0-1.36.79l-.27.28-.26.31h0a4.51,4.51,0,0,0-.78,1.5,1.38,1.38,0,0,0-.06.26L54,37.49l.25-.28a3.14,3.14,0,0,0,1.14-.79,2.85,2.85,0,0,0,.23-.26c.07-.09.15-.18.22-.28h0a4.3,4.3,0,0,0,.75-1.62,1.31,1.31,0,0,0,0-.27,1.13,1.13,0,0,0,0-.26h0l0-.17-.16,0a2.52,2.52,0,0,0-1.28.8,2.16,2.16,0,0,0-.25.27l-.24.3h0s0,0,0,0h0a4.12,4.12,0,0,0-.7,1.41,1.38,1.38,0,0,0-.06.26s0,.08,0,.11l-.53-3.52.09-.15.19-.24A3.06,3.06,0,0,0,54.75,32l.21-.25a1.3,1.3,0,0,0,.18-.23,4.24,4.24,0,0,0,.73-1.6,1.24,1.24,0,0,0,0-.27,1,1,0,0,0,0-.24l0-.17-.17,0a2.52,2.52,0,0,0-1.25.79l-.24.26-.23.3h0a4.3,4.3,0,0,0-.67,1.42c0,.09,0,.17,0,.25a.76.76,0,0,0,0,.15l-.48-3.15a3.62,3.62,0,0,0,.31-1.52c0-.13,0-.26,0-.39a3.9,3.9,0,0,0-1.22-2.91,3.6,3.6,0,0,0-.51,2.7h0a4.26,4.26,0,0,0,.79,2.14l.4,2.66a3.26,3.26,0,0,0-.69-1.2l-.25-.27a3.2,3.2,0,0,0-.27-.25h0a4.4,4.4,0,0,0-1.59-.92,1.4,1.4,0,0,0-.28-.06H49a2.67,2.67,0,0,0,.71,1.6,4.31,4.31,0,0,0,.56.57,4,4,0,0,0,1.72,1l.21,0,.4.27,0,0,.55,3.61a3.47,3.47,0,0,0-1-1.47,4.42,4.42,0,0,0-1.95-1.16,2.25,2.25,0,0,0-.73,0,2.81,2.81,0,0,0,.78,1.62,5.12,5.12,0,0,0,.58.56h0a4,4,0,0,0,1.78.93h0l.22,0,.4.26h0l.54,3.62a3.27,3.27,0,0,0-.8-1.22l-.27-.27c-.09-.08-.19-.17-.3-.25h0a4.43,4.43,0,0,0-1.73-.88,1.87,1.87,0,0,0-.3,0h-.29l-.17,0a2.94,2.94,0,0,0,.85,1.63h0c.1.1.19.2.29.29A5,5,0,0,0,53,41.08l.28.07.25,0,.4.23h0l.55,3.63a3.49,3.49,0,0,0-.86-1.24,3.45,3.45,0,0,0-.28-.26,3.92,3.92,0,0,0-.32-.25h0a4.81,4.81,0,0,0-1.8-.86l-.31,0a1.27,1.27,0,0,0-.28,0l-.18,0,0,.17a3,3,0,0,0,.89,1.47,2.76,2.76,0,0,0,.3.29,4,4,0,0,0,.34.27h0a4.93,4.93,0,0,0,1.6.81l.29.06.28,0h0l.39.22h0l.09.58,0,0h0l.46,3a3.62,3.62,0,0,0-.91-1.26l-.3-.26-.34-.25h0a4.62,4.62,0,0,0-1.87-.84l-.31,0a1.37,1.37,0,0,0-.29,0l-.18,0L51,47a3.19,3.19,0,0,0,1,1.5l.32.28.36.28h0a5,5,0,0,0,1.71.8l.29.05.25,0,.4.21.55,3.64a3.91,3.91,0,0,0-1-1.27,2.78,2.78,0,0,0-.32-.26L54.2,52h0s0,0,0,0h0a5,5,0,0,0-1.94-.81h0l-.33,0a1.51,1.51,0,0,0-.3,0h0l-.17,0,0,.17a3.17,3.17,0,0,0,1,1.51c.1.1.22.19.33.29h0l.38.27h0A5,5,0,0,0,55,54.2a1.81,1.81,0,0,0,.31,0h.25l.38.19.55,3.64a3.89,3.89,0,0,0-1-1.28h0l-.33-.26c-.11-.08-.23-.17-.36-.25h0a5,5,0,0,0-2-.79l-.33,0a1.06,1.06,0,0,0-.31,0l-.17,0,0,.17a3.33,3.33,0,0,0,1.07,1.52l.35.29h0l.39.27h0a5.07,5.07,0,0,0,1.84.76,1.87,1.87,0,0,0,.32,0h.26l.37.17.55,3.65a4,4,0,0,0-1.08-1.29,5.35,5.35,0,0,0-2.79-1.28,2.1,2.1,0,0,0-.35,0,2.36,2.36,0,0,0-.31,0l-.17,0,.05.16a3.24,3.24,0,0,0,1.12,1.54,7,7,0,0,0,.78.56h0a5.35,5.35,0,0,0,1.9.75h0l.33,0h.26l.37.17.23,1.56c.32,2.13,1.71,3.21,4.84,2.53a1.22,1.22,0,0,0,0,.26h0a1.46,1.46,0,0,0,.19.68.85.85,0,0,0,.14.19,1.44,1.44,0,0,0-.16.63h0a1.49,1.49,0,0,0,.18.67.94.94,0,0,0,.14.19,1.39,1.39,0,0,0-.16.62h0a1.45,1.45,0,0,0,.18.66.94.94,0,0,0,.14.19,1.37,1.37,0,0,0-.15.61h0a1.37,1.37,0,0,0,.17.65.67.67,0,0,0,.55.41h1a.67.67,0,0,0,.56-.41,1.5,1.5,0,0,0,.17-.65h0a1.52,1.52,0,0,0-.15-.61.94.94,0,0,0,.14-.19,1.44,1.44,0,0,0,.17-.66h0a1.38,1.38,0,0,0-.15-.62.94.94,0,0,0,.14-.19,1.49,1.49,0,0,0,.18-.67h0a1.44,1.44,0,0,0-.16-.63,1.33,1.33,0,0,0,.14-.19,1.46,1.46,0,0,0,.19-.68h0a1.22,1.22,0,0,0,0-.26c3.13.68,4.51-.4,4.84-2.53l.1-.72A2.3,2.3,0,0,0,72,63.54a2.73,2.73,0,0,0,.25-.23l.17-.22a1.88,1.88,0,0,0,.51-.36h0l.08-.09a1.15,1.15,0,0,0,.3-.56h0a.68.68,0,0,0,0-.36s0,0,0-.06l0-.2-.08,0a2.44,2.44,0,0,0-.75-1l-.22-.17-.2-.12a1.94,1.94,0,0,0-.32-.42,2.21,2.21,0,0,0,.9-.39l.24-.22A1.16,1.16,0,0,0,73,59a2,2,0,0,0,.5-.35h0l.08-.09a1.2,1.2,0,0,0,.29-.54h0a.67.67,0,0,0,0-.36.43.43,0,0,1,0,0l-.05-.21-.08,0a2.3,2.3,0,0,0-.73-1l-.21-.16-.19-.12a2.11,2.11,0,0,0-.28-.37,2,2,0,0,0,.83-.37,2.29,2.29,0,0,0,.23-.21,1.66,1.66,0,0,0,.16-.21,1.72,1.72,0,0,0,.49-.34l.07-.09A1.15,1.15,0,0,0,74.4,54h0a.72.72,0,0,0,0-.34l0-.05,0-.21-.08,0a2.31,2.31,0,0,0-.71-.94l-.21-.16-.18-.12a1.91,1.91,0,0,0-.24-.32,2.17,2.17,0,0,0,.77-.35,2.23,2.23,0,0,0,.22-.21,1.56,1.56,0,0,0,.16-.2,1.59,1.59,0,0,0,.47-.33l.07-.09a1,1,0,0,0,.28-.51h0a.72.72,0,0,0,0-.34h0a.43.43,0,0,1,0-.05l0-.21-.08,0a2.37,2.37,0,0,0-.68-.91l-.2-.15-.18-.11-.21-.29a1.8,1.8,0,0,0,.71-.34,1.42,1.42,0,0,0,.22-.2.9.9,0,0,0,.15-.19,1.72,1.72,0,0,0,.46-.32l.07-.08a1,1,0,0,0,.27-.5h0a.54.54,0,0,0,0-.32s0,0,0-.05l0-.21-.08,0a2.23,2.23,0,0,0-.66-.88L74.37,45l-.18-.11a1.2,1.2,0,0,0-.18-.26,1.91,1.91,0,0,0,.67-.33l.22-.19a1.33,1.33,0,0,0,.14-.19,1.58,1.58,0,0,0,.44-.31l.07-.08a1.05,1.05,0,0,0,.27-.49h0a.6.6,0,0,0,0-.32.43.43,0,0,1,0,0l0-.2-.08,0a2.22,2.22,0,0,0-.64-.84l-.19-.14a1,1,0,0,0-.17-.1,1.46,1.46,0,0,0-.17-.24,1.91,1.91,0,0,0,.64-.31,1.29,1.29,0,0,0,.21-.19l.14-.18a1.67,1.67,0,0,0,.42-.3l.07-.08h0a1,1,0,0,0,.26-.47h0a.61.61,0,0,0,0-.31s0,0,0,0l0-.21-.08,0a2.1,2.1,0,0,0-.61-.82l-.19-.13-.16-.1a1.19,1.19,0,0,0-.16-.23,1.72,1.72,0,0,0,.61-.29,1.21,1.21,0,0,0,.2-.19,1.15,1.15,0,0,0,.14-.17,1.38,1.38,0,0,0,.41-.29l.07-.08a1,1,0,0,0,.25-.46h0a.52.52,0,0,0,0-.3.43.43,0,0,1,0-.05l0-.2-.08,0a2,2,0,0,0-.59-.78l-.18-.14-.15-.09a1.91,1.91,0,0,0-.15-.21,1.76,1.76,0,0,0,.58-.29.81.81,0,0,0,.19-.18,1,1,0,0,0,.13-.16,1.5,1.5,0,0,0,.4-.28h0l.07-.08a1,1,0,0,0,.24-.44h0a.63.63,0,0,0,0-.3.08.08,0,0,0,0,0l0-.21-.07,0a2,2,0,0,0-.58-.75,1.09,1.09,0,0,0-.17-.13L76,31.7a1.1,1.1,0,0,0-.14-.21,1.71,1.71,0,0,0,.56-.27l.19-.17.12-.16a1.39,1.39,0,0,0,.39-.28h0l.06-.06a1,1,0,0,0,.23-.44h0a.53.53,0,0,0,0-.29h0s0,0,0,0l0-.21-.06,0a1.89,1.89,0,0,0-.56-.73l-.16-.13-.14-.09a1.65,1.65,0,0,0-.26-.32l-.07-.06h0a2.64,2.64,0,0,0,.63-1.4,2,2,0,0,0-.62-2A2,2,0,0,0,75,26.6a2.63,2.63,0,0,0,.18,1.52,1.27,1.27,0,0,0-.23.12l-.13.09-.08.07ZM51.35,27.21ZM64.19,4.3,64,4.16l-.19.14L16.19,38.9,16,39l.07.22,18.19,56,.07.22H93.66l.07-.22,18.19-56L112,39l-.18-.13Z"/><path class="cls-4" d="M58,64.52a2.49,2.49,0,0,0,1.5,2.13,4.79,4.79,0,0,0,2.82,0,1.33,1.33,0,0,0,.14.19,1.69,1.69,0,0,0-.11.27,5.22,5.22,0,0,1-3.16,0,2.82,2.82,0,0,1-1.61-2.4l-5.28-35c.22.1.27.42.33.64,0-.08,0-.57.11-.69Z"/><path class="cls-5" d="M69.07,60.92l.49.45.6-.29.49.46.6-.3.49.46.6-.3.49.46.33-.16a.63.63,0,0,1,0,.36,1.5,1.5,0,0,1-.85.9,2.13,2.13,0,0,1-3.71-.55,1.48,1.48,0,0,1-.54-1.11A.63.63,0,0,1,68.2,61l.27.25.6-.29Zm5.17-31.68.36.34.45-.22.36.34.45-.22.36.34.45-.22.36.34.25-.12a.43.43,0,0,1,0,.27,1.13,1.13,0,0,1-.63.67,1.38,1.38,0,0,1-.89.59l-.06-.05a1.17,1.17,0,0,0-.51-.22h0a1,1,0,0,0-.62.1,1.43,1.43,0,0,1-.68-.84,1.07,1.07,0,0,1-.4-.82.4.4,0,0,1,.09-.25l.2.18.45-.21Zm-.51,3,.38.35.46-.23.38.36.47-.23.37.35.47-.22.37.35.26-.13a.48.48,0,0,1,0,.28,1.16,1.16,0,0,1-.65.7,1.44,1.44,0,0,1-.93.62l-.06-.06h0a1.16,1.16,0,0,0-.52-.23h0a1.21,1.21,0,0,0-.65.1,1.44,1.44,0,0,1-.7-.86,1.14,1.14,0,0,1-.42-.86.47.47,0,0,1,.09-.26l.21.2.46-.23Zm-.51,3.14.39.37.48-.24.39.37.48-.24.39.37.48-.24.39.37.27-.13a.49.49,0,0,1,0,.29,1.19,1.19,0,0,1-.67.72,1.49,1.49,0,0,1-1,.64l-.07-.06a1.19,1.19,0,0,0-.53-.23h0a1.11,1.11,0,0,0-.67.1,1.45,1.45,0,0,1-.73-.89,1.22,1.22,0,0,1-.44-.89.47.47,0,0,1,.1-.27l.22.2.48-.24Zm-.54,3.25.41.38.5-.24.4.38.5-.25.4.38.5-.24.41.38.27-.14a.51.51,0,0,1,0,.3,1.3,1.3,0,0,1-.7.75,1.58,1.58,0,0,1-1,.67L74.31,41a1.14,1.14,0,0,0-.55-.24h0a1.13,1.13,0,0,0-.68.1,1.53,1.53,0,0,1-.77-.93,1.24,1.24,0,0,1-.45-.92.47.47,0,0,1,.1-.28l.23.21.49-.25ZM72.13,42l.42.39.52-.25.41.39.52-.25.42.39.51-.25.42.39.29-.14a.57.57,0,0,1,0,.31,1.25,1.25,0,0,1-.72.77,1.63,1.63,0,0,1-1.06.7l-.12-.1-.11-.07a1.44,1.44,0,0,0-.4-.13h0a1.14,1.14,0,0,0-.68.1,1.57,1.57,0,0,1-.81-1,1.27,1.27,0,0,1-.47-1,.48.48,0,0,1,.11-.3l.23.22.51-.25Zm-.57,3.49.44.4.53-.26.43.41.53-.26.44.4.53-.26.43.4.29-.14a.5.5,0,0,1,0,.32,1.31,1.31,0,0,1-.75.8,1.66,1.66,0,0,1-1.12.72l-.1-.08-.12-.07h0a1.12,1.12,0,0,0-.4-.14h0a1.25,1.25,0,0,0-.69.09,1.62,1.62,0,0,1-.85-1,1.32,1.32,0,0,1-.49-1,.64.64,0,0,1,.11-.31l.24.23.53-.26ZM71,49.15l.45.42L72,49.3l.45.41.55-.26.44.41L74,49.6l.45.41.3-.15a.53.53,0,0,1,0,.33A1.4,1.4,0,0,1,74,51a1.73,1.73,0,0,1-1.19.75l-.08-.06-.12-.08a1.23,1.23,0,0,0-.42-.14h0a1.28,1.28,0,0,0-.67.09,1.78,1.78,0,0,1-.92-1.07,1.34,1.34,0,0,1-.49-1,.48.48,0,0,1,.11-.31l.25.23.54-.27Zm-.61,3.76.46.43.57-.27.46.43.57-.28.46.43.56-.28.47.43.31-.15a.58.58,0,0,1,0,.34,1.38,1.38,0,0,1-.79.85,1.79,1.79,0,0,1-1.27.78l0,0L72,55.51h0a1.57,1.57,0,0,0-.43-.15h0a1.32,1.32,0,0,0-.65.08,1.8,1.8,0,0,1-1-1.12,1.38,1.38,0,0,1-.51-1,.52.52,0,0,1,.11-.32l.26.24.56-.28Zm-.63,3.92.48.44.58-.28.47.44.59-.28.47.44.58-.28.48.44.32-.16a.59.59,0,0,1,0,.35,1.48,1.48,0,0,1-.82.88,1.84,1.84,0,0,1-1.37.81l-.12-.08A1.76,1.76,0,0,0,71,59.4h0a1.26,1.26,0,0,0-.61.06,1.84,1.84,0,0,1-1.06-1.18,1.43,1.43,0,0,1-.53-1.08.56.56,0,0,1,.11-.33l.27.25Z"/><path class="cls-6" d="M70,64.52l.1-.62a1,1,0,0,0,.35.06h.08l-.11.73a2.79,2.79,0,0,1-1.61,2.4,5.22,5.22,0,0,1-3.16,0,.81.81,0,0,0-.11-.27.85.85,0,0,0,.14-.19,4.83,4.83,0,0,0,2.83,0A2.46,2.46,0,0,0,70,64.52Z"/><path class="cls-7" d="M81.52,76.91a31.31,31.31,0,0,0,3.41,2.35c.52.28.63.69.12,1.08a3,3,0,0,1-2.3.33,1,1,0,0,1-.37-.22.82.82,0,0,0,.44.32,2.86,2.86,0,0,0,1.77-.08,6.56,6.56,0,0,0-1.83,3.6,1.82,1.82,0,0,1,0,.32.8.8,0,0,1,.08.9c-.19.22-.6.21-1,0a2,2,0,0,1-.23-.14l-.22-.17,0,0A16.28,16.28,0,0,0,80,84a16,16,0,0,0-6.59-2.39A82.73,82.73,0,0,0,64,81.32a82.73,82.73,0,0,0-9.36.29A15.91,15.91,0,0,0,48.05,84c-.35.21-.87.77-1.34,1.16l0,0-.22.17-.24.14c-.42.21-.83.22-1,0a.81.81,0,0,1,.07-.9l0-.32a6.54,6.54,0,0,0-1.82-3.6,2.86,2.86,0,0,0,1.77.08.79.79,0,0,0,.43-.32.89.89,0,0,1-.36.22,3,3,0,0,1-2.3-.33c-.51-.39-.41-.8.12-1.08a30.42,30.42,0,0,0,3.4-2.35,3.84,3.84,0,0,0,.48,0H47c-1.75,1.36-2.67,2-3.42,2.54a11.68,11.68,0,0,0,3-.42,68,68,0,0,0,6.65-2.27l.1.09a1.07,1.07,0,0,0,.19.13,1.1,1.1,0,0,0,1.14-.1,4.57,4.57,0,0,1,.83-.5,6.15,6.15,0,0,1,1-.37,9.26,9.26,0,0,1,1.07-.25c.36-.07.74-.12,1.12-.16h0l.32,0,.32,0c.56,0,1.11-.06,1.64-.06h6.18l1.14,0h.19l1,.07c.38,0,.75.09,1.12.16a9.09,9.09,0,0,1,1.06.25,6.27,6.27,0,0,1,1,.37,4.94,4.94,0,0,1,.83.5h0a.72.72,0,0,0,.21.12.63.63,0,0,0,.22.07,1,1,0,0,0,1-.31A67.08,67.08,0,0,0,81.44,79a11.62,11.62,0,0,0,3,.42c-.75-.52-1.67-1.18-3.43-2.54h.08a3.68,3.68,0,0,0,.47,0Zm29.73-37.64L64,5,16.75,39.27l18,55.55H93.2l18-55.55Zm-1.75.57L64,6.78,18.5,39.84,35.88,93.33H92.12L109.5,39.84ZM64,8.22,19.87,40.29,36.73,92.17H91.27l16.86-51.88L64,8.22Zm.19-2.09L64,6l-.19.13L17.94,39.46l-.19.14.07.22L35.35,93.75l.07.22H92.58l.07-.22,17.53-53.93.07-.22-.19-.14L64.19,6.13ZM76.1,25a1.73,1.73,0,0,1,.54,1.75,2.11,2.11,0,0,1-.72,1.39.68.68,0,0,0-.57-.09,2.1,2.1,0,0,1-.29-1.53c.12-.8.56-1.43,1-1.52ZM69.81,60a1.34,1.34,0,0,1,1.13-.43,1.36,1.36,0,0,1,1,.74,2.45,2.45,0,0,1,1.16,1.31l-.22.11-.49-.46-.6.29-.49-.45-.6.29L70.18,61l-.6.29-.49-.46-.6.3-.18-.17a2.42,2.42,0,0,1,1.5-.91Zm5-31.45a1,1,0,0,1,.85-.32,1,1,0,0,1,.71.56,1.78,1.78,0,0,1,.87,1l-.17.08-.36-.34-.45.22-.36-.34-.45.22-.36-.34-.45.22-.36-.34-.45.21-.13-.12a1.85,1.85,0,0,1,1.11-.68Zm-.48,3a1,1,0,0,1,1.62.24,1.91,1.91,0,0,1,.9,1l-.17.08-.38-.35-.46.23-.38-.36-.46.23-.38-.35-.46.22-.38-.35-.47.23-.14-.13a1.9,1.9,0,0,1,1.16-.7Zm-.5,3.12a1,1,0,0,1,1.68.25,2,2,0,0,1,.94,1l-.18.08-.39-.36-.49.23L75,35.59l-.48.23-.39-.36-.48.23-.39-.36-.48.23-.15-.13a1.94,1.94,0,0,1,1.2-.73Zm-.51,3.23a1,1,0,0,1,1.74.26,2,2,0,0,1,1,1.08l-.19.09-.4-.38-.5.25-.41-.38-.5.24-.4-.38-.5.25-.4-.38-.5.24-.15-.14a2.05,2.05,0,0,1,1.24-.75Zm-.53,3.34a1.07,1.07,0,0,1,1.8.27,2.09,2.09,0,0,1,1,1.12l-.19.09L75,42.36l-.52.25L74,42.22l-.51.25-.42-.39-.51.25-.42-.39-.52.26-.15-.15a2.07,2.07,0,0,1,1.28-.78Zm-.55,3.46a1.23,1.23,0,0,1,1-.38,1.19,1.19,0,0,1,.85.66,2.14,2.14,0,0,1,1,1.16l-.19.1-.44-.41-.53.26-.43-.4L73,46l-.44-.41-.53.26-.43-.4-.53.26-.17-.15a2.23,2.23,0,0,1,1.33-.81Zm-.57,3.6a1.14,1.14,0,0,1,1.92.28,2.22,2.22,0,0,1,1.07,1.2l-.21.1L74,49.49l-.55.27L73,49.34l-.55.27L72,49.19l-.55.27L71,49.05l-.55.26-.17-.15a2.26,2.26,0,0,1,1.37-.83Zm-.59,3.73a1.19,1.19,0,0,1,2,.3,2.28,2.28,0,0,1,1.09,1.23l-.21.1-.46-.43-.56.28-.47-.43-.56.27L71.41,53l-.57.28-.46-.43-.57.28a1.29,1.29,0,0,0-.17-.16,2.32,2.32,0,0,1,1.41-.86ZM70.44,56a1.29,1.29,0,0,1,1.11-.42,1.31,1.31,0,0,1,.93.72,2.38,2.38,0,0,1,1.14,1.27l-.22.11-.48-.45-.58.29L71.87,57l-.59.28-.47-.44-.59.28-.47-.44-.58.28L69,56.83A2.34,2.34,0,0,1,70.44,56ZM47.51,82.53l.36-.2-.7-1.25,1.48.82.39-.21L48,79.76l-.36.2.71,1.29-1.5-.85-.38.21,1.07,1.92Zm30.14-.86a1.31,1.31,0,0,0,.26.12.75.75,0,0,0,.43,0,.28.28,0,0,0,.18-.17.25.25,0,0,0,0-.22.38.38,0,0,0-.11-.11h0a.82.82,0,0,0,.49,0,.91.91,0,0,0,.5-.39L79,80.66a.81.81,0,0,1-.29.27.47.47,0,0,1-.33,0,.54.54,0,0,1-.31-.3.93.93,0,0,1,.07-.61.91.91,0,0,1,.33-.49.56.56,0,0,1,.44,0,.5.5,0,0,1,.25.2.53.53,0,0,1,.06.31l.45,0a1,1,0,0,0-.07-.46,1,1,0,0,0-.54-.45,1,1,0,0,0-.81,0,1.29,1.29,0,0,0-.56.71,1.14,1.14,0,0,0,0,.87,1,1,0,0,0,.44.47H78l-.09.12.19,0a.22.22,0,0,1,.13.09.11.11,0,0,1,0,.1s0,.05-.08.07a.39.39,0,0,1-.2,0,1.83,1.83,0,0,1-.26-.11l-.06.17Zm-26.32-.83-1.58-1.77-.44.16-.06,2.37.45-.16V80.9l.82-.3.36.41.45-.17Zm-1.07-.54-.56-.66v.87l.56-.21Zm2.09-.55.49-.13.08.27a1,1,0,0,1-.46.32.59.59,0,0,1-.49-.07.89.89,0,0,1-.32-.53.78.78,0,0,1,0-.57.6.6,0,0,1,.4-.3.56.56,0,0,1,.34,0,.41.41,0,0,1,.23.2l.41-.2a.8.8,0,0,0-.41-.38,1.08,1.08,0,0,0-.67,0,1.35,1.35,0,0,0-.48.24,1,1,0,0,0-.3.51,1.23,1.23,0,0,0,0,.63,1.29,1.29,0,0,0,.28.53.94.94,0,0,0,.48.3,1.19,1.19,0,0,0,.62,0,1.59,1.59,0,0,0,.49-.24,1.3,1.3,0,0,0,.33-.34l-.23-.85-.92.25.09.36Zm3.51.1-1.29-2-.46.09-.42,2.32.46-.09.08-.52.87-.17.28.45.48-.09Zm-1-.7-.46-.74-.13.86.59-.12Zm1.21.69.45-.06-.13-.91h.09a.57.57,0,0,1,.22,0,.34.34,0,0,1,.15.07s.14.14.28.29l.38.43.53-.07-.33-.39a2.51,2.51,0,0,0-.3-.32.93.93,0,0,0-.26-.15.7.7,0,0,0,.4-.26.63.63,0,0,0,.09-.43.71.71,0,0,0-.14-.33.51.51,0,0,0-.29-.17,1.47,1.47,0,0,0-.51,0l-.93.13.3,2.18Zm.27-1.32.32,0a1.51,1.51,0,0,0,.4-.08.23.23,0,0,0,.11-.11.31.31,0,0,0,0-.17.3.3,0,0,0-.08-.17.28.28,0,0,0-.18-.06l-.33,0-.34,0,.08.55Zm3.91.88-1.07-2.12-.47,0-.67,2.28.48,0,.13-.51.88-.08.24.48.48,0Zm-.89-.79L59,77.82l-.22.84.6,0Zm1.8-1.47.07,2.2.84,0a1.07,1.07,0,0,0,.39-.06.74.74,0,0,0,.31-.19.93.93,0,0,0,.22-.39,1.39,1.39,0,0,0,0-.47,1.8,1.8,0,0,0-.09-.52,1,1,0,0,0-.22-.35.68.68,0,0,0-.34-.19,1.28,1.28,0,0,0-.42,0l-.81,0Zm.45.36,0,1.45H62a.91.91,0,0,0,.27,0,.32.32,0,0,0,.17-.1.41.41,0,0,0,.11-.21,1.24,1.24,0,0,0,0-.41,1,1,0,0,0-.06-.39.54.54,0,0,0-.13-.21.4.4,0,0,0-.21-.09,1.3,1.3,0,0,0-.37,0Zm3.84,1.8-.85-2.22h-.47l-.9,2.19h.48l.19-.5h.88l.18.51Zm-.81-.89-.29-.82-.31.81Zm1,.89h.41l.05-1.44L67,79.34l.44,0,.08-2.21h-.41l0,1.47-.85-1.5-.44,0-.07,2.21Zm4.2.24-.69-2.27-.47,0-1.05,2.12.47,0,.23-.48.88.07.14.52.49,0Zm-.74-.94-.24-.84-.36.79.6,0Zm1.69,1,.44.06.13-.91h.09a.53.53,0,0,1,.22.06.4.4,0,0,1,.12.11c0,.05.09.16.18.35l.26.52.52.07-.2-.46a4.21,4.21,0,0,0-.2-.39,1.14,1.14,0,0,0-.22-.22.69.69,0,0,0,.47-.14.61.61,0,0,0,.2-.38.72.72,0,0,0,0-.36.54.54,0,0,0-.22-.25,2.18,2.18,0,0,0-.5-.13l-.93-.13-.31,2.19Zm.62-1.2.32,0a1.77,1.77,0,0,0,.4,0,.23.23,0,0,0,.14-.07.26.26,0,0,0,.07-.16.22.22,0,0,0,0-.18.22.22,0,0,0-.15-.11l-.32-.06-.34,0-.08.55ZM75,80.33,74.63,78l-.46-.1-1.3,2,.46.1.28-.45.87.18.08.53.48.1Zm-.63-1-.12-.86-.46.73.58.13Zm.88,1,.43.12.17-.64.44-.27.32,1.16.56.15-.5-1.53,1-.61-.57-.16L76,79.29l.26-.94-.43-.12-.57,2.13Zm6,2.28.3-2.36-.41-.23-1.82,1.52.41.23.4-.35.77.42-.07.53.42.24ZM81,81.48l.13-.86-.66.57Z"/><path class="cls-8" d="M17,105.54h1.23V108h0c.12-.21.25-.41.37-.6l1.24-1.82h1.52l-1.81,2.33L21.48,111H20l-1.34-2.36-.47.58V111H17Z"/><path class="cls-8" d="M25.24,108.7h-2V110h2.25v1H22v-5.47h3.39v1H23.23v1.14h2Z"/><path class="cls-8" d="M31,108.92c0-.66-.05-1.46-.05-2.25h0c-.17.7-.39,1.48-.61,2.12l-.66,2.13h-1l-.58-2.12c-.18-.64-.37-1.42-.5-2.13h0c0,.74-.05,1.58-.09,2.26l-.1,2.08H26.2l.35-5.47H28.2l.54,1.83c.17.63.34,1.31.46,1.95h0c.15-.63.34-1.35.52-2l.58-1.82H32l.3,5.47H31Z"/><path class="cls-8" d="M36.46,108.7h-2V110h2.25v1H33.2v-5.47h3.38v1H34.44v1.14h2Z"/><path class="cls-8" d="M37.54,111v-5.47H39l1.13,2a16.21,16.21,0,0,1,.9,1.88h0a20.59,20.59,0,0,1-.1-2.28v-1.6h1.13V111h-1.3L39.6,108.9c-.32-.58-.68-1.29-1-1.93h0c0,.72,0,1.49,0,2.38V111Z"/><path class="cls-8" d="M44.2,106.58H42.73v-1h4.21v1H45.45V111H44.2Z"/><path class="cls-8" d="M47.6,105.61a10.34,10.34,0,0,1,1.65-.11,2.79,2.79,0,0,1,1.77.43,1.37,1.37,0,0,1,.51,1.14,1.46,1.46,0,0,1-1,1.35v0a1.38,1.38,0,0,1,.73,1,14.41,14.41,0,0,0,.45,1.54H50.47a6.55,6.55,0,0,1-.38-1.27c-.15-.68-.38-.87-.89-.88h-.37V111H47.6ZM48.83,108h.49c.61,0,1-.31,1-.79s-.34-.76-.91-.77a2.53,2.53,0,0,0-.56,0Z"/><path class="cls-8" d="M53.66,105.54V111H52.42v-5.47Z"/><path class="cls-8" d="M56,109.61l-.39,1.4H54.34L56,105.54h1.63l1.7,5.47H58l-.42-1.4Zm1.39-.93-.34-1.16c-.1-.33-.19-.73-.28-1.06h0c-.08.33-.16.74-.25,1.06l-.33,1.16Z"/><path class="cls-8" d="M60.07,111v-5.47h1.44l1.14,2a16.21,16.21,0,0,1,.9,1.88h0a20.49,20.49,0,0,1-.11-2.28v-1.6H64.6V111H63.3l-1.17-2.11c-.32-.58-.68-1.29-1-1.93h0c0,.72.05,1.49.05,2.38V111Z"/><path class="cls-8" d="M67.32,105.54h1.22V108h0c.12-.21.25-.41.37-.6l1.25-1.82H71.7l-1.81,2.33L71.8,111H70.36L69,108.65l-.48.58V111H67.32Z"/><path class="cls-8" d="M75.57,108.7h-2V110H75.8v1H72.31v-5.47h3.38v1H73.55v1.14h2Z"/><path class="cls-8" d="M77.88,105.54v3.15c0,.94.36,1.42,1,1.42s1-.45,1-1.42v-3.15h1.24v3.07c0,1.69-.86,2.49-2.29,2.49s-2.19-.76-2.19-2.51v-3Z"/><path class="cls-8" d="M83.22,109.61l-.39,1.4H81.55l1.67-5.47h1.63l1.7,5.47H85.21l-.42-1.4Zm1.39-.93-.34-1.16c-.1-.33-.2-.73-.28-1.06h0c-.08.33-.17.74-.26,1.06l-.32,1.16Z"/><path class="cls-8" d="M87.28,111v-5.47h1.44l1.14,2a14.67,14.67,0,0,1,.89,1.88h0a20.49,20.49,0,0,1-.11-2.28v-1.6h1.14V111h-1.3l-1.17-2.11c-.32-.58-.68-1.29-1-1.93h0c0,.72,0,1.49,0,2.38V111Z"/><path class="cls-8" d="M97.46,110.76a6.14,6.14,0,0,1-1.83.31,3.06,3.06,0,0,1-2.23-.74,2.64,2.64,0,0,1-.77-2,2.83,2.83,0,0,1,3.13-2.86,3.76,3.76,0,0,1,1.52.27l-.26,1a3,3,0,0,0-1.28-.24,1.66,1.66,0,0,0-1.81,1.78,1.64,1.64,0,0,0,1.72,1.79,1.59,1.59,0,0,0,.61-.08v-1.15h-.84v-1h2Z"/><path class="cls-8" d="M99.7,109.61l-.39,1.4H98l1.67-5.47h1.63L103,111h-1.34l-.42-1.4Zm1.39-.93-.34-1.16c-.1-.33-.19-.73-.27-1.06h0c-.08.33-.16.74-.25,1.06l-.33,1.16Z"/><path class="cls-8" d="M103.76,111v-5.47h1.44l1.14,2a16.21,16.21,0,0,1,.9,1.88h0a20.49,20.49,0,0,1-.11-2.28v-1.6h1.14V111H107l-1.17-2.11c-.32-.58-.68-1.29-.95-1.93h0c0,.72.05,1.49.05,2.38V111Z"/><path class="cls-8" d="M25.12,115.36a7.71,7.71,0,0,1,1.36-.11,2.23,2.23,0,0,1,1.58.45,1.33,1.33,0,0,1,.43,1,1.42,1.42,0,0,1-1,1.39v0a1.35,1.35,0,0,1,.81,1.1,9.22,9.22,0,0,0,.42,1.51H28a7.68,7.68,0,0,1-.37-1.31c-.16-.76-.45-1-1.1-1.07h-.66v2.38h-.71Zm.71,2.5h.72c.76,0,1.24-.42,1.24-1s-.51-1-1.26-1a3,3,0,0,0-.7.07Z"/><path class="cls-8" d="M32.33,118.2H30.2v2h2.37v.6H29.49v-5.48h3v.59H30.2v1.73h2.13Z"/><path class="cls-8" d="M33.49,115.35a9.16,9.16,0,0,1,1.36-.1,2.28,2.28,0,0,1,1.54.45,1.48,1.48,0,0,1,.48,1.15,1.59,1.59,0,0,1-.43,1.17,2.25,2.25,0,0,1-1.67.6,2.47,2.47,0,0,1-.57-.05v2.2h-.71ZM34.2,118a2.4,2.4,0,0,0,.58,0c.86,0,1.38-.41,1.38-1.17s-.51-1.07-1.29-1.07a2.55,2.55,0,0,0-.67.06Z"/><path class="cls-8" d="M38.52,115.29v3.24c0,1.23.55,1.75,1.28,1.75s1.33-.54,1.33-1.75v-3.24h.72v3.19c0,1.69-.89,2.38-2.08,2.38s-2-.65-2-2.34v-3.23Z"/><path class="cls-8" d="M43.07,115.36a7.42,7.42,0,0,1,1.3-.11,2.24,2.24,0,0,1,1.5.4,1.15,1.15,0,0,1,.46,1,1.31,1.31,0,0,1-.93,1.21h0a1.41,1.41,0,0,1,1.13,1.38,1.47,1.47,0,0,1-.46,1.09,2.77,2.77,0,0,1-1.9.52,8.6,8.6,0,0,1-1.1-.07Zm.71,2.25h.64c.75,0,1.19-.39,1.19-.92s-.49-.9-1.2-.9a3.43,3.43,0,0,0-.63,0Zm0,2.62a4.47,4.47,0,0,0,.59,0c.74,0,1.41-.27,1.41-1.06s-.64-1.06-1.41-1.06h-.59Z"/><path class="cls-8" d="M47.48,115.29h.71v4.88h2.34v.6H47.48Z"/><path class="cls-8" d="M52,115.29v5.48h-.71v-5.48Z"/><path class="cls-8" d="M53.26,115.29H54v2.64h0c.14-.21.29-.41.43-.58l1.67-2.06H57l-2,2.32,2.14,3.16h-.84l-1.81-2.69-.52.6v2.09h-.7Z"/><path class="cls-8" d="M60.09,115.29v5.48h-.71v-5.48Z"/><path class="cls-8" d="M61.33,120.77v-5.48h.77l1.75,2.77a15,15,0,0,1,1,1.78h0c-.06-.73-.08-1.4-.08-2.25v-2.29h.67v5.48h-.72L63,118a18.86,18.86,0,0,1-1-1.83h0c0,.69.05,1.35.05,2.26v2.34Z"/><path class="cls-8" d="M66.67,115.36a11,11,0,0,1,1.51-.11,3.14,3.14,0,0,1,2.22.68,2.55,2.55,0,0,1,.77,2,2.92,2.92,0,0,1-.79,2.13,3.38,3.38,0,0,1-2.42.79,11.64,11.64,0,0,1-1.29-.07Zm.71,4.85a4.84,4.84,0,0,0,.72,0,2.11,2.11,0,0,0,2.33-2.33,2,2,0,0,0-2.22-2.11,4.11,4.11,0,0,0-.83.07Z"/><path class="cls-8" d="M76.77,118a2.57,2.57,0,0,1-2.55,2.89,2.52,2.52,0,0,1-2.46-2.78,2.6,2.6,0,0,1,2.55-2.88A2.5,2.5,0,0,1,76.77,118Zm-4.25.09c0,1.17.63,2.22,1.75,2.22S76,119.25,76,118c0-1.09-.57-2.22-1.75-2.22S72.52,116.86,72.52,118.06Z"/><path class="cls-8" d="M77.69,120.77v-5.48h.77l1.75,2.77a15,15,0,0,1,1,1.78h0c-.06-.73-.08-1.4-.08-2.25v-2.29h.67v5.48h-.72L79.34,118a18.86,18.86,0,0,1-1-1.83h0c0,.69,0,1.35,0,2.26v2.34Z"/><path class="cls-8" d="M85.87,118.2H83.74v2h2.37v.6H83v-5.48h3v.59H83.74v1.73h2.13Z"/><path class="cls-8" d="M86.93,119.91a2.6,2.6,0,0,0,1.27.35c.73,0,1.15-.38,1.15-.93s-.29-.81-1-1.09c-.9-.32-1.45-.78-1.45-1.55a1.58,1.58,0,0,1,1.77-1.49,2.45,2.45,0,0,1,1.21.27l-.19.58a2.18,2.18,0,0,0-1-.26c-.75,0-1,.44-1,.82s.33.76,1.08,1c.93.36,1.4.81,1.4,1.61s-.62,1.58-1.92,1.58a2.87,2.87,0,0,1-1.39-.35Z"/><path class="cls-8" d="M91.75,115.29v5.48H91v-5.48Z"/><path class="cls-8" d="M93.87,119l-.57,1.73h-.73l1.86-5.48h.85l1.87,5.48H96.4L95.81,119Zm1.79-.55-.53-1.58c-.12-.35-.21-.68-.29-1h0c-.08.32-.17.65-.28,1L94,118.49Z"/></svg>