<svg id="Layer_1" data-name="Layer 1" xmlns="http://www.w3.org/2000/svg" viewBox="0 0 128 128"><defs><style>.cls-1{fill:#c5d82d;}.cls-1,.cls-2,.cls-3{fill-rule:evenodd;}.cls-2{fill:#03a0a4;}.cls-3{fill:#010101;}</style></defs><g id="_2101613785136" data-name=" 2101613785136"><path class="cls-1" d="M35.62,49.71l1.92-1.92V62.53H22.8l9.8-9.8,3-3Zm3.24-3.24.3-.29a7.36,7.36,0,0,1,10.39,0l.08.08a7.32,7.32,0,0,1,0,10.35l-5.92,5.92H38.86Zm4.9,17.42,5.57,5.58a7.32,7.32,0,0,1,0,10.35l-.12.08a7.32,7.32,0,0,1-10.35,0h0v-16ZM37.54,78.63,22.85,63.89H37.54Z"/><path class="cls-2" d="M4,63v-.13a8.07,8.07,0,0,1,8.05-8h8.52V71.09H12.07A8.1,8.1,0,0,1,4,63ZM29.66,37.1h.13a8.08,8.08,0,0,1,8.09,8v.47L21.61,61.93V45.15A8.07,8.07,0,0,1,29.66,37.1Zm8.22,43.31v.51a8.08,8.08,0,0,1-8.09,8h-.13a8.07,8.07,0,0,1-8-8V64.32Z"/><path class="cls-3" d="M61,51.88V44.3h1.24v3.37l2.55-3.37H66.5l-2.35,2.94,2.43,4.64H65l-1.7-3.58-1,1.28v2.3ZM60.92,82.5V75.26h1.32V82.5Zm2.55,0V75.26h1.28l2.68,4.86V75.26h1.24V82.5H67.35l-2.64-4.77V82.5ZM70,75.26h2.38a3,3,0,0,1,1.24.17,1.94,1.94,0,0,1,1,.64,2.92,2.92,0,0,1,.64,1.19A6.12,6.12,0,0,1,75.48,79a5.28,5.28,0,0,1-.21,1.53,3.8,3.8,0,0,1-.68,1.28,2.65,2.65,0,0,1-.94.55,2.7,2.7,0,0,1-1.15.17H70Zm1.32,1.24v4.77h1a3.38,3.38,0,0,0,.81,0,1.07,1.07,0,0,0,.51-.34A1.38,1.38,0,0,0,74,80.2a5.07,5.07,0,0,0,.13-1.32A4.73,4.73,0,0,0,74,77.6a1.31,1.31,0,0,0-.38-.68.93.93,0,0,0-.6-.34A5.44,5.44,0,0,0,72,76.5Zm5,2.42a4.64,4.64,0,0,1,.3-1.83,3.09,3.09,0,0,1,.6-1,2.3,2.3,0,0,1,.85-.64,3.41,3.41,0,0,1,1.4-.3,2.88,2.88,0,0,1,2.3,1,4,4,0,0,1,.86,2.72,4.19,4.19,0,0,1-.86,2.77,3,3,0,0,1-2.3,1,2.9,2.9,0,0,1-2.3-1A4,4,0,0,1,76.33,78.92Zm1.37,0a3,3,0,0,0,.51,1.87,1.59,1.59,0,0,0,2.55,0,3,3,0,0,0,.51-1.91A3.1,3.1,0,0,0,80.8,77a1.75,1.75,0,0,0-2.64,0A2.89,2.89,0,0,0,77.7,78.88Zm6,3.62V75.26h1.28l2.68,4.86V75.26h1.19V82.5H87.49l-2.64-4.77V82.5Zm6.56,0V75.26H95V76.5H91.54v1.61h3.23v1.2H91.54v2h3.62V82.5Zm5.7-2.34L97.2,80a1.58,1.58,0,0,0,.47,1,1.28,1.28,0,0,0,.93.34,1.25,1.25,0,0,0,.94-.29,1,1,0,0,0,.34-.69.78.78,0,0,0-.13-.46,1.26,1.26,0,0,0-.46-.3c-.17-.05-.51-.17-1.07-.3a3.82,3.82,0,0,1-1.49-.72,2.06,2.06,0,0,1-.59-1.45,2.35,2.35,0,0,1,.29-1.07,1.9,1.9,0,0,1,.81-.72,2.86,2.86,0,0,1,1.28-.26,2.63,2.63,0,0,1,1.83.6,2.15,2.15,0,0,1,.64,1.62l-1.32,0a1,1,0,0,0-1.15-1,1.39,1.39,0,0,0-.89.25.54.54,0,0,0-.22.43.68.68,0,0,0,.17.47,4.27,4.27,0,0,0,1.24.47,6,6,0,0,1,1.4.51,1.79,1.79,0,0,1,.73.76,2.28,2.28,0,0,1,.25,1.11,2.41,2.41,0,0,1-.34,1.19,1.76,1.76,0,0,1-.85.81,3.45,3.45,0,0,1-1.41.26A2.64,2.64,0,0,1,96.69,82,2.92,2.92,0,0,1,95.92,80.16Zm6.35,2.34V75.26h1.32V82.5Zm8.43,0h-1.45l-.55-1.66h-2.6l-.55,1.66h-1.37l2.52-7.24h1.36Zm-2.43-2.85L107.38,77l-.9,2.69ZM61,72.45V64.87h2.51a3.88,3.88,0,0,1,1.41.17,1.49,1.49,0,0,1,.68.77A2.58,2.58,0,0,1,65.81,67a2.42,2.42,0,0,1-.38,1.4,1.74,1.74,0,0,1-1.19.69,4.79,4.79,0,0,1,.64.63A6.19,6.19,0,0,1,65.56,71l.72,1.49h-1.4L64,70.79l-.64-1.11a1.48,1.48,0,0,0-.39-.34,2,2,0,0,0-.59-.08h-.26v3.19Zm1.19-4.39h.9A4.55,4.55,0,0,0,64.11,68a.66.66,0,0,0,.34-.34,1,1,0,0,0,.13-.56,1,1,0,0,0-.17-.63.79.79,0,0,0-.43-.3H62.15ZM67,72.45V64.87h4.39v1.28H68.16v1.66h3v1.28h-3v2.08h3.32v1.28Zm5.54,0V64.87h1.92a7.38,7.38,0,0,1,1.4.09,1.59,1.59,0,0,1,.85.76A2.5,2.5,0,0,1,77,67.17a3.16,3.16,0,0,1-.17,1.19,2.16,2.16,0,0,1-.51.77,1.48,1.48,0,0,1-.64.34,4.47,4.47,0,0,1-1.23.13h-.77v2.85Zm1.19-6.3v2.13h.64a2.3,2.3,0,0,0,.94-.09.78.78,0,0,0,.38-.38,1.29,1.29,0,0,0,.13-.6,1.06,1.06,0,0,0-.17-.68.89.89,0,0,0-.47-.34,4.71,4.71,0,0,0-.89,0ZM78,64.87h1.19V69a9.69,9.69,0,0,0,0,1.28,1.28,1.28,0,0,0,.34.72,1.07,1.07,0,0,0,.81.3,1.05,1.05,0,0,0,.77-.26,1.16,1.16,0,0,0,.3-.68,10.3,10.3,0,0,0,0-1.28V64.87h1.19v4a11.94,11.94,0,0,1-.08,2,2,2,0,0,1-1.07,1.58,2.67,2.67,0,0,1-1.11.21,2.7,2.7,0,0,1-1.32-.26,2.44,2.44,0,0,1-.68-.64,3.6,3.6,0,0,1-.34-.85A12.11,12.11,0,0,1,78,68.92Zm6,0h2.38a7.83,7.83,0,0,1,1.07,0,1.75,1.75,0,0,1,.59.34,1.24,1.24,0,0,1,.47.64,1.9,1.9,0,0,1,.17.85,1.82,1.82,0,0,1-.21,1,1.53,1.53,0,0,1-.6.68,1.45,1.45,0,0,1,.81.69,2,2,0,0,1,.3,1.15,2.8,2.8,0,0,1-.17,1,2.42,2.42,0,0,1-.51.76,1.75,1.75,0,0,1-.81.39c-.21,0-.68,0-1.45,0H84Zm1.23,1.24v1.74h1.62a.79.79,0,0,0,.51-.3.8.8,0,0,0,.17-.59.85.85,0,0,0-.17-.56.71.71,0,0,0-.42-.25,5.66,5.66,0,0,0-1,0Zm0,3v2h1.11c.43,0,.68,0,.81,0a.69.69,0,0,0,.43-.34.93.93,0,0,0,.17-.64,1.09,1.09,0,0,0-.13-.55.87.87,0,0,0-.39-.39,5.13,5.13,0,0,0-1.06-.08Zm4.82,3.32V64.91h1.19v6.26h3v1.28Zm5,0V64.87h1.19v7.58Zm2.38,0V64.87H98.6v3.36L101,64.87h1.62l-2.26,2.94,2.35,4.64H101.2l-1.62-3.58-1,1.28v2.3ZM60.79,61.93v-7h1.28V58l2.47-3.1H66.2l-2.3,2.72,2.43,4.3H64.71l-1.66-3.28-1,1.15v2.13Zm6.17,0v-7h4.52V56.1H68.2v1.53h3.07v1.19H68.2v1.92h3.41v1.19Zm5.37-2.26,1.19-.17A2.36,2.36,0,0,0,74,60.57a1.49,1.49,0,0,0,1.79,0,1,1,0,0,0,.3-.68.78.78,0,0,0-.13-.43,1.82,1.82,0,0,0-.47-.3c-.13,0-.47-.17-1-.29a3.1,3.1,0,0,1-1.36-.73,1.89,1.89,0,0,1-.55-1.4,2.33,2.33,0,0,1,.25-1,1.85,1.85,0,0,1,.77-.72,3.09,3.09,0,0,1,1.19-.21,2.28,2.28,0,0,1,1.7.55,2.48,2.48,0,0,1,.64,1.58l-1.23,0a1.67,1.67,0,0,0-.34-.77,1.09,1.09,0,0,0-.81-.25,1.23,1.23,0,0,0-.81.25.61.61,0,0,0-.21.47.59.59,0,0,0,.21.43,3.28,3.28,0,0,0,1.11.47,5.49,5.49,0,0,1,1.32.51,1.89,1.89,0,0,1,.68.72,2.25,2.25,0,0,1,.25,1.11A2.06,2.06,0,0,1,77,61a2,2,0,0,1-.8.76,3.28,3.28,0,0,1-1.37.26,2.21,2.21,0,0,1-1.74-.6A2.83,2.83,0,0,1,72.33,59.67Zm6,2.26v-7h4.51V56.1H79.61v1.53h3.07v1.19H79.61v1.92H83v1.19Zm5.66,0v-7h1.28v2.76H87.7V54.91h1.24v7H87.7V58.87H85.32v3.06Zm11.71,0H94.39l-.51-1.57H91.41l-.51,1.57H89.62l2.34-7h1.32Zm-2.26-2.77-.85-2.64-.85,2.64Zm3.67,2.77V56.1H95.33V54.91h4.85V56.1H98.39v5.83Zm8.68,0h-1.32L104,60.36h-2.47L101,61.93H99.71l2.39-7h1.32Zm-2.25-2.77-.85-2.64-.81,2.64Zm2.94,2.77v-7h1.19l2.51,4.72V54.91h1.15v7h-1.23l-2.47-4.64v4.64Zm-39.27-10V44.3h4.6v1.28H68.5v1.7h3.11v1.28H68.5v2H72v1.28Zm5.75,0V44.3h1.87L76,49.45,77.1,44.3H79v7.58h-1.2v-6l-1.23,6H75.4l-1.24-6v6Zm7.24,0V44.3h4.6v1.28H81.53v1.7h3.11v1.28H81.53v2H85v1.28Zm5.79,0V44.3h1.24l2.55,5.07V44.3H91v7.58H89.7l-2.51-5v5Zm7.67,0v-6.3H91.88V44.3h4.89v1.28H94.94v6.3Zm3.87,0V44.3h4.6v1.28H98.86v1.7H102v1.28H98.86v2h3.45v1.28Zm5.79,0V44.3H106a4,4,0,0,1,1.45.21,1.52,1.52,0,0,1,.73.73,2.26,2.26,0,0,1,.29,1.19,2.23,2.23,0,0,1-.42,1.41,1.74,1.74,0,0,1-1.24.68,3.32,3.32,0,0,1,.69.64,11,11,0,0,1,.72,1.23l.77,1.49h-1.54l-.89-1.66c-.3-.6-.56-.94-.64-1.11a.79.79,0,0,0-.38-.29,1.22,1.22,0,0,0-.64-.09h-.26v3.15Zm1.28-4.38h.94a3,3,0,0,0,1.11-.09.59.59,0,0,0,.34-.3,1.29,1.29,0,0,0,.12-.59.89.89,0,0,0-.17-.6.59.59,0,0,0-.46-.3,4.07,4.07,0,0,0-.9,0h-1Zm4.94,4.38V44.3h1.28v7.58Zm8,0h-1.32l-.55-1.74H113.3l-.56,1.74h-1.32l2.43-7.58h1.32Zm-2.3-3-.85-2.77-.85,2.77Zm3,3V44.3h1.24l2.55,5.07V44.3h1.15v7.58H122l-2.56-5v5Z"/></g></svg>