<svg id="Layer_1" data-name="Layer 1" xmlns="http://www.w3.org/2000/svg" viewBox="0 0 153.38 62.51"><defs><style>.cls-1{fill:#f58220;}.cls-1,.cls-2,.cls-3,.cls-4,.cls-5,.cls-6,.cls-7,.cls-8{fill-rule:evenodd;}.cls-2{fill:#00aeef;}.cls-3{fill:#fff;}.cls-4{fill:#c8995f;}.cls-10,.cls-5{fill:#00a651;}.cls-6{fill:#f37321;}.cls-8,.cls-9{fill:#231f20;}</style></defs><path class="cls-1" d="M29.52,4.63A25.22,25.22,0,1,1,4.3,29.85,25.22,25.22,0,0,1,29.52,4.63Zm0,1.32A23.75,23.75,0,0,0,5.84,29.74,23.67,23.67,0,1,0,29.53,6ZM46.15,13A23.56,23.56,0,0,0,12.9,46.44,23.56,23.56,0,0,0,46.15,13Z"/><path class="cls-2" d="M29.49,5.46A24.35,24.35,0,1,1,5.16,29.8,24.34,24.34,0,0,1,29.49,5.46Zm0,.49A23.75,23.75,0,0,0,5.84,29.74,23.67,23.67,0,1,0,29.53,6ZM46.15,13A23.56,23.56,0,0,0,12.9,46.44,23.56,23.56,0,0,0,46.15,13Z"/><path class="cls-3" d="M29.53,6A23.81,23.81,0,0,1,46.28,46.56a23.74,23.74,0,0,1-33.5-33.64A23.54,23.54,0,0,1,29.53,6Z"/><path class="cls-4" d="M52.91,32.89c-.09.66-.2,1.31-.34,2a19.25,19.25,0,0,1-5.5-.07c.87,1.44,2.67,2,5,2-.12.39-.25.78-.39,1.16-5,0-7.25-3.25-11.84-2.69,1.08,1.25,3,1.59,4.45,2.49,2.14,1.3,4.28,2.48,6.48,2.34-.18.37-.38.74-.58,1.1a8.56,8.56,0,0,1-2.06.22c.29.51.63,1.11.9,1.67a25.37,25.37,0,0,1-1.8,2.33,20.45,20.45,0,0,0-8.62-2.47c1.59,2.59,4.12,3.77,7.51,3.64A21.16,21.16,0,0,1,44.53,48a8.47,8.47,0,0,0-2-.46A1.78,1.78,0,0,0,43.29,49l-.8.55c-1.68-1.63-3.73-3-5.38-4.64-2-2-2.41-4.85-5.59-6.28-.78,4.22,1.84,6,4.67,8.13,1.64,1.25,3.22,2.55,4.71,3.75-.35.2-.7.38-1.06.56-.71-.54-1.34-1.33-2-1.82a11.59,11.59,0,0,1,.67,2.43c-.32.14-.65.26-1,.38-1.33-2.66-4.69-3.61-6.84-6.55-1.26.77-1.57,2.58-1.08,5.23a6.71,6.71,0,0,1-2.46-5.85c-2.28.44-3.1,1.66-2.93,2.77.29,1.85,2.77,2.86,3.17,5.69-.58-.06-1.16-.13-1.73-.23a6.49,6.49,0,0,0-2-3.62,6.1,6.1,0,0,0-.9,3c-.48-.14-1-.3-1.43-.48.42-1.48.55-3-.14-3.42-.53.2-2.08,1.52-2.88,2-.59-.32-1.17-.67-1.73-1,1.91-1.1,3.25-2.16,3.62-3.18.15-.4.31-.9,0-1.17-.6-.2-1,.1-1.51.1s-1,0-1.51,0c-1.93-.06-3.84-.1-4.53,1-.31-.32-.61-.64-.9-1a4.57,4.57,0,0,1,1-1.18,3.63,3.63,0,0,0-1.68.31c-.34-.44-.67-.89-1-1.35.54-.16,1.24,0,1.75-.26a7.77,7.77,0,0,1-2.31-.6q-.58-.95-1.08-2c5.9,2.39,11.55,3.61,15.88-1.51-4.1,2.13-10.65-.6-16,1.35-.21-.43-.4-.88-.59-1.33a6.58,6.58,0,0,0,3.59-1.87A14.68,14.68,0,0,0,7,36.9c-.11-.34-.21-.69-.3-1a6.6,6.6,0,0,0,2-.5,8.62,8.62,0,0,1-2.33-.88c-.1-.53-.19-1.07-.27-1.61a14.29,14.29,0,0,0,4,.6c2.39-.19,4.82-1.76,7-1.78a24.41,24.41,0,0,1,3.45.16,18.46,18.46,0,0,0,3.17.46c2.19-.07,2.67-1.17,3.41-2.61l2.24-.35c.74.09,2-.45,2.21.28.6,1.79,3,3.09,5.84,3,1.83-.07,3.73-1.32,6-1.38,3.61-.1,4,2.16,9.51,1.64ZM16.06,37.74c-1.33-1.08-2.29-1.29-2.46.42.66-.58,1.72,0,2.46-.42Zm8.29-.16c0-1.56-1.49-1.46-2.44-.3a4.07,4.07,0,0,1,2.44.3ZM23,36.06c-4-2.17-6.82-2.6-7.83-.24,2.23,1.47,4.91,1.31,7.83.24Zm4.73,3.2A6,6,0,0,0,24,44.75c2.31-.44,3.69-2.08,3.72-5.49Zm5.76-2a7.29,7.29,0,0,0,6.67,4.24c-1.27-2.7-3.6-4-6.67-4.24Zm7.13,2.19C42.09,42.16,44,44,46.46,44.21,45.08,41.27,43.13,39.71,40.64,39.42Z"/><path class="cls-5" d="M52.78,26.22a11.8,11.8,0,0,1-8.09,3.2c-6.13.3-11.06-3.18-11.5,1.11-2.48-.39-5.08.31-7.56-.09.11-1.83-1.12-2.2-3.1-2-1.52.18-3.49.79-5.63,1-3.55.33-7.67-.19-10.63-3.16.09-.61.2-1.22.33-1.81a8.1,8.1,0,0,0,4.26,2.39C9.38,25.58,9,23.72,7,22.82l.3-.92a15.05,15.05,0,0,1,2.13,1.35c.9.83,1.46,2.06,2.36,2.89l.27-2.42c-1.52-1.49-3-2.4-4.57-2.32.15-.41.31-.81.49-1.21a7.4,7.4,0,0,1,4.29,2.3l.06-1a10.69,10.69,0,0,1-3.11-3.71c.29-.5.6-1,.93-1.46A7.18,7.18,0,0,0,13,19.84l1.21-1.18A7.75,7.75,0,0,1,11.17,15c.4-.49.81-1,1.24-1.43a6.89,6.89,0,0,0,2.07,3.1l2.21-2.16a15.74,15.74,0,0,1-3.24-2c.36-.34.72-.66,1.1-1a5.88,5.88,0,0,0,3.06,1.3l1.32-.95a12,12,0,0,1-1.56-2.37c.39-.24.79-.46,1.19-.68l1.12,1.42c0-.67-.07-1.31-.08-1.94.45-.2.9-.4,1.36-.58a16.54,16.54,0,0,0,0,2.94l2.25-1.26a5.54,5.54,0,0,1-1.8-1.84c.48-.18,1-.34,1.46-.49A5.13,5.13,0,0,0,25,8.75l2-.08a3,3,0,0,0-.89-2.3,23.38,23.38,0,0,1,2.38-.22A3.87,3.87,0,0,1,29.6,8.07a2.74,2.74,0,0,1,.94-1.92c.75,0,1.49.09,2.22.19a3.19,3.19,0,0,0-1.24,1.72l1.75.43A4.25,4.25,0,0,1,35,6.77a23.77,23.77,0,0,1,2.4.72,6.34,6.34,0,0,0-2.3,1.83l3.21,1.8c1-.62,2.41-.87,3.1-1.75.5.3,1,.61,1.46.93A8.12,8.12,0,0,1,40.43,12l1,.87c.78-.78,2.49-.35,3.46-1,.43.37.84.75,1.23,1.15h0c-1.08,1-2.45.78-3.59,1.26l1.6,2a6.33,6.33,0,0,1,2.75-2.48c.36.4.71.81,1.05,1.24-.89.26-2,1.42-3.09,2.86l.42.51a7.12,7.12,0,0,1,4.45-.78q.4.67.75,1.38a6.91,6.91,0,0,0-4.67.75l1,3.12a11.37,11.37,0,0,0,3.86-3.41c.25.51.47,1,.68,1.56a19.58,19.58,0,0,1-4.51,3.6l.1,1.92a9.77,9.77,0,0,0,5.31-2.76A23.5,23.5,0,0,1,52.78,26.22Z"/><path class="cls-2" d="M27.34,30.47l2.25-1.11,2.24.91c-1.65,1.82-.63,3.64,2.17,3.83,1.5.11,3.76-.76,5.93-.94a9.15,9.15,0,0,1,2.68.17,5.4,5.4,0,0,1,2.55,1.73A7.85,7.85,0,0,0,50,36.94a6.27,6.27,0,0,1-4.7-1.42c-.62-.46-1.12-1-1.69-1.35a3.39,3.39,0,0,0-1.33-.4,10.8,10.8,0,0,0-3.35.11c-.72.14-1.33.41-2,.56-1,.24-2.13.32-3.21.53a27.6,27.6,0,0,1,6.91,2.11c2.25,1,2.39,2.19,6.37,3.19a8.87,8.87,0,0,1-4.86-1.76A10.76,10.76,0,0,0,40,37.39a32.46,32.46,0,0,0-8.81-2.27c0,.32.43.62,1,1.23a33,33,0,0,1,2.6,3.3,4.62,4.62,0,0,0,1.72,1.08,15.76,15.76,0,0,0,5.57,1.81,14.81,14.81,0,0,1-6.41-1.68c.75.84,1.12,1.83,1.86,2.66s2,1.68,2.84,2.6a23.28,23.28,0,0,1-3.29-2.3c-.94-.87-1.27-2-2.16-3-1.63-1.73-3-3.71-4.69-5.44-.43,2.77-.69,5.46-.88,8.12a51.24,51.24,0,0,0-.84-8.25,18.06,18.06,0,0,1-2.94,4.22A20.84,20.84,0,0,1,18,49.44a27.12,27.12,0,0,0,6.68-9c-3.66,3.08-8.06,3.68-12.79,3.17,7-.18,13.05-1.81,15.61-8.62a13.48,13.48,0,0,1-4.24-.61c-1.53-.5-2.82-1.22-4.37-1.18a7.44,7.44,0,0,0-3.43.67c-.58.37-.87,1-1.41,1.4a4,4,0,0,1-4-.08c1.7.34,2.79.33,3.58-.14s1-1.16,1.81-1.62a8.89,8.89,0,0,1,5.28-.65c2.39.64,3.84,1.36,5.08,1.18C28.21,33.57,28.84,31.44,27.34,30.47Z"/><path class="cls-6" d="M11.85,28.27a18.51,18.51,0,0,1-.18-2.6,17.85,17.85,0,1,1,35.69,0,18.51,18.51,0,0,1-.18,2.6c-6.52,2-13.47-3.52-14.66,1.49-2-.43-1.85-2.47-1.64-6.18,0-.11.24,0,.26-.13,5.47,4.41,10.15-4.19,3-5.74,3.77-2.42.9-6.14-2.16-5,1.15-5.49-6.4-4.42-5,0-3.56-1.09-5.45,3.2-2,5-7.12,1.34-2.77,10.19,3.1,5.72.61,4.53-.14,6.07-1.44,6.41C25.2,24.82,19.6,29.83,11.85,28.27Z"/><path class="cls-7" d="M28.06,30.55c-3.79,4.08-5,1.55-9,1.61-4.21.07-5.9,3.41-12.76,1.52C6.13,32.92,6,32.15,6,31.36c3.32,2.36,5.77.81,9.45,0a12.23,12.23,0,0,1,3.72-.17c1.23.15,2.44.53,3.51.65,1.68.18,2.94-.3,3-1.4a3,3,0,0,0,3.13-3.23l0-5.55h-4.3c-.06-.12-.06-.22.09-.29,2.63-.61,4.38-2.15,4.2-5.74-2.09.55-3.28,0-3.73-1.47,2.45.9,4.11.67,4.23-1.79a1.88,1.88,0,0,1-1.78-.78,2,2,0,0,0,2.14-.79,1.75,1.75,0,0,0,2,.8,2.21,2.21,0,0,1-1.75.77c.06,2.32,1.68,2.7,4.34,1.7-.63,1.65-2,2-3.86,1.51-.05,3.15,1.2,5.25,4.33,5.8a.47.47,0,0,1,.1.32l-4.38,0,0,5.58a3.13,3.13,0,0,0,2.84,3.18c1.76,2.3,5.27,2,8.48.51,3-1.36,5.85,2.49,11.39.26,0,.76-.13,1.51-.25,2.24-5.35,1.29-7.12-1.81-10.27-1.53-2.27.2-4.11,1.21-5.86,1.32-2.12.14-3.9-1.18-5.58-3-1.29,1.85-.5,3.44,2.71,4.39a9.56,9.56,0,0,1-2.73-.87c-.39-.2-.65-.35-.82-.24s-.35.84-.41,1.11a22.41,22.41,0,0,0-.39,4.07,27.64,27.64,0,0,0-.35-4.46c-.06-.29-.14-.63-.35-.75-.38-.19-.94.36-1.26.49a4.94,4.94,0,0,1-1.8.42c.81-.24,2.34-.87,2.73-1.7A1.79,1.79,0,0,0,28.06,30.55Z"/><path class="cls-7" d="M11.64,28.29a22.59,22.59,0,0,1-.12-2.3A17.87,17.87,0,0,1,16.4,13.12,18.37,18.37,0,0,1,27.57,7.77c.66-.07,1.32-.11,2-.12s1.13,0,1.68.07A17.73,17.73,0,0,1,42.43,12.8c3,3.06,5,7.48,5,13.28,0,.72,0,1.46-.08,2.21l-.42,0c.05-.75.08-1.47.07-2.17,0-5.67-2-10-4.91-13a17.26,17.26,0,0,0-10.92-5c-.56-.05-1.11-.07-1.65-.07s-1.3.05-1.95.12A18,18,0,0,0,16.7,13.44,17.36,17.36,0,0,0,11.94,26c0,.74.05,1.49.13,2.27Z"/><path class="cls-8" d="M25.62,29.7a1.88,1.88,0,0,0,2.2-1.27A11.19,11.19,0,0,0,28,23.65c-2,1.35-3.79,1.31-5,.6a3.42,3.42,0,0,1-1.47-1.68,3.26,3.26,0,0,1-.15-2.18,4.08,4.08,0,0,1,3.25-2.73A2.83,2.83,0,0,1,23,15.38a2.73,2.73,0,0,1,.19-1.2,2.93,2.93,0,0,1,3.65-1.68,2.75,2.75,0,0,1,.65-2.9,3,3,0,0,1,1.93-.77,2.78,2.78,0,0,1,2,.62,2.94,2.94,0,0,1,.78,3.06,3.33,3.33,0,0,1,3,.61,2.74,2.74,0,0,1,.77,1,2.34,2.34,0,0,1,.17,1.26,3.18,3.18,0,0,1-1.65,2.2A3.83,3.83,0,0,1,37.67,20a3.48,3.48,0,0,1-.06,2.34,3.58,3.58,0,0,1-1.52,1.83c-1.21.72-3,.77-5-.59a13.81,13.81,0,0,0,.07,4.58,2,2,0,0,0,2.17,1.51V30a2.19,2.19,0,0,1-2.42-1.69,15,15,0,0,1,0-4.9l0-.22.17.12c2,1.42,3.76,1.4,4.92.7a3.3,3.3,0,0,0,1.41-1.7,3.18,3.18,0,0,0,.06-2.15C37.05,19,36,18.05,34,17.82l0-.25a3.14,3.14,0,0,0,1.85-2.2,2,2,0,0,0-.15-1.12,2.48,2.48,0,0,0-.7-.92,3.13,3.13,0,0,0-3-.51l-.22.07.06-.23a2.79,2.79,0,0,0-.64-3,2.59,2.59,0,0,0-1.79-.56,2.77,2.77,0,0,0-1.77.71,2.54,2.54,0,0,0-.5,2.86l.09.27-.25-.1a2.75,2.75,0,0,0-2.95.52,2.62,2.62,0,0,0-.62.93,2.49,2.49,0,0,0-.18,1.08A2.69,2.69,0,0,0,25,17.59l0,.25c-2,.4-3.1,1.46-3.42,2.62a3,3,0,0,0,.14,2A3.34,3.34,0,0,0,23.07,24c1.18.68,2.93.7,4.92-.7l.17-.12,0,.21a11.73,11.73,0,0,1-.14,5.11A2.09,2.09,0,0,1,25.59,30Z"/><path class="cls-9" d="M64.78,14.83l-1.08,1.3v2.28H61.91V10.19H63.7V14.1h.07l1.17-1.59,1.85-2.32h2l-2.77,3.38,3,4.84H67Z"/><path class="cls-9" d="M69.34,15.31c0-2,1-3.23,2.9-3.23,2.05,0,2.87,1.49,2.87,3.16v.52h-4v.1a1.22,1.22,0,0,0,1.37,1.33A2,2,0,0,0,74,16.45l.87,1.08a3.33,3.33,0,0,1-2.59,1C70.41,18.56,69.34,17.29,69.34,15.31Zm1.8-.67v.1h2.17v-.11c0-.75-.34-1.26-1-1.26A1.13,1.13,0,0,0,71.14,14.64Z"/><path class="cls-9" d="M76.35,18.41V12.23h1.74v1h.07a1.66,1.66,0,0,1,1.67-1.2,1.71,1.71,0,0,1,1.73,1.25h0a1.92,1.92,0,0,1,1.88-1.25c1.19,0,1.85.9,1.85,2.46v3.87H83.59V14.68c0-.8-.27-1.18-.85-1.18a.93.93,0,0,0-1,.91v4H80V14.68c0-.8-.28-1.18-.85-1.18a.94.94,0,0,0-1,.91v4Z"/><path class="cls-9" d="M86.5,15.31c0-2,1-3.23,2.9-3.23,2,0,2.87,1.49,2.87,3.16v.52h-4v.1a1.22,1.22,0,0,0,1.37,1.33,2,2,0,0,0,1.52-.74l.87,1.08a3.33,3.33,0,0,1-2.59,1C87.57,18.56,86.5,17.29,86.5,15.31Zm1.8-.67v.1h2.17v-.11c0-.75-.34-1.26-1-1.26A1.13,1.13,0,0,0,88.3,14.64Z"/><path class="cls-9" d="M93.51,18.41V12.23h1.74v1h.07a1.71,1.71,0,0,1,1.73-1.2c1.26,0,1.93.9,1.93,2.46v3.87H97.23V14.68c0-.79-.22-1.18-.86-1.18s-1.12.29-1.12.91v4Z"/><path class="cls-9" d="M102.7,18.41a1.63,1.63,0,0,1-1.84-1.8v-3H100V12.23h.44c.47,0,.61-.24.61-.66v-1h1.57v1.68h1.22v1.35h-1.22v3.48h1.13v1.35Z"/><path class="cls-9" d="M105.05,18.41V12.23h1.74v1.34h.06a1.55,1.55,0,0,1,1.58-1.34h.31v1.62h-.44c-1,0-1.51.23-1.51,1v3.61Z"/><path class="cls-9" d="M109.67,10.71v-.26c0-.5.3-.86,1-.86s1,.36,1,.86v.26c0,.49-.3.86-1,.86S109.67,11.2,109.67,10.71Zm.14,1.52h1.74v6.18h-1.74Z"/><path class="cls-9" d="M117.75,18.41a1.18,1.18,0,0,1-1.18-1.08h-.07a1.67,1.67,0,0,1-1.81,1.23,1.72,1.72,0,0,1-1.92-1.81c0-1.31,1-1.93,2.65-1.93h1v-.39c0-.6-.3-1-1-1a1.54,1.54,0,0,0-1.33.73l-1-.92a2.7,2.7,0,0,1,2.5-1.18c1.75,0,2.64.81,2.64,2.27v2.71h.58v1.35Zm-1.35-1.87v-.73h-.85c-.67,0-1,.25-1,.7v.17c0,.45.3.66.82.66S116.4,17.11,116.4,16.54Z"/><path class="cls-9" d="M119.88,18.41V12.23h1.75v1h.07a1.69,1.69,0,0,1,1.72-1.2c1.26,0,1.93.9,1.93,2.46v3.87h-1.74V14.68c0-.79-.22-1.18-.86-1.18s-1.12.29-1.12.91v4Z"/><path class="cls-9" d="M61.73,29.73V23.15h1.43v5.31h2.51v1.27Z"/><path class="cls-9" d="M66.54,23.57v-.21c0-.4.24-.69.81-.69s.81.29.81.69v.21c0,.39-.25.68-.81.68S66.54,24,66.54,23.57Zm.11,1.21h1.4v4.95h-1.4Z"/><path class="cls-9" d="M69.35,29.73V24.78h1.39v.84h.06a1.34,1.34,0,0,1,1.37-.95c1,0,1.55.72,1.55,2v3.1H72.33v-3c0-.63-.18-.94-.69-.94s-.9.24-.9.73v3.2Z"/><path class="cls-9" d="M76.87,31.73c-1.72,0-2.35-.44-2.35-1.15a.93.93,0,0,1,.93-.95v-.1a.84.84,0,0,1-.72-.87c0-.51.46-.78.92-.87v0a1.45,1.45,0,0,1-.88-1.41c0-1,.7-1.67,2.12-1.67a3.61,3.61,0,0,1,.84.09v-.18a.66.66,0,0,1,.74-.75h.78v1H78.16v.05A1.47,1.47,0,0,1,79,26.34c0,1-.69,1.64-2.12,1.64a3.36,3.36,0,0,1-.88-.11.48.48,0,0,0-.21.4c0,.23.17.38.59.38h1.43c1.21,0,1.73.52,1.73,1.44S78.89,31.73,76.87,31.73Zm.6-1.9H75.78a.6.6,0,0,0-.18.45c0,.35.28.52,1,.52h.57c.75,0,1-.17,1-.52S78,29.83,77.47,29.83Zm.24-3.45v-.11c0-.43-.27-.68-.82-.68s-.82.25-.82.68v.11c0,.44.27.68.82.68S77.71,26.82,77.71,26.38Z"/><path class="cls-9" d="M80.17,22.76h1.4v4.11h.05l.61-.91,1-1.18h1.55l-1.65,1.9L85,29.73H83.3l-1.11-2.09-.62.7v1.39h-1.4Z"/><path class="cls-9" d="M88.44,28.9h0a1.33,1.33,0,0,1-1.38.94c-1,0-1.55-.7-1.55-1.95V24.78h1.4v3c0,.6.19.94.7.94a.79.79,0,0,0,.88-.71V24.78h1.39v4.95H88.44Z"/><path class="cls-9" d="M91.14,29.73V24.78h1.39v.84h.06A1.34,1.34,0,0,1,94,24.67c1,0,1.55.72,1.55,2v3.1h-1.4v-3c0-.63-.18-.94-.68-.94s-.9.24-.9.73v3.2Z"/><path class="cls-9" d="M98.66,31.73c-1.72,0-2.35-.44-2.35-1.15a.93.93,0,0,1,.93-.95v-.1a.84.84,0,0,1-.72-.87c0-.51.46-.78.92-.87v0a1.45,1.45,0,0,1-.88-1.41c0-1,.7-1.67,2.12-1.67a3.61,3.61,0,0,1,.84.09v-.18a.66.66,0,0,1,.74-.75H101v1H100v.05a1.49,1.49,0,0,1,.85,1.42c0,1-.69,1.64-2.12,1.64a3.36,3.36,0,0,1-.88-.11.48.48,0,0,0-.22.4c0,.23.17.38.6.38h1.43c1.21,0,1.72.52,1.72,1.44S100.68,31.73,98.66,31.73Zm.6-1.9H97.57a.6.6,0,0,0-.18.45c0,.35.28.52,1,.52H99c.75,0,1-.17,1-.52S99.82,29.83,99.26,29.83Zm.24-3.45v-.11c0-.43-.28-.68-.82-.68s-.82.25-.82.68v.11c0,.44.27.68.82.68S99.5,26.82,99.5,26.38Z"/><path class="cls-9" d="M105.6,29.73a.94.94,0,0,1-.94-.87h-.06a1.34,1.34,0,0,1-1.45,1,1.38,1.38,0,0,1-1.54-1.44c0-1,.81-1.54,2.12-1.54h.78v-.32c0-.48-.23-.78-.82-.78a1.23,1.23,0,0,0-1.06.59l-.83-.74a2.17,2.17,0,0,1,2-.94c1.39,0,2.11.64,2.11,1.81v2.17h.46v1.08Zm-1.09-1.5v-.58h-.67c-.54,0-.82.19-.82.55v.14c0,.36.23.53.65.53S104.51,28.68,104.51,28.23Z"/><path class="cls-9" d="M107.31,29.73V24.78h1.39v.84h.06a1.34,1.34,0,0,1,1.37-.95c1,0,1.55.72,1.55,2v3.1h-1.4v-3c0-.63-.18-.94-.68-.94s-.9.24-.9.73v3.2Z"/><path class="cls-9" d="M119.16,27h-2.5v2.7h-1.43V23.15h1.43v2.62h2.5V23.15h1.44v6.58h-1.44Z"/><path class="cls-9" d="M121.86,23.57v-.21c0-.4.25-.69.81-.69s.81.29.81.69v.21c0,.39-.24.68-.81.68S121.86,24,121.86,23.57Zm.12,1.21h1.39v4.95H122Z"/><path class="cls-9" d="M127.71,28.9h0a1.35,1.35,0,0,1-1.33.94c-1.25,0-1.9-.91-1.9-2.59s.65-2.58,1.9-2.58a1.35,1.35,0,0,1,1.33.94h0V22.76h1.39v7h-1.39Zm0-.91V26.53c0-.46-.39-.73-.92-.73a.93.93,0,0,0-.91,1v.85a.93.93,0,0,0,.91,1C127.32,28.71,127.71,28.44,127.71,28Z"/><path class="cls-9" d="M133.33,28.9h-.05a1.35,1.35,0,0,1-1.39.94c-1,0-1.54-.7-1.54-1.95V24.78h1.39v3c0,.6.2.94.71.94a.79.79,0,0,0,.88-.71V24.78h1.39v4.95h-1.39Z"/><path class="cls-9" d="M136,24.78h1.39v.83h.05a1.33,1.33,0,0,1,1.32-.94c1.26,0,1.91.9,1.91,2.58s-.65,2.59-1.91,2.59a1.33,1.33,0,0,1-1.32-.94h-.05v2.71H136Zm3.22,2.9v-.85a.94.94,0,0,0-.92-1c-.52,0-.91.27-.91.73V28c0,.45.39.72.91.72A.93.93,0,0,0,139.25,27.68Z"/><path class="cls-9" d="M64.69,40.21h0a1.35,1.35,0,0,1-1.33.95c-1.25,0-1.9-.92-1.9-2.59S62.06,36,63.31,36a1.34,1.34,0,0,1,1.33,1h0V34.07h1.39v7H64.69Zm0-.91V37.84c0-.45-.39-.73-.92-.73a.93.93,0,0,0-.91,1V39a.93.93,0,0,0,.91,1C64.3,40,64.69,39.75,64.69,39.3Z"/><path class="cls-9" d="M71,41a.94.94,0,0,1-.94-.86H70a1.33,1.33,0,0,1-1.45,1,1.38,1.38,0,0,1-1.53-1.45c0-1,.81-1.54,2.12-1.54H70v-.31c0-.48-.24-.78-.82-.78a1.23,1.23,0,0,0-1.07.58l-.82-.73a2.14,2.14,0,0,1,2-1c1.4,0,2.11.64,2.11,1.81V40h.46V41ZM70,39.55V39h-.68c-.54,0-.82.2-.82.56v.14c0,.36.24.53.65.53S70,40,70,39.55Z"/><path class="cls-9" d="M72.75,41V36.1h1.4v.84h0a1.36,1.36,0,0,1,1.38-1c1,0,1.54.72,1.54,2V41H75.73v-3c0-.63-.18-1-.69-1s-.89.24-.89.73V41Z"/><path class="cls-9" d="M83,38.18l-.86,1V41H80.67V34.47H82.1V37.6h.06l.93-1.28,1.48-1.85h1.62L84,37.17,86.39,41H84.7Z"/><path class="cls-9" d="M86.61,38.57c0-1.57.83-2.59,2.32-2.59a2.24,2.24,0,0,1,2.3,2.53v.41H88.05V39a1,1,0,0,0,1.1,1.06,1.56,1.56,0,0,0,1.21-.59l.7.87a2.67,2.67,0,0,1-2.07.82A2.29,2.29,0,0,1,86.61,38.57ZM88.05,38v.07h1.74V38c0-.6-.28-1-.83-1A.91.91,0,0,0,88.05,38Z"/><path class="cls-9" d="M92.22,34.07h1.39v2.87h.06a1.36,1.36,0,0,1,1.38-1c1,0,1.54.72,1.54,2V41H95.2v-3c0-.63-.18-1-.69-1s-.9.24-.9.73V41H92.22Z"/><path class="cls-9" d="M100.76,40.21h-.05a1.34,1.34,0,0,1-1.38.95c-1,0-1.55-.71-1.55-1.95V36.1h1.4v3c0,.61.2,1,.7,1a.79.79,0,0,0,.88-.72V36.1h1.4V41h-1.4Z"/><path class="cls-9" d="M105.19,41a1.3,1.3,0,0,1-1.47-1.44V37.18H103V36.1h.34c.38,0,.49-.19.49-.53v-.81h1.26V36.1h1v1.08h-1V40h.9V41Z"/><path class="cls-9" d="M110.73,41a1,1,0,0,1-1-.86h0a1.34,1.34,0,0,1-1.45,1,1.39,1.39,0,0,1-1.54-1.45c0-1,.81-1.54,2.12-1.54h.78v-.31c0-.48-.23-.78-.82-.78a1.21,1.21,0,0,0-1.06.58l-.83-.73a2.14,2.14,0,0,1,2-1c1.39,0,2.11.64,2.11,1.81V40h.46V41Zm-1.09-1.49V39H109c-.53,0-.82.2-.82.56v.14c0,.36.24.53.65.53S109.64,40,109.64,39.55Z"/><path class="cls-9" d="M112.44,41V36.1h1.39v.84h.06a1.35,1.35,0,0,1,1.37-1c1,0,1.55.72,1.55,2V41h-1.4v-3c0-.63-.18-1-.69-1s-.89.24-.89.73V41Z"/><path class="cls-9" d="M121.71,41a.94.94,0,0,1-.94-.86h-.06a1.34,1.34,0,0,1-1.45,1,1.39,1.39,0,0,1-1.54-1.45c0-1,.82-1.54,2.12-1.54h.79v-.31c0-.48-.24-.78-.82-.78a1.23,1.23,0,0,0-1.07.58l-.83-.73a2.15,2.15,0,0,1,2-1c1.4,0,2.11.64,2.11,1.81V40h.46V41Zm-1.08-1.49V39H120c-.54,0-.82.2-.82.56v.14c0,.36.23.53.65.53S120.63,40,120.63,39.55Z"/><path class="cls-9" d="M123.42,41V36.1h1.39v.84h.06a1.35,1.35,0,0,1,1.38-1c1,0,1.54.72,1.54,2V41H126.4v-3c0-.63-.18-1-.69-1s-.9.24-.9.73V41Z"/><path class="cls-10" d="M63.16,52.36H61.73V45.78h3.12a1.93,1.93,0,0,1,2,2.1,1.89,1.89,0,0,1-1.2,1.9l1.29,2.58H65.34L64.19,50h-1Zm1.51-3.62a.62.62,0,0,0,.69-.65v-.42a.61.61,0,0,0-.69-.64H63.16v1.71Z"/><path class="cls-10" d="M67.56,49.88c0-1.56.83-2.58,2.31-2.58a2.23,2.23,0,0,1,2.3,2.52v.42H69v.07a1,1,0,0,0,1.09,1.07,1.59,1.59,0,0,0,1.22-.6l.69.87a2.66,2.66,0,0,1-2.07.82A2.29,2.29,0,0,1,67.56,49.88ZM69,49.34v.08h1.73v-.09c0-.6-.27-1-.83-1A.91.91,0,0,0,69,49.34Z"/><path class="cls-10" d="M73.17,47.41h1.39v.83h0a1.34,1.34,0,0,1,1.33-.94c1.25,0,1.9.9,1.9,2.58s-.65,2.59-1.9,2.59a1.35,1.35,0,0,1-1.33-.94h0v2.71H73.17Zm3.22,2.9v-.85a.93.93,0,0,0-.92-1c-.52,0-.91.27-.91.72v1.46c0,.46.39.73.91.73A.94.94,0,0,0,76.39,50.31Z"/><path class="cls-10" d="M81.82,51.53h0a1.33,1.33,0,0,1-1.38.94c-1,0-1.55-.71-1.55-1.95V47.41h1.4v3c0,.6.19.94.7.94a.79.79,0,0,0,.88-.72V47.41h1.39v5H81.82Z"/><path class="cls-10" d="M84.52,45.38h1.39v2.86h0a1.34,1.34,0,0,1,1.33-.94c1.25,0,1.9.9,1.9,2.58s-.65,2.59-1.9,2.59A1.35,1.35,0,0,1,86,51.53h0v.83H84.52Zm3.22,4.93v-.85a.93.93,0,0,0-.91-1c-.53,0-.92.27-.92.72v1.46c0,.46.39.73.92.73A.93.93,0,0,0,87.74,50.31Z"/><path class="cls-10" d="M91.64,52.36A1.21,1.21,0,0,1,90.25,51V45.38h1.39v5.89h.63v1.09Z"/><path class="cls-10" d="M93,46.2V46c0-.4.25-.69.81-.69s.81.29.81.69v.21c0,.39-.24.68-.81.68S93,46.59,93,46.2Zm.12,1.21H94.5v5H93.11Z"/><path class="cls-10" d="M95.8,45.38h1.4V49.5h0l.62-.91,1-1.18h1.54L98.75,49.3l1.84,3.06H98.93l-1.11-2.09L97.2,51v1.4H95.8Z"/><path class="cls-10" d="M103.29,52.36V51.22h.85v-4.3h-.85V45.78h3.13v1.14h-.85v4.3h.85v1.14Z"/><path class="cls-10" d="M107.54,52.36v-5h1.4v.84h0a1.35,1.35,0,0,1,1.38-1c1,0,1.54.71,1.54,2v3.1h-1.39v-3c0-.63-.18-.94-.69-.94s-.89.23-.89.72v3.21Z"/><path class="cls-10" d="M116.2,51.53h0a1.35,1.35,0,0,1-1.33.94c-1.25,0-1.9-.91-1.9-2.59s.65-2.58,1.9-2.58a1.34,1.34,0,0,1,1.33.94h0V45.38h1.39v7H116.2Zm0-.92V49.15c0-.45-.39-.72-.92-.72a.92.92,0,0,0-.91,1v.85a.93.93,0,0,0,.91,1C115.81,51.34,116.2,51.07,116.2,50.61Z"/><path class="cls-10" d="M118.58,49.88a2.33,2.33,0,1,1,4.64,0,2.33,2.33,0,1,1-4.64,0Zm3.19.51v-1c0-.62-.32-1-.87-1s-.87.36-.87,1v1c0,.62.32,1,.87,1S121.77,51,121.77,50.39Z"/><path class="cls-10" d="M124.21,52.36v-5h1.4v.84h0a1.35,1.35,0,0,1,1.38-1c1,0,1.54.71,1.54,2v3.1h-1.39v-3c0-.63-.18-.94-.69-.94s-.89.23-.89.72v3.21Z"/><path class="cls-10" d="M129.52,49.88a2.27,2.27,0,0,1,2.32-2.58,2.23,2.23,0,0,1,2.3,2.52v.42H131v.07a1,1,0,0,0,1.09,1.07,1.57,1.57,0,0,0,1.22-.6l.7.87a2.7,2.7,0,0,1-2.08.82A2.29,2.29,0,0,1,129.52,49.88Zm1.44-.54v.08h1.73v-.09c0-.6-.27-1-.82-1A.91.91,0,0,0,131,49.34Z"/><path class="cls-10" d="M134.72,51.58l.82-.82a1.75,1.75,0,0,0,1.31.63c.55,0,.74-.18.74-.47s-.15-.37-.5-.42l-.54-.06c-1.12-.15-1.67-.64-1.67-1.53s.75-1.61,1.93-1.61a2.48,2.48,0,0,1,2,.77l-.8.82a1.65,1.65,0,0,0-1.14-.51c-.47,0-.66.17-.66.42s.12.4.52.46l.56.07c1.07.14,1.63.63,1.63,1.49s-.85,1.65-2.12,1.65A2.58,2.58,0,0,1,134.72,51.58Z"/><path class="cls-10" d="M139.77,46.2V46c0-.4.24-.69.81-.69s.81.29.81.69v.21c0,.39-.25.68-.81.68S139.77,46.59,139.77,46.2Zm.11,1.21h1.4v5h-1.4Z"/><path class="cls-10" d="M146.23,52.36a.94.94,0,0,1-.94-.87h-.06a1.33,1.33,0,0,1-1.45,1A1.37,1.37,0,0,1,142.25,51c0-1.05.81-1.55,2.12-1.55h.78v-.31c0-.48-.24-.78-.82-.78a1.23,1.23,0,0,0-1.07.58l-.82-.73a2.15,2.15,0,0,1,2-.94c1.4,0,2.11.64,2.11,1.81v2.16H147v1.09Zm-1.08-1.5v-.58h-.68c-.54,0-.82.19-.82.55V51c0,.36.24.53.65.53S145.15,51.31,145.15,50.86Z"/></svg>