<svg id="Layer_1" data-name="Layer 1" xmlns="http://www.w3.org/2000/svg" viewBox="0 0 128 128"><defs><style>.cls-1{fill:#00b8b0;}</style></defs><g id="Layer_1-2" data-name="Layer 1"><path id="Path_1" data-name="Path 1" class="cls-1" d="M27.9,66.32c-6.72,0-10.61-3.15-10.61-10.42V53.45C17.29,46.14,21.18,43,27.9,43s10.7,3.15,10.7,10.45V55.9C38.59,63.17,34.71,66.32,27.9,66.32Zm3.92-12.87c0-3.93-1.17-5.29-3.93-5.29S24,49.53,24,53.45V55.9c0,3.93,1.16,5.29,3.88,5.29s3.93-1.37,3.93-5.29Z"/><path id="Path_2" data-name="Path 2" class="cls-1" d="M53.25,65.87H43.61L37.08,43.72h7l3.07,12.05c.5,2.06.93,4.2,1.36,6,.39-1.79.82-3.93,1.32-6l3-12.05h7Z"/><path id="Path_3" data-name="Path 3" class="cls-1" d="M4.44,92.4h6.77V75h5.18V70H11.22V68.5c0-1.76.1-2.62,1.61-2.62h3.63V35.58H9.69V60.8c-3.85.46-5.25,3.53-5.25,7.52Z"/><path id="Path_4" data-name="Path 4" class="cls-1" d="M43.27,92.4h-7c-4.2,0-6.49-1.54-6.49-5.74V84.94c0-5.91,4.51-6.61,10.81-6.61H42.7v-.48c0-2.72-1-2.87-4.46-2.87H30.58V70H40c6.92,0,9.46,1.8,9.46,7.82V92.42ZM42.69,83h-2c-3.08,0-4.4,0-4.4,2.51v0c0,1.74,1,2.25,2.53,2.25h3.9Z"/><path id="Path_5" data-name="Path 5" class="cls-1" d="M94.33,92.4V70h6.76V92.4Z"/><path id="Path_6" data-name="Path 6" class="cls-1" d="M108.67,83.88s0,.17,0,.4c.09,2.33.81,3.1,5.16,3.1l9.41,0v5h-9.72c-8.12,0-11.55-2.17-11.55-10.29V80.74c0-7.74,3.7-11.16,10.71-11.16,8.32,0,10.57,5.28,10.57,11.66v2.65Zm7.93-4.82c0-2.46-.5-4.67-4-4.67s-3.93,2.25-3.93,4.67v.31h7.9Z"/><path id="Path_7" data-name="Path 7" class="cls-1" d="M23.83,92.4H17.05V77.85c0-6,.9-7.83,7.82-7.83h4.54V75H26.63c-3,0-2.8,1.84-2.8,4.15Z"/><path id="Path_8" data-name="Path 8" class="cls-1" d="M64,70.07l-.41,0c-.52,0-1.07,0-1.66,0H60.19c-.6,0-1.16,0-1.69,0l-.37,0c-5.36.37-7.38,2.4-7.38,7.78V92.41h6.8v-.34l0-13.83v-.39c0-2.47.78-2.84,3.53-2.89s3.59.41,3.59,2.89v.39l0,14v.13H71.4V77.85C71.41,72.47,69.39,70.44,64,70.07Z"/><path id="Path_9" data-name="Path 9" class="cls-1" d="M85.92,80.81,93.72,70H86.49l-7,9.92V60.82H70.13C65.55,60.82,65,60,65,57.34H79.54V54.68C79.54,48.3,77.29,43,69,43c-7,0-10.69,3.42-10.69,11.15v1.37c0,8.13,3.42,10.3,11.54,10.3h2.92V92.39H79.5V82L86.33,92.4H94ZM65,52.51c0-2.41.59-4.67,3.93-4.67s4,2.22,4,4.67v.31H65Z"/></g></svg>