<svg id="Layer_1" data-name="Layer 1" xmlns="http://www.w3.org/2000/svg" viewBox="0 0 167.74 60.54"><defs><style>.cls-1{fill:#2cade3;}.cls-2{fill:#fff;}</style></defs><path d="M61.4,26.4c2.1-3.1,7.2-2.79,8.73.08a14.89,14.89,0,0,1,1.64-1.33A5.59,5.59,0,0,1,77.9,25a5.66,5.66,0,0,1,2.4,3.37,9.68,9.68,0,0,1,.4,2.88c0,2.72,0,5.44,0,8.16,0,.64-.1.74-.75.74H76.82c-.65,0-.78-.13-.78-.77,0-2.69,0-5.39,0-8.08A3.94,3.94,0,0,0,75.79,30a2,2,0,0,0-2-1.35A2.19,2.19,0,0,0,71.69,30a3.85,3.85,0,0,0-.27,1.38c0,2.66,0,5.32,0,8,0,.69-.1.79-.78.79H67.44c-.53,0-.67-.15-.68-.68,0-2.75,0-5.49,0-8.23a2.56,2.56,0,0,0-1-2.23,2.26,2.26,0,0,0-3.58,1.64,5.22,5.22,0,0,0-.07.88v7.91c0,.58-.12.71-.71.71H58.15c-.74,0-.83-.09-.83-.81V25.05c0-.54.14-.67.68-.68h2.07a.93.93,0,0,1,1,.78C61.19,25.56,61.29,26,61.4,26.4Z"/><path d="M112.27,25.71c0-.18,0-.31,0-.43V20.57c0-.67.12-.79.79-.79h3.27c.54,0,.69.14.69.67V39.54c0,.5-.14.64-.64.64-.89,0-1.78,0-2.67,0a.87.87,0,0,1-.91-.59c-.13-.3-.25-.61-.39-1-.2.18-.38.36-.58.52a5.76,5.76,0,0,1-5.47,1,7.73,7.73,0,0,1-5.62-6.84,8.67,8.67,0,0,1,1.66-6.23A7.32,7.32,0,0,1,110,24.45,5.65,5.65,0,0,1,112.27,25.71Zm-7.09,6.57v.36a3.77,3.77,0,0,0,2.57,3.45,3.91,3.91,0,1,0,.24-7.62A3.81,3.81,0,0,0,105.18,32.28Z"/><path d="M140,26.16c.13-.37.31-.82.46-1.28a.62.62,0,0,1,.7-.5c.81,0,1.61,0,2.42,0,.46,0,.6.15.6.6q0,7.28,0,14.56c0,.51-.12.63-.64.63-.85,0-1.71,0-2.56,0a.77.77,0,0,1-.81-.51c-.15-.35-.3-.69-.43-1a16.28,16.28,0,0,1-1.6,1.1A6.22,6.22,0,0,1,133,40a7.59,7.59,0,0,1-5.23-5.71,8.11,8.11,0,0,1,4-9.21,6.78,6.78,0,0,1,6.21-.33A13.49,13.49,0,0,1,140,26.16Zm-.53,6.16c0-.25,0-.52-.1-.77a3.77,3.77,0,0,0-5.23-2.79,4,4,0,0,0-2.05,4.53,3.54,3.54,0,0,0,2.92,2.86A3.83,3.83,0,0,0,139.51,32.32Z"/><path d="M87.79,33.81a3.47,3.47,0,0,0,2.76,2.64,4.86,4.86,0,0,0,4.26-1.19c.43-.41.67-.36,1,.11l1.44,2c.29.41.26.6-.12.94a8.35,8.35,0,0,1-13.32-2.91,8,8,0,0,1,5.42-10.94,7.44,7.44,0,0,1,9.18,6.43,12.16,12.16,0,0,1,0,2.09.83.83,0,0,1-.78.75,4.37,4.37,0,0,1-.88.08h-9Zm.26-3.57h6.11A3.36,3.36,0,0,0,91.07,28,3.32,3.32,0,0,0,88.05,30.24Z"/><path d="M151.29,26.48a6,6,0,0,1,10.65,2.83,10.72,10.72,0,0,1,.13,1.7c0,2.81,0,5.63,0,8.44,0,.6-.13.73-.73.73h-3.21c-.57,0-.7-.13-.7-.69,0-2.61,0-5.23,0-7.84a4,4,0,0,0-.2-1.25,2.55,2.55,0,0,0-2.69-1.77A2.72,2.72,0,0,0,152,31a6.07,6.07,0,0,0-.06.85q0,3.75,0,7.48a.77.77,0,0,1-.83.88c-1.12,0-2.24,0-3.35,0-.44,0-.56-.17-.56-.68V28.2c0-1.05,0-2.11,0-3.17,0-.49.14-.63.63-.64H150a1,1,0,0,1,1,.76c.06.22.11.44.16.66S151.22,26.22,151.29,26.48Z"/><path d="M120.31,32.27V25.08c0-.52.16-.69.67-.69h3.42c.51,0,.67.17.67.69V39.53c0,.51-.13.65-.65.65H121c-.53,0-.65-.12-.65-.65Z"/><path d="M122.7,22.49c-.49,0-1,0-1.49,0-.66,0-.91-.26-.91-.91s0-1.56,0-2.35.32-1,1-1c.94,0,1.87,0,2.81,0a.84.84,0,0,1,1,.94q0,1.26,0,2.52a.72.72,0,0,1-.81.82C123.75,22.5,123.23,22.49,122.7,22.49Z"/><circle class="cls-1" cx="27.52" cy="29.34" r="23.96"/><path class="cls-2" d="M15.38,18.29s2.3-1,2.79-1.13a6,6,0,0,1,6.61,2.3l8.7,19.79a2.42,2.42,0,0,1-1.59,2.82,6,6,0,0,1-6.51-1.55,9.6,9.6,0,0,1-1.25-2.15C23.46,36.88,15.38,18.29,15.38,18.29Z"/><path class="cls-2" d="M26.87,18.31A19.76,19.76,0,0,1,30.09,17a6,6,0,0,1,6.38,3l8.37,19.06a2.23,2.23,0,0,1-1.51,3,5.88,5.88,0,0,1-6.4-1.42s-.84-1.26-1.51-2.47S26.87,18.31,26.87,18.31Z"/><path class="cls-2" d="M10.2,32.34a2.24,2.24,0,0,1,1.21-2.77,5.59,5.59,0,0,1,3.42-.39A5.84,5.84,0,0,1,18.91,32s2.32,4.88,2.86,6.54a4,4,0,0,1,.35,1.15,2.36,2.36,0,0,1-2.05,2.58,5.88,5.88,0,0,1-5.19-.91,9,9,0,0,1-2-2.68C12.29,37.25,10.2,32.34,10.2,32.34Z"/></svg>