<svg id="Layer_1" data-name="Layer 1" xmlns="http://www.w3.org/2000/svg" viewBox="0 0 146.29 46.18"><defs><style>.cls-1{fill:#0f2517;}.cls-2{fill:#106cb6;}.cls-3{fill:#acc337;}.cls-4{fill:#ec1f31;}</style></defs><g id="svg6596"><path class="cls-1" d="M54.46,19.79h4.18a4.38,4.38,0,0,1,2.81.86,2.89,2.89,0,0,1,1.23,2.24,4.92,4.92,0,0,1-.37,2.31,3,3,0,0,1-1.57,1.21,6.41,6.41,0,0,1-2,.42l-1.82,0v3.5H54.46V19.79Zm2.44,2.26h0v2.73h1.53a1.64,1.64,0,0,0,1.15-.42,1.28,1.28,0,0,0,.5-1,1.12,1.12,0,0,0-.55-1A2.34,2.34,0,0,0,58.11,22H56.9Z"/><polygon class="cls-1" points="64.1 19.79 70.88 19.79 70.88 21.89 66.59 21.89 66.59 23.81 70.74 23.81 70.74 26.09 66.59 26.09 66.59 28.01 70.88 28.01 70.88 30.37 64.1 30.37 64.1 19.79"/><path class="cls-1" d="M73.21,19.79h4.34a3.52,3.52,0,0,1,2.49.84,3.44,3.44,0,0,1,1,2.26,2.76,2.76,0,0,1-.26,1.7,3.34,3.34,0,0,1-2,1.42L82,30.37H79l-3.1-4.2h-.28v4.2H73.21Zm2.47,2.05h0v2.73h.89c1.29,0,1.92-.63,1.92-1.6s-1.15-1.13-1.89-1.13Z"/><polygon class="cls-1" points="82.17 19.79 90.28 19.79 90.28 22.07 87.5 22.07 87.5 30.37 84.9 30.37 84.9 22.07 82.17 22.07 82.17 19.79"/><path class="cls-1" d="M93.33,19.79h2.6L99.5,30.37H96.88l-.68-1.92H93l-.81,1.92H89.73Zm1.26,3.41h0l-1.15,3.29h2.15Z"/><polygon class="cls-1" points="102.08 19.79 104.5 19.79 106.49 25.67 108.64 19.79 111.06 19.79 112.45 30.37 110.06 30.37 109.35 24.36 106.96 30.37 105.99 30.37 103.73 24.25 102.71 30.37 100.5 30.37 102.08 19.79"/><polygon class="cls-1" points="114.08 19.79 116.58 19.79 116.58 30.37 114.08 30.37 114.08 19.79"/><polygon class="cls-1" points="126.01 19.84 128.32 19.84 128.32 30.37 125.77 30.37 121.36 24.09 121.36 30.37 118.86 30.37 118.86 19.84 121.23 19.84 126.01 26.35 126.01 19.84"/><path class="cls-1" d="M133.47,19.79h2.6l3.57,10.58H137l-.68-1.92h-3.21l-.81,1.92h-2.44Zm1.26,3.41h0l-1.16,3.29h2.15Z"/><path class="cls-2" d="M6.21,37.75S14.59,24.44,16,22.23s2.55-2.42,6.31-2.42h8.3a9.56,9.56,0,0,0-1.95,2.29L20.16,35.7c-.84,1.53-2.63,2.08-4.78,2.08H6.21Z"/><path class="cls-3" d="M39.3,19.79c-3.78,0-5,.21-6.38,2.41l-5.3,8.17h9.66a4.67,4.67,0,0,0,4-2L47,19.79Z"/><path class="cls-4" d="M35.34,6.71c3.78,0,5,.21,6.38,2.41S47,17.29,47,17.29H37.36a4.64,4.64,0,0,1-4-2l-5.7-8.61Z"/></g></svg>