<svg id="Layer_1" data-name="Layer 1" xmlns="http://www.w3.org/2000/svg" viewBox="0 0 172.05 78.84"><defs><style>.cls-1{fill:#cb2026;}.cls-2{fill:#376833;}.cls-3{fill:#fff;}.cls-4{fill:#3a6832;}.cls-5{fill:#c09e34;}</style></defs><rect class="cls-1" x="5.91" y="11.8" width="161.62" height="49.4"/><rect class="cls-2" x="5.91" y="11.8" width="6.94" height="2.19"/><path class="cls-3" d="M72.9,12.41h0c.42,0,.54.2.55.59a5.68,5.68,0,0,1-.15,1.54c-.4,1.52-.86,3-1.3,4.54Q70,26,67.94,32.88a2.09,2.09,0,0,0-.08.23l-.09,0-8.5-20.71H57.63c-2.6,7-5.18,14-7.79,21.07a2.5,2.5,0,0,1-.12-.24c-1.91-6.25-3.91-12.48-5.55-18.8a10.61,10.61,0,0,1-.27-1.56c0-.43.05-.47.47-.47H37.42a.61.61,0,0,1,.57.36,18.51,18.51,0,0,1,.9,2Q42.28,24.88,45.63,35l1.92,5.75a2.93,2.93,0,0,0,.35.71.42.42,0,0,0,.72.07A2.26,2.26,0,0,0,49,41c.4-.84.83-1.67,1.17-2.53C52.46,32.62,54.7,26.78,57,21c.13-.33.25-.66.4-1.06.07.16.12.24.15.32q4,9.62,7.92,19.23a18.73,18.73,0,0,0,.86,1.88c.3.55.77.53,1.08,0a4.76,4.76,0,0,0,.38-.9c1.26-3.82,2.48-7.65,3.77-11.46,1.62-4.82,3.28-9.61,4.94-14.41a14.25,14.25,0,0,1,.75-1.64.75.75,0,0,1,.66-.46h-5Z"/><path class="cls-3" d="M100.08,30.86V24c0-.37,0-.75-.06-1.11a1.05,1.05,0,0,0-.79-1c-.41-.11-.85-.15-1.27-.22a2.42,2.42,0,0,1-.47-.06.31.31,0,0,1-.17-.23.29.29,0,0,1,.18-.21,1.48,1.48,0,0,1,.47-.06l4.44.06c1.07,0,2.14,0,3.21-.06.21,0,.52-.05.54.25s-.3.27-.52.3l-.76.1a1,1,0,0,0-1,1c-.07.9-.1,1.8-.11,2.7,0,1.3,0,2.6,0,3.9,0,.4,0,.41.41.41h9.91c.31,0,.4-.1.39-.4,0-2,0-4.05-.06-6.07,0-1-.23-1.47-1.59-1.64-.27,0-.55,0-.82-.07s-.21-.16-.31-.24a1.26,1.26,0,0,1,.31-.26.93.93,0,0,1,.34,0h7.56a.58.58,0,0,1,.66.27c-.09.08-.17.22-.28.25-.32.06-.65.07-1,.12a1,1,0,0,0-1,1.09c-.06,1.13-.11,2.26-.11,3.4q0,5.88.06,11.78a10.76,10.76,0,0,0,.17,1.7,1,1,0,0,0,.87.84c.44.06.88.08,1.33.12.11,0,.25,0,.34,0a1.1,1.1,0,0,1,.29.28,1.09,1.09,0,0,1-.29.24,1.27,1.27,0,0,1-.44,0c-1.75,0-3.51,0-5.27-.06-.82,0-1.65,0-2.47.06a1.27,1.27,0,0,1-.44,0c-.09,0-.22-.16-.21-.22a.43.43,0,0,1,.21-.27,1,1,0,0,1,.38,0c1.21,0,1.59-.33,1.62-1.52.08-2.49.1-5,.14-7.46,0-.27-.14-.29-.34-.29h-10c-.29,0-.4.08-.4.39,0,2.28.08,4.55.13,6.83a5.68,5.68,0,0,0,.13,1.07,1,1,0,0,0,.88.86c.44.06.88.08,1.33.12.11,0,.25,0,.34,0a.54.54,0,0,1,.24.28c0,.07-.14.2-.24.23a1.5,1.5,0,0,1-.47,0l-5.34-.06c-.82,0-1.65,0-2.47.06-.24,0-.57.05-.56-.3s.31-.28.54-.28c1.25,0,1.62-.33,1.66-1.56.08-2.75.12-5.51.18-8.26Z"/><path class="cls-3" d="M148.76,21.06c2.19.06,4.38.06,6.57.2a11.4,11.4,0,0,1,6,1.9,8.61,8.61,0,0,1,3.63,5.89,10.58,10.58,0,0,1-1.73,8,10,10,0,0,1-5.84,3.89,17.94,17.94,0,0,1-5.79.55c-2.1-.11-4.21-.2-6.31-.28-.61,0-1.23,0-1.84,0a.81.81,0,0,1-.22,0c-.22,0-.48,0-.47-.3s.25-.27.46-.28l.76,0a.82.82,0,0,0,.85-.74,9.37,9.37,0,0,0,.2-1.57q0-5.82.06-11.62c0-1.16,0-2.31,0-3.46s-.49-1.46-1.52-1.54l-.82-.05c-.19,0-.4,0-.39-.28s.23-.25.41-.25l2.51,0h3.55Zm12.42,11.06c-.07-.83-.09-1.39-.16-1.95a7.92,7.92,0,0,0-4.93-6.7,11.56,11.56,0,0,0-4.44-.94,19.58,19.58,0,0,0-2,.06c-.67.05-.8.21-.8.87,0,3,0,6,0,9,0,1.81.06,3.62.11,5.43,0,1.18.39,1.59,1.53,2l.15,0a10.68,10.68,0,0,0,6.56-.53,6,6,0,0,0,3.6-4.28C161,34,161.06,32.93,161.18,32.12Z"/><path class="cls-3" d="M75.19,41.26h-3a.79.79,0,0,1-.31,0c-.13-.06-.29-.16-.32-.27s.12-.29.32-.3l.63,0a2.1,2.1,0,0,0,1.73-1,9.29,9.29,0,0,0,.68-1.29Q78.57,30,82.19,21.66a3.87,3.87,0,0,1,.41-.78.52.52,0,0,1,.93,0,6.71,6.71,0,0,1,.42.85q3.43,8,6.87,15.93a19.17,19.17,0,0,0,.91,1.74,2.41,2.41,0,0,0,2.32,1.27c.22,0,.53-.06.54.28s-.33.29-.54.29l-6.28-.06a.51.51,0,0,1-.25,0c-.09,0-.22-.13-.21-.18a.44.44,0,0,1,.19-.25c.45-.19.5-.3.32-.76-.66-1.68-1.34-3.36-2-5.05a.5.5,0,0,0-.54-.36h-6.1a.45.45,0,0,0-.5.33c-.46,1.16-1,2.32-1.41,3.49a7.39,7.39,0,0,0-.38,1.47c-.08.48.12.72.59.8a6.55,6.55,0,0,0,.89,0c.2,0,.4,0,.4.3s-.21.28-.41.28ZM85,33c-.92-2.38-1.82-4.7-2.73-7h-.08l-2.81,7Z"/><path class="cls-3" d="M129.75,30.94V24c0-.31,0-.62,0-.92a1.33,1.33,0,0,0-1.4-1.41,4.77,4.77,0,0,1-.66-.05c-.12,0-.2-.17-.3-.26.09-.08.17-.2.28-.24a.92.92,0,0,1,.37,0h7.21a.79.79,0,0,1,.31,0,1.61,1.61,0,0,1,.29.24c-.1.09-.18.24-.29.27-.31.06-.63.06-.94.12a1,1,0,0,0-1,1.07c-.06,1.13-.11,2.26-.11,3.39,0,4,0,8,.05,11.94a11.33,11.33,0,0,0,.12,1.42,1,1,0,0,0,1,1c.43.07.88.08,1.32.12a1,1,0,0,1,.31,0,1.33,1.33,0,0,1,.3.28c-.09.09-.17.21-.28.25a1.11,1.11,0,0,1-.41,0c-1.79,0-3.57,0-5.36-.06-.84,0-1.67,0-2.51.06-.23,0-.54,0-.55-.28s.3-.28.53-.3.45,0,.66-.06c.61-.08.88-.31.95-.93.09-.92.16-1.85.18-2.78,0-2,0-4,0-6Z"/><path class="cls-3" d="M81.21,44.94c1.29,0,2.58-.06,3.87,0a8.58,8.58,0,0,1,2.4.52,5.17,5.17,0,0,1,3.36,5.17,5.91,5.91,0,0,1-5.11,6,11.24,11.24,0,0,1-3.12.14,30.59,30.59,0,0,0-4.28-.09c-.17,0-.49-.1-.48-.14,0-.29.27-.17.44-.19.57-.08.73-.18.79-.76a20.1,20.1,0,0,0,.1-2.05c0-2.31,0-4.62,0-6.92,0-.14,0-.28,0-.42,0-.67-.23-.9-.9-1-.15,0-.3,0-.44,0a.87.87,0,0,1-.27-.17,1.57,1.57,0,0,1,.25-.14.75.75,0,0,1,.26,0h3.14Zm.16,5.5h0c0,.69,0,1.37,0,2.06s0,1.4,0,2.1.24,1.07,1,1.27a6.62,6.62,0,0,0,2.43.05A3.84,3.84,0,0,0,88.31,53a7.35,7.35,0,0,0,.13-3A4.52,4.52,0,0,0,86.76,47a6.74,6.74,0,0,0-5-1.21c-.33,0-.43.21-.43.53C81.38,47.67,81.37,49.05,81.37,50.44Z"/><path class="cls-3" d="M140.41,44.61a9.84,9.84,0,0,1,3.06.6A5.21,5.21,0,0,1,147,49.8a6.15,6.15,0,0,1-3.26,6.3,7.63,7.63,0,0,1-4.28.76,6.22,6.22,0,0,1-3.59-1.37,5.84,5.84,0,0,1-2-6A5.69,5.69,0,0,1,138.2,45,20.33,20.33,0,0,1,140.41,44.61Zm4.21,6.7c-.07-.69-.1-1.19-.19-1.69a4.63,4.63,0,0,0-4-4.06,3.52,3.52,0,0,0-4.09,2.61,7.3,7.3,0,0,0,.14,4.64A4.52,4.52,0,0,0,140,56a3.44,3.44,0,0,0,4.18-2.49A15.69,15.69,0,0,0,144.62,51.31Z"/><path class="cls-3" d="M31.22,44.68a8.14,8.14,0,0,1,3.05.53,5.22,5.22,0,0,1,3.47,4.59,6.08,6.08,0,0,1-3.2,6.26A7.46,7.46,0,0,1,27.38,56a6,6,0,0,1,1.43-11,24,24,0,0,1,2.4-.41Zm-4.47,5.55a18.69,18.69,0,0,0,.38,2.18,4.6,4.6,0,0,0,3.17,3.42A3.58,3.58,0,0,0,35.16,53a8.26,8.26,0,0,0,.06-3.43,4.63,4.63,0,0,0-4-4,3.49,3.49,0,0,0-4,2.51A19.56,19.56,0,0,0,26.75,50.23Z"/><path class="cls-3" d="M162.15,53.55s0-.07,0-.11c-.06-2.41-.11-4.82-.19-7.24,0-.73-.3-1-1-1a1.85,1.85,0,0,1-.41,0c-.06,0-.13-.1-.15-.16s.08-.11.14-.13a.74.74,0,0,1,.26,0h3.58a.57.57,0,0,1,.19,0,1,1,0,0,1,.21.15c-.06,0-.12.14-.2.16s-.34,0-.5.06a.64.64,0,0,0-.57.56,4.48,4.48,0,0,0-.06.63c-.06,3.21-.13,6.41-.19,9.62a.81.81,0,0,1,0,.22c-.07.2-.14.4-.22.6a2.29,2.29,0,0,1-.62-.24c-.76-.69-1.51-1.39-2.24-2.11q-3.06-3-6.1-6.08a1.7,1.7,0,0,1-.18-.26l-.09.06a1.64,1.64,0,0,0,0,.23c.07,2.17.13,4.34.2,6.51a.76.76,0,0,0,0,.15c.08,1,.29,1.17,1.25,1.22a.29.29,0,0,1,.13,0l.24.15c-.08.06-.17.17-.26.17-.57,0-1.14,0-1.71,0l-2.13,0a1.31,1.31,0,0,1-.28,0c-.07,0-.12-.1-.18-.14s.11-.16.19-.18.37,0,.56,0c.43,0,.58-.19.64-.62a7.9,7.9,0,0,0,.07-.85c.05-3.11.09-6.22.14-9.34a4,4,0,0,1,.05-.6c.06-.3.25-.37.51-.19a3.92,3.92,0,0,1,.37.34l8.26,8.27a1.35,1.35,0,0,1,.19.33Z"/><path class="cls-3" d="M70,53.61c0-.5,0-.94,0-1.38,0-1.76-.09-3.53-.13-5.3,0-.27,0-.55-.05-.82a.82.82,0,0,0-.87-.89c-.18,0-.36,0-.54,0s-.12-.11-.19-.17a1.15,1.15,0,0,1,.19-.14.81.81,0,0,1,.22,0h3.59a.61.61,0,0,1,.19,0,1,1,0,0,1,.21.15c-.07,0-.13.14-.21.16s-.35,0-.53.07a.59.59,0,0,0-.52.52,4.41,4.41,0,0,0-.08.72q-.09,4.83-.19,9.66c0,.25.08.58-.22.7s-.51-.11-.72-.3C67.4,53.93,64.6,51.31,62,48.5c-.09-.09-.16-.19-.3-.36a1.81,1.81,0,0,0,0,.34c.06,2.17.13,4.34.19,6.51a.49.49,0,0,0,0,.12c.07,1,.29,1.19,1.26,1.25,0,0,.09,0,.12,0a2.07,2.07,0,0,1,.25.15,1.92,1.92,0,0,1-.26.17s-.11,0-.16,0H59.32a.41.41,0,0,1-.19,0,1.37,1.37,0,0,1-.21-.15c.08-.06.14-.15.22-.17a4.93,4.93,0,0,1,.54,0c.42-.06.58-.19.63-.62a7,7,0,0,0,.07-.91l.15-9.4a2.59,2.59,0,0,1,0-.48c.07-.3.25-.38.51-.19a4.27,4.27,0,0,1,.44.41l8.25,8.24A3.47,3.47,0,0,0,70,53.61Z"/><path class="cls-3" d="M52.15,49.29c0-1,0-2.06,0-3.08,0-.73-.26-1-1-1a2.34,2.34,0,0,1-.38,0c-.07,0-.11-.11-.16-.17a.61.61,0,0,1,.16-.12.71.71,0,0,1,.25,0h3.65a.57.57,0,0,1,.19,0,1,1,0,0,1,.22.14.87.87,0,0,1-.22.17,1.38,1.38,0,0,1-.35,0c-.59.1-.73.23-.74.83,0,1.46,0,2.92-.06,4.38,0,.71,0,1.42-.06,2.13a4.27,4.27,0,0,1-3.37,4.17,7.32,7.32,0,0,1-3.8-.13,3.85,3.85,0,0,1-2.74-3.3,10,10,0,0,1-.13-1.64c0-1.57,0-3.14,0-4.7,0-.22,0-.45,0-.67,0-.8-.28-1-1.08-1.09h-.06c-.16,0-.4.09-.42-.18,0,0,.27-.14.41-.14h4.29a.55.55,0,0,1,.22,0,1.06,1.06,0,0,1,.23.16,1.05,1.05,0,0,1-.24.15,3.32,3.32,0,0,1-.44.06c-.42.08-.58.23-.6.66,0,.73-.06,1.46-.06,2.19,0,1.57,0,3.15.07,4.73a3.22,3.22,0,0,0,1.14,2.52,3.1,3.1,0,0,0,5-1.91A22,22,0,0,0,52.18,51c0-.57,0-1.14,0-1.71Z"/><path class="cls-3" d="M95.76,56.7c-.59,0-1.18,0-1.77,0-.11,0-.21-.11-.31-.17.1-.06.2-.16.29-.16a1.62,1.62,0,0,0,1.62-1.22q2.14-5,4.3-9.91a2.18,2.18,0,0,1,.22-.43c.17-.26.41-.25.58,0a3.07,3.07,0,0,1,.24.48l3.93,9.11c.17.38.36.74.56,1.1a1.53,1.53,0,0,0,1.41.87c.11,0,.21.1.32.16-.11.06-.21.16-.31.16-1.23,0-2.46,0-3.68,0a1,1,0,0,1-.27-.1c.06-.07.15-.12.2-.2s.14-.25.1-.35c-.39-1-.79-2.05-1.21-3.06a.33.33,0,0,0-.26-.16c-1.2,0-2.4,0-3.59,0a.31.31,0,0,0-.25.13c-.36.89-.73,1.78-1,2.69-.19.56,0,.74.59.77.16,0,.43-.1.43.17s-.27.16-.42.17Zm5.79-4.83-1.61-4.14-1.66,4.14Z"/><path class="cls-3" d="M115,45.93a.92.92,0,0,0,0,.18q0,3.9,0,7.78c0,.58,0,1.17.11,1.74s.25.64.73.68c.23,0,.46,0,.69.06s.18.1.27.16a1.07,1.07,0,0,1-.27.16.93.93,0,0,1-.29,0h-4.31a1.13,1.13,0,0,1-.32,0c-.06,0-.11-.1-.16-.16s.11-.13.17-.15a2.59,2.59,0,0,1,.48,0,.57.57,0,0,0,.58-.56,16.38,16.38,0,0,0,.12-1.71c0-2.65,0-5.31,0-8v-.15H110a1.34,1.34,0,0,0-1.46,1c0,.07-.13.11-.2.16s-.14-.2-.13-.28q.12-.78.27-1.53c.13-.63.14-.6.75-.49a9.26,9.26,0,0,0,1.49.12h6.89a13.57,13.57,0,0,0,1.42-.11c.2,0,.3,0,.3.24,0,.64,0,1.27,0,1.91,0,.1-.11.2-.17.3-.06-.1-.17-.2-.17-.3a.91.91,0,0,0-.7-.88,2.9,2.9,0,0,0-.71-.15C116.71,45.92,115.85,45.93,115,45.93Z"/><path class="cls-3" d="M11.3,45a5,5,0,0,1,.54-.06l6.54,0a3.69,3.69,0,0,0,.93-.15c.22-.06.28,0,.26.21-.07.63-.12,1.26-.2,1.89,0,.11-.13.21-.19.32-.06-.11-.17-.21-.18-.33-.07-.67-.33-.95-1-1l-2.6-.07c-.23,0-.3.07-.3.29v3.59c0,.19.06.26.25.26.89,0,1.78,0,2.67,0a1,1,0,0,0,.88-.35s.12-.05.19-.07.07.13.06.2c0,.72-.11,1.45-.19,2.18,0,.08-.11.15-.17.23-.05-.08-.14-.15-.15-.23-.19-.85-.38-1-1.25-1l-2,0c-.09,0-.25.12-.25.18,0,1.52.05,3,.11,4.57,0,.52.24.68.78.73.22,0,.45,0,.67,0,.07,0,.13.1.2.16a.78.78,0,0,1-.2.16.69.69,0,0,1-.25,0H12a.53.53,0,0,1-.22,0,.78.78,0,0,1-.21-.16c.07-.05.12-.14.2-.16a2.71,2.71,0,0,1,.41,0c.41-.06.56-.17.61-.6a16,16,0,0,0,.12-1.7c0-2.48,0-5,0-7.44v-.31c0-.78-.28-1-1.07-1.08l-.55-.06Z"/><path class="cls-3" d="M126.48,56.7h-2.19a.93.93,0,0,1-.29,0c-.07,0-.12-.12-.18-.18s.11-.12.18-.14l.54-.06a.53.53,0,0,0,.52-.5c0-.59.11-1.18.11-1.77,0-2.49,0-5,0-7.46,0-.13,0-.26,0-.38,0-.72-.28-1-1-1a.55.55,0,0,1-.22,0,1.14,1.14,0,0,1-.17-.15c.06-.06.11-.13.17-.15a.93.93,0,0,1,.29,0h4.06a.43.43,0,0,1,.16,0c.09,0,.17.1.26.15a2.46,2.46,0,0,1-.27.17,1.09,1.09,0,0,1-.19,0c-.67.07-.83.22-.85.89,0,.92-.06,1.84,0,2.76q0,3.22,0,6.45a1.83,1.83,0,0,0,0,.4.62.62,0,0,0,.64.59c.25,0,.51,0,.76.07a.87.87,0,0,1,.27.14c-.09.07-.18.18-.27.18-.8,0-1.59,0-2.38,0Z"/><path class="cls-4" d="M160.16,69.4c-.64-1.19-1.28-2.39-1.93-3.58h-.06c0,.4-.09.8-.13,1.2l-.15,1.67c0,.5,0,.5.43.69H157c.46-.06.45-.42.49-.76.17-1.34.33-2.68.5-4a2,2,0,0,1,.06-.23l.09,0,2.28,4.23,2.19-4.21.08,0a1.65,1.65,0,0,1,.07.32l.45,3.72c.09.77.1.77.79,1h-1.31c-.13-1.25-.25-2.46-.37-3.66l-.08,0c-.64,1.22-1.27,2.44-1.91,3.65Z"/><path class="cls-4" d="M29.65,69.31c.32,0,.41-.17.41-.42,0-.66,0-1.31,0-2s0-1.2,0-1.8-.05-.52-.5-.61a.23.23,0,0,1,0,0,28.19,28.19,0,0,1,3.32.11A2.21,2.21,0,0,1,35,66.94a2.48,2.48,0,0,1-2.23,2.44,18.72,18.72,0,0,1-2.12,0h-1Zm1.08-2.57h0c0,.64,0,1.29,0,1.93a.45.45,0,0,0,.41.48,3.24,3.24,0,0,0,2-.13,1.74,1.74,0,0,0,1-.94,2.36,2.36,0,0,0-1.68-3.31,10.1,10.1,0,0,0-1.35-.1c-.26,0-.38.11-.37.39C30.74,65.62,30.73,66.18,30.73,66.74Z"/><path class="cls-4" d="M48.87,69.5l-4.24-4c0,.09,0,.16,0,.22,0,1,0,1.93.08,2.89,0,.63,0,.65.62.82H43.78c.57-.08.47-.51.48-.88V64.75c0-.13,0-.26,0-.39l.09,0,4.26,4.18c0-.15,0-.24,0-.33,0-1,0-1.92-.07-2.88,0-.63,0-.63-.64-.8h1.47c-.49,0-.41.43-.41.76,0,1.27,0,2.54,0,3.81v.37Z"/><path class="cls-4" d="M58,67c-.41,0-.45.33-.44.65s0,.85,0,1.27a.37.37,0,0,1-.3.41,4.4,4.4,0,0,1-3.25-.17,2.5,2.5,0,0,1,.56-4.67,5.47,5.47,0,0,1,2.17,0l.8.13,0,1c-.22-.69-.79-.84-1.39-.92a2.54,2.54,0,0,0-2.21.52,2.14,2.14,0,0,0-.51,2.21,2.63,2.63,0,0,0,3.17,1.86A.42.42,0,0,0,57,68.7c0-.34,0-.68,0-1,0-.55,0-.58-.55-.71Z"/><path class="cls-4" d="M68.72,69.38H66.83c.44-.06.47-.41.47-.73,0-1.5,0-3,0-4.51,0-.41-.29-.49-.61-.56h1.08c.49,0,1,0,1.48,0a1.31,1.31,0,0,1,1.3,1,1.62,1.62,0,0,1-.64,1.68,1.75,1.75,0,0,1-1.47.33l.29,0A1.32,1.32,0,0,0,70,65.28a1.47,1.47,0,0,0-1.31-1.5c-.69-.06-.72,0-.72.65,0,1.35,0,2.69,0,4C68,69.17,68,69.17,68.72,69.38Z"/><path class="cls-4" d="M113.66,64.47h1.4c-.37.08-.4.35-.4.65,0,.69,0,1.38,0,2.06a2.12,2.12,0,0,1-2.86,2.26,1.69,1.69,0,0,1-1.4-1.62c0-.73,0-1.46,0-2.19v-.38c0-.59,0-.59-.55-.78h1.58c-.41.09-.37.42-.38.72v2.25a5.51,5.51,0,0,0,.06.57,1.46,1.46,0,0,0,1.54,1.27A1.37,1.37,0,0,0,114.1,68c.09-1,.05-2.11.06-3.17C114.16,64.54,113.87,64.56,113.66,64.47Z"/><path class="cls-4" d="M8.92,68.19c.33.89.78,1.19,1.62,1a1.07,1.07,0,0,0,.71-1.74,7.16,7.16,0,0,0-.8-.75,9.76,9.76,0,0,1-1-.91,1.37,1.37,0,0,1,.9-2.34,10.32,10.32,0,0,1,1.57,0l-.05,1c-.11-.32-.25-.62-.61-.69a2.4,2.4,0,0,0-1-.06.87.87,0,0,0-.54,1.42,3.89,3.89,0,0,0,.7.64c.3.26.64.49.94.75A1.65,1.65,0,0,1,12,68.37a1.53,1.53,0,0,1-1.47,1.11,7.76,7.76,0,0,1-1.35-.11A.3.3,0,0,1,8.88,69C8.9,68.74,8.91,68.46,8.92,68.19Z"/><path class="cls-4" d="M150.13,69.38h-1.41c.67,0,.76-.61,1-1.07l1.5-3.6c0-.12.12-.24.21-.43.09.17.16.28.22.4.55,1.27,1.1,2.54,1.66,3.81.27.61.4.72.92.88H153c-.13-.32-.24-.6-.36-.87s-.21-.71-.45-.88-.63-.06-1-.06c-.79,0-.79,0-1.08.74-.07.18-.14.35-.2.53S149.8,69.3,150.13,69.38Zm1.2-4h-.11l-.71,1.9h1.57Z"/><path class="cls-4" d="M85.58,69.38H84.33a7.34,7.34,0,0,1-.34-.9,1.1,1.1,0,0,0-1.4-.94c-.79.08-.8,0-1.1.78-.07.18-.14.35-.2.53s-.1.46.24.53H80.11c.61,0,.74-.52.92-1l1.54-3.72c.05-.12.12-.24.21-.42.1.18.17.3.23.43.56,1.27,1.11,2.54,1.66,3.81C84.94,69.12,85.06,69.22,85.58,69.38Zm-2.87-4h-.09l-.73,1.91h1.59Z"/><path class="cls-4" d="M93,64.52,93,65.68c-.14-.88-.8-1-1.48-1.07a4.92,4.92,0,0,0-1.38.1A1.58,1.58,0,0,0,89,65.77a2.5,2.5,0,0,0,1.78,3.36,4.25,4.25,0,0,0,.79.09c.67,0,1.26-.12,1.42-1a.86.86,0,0,1-.67,1.21A5.53,5.53,0,0,1,90,69.33a2.52,2.52,0,0,1,.43-4.94,5.41,5.41,0,0,1,1,0C91.94,64.38,92.46,64.46,93,64.52Z"/><path class="cls-4" d="M76.93,66.59l-.07.72a.55.55,0,0,0-.6-.4l-.79,0c-.17,0-.26,0-.26.22,0,.53,0,1.06,0,1.59a.45.45,0,0,0,.49.5h.7a.76.76,0,0,0,.83-.53,3.34,3.34,0,0,1-.1.62.37.37,0,0,1-.3.16c-.4,0-.8,0-1.2,0H74.5a2,2,0,0,1-.41,0c.55-.06.47-.48.48-.81,0-1.13,0-2.26,0-3.4,0-.54,0-.55-.51-.73h3l-.09.69c-.1-.41-.42-.43-.74-.44s-.51,0-.76,0-.26.08-.26.26c0,.49,0,1,0,1.46,0,.08.09.23.14.23C75.88,66.63,76.4,66.61,76.93,66.59Z"/><path class="cls-4" d="M99.59,64.46l-.1.81c-.16-.69-.64-.55-1-.57-.71,0-.71,0-.71.67,0,.35,0,.7,0,1,0,.07.08.21.12.21.53,0,1,0,1.59,0l-.06.68c-.12-.41-.46-.36-.76-.38-.89,0-.89,0-.89.84,0,.31,0,.63,0,1a.43.43,0,0,0,.46.49c.25,0,.51,0,.76,0s.66-.14.73-.57l.08,0a4.8,4.8,0,0,1-.12.66c0,.07-.19.13-.29.13-.43,0-.86,0-1.3,0l-1,0a1.6,1.6,0,0,1-.43,0c.5,0,.46-.39.47-.69,0-1.24,0-2.47,0-3.71,0-.34-.19-.47-.49-.53Z"/><path class="cls-4" d="M18.85,64.46l-.08.69c-.1-.41-.42-.43-.74-.44s-.51,0-.76,0-.26.08-.26.26c0,.49,0,1,0,1.46,0,.08.09.23.14.23.52,0,1,0,1.57,0l-.07.7c-.11-.36-.39-.38-.69-.39s-.49,0-.73,0c-.08,0-.21.13-.21.21,0,.54,0,1.08,0,1.62a.42.42,0,0,0,.45.46c.25,0,.51,0,.76,0s.67-.13.73-.56l.08,0a3.65,3.65,0,0,1-.12.66c0,.07-.19.12-.29.12-.43,0-.87,0-1.3,0s-.68,0-1,0a1.72,1.72,0,0,1-.44,0c.51,0,.48-.4.48-.71,0-1.22,0-2.43,0-3.65,0-.36-.19-.5-.51-.57Z"/><path class="cls-4" d="M25.59,66.59l-.08.71c-.08-.34-.33-.39-.62-.39a7,7,0,0,0-.79,0,.31.31,0,0,0-.22.21c0,.54,0,1.08,0,1.62a.42.42,0,0,0,.45.46,4.82,4.82,0,0,0,.76,0c.48,0,.57-.1.82-.52a3.67,3.67,0,0,1-.13.66c0,.07-.21.12-.32.12l-1.87,0a4.53,4.53,0,0,1-.82,0s.09-.06.13-.05c.2,0,.26-.11.28-.27a5.48,5.48,0,0,0,.05-.57c0-1.11,0-2.22,0-3.33,0-.5,0-.53-.5-.69h3l-.06.68c-.19-.55-.67-.42-1.06-.44-.71,0-.71,0-.71.68,0,.33,0,.67,0,1,0,.08.08.24.12.24C24.52,66.63,25,66.61,25.59,66.59Z"/><path class="cls-4" d="M138.82,64.48v.75l-.07,0a.67.67,0,0,0-.59-.65,2.53,2.53,0,0,0-.91,0,.7.7,0,0,0-.34,1.18,6.75,6.75,0,0,0,.83.67c.3.24.62.45.89.71a1.25,1.25,0,0,1,.33,1.37,1.23,1.23,0,0,1-1.08.86,9.53,9.53,0,0,1-1.51,0c-.25,0-.34-.17-.31-.41s0-.4.09-.62a.83.83,0,0,0,.59.78,3.46,3.46,0,0,0,1,.08.76.76,0,0,0,.69-.58.87.87,0,0,0-.24-.93c-.27-.24-.57-.44-.85-.67a6,6,0,0,1-.77-.65,1.15,1.15,0,0,1,.55-2A3,3,0,0,1,138.82,64.48Z"/><path class="cls-4" d="M106.44,66.63l-.07.72c-.13-.41-.44-.44-.78-.44s-.49,0-.73,0-.26.07-.26.26c0,.44,0,.89,0,1.33,0,.67,0,.67.65.88h-1.7c.39-.07.4-.39.4-.67,0-1.24,0-2.48,0-3.71,0-.34-.18-.48-.49-.53h3.15l-.07.68c-.16-.53-.6-.45-1-.45s-.73-.08-.9.08-.06.58-.07.88,0,.53,0,.79c0,.08.1.22.15.22C105.32,66.67,105.87,66.65,106.44,66.63Z"/><path class="cls-4" d="M122,68.55a.9.9,0,0,1,0,.15c-.07.76-.07.76-.83.76l-2.41,0a.32.32,0,0,1-.17,0c.56-.06.47-.49.48-.83,0-1.14,0-2.28,0-3.43,0-.49,0-.52-.51-.65h1.6c-.54,0-.43.45-.44.79,0,1,0,2.1,0,3.14,0,.65.12.75.76.79H121C121.63,69.19,121.73,69.13,122,68.55Z"/><path class="cls-4" d="M132.48,69.38h-1.94c.41-.07.45-.37.45-.69,0-1.5,0-3,0-4.5,0-.39-.07-.44-.59-.6h1.75c-.58.07-.47.52-.47.89,0,1.31,0,2.62,0,3.93C131.72,69.16,131.73,69.16,132.48,69.38Z"/><path class="cls-4" d="M146.22,68.55v.21c-.05.68-.07.7-.75.7l-2.47,0a.45.45,0,0,1-.19-.06c.5,0,.48-.37.48-.67,0-1.16,0-2.31,0-3.46,0-.59,0-.59-.56-.78h1.66c-.46,0-.47.35-.47.69,0,1.13,0,2.26,0,3.39,0,.51.13.6.63.64l.6,0C145.8,69.2,145.9,69.14,146.22,68.55Z"/><path class="cls-4" d="M38.62,64.47H40c-.44.1-.36.46-.36.77v3.33c.06.67,0,.63.65.8h-1.7c.45-.05.38-.41.38-.69,0-1.22,0-2.43,0-3.65C39,64.76,39,64.52,38.62,64.47Z"/><path class="cls-5" d="M38.78,27.19a9.62,9.62,0,0,0-1.11-1.85,7.77,7.77,0,0,0,.63-1.83,8.73,8.73,0,0,0,0-2.69s-.37-.2-.17-.36a2.38,2.38,0,0,0,.08-.68c0-.14-.47-.41-.64-.71a1.86,1.86,0,0,0-.54-.59c-.16-.11-1-1-1-1.41s-.55-5.27-.55-5.27-.68-4.27-.91-4.72c0,0-.09-.68-1.16-.8,0,0-7.76.09-12.57,1.51C14.4,9.68,10.43,13.11,10,14a3.79,3.79,0,0,0,.13.72c.12.55,1.19,6,1.56,7s.6,2.46,1.81,3.21c0,0,.83.62.53,2.6a7,7,0,0,0,.36,1.76c.24.48.42.77.42.77l.25.5a2.51,2.51,0,0,0,.37.57c.21.29.77.89.77.89l.25,0v.18a.58.58,0,0,1,0,.58c-.15.39-.27,1.57-2.9,4.23a11.39,11.39,0,0,0-.94,1.44c-.53.94-.81,1.46-.81,1.46s8-3.55,20.36,2.17a19.32,19.32,0,0,0-1.31-1.57v-.19s.8-1.39,1-1.45a7.6,7.6,0,0,0,2.13-1.09,4,4,0,0,0,3-2.26s0-1.21.6-1.47c0,0,.25-.21.26-.41a7.22,7.22,0,0,0-.08-.81s-.07-.21-.24-.21h-.35l-.11-.15,0-.37a2.29,2.29,0,0,0,1.09-1s-.41-1.83-.46-2a3,3,0,0,0,1.08-1.14A2.12,2.12,0,0,0,38.78,27.19ZM38,22a3.27,3.27,0,0,1-.23,2.34,4.05,4.05,0,0,0-.09-1.1S37.81,23.09,38,22Z"/></svg>